<svg width="16" height="16" viewBox="0 0 16 16" fill="none" xmlns="http://www.w3.org/2000/svg">
<path d="M13.0007 6.04907C13.0007 5.45862 12.2868 5.16292 11.8693 5.58043L2.37378 15.0759C2.11496 15.3347 1.69533 15.3347 1.43651 15.0759L0.551111 14.1905C0.29229 13.9317 0.29229 13.5121 0.551111 13.2532L10.0466 3.75776C10.4641 3.34025 10.1684 2.62637 9.57795 2.62637H1.63967C1.27135 2.62637 0.973683 2.32606 0.976942 1.95775L0.987996 0.708735C0.991214 0.345008 1.28698 0.0518452 1.65072 0.0518454L14.9124 0.0518455C15.2785 0.0518455 15.5752 0.34857 15.5752 0.714599L15.5752 13.9763C15.5752 14.34 15.282 14.6358 14.9183 14.639L13.6693 14.6501C13.301 14.6533 13.0007 14.3557 13.0007 13.9874L13.0007 6.04907Z" fill="#FFFCF3"/>
</svg>
