<svg xmlns="http://www.w3.org/2000/svg"  viewBox="0 0 64 64" width="64px" height="64px"><linearGradient id="qnTRLeJCMeUscJTW~5KpLa" x1="32" x2="32" y1="7.5" y2="16.006" gradientUnits="userSpaceOnUse" spreadMethod="reflect"><stop offset="0" stop-color="#6dc7ff"/><stop offset="1" stop-color="#e6abff"/></linearGradient><path fill="url(#qnTRLeJCMeUscJTW~5KpLa)" d="M39,15H25l0-6c0-0.552,0.448-1,1-1l12,0c0.552,0,1,0.448,1,1L39,15z"/><linearGradient id="qnTRLeJCMeUscJTW~5KpLb" x1="32" x2="32" y1="6" y2="58.51" gradientUnits="userSpaceOnUse" spreadMethod="reflect"><stop offset="0" stop-color="#1a6dff"/><stop offset="1" stop-color="#c822ff"/></linearGradient><path fill="url(#qnTRLeJCMeUscJTW~5KpLb)" d="M41,15.278L41,9c0-1.654-1.346-3-3-3H26c-1.654,0-3,1.346-3,3l0,6.278 c-0.595,0.347-1,0.985-1,1.722v2c0,0.737,0.405,1.375,1,1.722L23,25v3l0,19.287l5.497,8.782C29.255,57.278,30.564,58,32,58 s2.745-0.722,3.503-1.932L41,47.287V28v-3l0-4v-0.269c0.598-0.346,1-0.992,1-1.731v-2C42,16.263,41.595,15.625,41,15.278z M24,19v-2 l16,0l0.002,2H24z M35,28l0,15.331c-0.655-0.142-1-0.243-2-0.29V30v-5l0-4h2v4L35,28z M35.039,53.039C34.196,52.391,33.146,52,32,52 c-1.146,0-2.197,0.391-3.04,1.04l-1.597-2.552C28.711,49.526,30.325,49,32,49c1.674,0,3.289,0.526,4.637,1.487L35.039,53.039z M32,47c-2.053,0-4.033,0.635-5.698,1.793l-1.064-1.699C27.232,45.725,29.552,45,32,45c2.448,0,4.768,0.726,6.762,2.093l-1.064,1.7 C36.032,47.635,34.052,47,32,47z M29,25l0-4h2l0,4l0,5l0,13.041c-0.678,0.047-1,0.148-2,0.29V28V25z M26,8l12,0c0.552,0,1,0.448,1,1 l0,6H25l0-6C25,8.448,25.448,8,26,8z M25,25l0-4h2l0,4v3l0,15.927c-0.689,0.264-1,0.582-2,0.956V28V25z M39,25l0,3l0,16.883 c-0.643-0.374-1-0.692-2-0.956V28v-3l0-4h2V25z"/><linearGradient id="qnTRLeJCMeUscJTW~5KpLc" x1="13.5" x2="13.5" y1="6" y2="58.51" gradientUnits="userSpaceOnUse" spreadMethod="reflect"><stop offset="0" stop-color="#1a6dff"/><stop offset="1" stop-color="#c822ff"/></linearGradient><path fill="url(#qnTRLeJCMeUscJTW~5KpLc)" d="M6,28l0,8c0,1.654,1.346,3,3,3l11,0v-2L9,37c-0.552,0-1-0.448-1-1v-8c0-0.552,0.448-1,1-1l2,0 l0,2h2l0-2h2l0,2l2,0v-2h2l0,4h2v-6L9,25C7.346,25,6,26.346,6,28z"/><linearGradient id="qnTRLeJCMeUscJTW~5KpLd" x1="50.5" x2="50.5" y1="6" y2="58.51" gradientUnits="userSpaceOnUse" spreadMethod="reflect"><stop offset="0" stop-color="#1a6dff"/><stop offset="1" stop-color="#c822ff"/></linearGradient><path fill="url(#qnTRLeJCMeUscJTW~5KpLd)" d="M55,25H43l0,6h2v-4h2v2h2v-2h2v2h2v-2h2c0.552,0,1,0.448,1,1v8c0,0.552-0.448,1-1,1H43v2h12 c1.654,0,3-1.346,3-3v-8C58,26.346,56.654,25,55,25z"/></svg>