<svg width="934" height="280" viewBox="0 0 934 280" fill="none" xmlns="http://www.w3.org/2000/svg">
<rect width="934" height="280" rx="48" fill="url(#paint0_linear_202_56)"/>
<mask id="mask0_202_56" style="mask-type:alpha" maskUnits="userSpaceOnUse" x="702" y="0" width="232" height="280">
<rect x="702" width="232" height="280" rx="48" fill="url(#paint1_linear_202_56)"/>
</mask>
<g mask="url(#mask0_202_56)">
<ellipse cx="857.5" cy="16" rx="42.5" ry="43" fill="#F89F5B"/>
<circle cx="795" cy="75" r="25" fill="#E53F71"/>
<circle cx="819" cy="188" r="17" fill="#E53F71"/>
<circle cx="934.5" cy="49.5" r="29.5" fill="#4361EE"/>
<path d="M781.928 32C778.849 37.3333 771.151 37.3333 768.072 32L747.287 -4C744.208 -9.33333 748.057 -16 754.215 -16L795.785 -16C801.943 -16 805.792 -9.33334 802.713 -4.00001L781.928 32Z" fill="#9C3587"/>
<path d="M829.572 225C832.651 219.667 840.349 219.667 843.428 225L880.234 288.75C883.313 294.083 879.464 300.75 873.306 300.75L799.694 300.75C793.536 300.75 789.687 294.083 792.766 288.75L829.572 225Z" fill="#9C3587"/>
<path d="M896.975 284.787C891.908 288.286 884.953 284.987 884.456 278.849L879.029 211.748C878.532 205.61 884.867 201.236 890.431 203.875L951.256 232.725C956.82 235.365 957.44 243.038 952.373 246.537L896.975 284.787Z" fill="#F89F5B"/>
<path d="M851.703 162.861C847.43 163.207 843.297 161.247 840.861 157.719L822.449 131.053C820.013 127.525 819.644 122.966 821.482 119.092L835.368 89.8145C837.206 85.941 840.97 83.3419 845.243 82.9962L877.542 80.3838C881.815 80.0382 885.948 81.9985 888.384 85.5264L906.796 112.192C909.232 115.72 909.601 120.279 907.764 124.153L893.877 153.431C892.039 157.304 888.275 159.903 884.002 160.249L851.703 162.861Z" fill="#4361EE"/>
<rect x="934.627" y="116.485" width="73.0603" height="73.0603" rx="8" transform="rotate(27.8595 934.627 116.485)" fill="#E53F71"/>
</g>
<defs>
<linearGradient id="paint0_linear_202_56" x1="0" y1="0" x2="954.497" y2="145.992" gradientUnits="userSpaceOnUse">
<stop stop-color="#F8F9FF"/>
<stop offset="1" stop-color="#F7F8FF"/>
</linearGradient>
<linearGradient id="paint1_linear_202_56" x1="702" y1="0" x2="944.288" y2="9.2051" gradientUnits="userSpaceOnUse">
<stop stop-color="#F8F9FF"/>
<stop offset="1" stop-color="#F7F8FF"/>
</linearGradient>
</defs>
</svg>
