<svg xmlns="http://www.w3.org/2000/svg"  viewBox="0 0 64 64" width="64px" height="64px"><linearGradient id="ngAvMk9ieRg~UzTg1zdcOa" x1="32" x2="32" y1="5.5" y2="58.373" gradientUnits="userSpaceOnUse" spreadMethod="reflect"><stop offset="0" stop-color="#1a6dff"/><stop offset="1" stop-color="#c822ff"/></linearGradient><path fill="url(#ngAvMk9ieRg~UzTg1zdcOa)" d="M52.385,42.923L45.46,26.305c-0.681-1.636-1.928-2.909-3.46-3.634V21 c0-1.302-0.839-2.402-2-2.816V17c0-1.561-1.202-2.832-2.726-2.972l1.386-5.543c0.149-0.602,0.017-1.228-0.365-1.716 C37.913,6.28,37.339,6,36.719,6h-9.438c-0.62,0-1.194,0.28-1.576,0.769c-0.382,0.489-0.515,1.114-0.364,1.717l1.386,5.542 C25.202,14.168,24,15.439,24,17v1.184c-1.161,0.414-2,1.514-2,2.816v1.671c-1.532,0.725-2.779,1.998-3.46,3.634l-6.925,16.618 C10.543,45.495,10,48.213,10,51c0,3.859,3.141,7,7,7h30c3.859,0,7-3.141,7-7C54,48.213,53.457,45.495,52.385,42.923z M36.72,8 l-1.5,6h-6.439l-1.499-6H36.72z M26,17c0-0.551,0.448-1,1-1h10c0.552,0,1,0.449,1,1v1H26V17z M24,22v-1c0-0.551,0.448-1,1-1h14 c0.552,0,1,0.449,1,1v1h-0.997H24.997H24z M47,56H17c-2.757,0-5-2.243-5-5c0-2.522,0.491-4.98,1.461-7.308l6.925-16.619 C21.164,25.207,22.974,24,24.997,24h14.006c2.023,0,3.833,1.207,4.611,3.074l6.925,16.618C51.509,46.02,52,48.478,52,51 C52,53.757,49.757,56,47,56z"/><linearGradient id="ngAvMk9ieRg~UzTg1zdcOb" x1="32" x2="32" y1="5.5" y2="58.373" gradientUnits="userSpaceOnUse" spreadMethod="reflect"><stop offset="0" stop-color="#1a6dff"/><stop offset="1" stop-color="#c822ff"/></linearGradient><path fill="url(#ngAvMk9ieRg~UzTg1zdcOb)" d="M22 52H42V54H22z"/><linearGradient id="ngAvMk9ieRg~UzTg1zdcOc" x1="32" x2="32" y1="30.75" y2="49.338" gradientUnits="userSpaceOnUse" spreadMethod="reflect"><stop offset="0" stop-color="#6dc7ff"/><stop offset="1" stop-color="#e6abff"/></linearGradient><path fill="url(#ngAvMk9ieRg~UzTg1zdcOc)" d="M30,35h7v-2h-4v-2h-2v2h-1c-1.654,0-3,1.346-3,3v2c0,1.654,1.346,3,3,3h4c0.552,0,1,0.448,1,1 v2c0,0.552-0.448,1-1,1h-7v2h4v2h2v-2h1c1.654,0,3-1.346,3-3v-2c0-1.654-1.346-3-3-3h-4c-0.552,0-1-0.448-1-1v-2 C29,35.448,29.448,35,30,35z"/></svg>