<svg width="436" height="297" viewBox="0 0 436 297" fill="none" xmlns="http://www.w3.org/2000/svg">
<path d="M141.765 9.03449C145.418 6.92552 149.918 6.92552 153.571 9.03449L264.778 73.2397C268.43 75.3487 270.681 79.2462 270.681 83.4641V211.875C270.681 216.092 268.43 219.99 264.778 222.099L153.571 286.304C149.918 288.413 145.418 288.413 141.765 286.304L30.558 222.099C26.9052 219.99 24.6549 216.092 24.6549 211.875V83.4641C24.6549 79.2462 26.9052 75.3487 30.558 73.2397L141.765 9.03449Z" fill="#4361EE"/>
<path d="M153.127 18.4L256.538 78.1041C260.008 80.1076 262.146 83.8103 262.146 87.8173V207.226C262.146 211.233 260.008 214.935 256.538 216.939L153.127 276.643C149.657 278.646 145.382 278.646 141.911 276.643L38.5009 216.939C35.0307 214.935 32.893 211.233 32.893 207.226V87.8173C32.893 83.8103 35.0308 80.1076 38.501 78.1041L141.911 18.4C145.382 16.3965 149.657 16.3965 153.127 18.4Z" stroke="white" stroke-width="1.18062"/>
<g filter="url(#filter0_di_1_105)">
<path d="M131.35 95.7331C134.499 97.9787 142.798 101.336 150.799 96.799C146.481 90.9386 142.633 99.8699 131.35 95.7331Z" fill="white"/>
</g>
<g filter="url(#filter1_di_1_105)">
<path d="M168.756 165.035C171.905 167.28 180.203 170.637 188.205 166.101C183.887 160.24 180.039 169.171 168.756 165.035Z" fill="white"/>
</g>
<g filter="url(#filter2_di_1_105)">
<path d="M164.249 102.852C173.145 102.852 182.04 102.807 190.932 102.852C207.966 102.958 223.595 113.829 229.542 129.698C232.105 136.549 232.661 143.639 231.931 150.918C230.859 161.608 227.668 171.529 221.623 180.421C212.296 194.147 199.15 201.774 182.869 204.314C177.35 205.173 171.812 205.071 166.267 205.071C163.965 205.071 162.735 204.019 162.599 202.115C162.451 200.074 163.734 198.507 166.005 198.371C168.519 198.216 171.051 198.345 173.576 198.276C188.903 197.86 202.174 192.58 212.686 181.242C220.052 173.293 223.785 163.61 225.049 152.94C225.927 145.535 225.833 138.177 222.906 131.163C218.417 120.431 210.373 113.852 199.297 110.801C194.997 109.616 190.591 109.393 186.181 109.367C169.719 109.268 153.249 109.329 136.79 109.325C136.097 109.325 135.397 109.351 134.708 109.291C133.918 109.218 133.181 108.864 132.63 108.292C132.079 107.721 131.751 106.972 131.706 106.179C131.695 105.415 131.955 104.671 132.44 104.08C132.925 103.488 133.604 103.088 134.356 102.95C135.108 102.846 135.869 102.81 136.627 102.841H164.26L164.249 102.852Z" fill="white"/>
<path d="M147.389 181.586H137.061C136.43 181.614 135.798 181.6 135.169 181.545C133.462 181.314 132.387 180.333 132.22 178.607C132.053 176.881 132.863 175.7 134.491 175.094C135.525 174.716 136.607 174.795 137.675 174.795C157.097 174.795 157.325 174.826 176.748 174.761C183.562 174.739 189.444 172.214 194.119 167.217C198.128 162.932 200.228 157.754 200.853 151.924C201.345 147.352 200.694 143.146 197.855 139.414C194.698 135.25 190.432 133.16 185.303 133.138C166.952 133.058 148.585 133.107 130.249 133.081C128.3 133.081 126.346 132.922 124.404 132.74C122.728 132.585 121.8 131.574 121.687 129.886C121.562 128.047 122.504 126.722 124.174 126.4C124.733 126.32 125.298 126.294 125.862 126.32H184.913C194.834 126.339 203.412 132.339 206.539 141.719C208.757 148.378 207.966 155.089 205.479 161.543C200.702 173.932 189.455 181.552 176.146 181.586C166.562 181.613 156.973 181.586 147.389 181.586ZM103.358 132.755C101.087 132.755 98.8156 132.786 96.5444 132.755C94.6517 132.721 93.1982 131.476 92.9824 129.78C92.7666 128.084 93.8303 126.627 95.8782 126.211C96.9966 126.029 98.1297 125.954 99.2623 125.987C102.351 125.961 105.444 125.953 108.533 125.987C109.476 125.986 110.416 126.095 111.334 126.313C113.003 126.737 113.915 128.16 113.718 129.89C113.522 131.62 112.477 132.661 110.728 132.718C108.271 132.801 105.807 132.74 103.35 132.74L103.358 132.755ZM144.788 205.055C142.646 205.055 140.503 205.093 138.353 205.055C136.317 205.01 134.947 203.855 134.738 202.152C134.659 201.256 134.938 200.365 135.513 199.674C136.088 198.983 136.913 198.547 137.808 198.461C142.391 198.101 146.995 198.095 151.579 198.442C152.012 198.461 152.436 198.567 152.826 198.755C153.216 198.944 153.563 199.209 153.847 199.536C154.13 199.864 154.344 200.245 154.475 200.658C154.606 201.07 154.651 201.505 154.608 201.936C154.468 203.829 153.135 204.987 151.03 205.07H144.788V205.055Z" fill="white"/>
</g>
<g filter="url(#filter3_di_1_105)">
<path d="M126.693 184.611C126.596 184.611 126.499 184.611 126.499 184.514C126.499 184.417 126.304 184.417 126.112 184.417C125.725 184.32 125.336 184.32 124.942 184.32C124.747 184.32 124.555 184.32 124.36 184.223H124.263C123.19 184.126 122.025 183.932 120.952 183.643C120.66 183.546 120.371 183.258 120.273 182.967L119.497 182.773C119.884 179.954 119.692 177.048 119.111 174.23C118.432 171.411 117.262 168.699 115.702 166.274L116.284 165.694V165.597C116.284 165.306 116.381 164.92 116.576 164.726C117.449 163.953 118.327 163.365 119.298 162.786L119.879 162.495C120.266 162.301 120.558 162.109 120.952 161.915C121.049 161.818 121.147 161.818 121.244 161.721C121.341 161.624 121.244 161.624 121.244 161.527C122.117 160.85 122.317 159.683 121.631 158.813C121.339 158.427 120.757 158.136 120.266 158.136C119.774 158.136 119.29 158.33 118.901 158.619L118.804 158.716C118.706 158.813 118.609 158.91 118.512 158.91C118.22 159.201 117.93 159.489 117.736 159.78C117.639 159.975 117.444 160.072 117.349 160.166C116.67 160.94 115.79 161.721 114.919 162.301C114.724 162.398 114.532 162.495 114.337 162.495C114.24 162.495 114.045 162.495 113.951 162.398H113.853L113.077 162.88C112.301 162.107 111.423 161.325 110.647 160.554C107.047 157.735 102.57 155.997 97.994 155.506L97.8967 154.733V154.83C97.6048 154.636 97.51 154.347 97.4127 154.056C97.4127 152.986 97.4127 151.921 97.6073 150.755V150.658C97.6073 150.464 97.7046 150.272 97.7046 150.078C97.8019 149.692 97.8019 149.304 97.8992 148.911V148.317C97.9965 147.344 97.2205 146.376 96.2449 146.279C95.6635 146.182 95.0747 146.473 94.5906 146.956C94.2039 147.341 94.0093 147.827 94.0093 148.317V148.799C94.0093 149.185 94.1066 149.573 94.2039 149.966C94.3012 150.16 94.3012 150.352 94.3012 150.546V150.643C94.4958 151.713 94.4958 152.777 94.4958 153.944C94.3985 154.235 94.3012 154.524 94.0117 154.718V154.912L93.9144 155.686C92.8415 155.783 91.7736 155.977 90.6033 156.168C86.0322 157.141 81.8428 159.567 78.634 162.962L78.0526 162.577H77.9553C77.858 162.577 77.7607 162.674 77.5686 162.674C77.3764 162.674 77.1818 162.577 76.9872 162.48C76.1139 161.803 75.2356 161.022 74.5569 160.248C74.4596 160.054 74.265 159.957 74.1702 159.863C73.8782 159.571 73.6861 159.283 73.3942 158.992C73.2968 158.895 73.1995 158.895 73.1022 158.798L73.0049 158.701C72.6182 158.41 72.1316 158.218 71.6401 158.218C71.0587 158.218 70.5671 158.412 70.2752 158.895C69.6938 159.766 69.8884 160.932 70.6619 161.609C70.7593 161.609 70.7593 161.706 70.7593 161.706C70.7593 161.706 70.9539 161.9 71.0512 161.9C71.3431 162.094 71.7299 162.286 72.1241 162.48C72.3187 162.577 72.5109 162.674 72.7055 162.771C73.6811 163.35 74.6517 163.938 75.4277 164.711C75.6223 164.905 75.8145 165.291 75.7197 165.582V165.485L76.301 166.065C76.2037 166.259 76.1064 166.356 76.0091 166.547C72.9899 171.306 71.7299 176.934 72.6007 182.464L71.8247 182.658C71.8247 182.755 71.7274 182.755 71.7274 182.755C71.6301 183.046 71.3406 183.238 71.0487 183.432C69.9758 183.723 68.9078 183.915 67.7376 184.012C67.543 184.012 67.3509 184.012 67.1562 184.109C66.7695 184.109 66.3802 184.206 65.986 184.206C65.8887 184.206 65.7914 184.303 65.5992 184.303C65.5344 184.303 65.4695 184.335 65.4046 184.4C64.3317 184.594 63.653 185.567 63.8451 186.631C64.0398 187.502 64.9181 188.089 65.7914 187.992C65.986 187.992 66.0833 187.992 66.2754 187.895C66.3403 187.895 66.3728 187.863 66.3728 187.798C66.3728 187.701 66.6647 187.798 66.7595 187.798C67.1463 187.701 67.5355 187.507 67.8324 187.413C68.027 187.315 68.2192 187.218 68.4138 187.218H68.5111C69.584 186.833 70.5547 186.542 71.7249 186.348H71.8222C72.1141 186.348 72.4036 186.445 72.5982 186.639C72.6955 186.639 72.6955 186.736 72.6955 186.736L73.5688 186.639C75.031 191.099 77.7532 195.085 81.5484 197.991C82.4217 198.667 83.2027 199.254 84.1733 199.737L83.6892 200.414C83.6892 200.511 83.7865 200.511 83.7865 200.511C83.9812 200.802 83.9812 201.187 83.8839 201.484C83.4971 202.456 82.9082 203.424 82.3244 204.302V204.399C82.2271 204.593 82.1297 204.69 81.9376 204.882C81.743 205.076 81.5509 205.462 81.2589 205.855C81.1616 205.952 81.1616 206.049 81.0643 206.146C81.0643 206.146 81.0643 206.243 80.967 206.243C80.4829 207.215 80.8697 208.377 81.743 208.86C81.9376 208.957 82.2271 209.054 82.4217 209.054C83.1977 209.054 83.8839 208.571 84.2706 207.887C84.2706 207.887 84.2706 207.79 84.3679 207.79C84.3679 207.693 84.4652 207.596 84.5625 207.499C84.6599 207.113 84.8545 206.822 84.9493 206.429L85.1439 205.85C85.4358 204.78 85.9199 203.812 86.4115 202.839C86.6061 202.548 86.8955 202.357 87.1875 202.26C87.2523 202.26 87.2848 202.227 87.2848 202.163L87.6715 201.389C90.3937 202.459 93.2183 202.944 96.1351 202.944C97.8867 202.944 99.6409 202.75 101.392 202.267C102.465 202.073 103.533 201.688 104.509 201.396L104.896 202.073C104.961 202.073 104.993 202.105 104.993 202.17C105.285 202.267 105.574 202.461 105.769 202.75C106.253 203.723 106.745 204.69 107.037 205.76V205.857L107.231 206.437C107.328 206.822 107.426 207.21 107.618 207.507C107.715 207.604 107.715 207.701 107.813 207.798C107.813 207.798 107.813 207.895 107.91 207.895C108.297 208.571 108.983 209.061 109.759 209.061C110.051 209.061 110.243 208.964 110.535 208.867C110.922 208.673 111.311 208.288 111.408 207.798C111.505 207.315 111.505 206.825 111.311 206.34C111.311 206.243 111.213 206.243 111.213 206.243C111.213 206.146 111.116 206.049 111.019 205.952C110.824 205.566 110.632 205.275 110.34 204.979C110.243 204.785 110.146 204.688 109.953 204.496V204.302C109.275 203.431 108.783 202.459 108.394 201.484C108.297 201.192 108.297 200.807 108.491 200.511C108.491 200.414 108.589 200.414 108.589 200.414L108.297 199.64C113.262 196.63 117.057 191.975 118.811 186.445L119.587 186.542C119.685 186.542 119.685 186.445 119.685 186.445C119.879 186.251 120.169 186.154 120.461 186.154H120.558C121.631 186.348 122.699 186.636 123.674 187.024H123.772C123.966 187.121 124.158 187.218 124.353 187.218C124.74 187.413 125.032 187.604 125.426 187.701C125.523 187.701 125.621 187.798 125.813 187.798C125.878 187.798 125.942 187.83 126.007 187.895C126.202 187.992 126.299 187.992 126.491 187.992C127.365 187.992 128.146 187.413 128.438 186.631C128.355 185.581 127.572 184.8 126.698 184.609L126.693 184.611ZM98.5679 181.601L95.943 182.865L93.3181 181.601L92.6394 178.782L94.4883 176.456H97.4102L99.2591 178.782L98.5654 181.601H98.5679ZM114.427 175.297C114.911 177.334 115.009 179.372 114.814 181.409L105.567 178.792C104.694 178.598 104.202 177.723 104.397 176.852C104.494 176.561 104.591 176.369 104.783 176.175L112.084 169.572C113.157 171.319 113.941 173.259 114.425 175.297H114.427ZM109.17 165.98L101.19 171.607C100.512 171.993 99.5361 171.899 99.0495 171.222C98.8549 171.028 98.7576 170.836 98.7576 170.545L98.1762 160.746C102.455 161.228 106.253 163.072 109.167 165.98H109.17ZM91.5565 161.029L93.5027 160.644L93.0187 170.346C93.0187 171.217 92.2427 171.901 91.3644 171.901C91.0724 171.901 90.8803 171.804 90.5884 171.707L82.5115 165.983C85.0316 163.559 88.1481 161.811 91.5565 161.032V161.029ZM79.6845 169.572L86.888 175.974C87.5667 176.553 87.664 177.528 87.0827 178.205C86.888 178.496 86.6959 178.591 86.3067 178.688L76.8674 181.402C76.5705 177.334 77.5386 173.165 79.687 169.572H79.6845ZM78.0302 185.972L87.664 184.323C88.44 184.323 89.2235 184.805 89.3183 185.586C89.4156 185.878 89.4156 186.263 89.221 186.559L85.5232 195.488C82.1148 193.251 79.3876 189.853 78.0302 185.972ZM100.125 198.001C98.7601 198.292 97.4027 198.483 95.9405 198.483C93.897 198.483 91.7561 198.098 89.8099 197.511L94.5831 188.873C95.0672 188.293 95.8507 188.099 96.5294 188.487C96.8213 188.681 97.0134 188.873 97.3054 189.164L101.981 197.61C101.385 197.715 100.804 197.809 100.125 198.003V198.001ZM111.997 189.562C110.535 191.888 108.491 193.926 106.158 195.383L102.363 186.261C102.168 185.487 102.558 184.706 103.236 184.417C103.528 184.32 103.818 184.223 104.11 184.223L113.841 185.873C113.362 187.226 112.775 188.49 111.999 189.559L111.997 189.562Z" fill="white"/>
</g>
<g opacity="0.48">
<path d="M372.41 191.719L390.443 178.432" stroke="#4361EE" stroke-width="0.949107"/>
<circle cx="432.204" cy="212.6" r="3.79643" transform="rotate(-180 432.204 212.6)" fill="#4361EE"/>
<circle cx="424.136" cy="214.023" r="2.37277" transform="rotate(-180 424.136 214.023)" fill="#4361EE"/>
<circle cx="399.934" cy="181.279" r="3.79643" transform="rotate(-180 399.934 181.279)" fill="#4361EE"/>
<circle cx="389.494" cy="179.381" r="3.79643" transform="rotate(-180 389.494 179.381)" fill="#4361EE"/>
<circle cx="365.766" cy="171.788" r="3.79643" transform="rotate(-180 365.766 171.788)" fill="#4361EE"/>
<circle cx="348.682" cy="159.45" r="3.79643" transform="rotate(-180 348.682 159.45)" fill="#4361EE"/>
<circle cx="374.308" cy="228.735" r="3.79643" transform="rotate(-180 374.308 228.735)" fill="#4361EE"/>
<circle cx="354.377" cy="219.244" r="2.84732" transform="rotate(-180 354.377 219.244)" fill="#4361EE"/>
<path d="M424.136 213.549L407.527 197.414" stroke="#4361EE" stroke-width="0.949107"/>
<path d="M353.902 218.294L335.395 202.634" stroke="#4361EE" stroke-width="0.949107"/>
<path d="M286.041 202.634L344.411 202.634L375.257 228.735" stroke="#4361EE" stroke-width="0.949107"/>
<path d="M286.041 185.55L344.411 185.55L367.19 170.839" stroke="#4361EE" stroke-width="0.949107"/>
<path d="M286.041 171.788L331.781 171.788L349.631 158.501" stroke="#4361EE" stroke-width="0.949107"/>
<path d="M286.041 194.567L380.752 194.567L399.934 181.279" stroke="#4361EE" stroke-width="0.949107"/>
<path d="M380.952 197.414L416.452 197.414L430.305 210.702" stroke="#4361EE" stroke-width="0.949107"/>
<path d="M372.41 100.605L390.443 87.3178" stroke="#4361EE" stroke-width="0.949107"/>
<circle cx="432.204" cy="121.486" r="3.79643" transform="rotate(-180 432.204 121.486)" fill="#4361EE"/>
<circle cx="424.136" cy="122.909" r="2.37277" transform="rotate(-180 424.136 122.909)" fill="#4361EE"/>
<circle cx="399.934" cy="90.1651" r="3.79643" transform="rotate(-180 399.934 90.1651)" fill="#4361EE"/>
<circle cx="389.494" cy="88.2669" r="3.79643" transform="rotate(-180 389.494 88.2669)" fill="#4361EE"/>
<circle cx="365.766" cy="80.674" r="3.79643" transform="rotate(-180 365.766 80.674)" fill="#4361EE"/>
<circle cx="348.682" cy="68.3356" r="3.79643" transform="rotate(-180 348.682 68.3356)" fill="#4361EE"/>
<circle cx="374.308" cy="137.62" r="3.79643" transform="rotate(-180 374.308 137.62)" fill="#4361EE"/>
<circle cx="354.377" cy="128.129" r="2.84732" transform="rotate(-180 354.377 128.129)" fill="#4361EE"/>
<path d="M424.136 122.435L407.527 106.3" stroke="#4361EE" stroke-width="0.949107"/>
<path d="M353.902 127.18L335.395 111.52" stroke="#4361EE" stroke-width="0.949107"/>
<path d="M286.041 111.52L344.411 111.52L375.257 137.62" stroke="#4361EE" stroke-width="0.949107"/>
<path d="M286.041 94.4361L344.411 94.4361L367.19 79.7249" stroke="#4361EE" stroke-width="0.949107"/>
<path d="M286.041 80.674L331.781 80.674L349.631 67.3865" stroke="#4361EE" stroke-width="0.949107"/>
<path d="M286.041 103.453L380.752 103.453L399.934 90.1651" stroke="#4361EE" stroke-width="0.949107"/>
<path d="M380.952 106.3L416.452 106.3L430.305 119.587" stroke="#4361EE" stroke-width="0.949107"/>
</g>
<defs>
<filter id="filter0_di_1_105" x="121.431" y="86.2363" width="39.2856" height="24.1486" filterUnits="userSpaceOnUse" color-interpolation-filters="sRGB">
<feFlood flood-opacity="0" result="BackgroundImageFix"/>
<feColorMatrix in="SourceAlpha" type="matrix" values="0 0 0 0 0 0 0 0 0 0 0 0 0 0 0 0 0 0 127 0" result="hardAlpha"/>
<feOffset dy="1.4169"/>
<feGaussianBlur stdDeviation="4.95914"/>
<feComposite in2="hardAlpha" operator="out"/>
<feColorMatrix type="matrix" values="0 0 0 0 0 0 0 0 0 0 0 0 0 0 0 0 0 0 0.12 0"/>
<feBlend mode="normal" in2="BackgroundImageFix" result="effect1_dropShadow_1_105"/>
<feBlend mode="normal" in="SourceGraphic" in2="effect1_dropShadow_1_105" result="shape"/>
<feColorMatrix in="SourceAlpha" type="matrix" values="0 0 0 0 0 0 0 0 0 0 0 0 0 0 0 0 0 0 127 0" result="hardAlpha"/>
<feOffset dy="1.4169"/>
<feGaussianBlur stdDeviation="2.12534"/>
<feComposite in2="hardAlpha" operator="arithmetic" k2="-1" k3="1"/>
<feColorMatrix type="matrix" values="0 0 0 0 0 0 0 0 0 0 0 0 0 0 0 0 0 0 0.16 0"/>
<feBlend mode="normal" in2="shape" result="effect2_innerShadow_1_105"/>
</filter>
<filter id="filter1_di_1_105" x="158.837" y="155.538" width="39.2856" height="24.1486" filterUnits="userSpaceOnUse" color-interpolation-filters="sRGB">
<feFlood flood-opacity="0" result="BackgroundImageFix"/>
<feColorMatrix in="SourceAlpha" type="matrix" values="0 0 0 0 0 0 0 0 0 0 0 0 0 0 0 0 0 0 127 0" result="hardAlpha"/>
<feOffset dy="1.4169"/>
<feGaussianBlur stdDeviation="4.95914"/>
<feComposite in2="hardAlpha" operator="out"/>
<feColorMatrix type="matrix" values="0 0 0 0 0 0 0 0 0 0 0 0 0 0 0 0 0 0 0.12 0"/>
<feBlend mode="normal" in2="BackgroundImageFix" result="effect1_dropShadow_1_105"/>
<feBlend mode="normal" in="SourceGraphic" in2="effect1_dropShadow_1_105" result="shape"/>
<feColorMatrix in="SourceAlpha" type="matrix" values="0 0 0 0 0 0 0 0 0 0 0 0 0 0 0 0 0 0 127 0" result="hardAlpha"/>
<feOffset dy="1.4169"/>
<feGaussianBlur stdDeviation="2.12534"/>
<feComposite in2="hardAlpha" operator="arithmetic" k2="-1" k3="1"/>
<feColorMatrix type="matrix" values="0 0 0 0 0 0 0 0 0 0 0 0 0 0 0 0 0 0 0.16 0"/>
<feBlend mode="normal" in2="shape" result="effect2_innerShadow_1_105"/>
</filter>
<filter id="filter2_di_1_105" x="83.0366" y="94.3286" width="159.109" height="122.081" filterUnits="userSpaceOnUse" color-interpolation-filters="sRGB">
<feFlood flood-opacity="0" result="BackgroundImageFix"/>
<feColorMatrix in="SourceAlpha" type="matrix" values="0 0 0 0 0 0 0 0 0 0 0 0 0 0 0 0 0 0 127 0" result="hardAlpha"/>
<feOffset dy="1.4169"/>
<feGaussianBlur stdDeviation="4.95914"/>
<feComposite in2="hardAlpha" operator="out"/>
<feColorMatrix type="matrix" values="0 0 0 0 0 0 0 0 0 0 0 0 0 0 0 0 0 0 0.12 0"/>
<feBlend mode="normal" in2="BackgroundImageFix" result="effect1_dropShadow_1_105"/>
<feBlend mode="normal" in="SourceGraphic" in2="effect1_dropShadow_1_105" result="shape"/>
<feColorMatrix in="SourceAlpha" type="matrix" values="0 0 0 0 0 0 0 0 0 0 0 0 0 0 0 0 0 0 127 0" result="hardAlpha"/>
<feOffset dy="1.4169"/>
<feGaussianBlur stdDeviation="2.12534"/>
<feComposite in2="hardAlpha" operator="arithmetic" k2="-1" k3="1"/>
<feColorMatrix type="matrix" values="0 0 0 0 0 0 0 0 0 0 0 0 0 0 0 0 0 0 0.16 0"/>
<feBlend mode="normal" in2="shape" result="effect2_innerShadow_1_105"/>
</filter>
<filter id="filter3_di_1_105" x="59.562" y="142.718" width="73.1263" height="71.3022" filterUnits="userSpaceOnUse" color-interpolation-filters="sRGB">
<feFlood flood-opacity="0" result="BackgroundImageFix"/>
<feColorMatrix in="SourceAlpha" type="matrix" values="0 0 0 0 0 0 0 0 0 0 0 0 0 0 0 0 0 0 127 0" result="hardAlpha"/>
<feOffset dy="0.708448"/>
<feGaussianBlur stdDeviation="2.12534"/>
<feComposite in2="hardAlpha" operator="out"/>
<feColorMatrix type="matrix" values="0 0 0 0 0 0 0 0 0 0 0 0 0 0 0 0 0 0 0.12 0"/>
<feBlend mode="normal" in2="BackgroundImageFix" result="effect1_dropShadow_1_105"/>
<feBlend mode="normal" in="SourceGraphic" in2="effect1_dropShadow_1_105" result="shape"/>
<feColorMatrix in="SourceAlpha" type="matrix" values="0 0 0 0 0 0 0 0 0 0 0 0 0 0 0 0 0 0 127 0" result="hardAlpha"/>
<feOffset dy="0.708448"/>
<feGaussianBlur stdDeviation="0.708448"/>
<feComposite in2="hardAlpha" operator="arithmetic" k2="-1" k3="1"/>
<feColorMatrix type="matrix" values="0 0 0 0 0 0 0 0 0 0 0 0 0 0 0 0 0 0 0.16 0"/>
<feBlend mode="normal" in2="shape" result="effect2_innerShadow_1_105"/>
</filter>
</defs>
</svg>
