<svg width="273" height="517" viewBox="0 0 273 517" fill="none" xmlns="http://www.w3.org/2000/svg">
<path d="M72.9447 48.5857C72.6592 48.6285 72.4451 48.443 72.3167 48.2147L68.9199 41.9649L62.6973 38.5403C62.4689 38.4119 62.3262 38.1693 62.3262 37.9125C62.3262 37.6557 62.4689 37.4131 62.6973 37.2847L68.9485 33.8886L72.3738 27.6674C72.5022 27.4391 72.7448 27.2964 73.0017 27.2964C73.2586 27.2964 73.5013 27.4391 73.6297 27.6674L77.0265 33.9172L83.2491 37.3417C83.4775 37.4702 83.6202 37.7127 83.6202 37.9696C83.6202 38.2264 83.4775 38.469 83.2491 38.5974L76.9979 41.9934L73.5726 48.2147C73.4442 48.443 73.2016 48.5857 72.9447 48.5857ZM64.5241 37.9268L69.7905 40.8234C69.9047 40.8947 70.0046 40.9946 70.0759 41.1087L72.9447 46.3883L75.8419 41.123C75.9133 41.0089 76.0132 40.909 76.1273 40.8376L81.408 37.9696L76.1416 35.073C76.0274 35.0016 75.9275 34.9017 75.8562 34.7876L72.9875 29.5081L70.0902 34.7733C70.0189 34.8875 69.919 34.9874 69.8048 35.0587L64.5241 37.9268Z" fill="#2AAFEB"/>
<path d="M188.348 500.241C188.091 500.241 187.848 500.099 187.72 499.87L184.209 493.406L177.758 489.853C177.529 489.725 177.387 489.482 177.387 489.226C177.387 488.969 177.529 488.726 177.758 488.598L184.223 485.088L187.777 478.638C187.905 478.41 188.148 478.267 188.405 478.267C188.662 478.267 188.904 478.41 189.033 478.638L192.544 485.102L198.995 488.655C199.223 488.783 199.366 489.026 199.366 489.283C199.366 489.54 199.223 489.782 198.995 489.911L192.529 493.421L188.976 499.87C188.847 500.099 188.605 500.241 188.348 500.241ZM179.585 489.226L185.079 492.251C185.194 492.322 185.293 492.422 185.365 492.536L188.362 498.044L191.388 492.55C191.459 492.436 191.559 492.336 191.673 492.265L197.182 489.268L191.687 486.243C191.573 486.172 191.473 486.072 191.402 485.958L188.405 480.45L185.379 485.944C185.308 486.058 185.208 486.158 185.094 486.229L179.585 489.226Z" fill="#2AAFEB"/>
<path d="M268.801 11.5295C268.402 11.5295 268.088 11.2156 268.088 10.816V4.15241C268.088 3.75288 268.402 3.43896 268.801 3.43896C269.201 3.43896 269.515 3.75288 269.515 4.15241V10.816C269.515 11.2156 269.201 11.5295 268.801 11.5295Z" fill="#01004C"/>
<path d="M268.801 28.652C268.402 28.652 268.088 28.3381 268.088 27.9386V21.275C268.088 20.8754 268.402 20.5615 268.801 20.5615C269.201 20.5615 269.515 20.8754 269.515 21.275V27.9386C269.515 28.3381 269.201 28.652 268.801 28.652Z" fill="#01004C"/>
<path d="M263.578 16.7516H256.913C256.513 16.7516 256.199 16.4377 256.199 16.0382C256.199 15.6386 256.513 15.3247 256.913 15.3247H263.578C263.978 15.3247 264.292 15.6386 264.292 16.0382C264.292 16.4377 263.978 16.7516 263.578 16.7516Z" fill="#01004C"/>
<path d="M260.395 25.1563C260.21 25.1563 260.024 25.0849 259.896 24.9422C259.61 24.6569 259.61 24.2145 259.896 23.9291L264.606 19.2204C264.891 18.935 265.333 18.935 265.619 19.2204C265.904 19.5058 265.904 19.9481 265.619 20.2335L260.909 24.9422C260.766 25.0849 260.581 25.1563 260.41 25.1563H260.395Z" fill="#01004C"/>
<path d="M272.499 13.0557C272.313 13.0557 272.128 12.9843 271.999 12.8417C271.714 12.5563 271.714 12.1139 271.999 11.8286L276.709 7.1198C276.994 6.83442 277.437 6.83442 277.722 7.1198C278.008 7.40518 278.008 7.84751 277.722 8.13289L273.013 12.8417C272.87 12.9843 272.684 13.0557 272.513 13.0557H272.499Z" fill="#01004C"/>
<path d="M265.105 13.0557C264.92 13.0557 264.734 12.9843 264.606 12.8417L259.896 8.13289C259.61 7.84751 259.61 7.40518 259.896 7.1198C260.181 6.83442 260.624 6.83442 260.909 7.1198L265.619 11.8286C265.904 12.1139 265.904 12.5563 265.619 12.8417C265.476 12.9843 265.291 13.0557 265.119 13.0557H265.105Z" fill="#01004C"/>
<path d="M277.222 25.1568C277.037 25.1568 276.851 25.0854 276.723 24.9427L272.013 20.234C271.727 19.9486 271.727 19.5062 272.013 19.2209C272.298 18.9355 272.741 18.9355 273.026 19.2209L277.736 23.9296C278.021 24.215 278.021 24.6573 277.736 24.9427C277.593 25.0854 277.408 25.1568 277.237 25.1568H277.222Z" fill="#01004C"/>
<path d="M73.6314 219.278C70.991 219.278 68.8359 217.124 68.8359 214.484C68.8359 211.844 70.991 209.689 73.6314 209.689C76.2717 209.689 78.4268 211.844 78.4268 214.484C78.4268 217.124 76.2717 219.278 73.6314 219.278ZM73.6314 211.102C71.776 211.102 70.2632 212.615 70.2632 214.47C70.2632 216.325 71.776 217.837 73.6314 217.837C75.4868 217.837 76.9996 216.325 76.9996 214.47C76.9996 212.615 75.4868 211.102 73.6314 211.102Z" fill="#ACBBFF"/>
<path d="M24.4701 282.331C22.7574 282.331 21.373 280.947 21.373 279.235C21.373 277.523 22.7574 276.139 24.4701 276.139C26.1828 276.139 27.5672 277.523 27.5672 279.235C27.5672 280.947 26.1828 282.331 24.4701 282.331ZM24.4701 277.566C23.5424 277.566 22.8003 278.322 22.8003 279.235C22.8003 280.148 23.5567 280.905 24.4701 280.905C25.3835 280.905 26.1399 280.148 26.1399 279.235C26.1399 278.322 25.3835 277.566 24.4701 277.566Z" fill="#8499FF"/>
<path d="M305.892 494.819L322.377 434.248H241.639L225.326 494.848C225.683 494.834 226.04 494.819 226.397 494.819H305.892Z" fill="white"/>
<path d="M225.412 495.561C225.198 495.561 224.955 495.461 224.812 495.29C224.669 495.119 224.584 494.877 224.641 494.662L240.954 434.062C241.04 433.748 241.325 433.534 241.639 433.534H322.377C322.605 433.534 322.805 433.634 322.947 433.82C323.076 433.991 323.133 434.219 323.062 434.433L306.577 495.005C306.492 495.319 306.206 495.533 305.892 495.533H226.396C226.082 495.533 225.768 495.533 225.44 495.561H225.412ZM242.196 434.961L226.268 494.106H305.35L321.449 434.961H242.196Z" fill="#00105B"/>
<path d="M357.715 499.214C357.443 499.057 357.158 498.9 356.873 498.743C352.405 496.289 346.896 494.819 340.916 494.819H226.397C226.04 494.819 225.683 494.834 225.326 494.848C217.248 495.176 210.126 499.214 207.229 505.207L202.662 514.71H367.734C367.734 508.446 363.823 502.853 357.715 499.214Z" fill="#00105B"/>
<path d="M471.505 442.095H112.318C105.525 442.095 100.016 436.331 100.016 429.225V196.298C100.016 189.192 105.525 183.428 112.318 183.428H471.505C478.299 183.428 483.808 189.192 483.808 196.298V429.225C483.808 436.331 478.299 442.095 471.505 442.095Z" fill="white"/>
<path d="M471.506 442.809H112.319C105.14 442.809 99.3027 436.716 99.3027 429.225V196.298C99.3027 188.807 105.14 182.714 112.319 182.714H471.506C478.685 182.714 484.522 188.807 484.522 196.298V429.225C484.522 436.716 478.685 442.809 471.506 442.809ZM112.319 184.141C105.925 184.141 100.73 189.592 100.73 196.298V429.225C100.73 435.931 105.925 441.382 112.319 441.382H471.506C477.9 441.382 483.095 435.931 483.095 429.225V196.298C483.095 189.592 477.9 184.141 471.506 184.141H112.319Z" fill="#00105B"/>
<path d="M100.017 429.224V196.298C100.017 189.249 105.427 183.541 112.134 183.441H99.4608C92.6673 183.441 87.1582 189.22 87.1582 196.341V429.724C87.1582 436.844 92.6673 442.623 99.4608 442.623H458.648C459.847 442.623 460.989 442.437 462.087 442.109H112.32C105.526 442.109 100.017 436.345 100.017 429.239V429.224Z" fill="#00105B"/>
<path d="M458.647 443.336H99.4596C92.2807 443.336 86.4434 437.229 86.4434 429.724V196.341C86.4434 188.835 92.2807 182.728 99.4596 182.728H112.133V184.155C105.853 184.255 100.73 189.706 100.73 196.298V429.224C100.73 435.931 105.925 441.382 112.319 441.382H466.867L462.286 442.78C461.087 443.151 459.86 443.336 458.647 443.336ZM99.4596 184.155C93.0656 184.155 87.8706 189.62 87.8706 196.341V429.724C87.8706 436.445 93.0656 441.91 99.4596 441.91H107.637C102.756 439.94 99.3026 435.003 99.3026 429.239V196.312C99.3026 191.033 102.257 186.395 106.539 184.169H99.4738L99.4596 184.155Z" fill="#00105B"/>
<path d="M123.436 253.86V201.493C123.436 199.281 125.234 197.483 127.446 197.483H458.531C460.743 197.483 462.542 199.281 462.542 201.493V396.706H123.436V344.938" fill="#CACAE5"/>
<path d="M462.557 397.406H123.436C123.037 397.406 122.723 397.092 122.723 396.692V344.924C122.723 344.525 123.037 344.211 123.436 344.211C123.836 344.211 124.15 344.525 124.15 344.924V395.979H461.829V201.478C461.829 199.666 460.345 198.182 458.532 198.182H127.447C125.634 198.182 124.15 199.666 124.15 201.478V253.845C124.15 254.245 123.836 254.559 123.436 254.559C123.037 254.559 122.723 254.245 122.723 253.845V201.478C122.723 198.867 124.849 196.755 127.447 196.755H458.532C461.144 196.755 463.256 198.881 463.256 201.478V396.692C463.256 397.092 462.942 397.406 462.542 397.406H462.557Z" fill="#00105B"/>
<path d="M123.436 317.585C123.037 317.585 122.723 317.271 122.723 316.871V277.931C122.723 277.532 123.037 277.218 123.436 277.218C123.836 277.218 124.15 277.532 124.15 277.931V316.871C124.15 317.271 123.836 317.585 123.436 317.585Z" fill="#00105B"/>
<path d="M470.178 440.796H113.845C107.109 440.796 101.643 435.445 101.643 428.853V396.705H482.395V428.853C482.395 435.46 476.929 440.796 470.192 440.796H470.178Z" fill="#00105B"/>
<path d="M470.179 441.51H113.846C106.724 441.51 100.93 435.831 100.93 428.839V396.691C100.93 396.291 101.244 395.978 101.643 395.978H482.396C482.795 395.978 483.109 396.291 483.109 396.691V428.839C483.109 435.816 477.315 441.51 470.193 441.51H470.179ZM102.343 397.404V428.839C102.343 435.032 107.495 440.083 113.832 440.083H470.164C476.501 440.083 481.653 435.046 481.653 428.839V397.404H102.343Z" fill="white"/>
<path d="M170.835 282.952C170.435 282.952 170.121 282.638 170.121 282.239V265.358C170.121 264.959 170.435 264.645 170.835 264.645C171.234 264.645 171.548 264.959 171.548 265.358V282.239C171.548 282.638 171.234 282.952 170.835 282.952Z" fill="#7FD6C3"/>
<path d="M230.921 345.264C230.521 345.264 230.207 344.951 230.207 344.551V323.205C230.207 322.805 230.521 322.491 230.921 322.491C231.32 322.491 231.634 322.805 231.634 323.205V344.551C231.634 344.951 231.32 345.264 230.921 345.264Z" fill="#7FD6C3"/>
<path d="M230.178 282.952C229.779 282.952 229.465 282.638 229.465 282.239V265.358C229.465 264.959 229.779 264.645 230.178 264.645C230.578 264.645 230.892 264.959 230.892 265.358V282.239C230.892 282.638 230.578 282.952 230.178 282.952Z" fill="#8499FF"/>
<path d="M205.846 361.403H188.962C188.562 361.403 188.248 361.089 188.248 360.69C188.248 360.29 188.562 359.976 188.962 359.976H205.846C206.245 359.976 206.559 360.29 206.559 360.69C206.559 361.089 206.245 361.403 205.846 361.403Z" fill="#8499FF"/>
<path d="M309.218 224.75H152.81C151.974 224.75 151.297 225.427 151.297 226.262V263.618C151.297 264.454 151.974 265.131 152.81 265.131H309.218C310.054 265.131 310.731 264.454 310.731 263.618V226.262C310.731 225.427 310.054 224.75 309.218 224.75Z" fill="#8499FF"/>
<path d="M309.233 265.858H152.824C151.597 265.858 150.598 264.86 150.598 263.632V226.276C150.598 225.049 151.597 224.05 152.824 224.05H309.233C310.46 224.05 311.459 225.049 311.459 226.276V263.632C311.459 264.86 310.46 265.858 309.233 265.858ZM152.824 225.477C152.382 225.477 152.025 225.834 152.025 226.276V263.632C152.025 264.075 152.382 264.431 152.824 264.431H309.233C309.675 264.431 310.032 264.075 310.032 263.632V226.276C310.032 225.834 309.675 225.477 309.233 225.477H152.824Z" fill="#00105B"/>
<path d="M189.818 282.539H153.167C152.332 282.539 151.654 283.216 151.654 284.051V320.694C151.654 321.529 152.332 322.206 153.167 322.206H189.818C190.654 322.206 191.331 321.529 191.331 320.694V284.051C191.331 283.216 190.654 282.539 189.818 282.539Z" fill="white"/>
<path d="M189.832 322.92H153.182C151.954 322.92 150.955 321.921 150.955 320.694V284.052C150.955 282.825 151.954 281.826 153.182 281.826H189.832C191.06 281.826 192.059 282.825 192.059 284.052V320.694C192.059 321.921 191.06 322.92 189.832 322.92ZM153.182 283.253C152.739 283.253 152.382 283.609 152.382 284.052V320.694C152.382 321.137 152.739 321.493 153.182 321.493H189.832C190.275 321.493 190.632 321.137 190.632 320.694V284.052C190.632 283.609 190.275 283.253 189.832 283.253H153.182Z" fill="#00105B"/>
<path d="M249.347 282.539H212.696C211.861 282.539 211.184 283.216 211.184 284.051V320.694C211.184 321.529 211.861 322.206 212.696 322.206H249.347C250.183 322.206 250.86 321.529 250.86 320.694V284.051C250.86 283.216 250.183 282.539 249.347 282.539Z" fill="#ACBBFF"/>
<path d="M249.346 322.92H212.695C211.468 322.92 210.469 321.921 210.469 320.694V284.051C210.469 282.824 211.468 281.825 212.695 281.825H249.346C250.573 281.825 251.573 282.824 251.573 284.051V320.694C251.573 321.921 250.573 322.92 249.346 322.92ZM212.695 283.252C212.253 283.252 211.896 283.609 211.896 284.051V320.694C211.896 321.136 212.253 321.493 212.695 321.493H249.346C249.788 321.493 250.145 321.136 250.145 320.694V284.051C250.145 283.609 249.788 283.252 249.346 283.252H212.695Z" fill="#00105B"/>
<path d="M307.634 282.539H270.984C270.148 282.539 269.471 283.216 269.471 284.051V320.694C269.471 321.529 270.148 322.206 270.984 322.206H307.634C308.47 322.206 309.147 321.529 309.147 320.694V284.051C309.147 283.216 308.47 282.539 307.634 282.539Z" fill="white"/>
<path d="M307.633 322.92H270.982C269.755 322.92 268.756 321.921 268.756 320.694V284.052C268.756 282.825 269.755 281.826 270.982 281.826H307.633C308.861 281.826 309.86 282.825 309.86 284.052V320.694C309.86 321.921 308.861 322.92 307.633 322.92ZM270.982 283.253C270.54 283.253 270.183 283.609 270.183 284.052V320.694C270.183 321.137 270.54 321.493 270.982 321.493H307.633C308.076 321.493 308.432 321.137 308.432 320.694V284.052C308.432 283.609 308.076 283.253 307.633 283.253H270.982Z" fill="#00105B"/>
<path d="M293.034 345.593H221.445C213.035 345.593 206.217 352.41 206.217 360.818V360.833C206.217 369.241 213.035 376.057 221.445 376.057H293.034C301.445 376.057 308.263 369.241 308.263 360.833V360.818C308.263 352.41 301.445 345.593 293.034 345.593Z" fill="white"/>
<path d="M293.034 376.757H221.46C212.668 376.757 205.518 369.608 205.518 360.818C205.518 352.029 212.668 344.88 221.46 344.88H293.034C301.826 344.88 308.976 352.029 308.976 360.818C308.976 369.608 301.826 376.757 293.034 376.757ZM221.46 346.293C213.453 346.293 206.945 352.799 206.945 360.804C206.945 368.809 213.453 375.316 221.46 375.316H293.034C301.041 375.316 307.549 368.809 307.549 360.804C307.549 352.799 301.041 346.293 293.034 346.293H221.46Z" fill="#00105B"/>
<path d="M2.89792 478.367H153.583C155.183 478.367 156.48 477.07 156.48 475.471V369.78C156.48 368.181 155.183 366.884 153.583 366.884H2.89792C1.29781 366.884 0.000671387 368.181 0.000671387 369.78V475.471C0.000671387 477.07 1.29781 478.367 2.89792 478.367Z" fill="#CACAE5"/>
<path d="M165.229 377.214H8.76298V361.889C8.76298 359.977 10.3186 358.436 12.2168 358.436H160.761C163.23 358.436 165.229 360.434 165.229 362.902V377.214Z" fill="#4361EE"/>
<path d="M165.942 377.927H8.04883V361.889C8.04883 359.592 9.91848 357.723 12.2163 357.723H160.761C163.615 357.723 165.942 360.048 165.942 362.902V377.927ZM9.47604 376.501H164.514V362.902C164.514 360.833 162.83 359.15 160.761 359.15H12.2163C10.7034 359.15 9.47604 360.377 9.47604 361.889V376.501Z" fill="#01004C"/>
<path d="M29.329 371.221C27.3452 371.221 25.7324 369.609 25.7324 367.611C25.7324 365.613 27.3452 364.001 29.329 364.001C31.3128 364.001 32.9256 365.613 32.9256 367.611C32.9256 369.609 31.3128 371.221 29.329 371.221ZM29.329 365.442C28.1301 365.442 27.1596 366.427 27.1596 367.625C27.1596 368.824 28.1301 369.808 29.329 369.808C30.5279 369.808 31.4984 368.824 31.4984 367.625C31.4984 366.427 30.5279 365.442 29.329 365.442Z" fill="white"/>
<path d="M40.5907 371.221C38.6069 371.221 36.9941 369.609 36.9941 367.611C36.9941 365.613 38.6069 364.001 40.5907 364.001C42.5745 364.001 44.1873 365.613 44.1873 367.611C44.1873 369.609 42.5745 371.221 40.5907 371.221ZM40.5907 365.442C39.3919 365.442 38.4214 366.427 38.4214 367.625C38.4214 368.824 39.3919 369.808 40.5907 369.808C41.7896 369.808 42.7601 368.824 42.7601 367.625C42.7601 366.427 41.7896 365.442 40.5907 365.442Z" fill="white"/>
<path d="M18.1259 371.221C16.142 371.221 14.5293 369.609 14.5293 367.611C14.5293 365.613 16.142 364.001 18.1259 364.001C20.1097 364.001 21.7225 365.613 21.7225 367.611C21.7225 369.609 20.1097 371.221 18.1259 371.221ZM18.1259 365.442C16.927 365.442 15.9565 366.427 15.9565 367.625C15.9565 368.824 16.927 369.808 18.1259 369.808C19.3247 369.808 20.2952 368.824 20.2952 367.625C20.2952 366.427 19.3247 365.442 18.1259 365.442Z" fill="white"/>
<path d="M9.19159 469.149H164.672C164.948 469.149 165.172 468.925 165.172 468.65V377.728C165.172 377.452 164.948 377.228 164.672 377.228H9.19159C8.91571 377.228 8.69208 377.452 8.69208 377.728V468.65C8.69208 468.925 8.91571 469.149 9.19159 469.149Z" fill="white"/>
<path d="M164.672 469.862H9.20532C8.53453 469.862 7.99219 469.32 7.99219 468.649V377.728C7.99219 377.057 8.53453 376.515 9.20532 376.515H164.686C165.357 376.515 165.899 377.057 165.899 377.728V468.649C165.899 469.32 165.357 469.862 164.686 469.862H164.672ZM9.40513 468.435H164.458V377.942H9.4194V468.435H9.40513Z" fill="#01004C"/>
<path d="M144.777 400.23H74.4441C74.0445 400.23 73.7305 399.916 73.7305 399.517C73.7305 399.117 74.0445 398.803 74.4441 398.803H144.777C145.177 398.803 145.491 399.117 145.491 399.517C145.491 399.916 145.177 400.23 144.777 400.23Z" fill="#ACBBFF"/>
<path d="M99.1492 410.889H74.4441C74.0445 410.889 73.7305 410.575 73.7305 410.176C73.7305 409.776 74.0445 409.462 74.4441 409.462H99.1492C99.5488 409.462 99.8628 409.776 99.8628 410.176C99.8628 410.575 99.5488 410.889 99.1492 410.889Z" fill="#7C55FF"/>
<path d="M139.325 410.889H109.325C108.925 410.889 108.611 410.575 108.611 410.176C108.611 409.776 108.925 409.462 109.325 409.462H139.325C139.725 409.462 140.039 409.776 140.039 410.176C140.039 410.575 139.725 410.889 139.325 410.889Z" fill="#ACBBFF"/>
<path d="M119.53 443.279H74.4441C74.0445 443.279 73.7305 442.966 73.7305 442.566C73.7305 442.166 74.0445 441.853 74.4441 441.853H119.53C119.929 441.853 120.243 442.166 120.243 442.566C120.243 442.966 119.929 443.279 119.53 443.279Z" fill="#7C55FF"/>
<path d="M145.405 422.105H74.4441C74.0445 422.105 73.7305 421.791 73.7305 421.391C73.7305 420.992 74.0445 420.678 74.4441 420.678H145.405C145.805 420.678 146.119 420.992 146.119 421.391C146.119 421.791 145.805 422.105 145.405 422.105Z" fill="#7C55FF"/>
<path d="M96.9227 432.778H74.4441C74.0445 432.778 73.7305 432.464 73.7305 432.065C73.7305 431.665 74.0445 431.351 74.4441 431.351H96.9227C97.3223 431.351 97.6363 431.665 97.6363 432.065C97.6363 432.464 97.3223 432.778 96.9227 432.778Z" fill="#ACBBFF"/>
<path d="M144.778 432.778H103.831C103.431 432.778 103.117 432.464 103.117 432.065C103.117 431.665 103.431 431.351 103.831 431.351H144.778C145.177 431.351 145.491 431.665 145.491 432.065C145.491 432.464 145.177 432.778 144.778 432.778Z" fill="#7C55FF"/>
<path d="M26.204 419.45C26.204 410.761 32.498 403.54 40.7616 402.085L40.0765 398.047C28.2449 400.045 20.2811 411.26 22.2934 423.089L26.4609 422.375C26.3039 421.419 26.204 420.449 26.204 419.45Z" fill="#7C55FF"/>
<path d="M43.8582 437.101C35.0951 437.101 27.8591 430.723 26.4604 422.361L22.293 423.075C24.2911 434.904 35.509 442.866 47.3406 440.854L46.6698 436.859C45.7564 437.001 44.8287 437.101 43.8725 437.101H43.8582Z" fill="#CACAE5"/>
<path d="M65.1238 415.812C63.1257 403.983 51.9078 396.021 40.0762 398.033L40.7612 402.071C41.7746 401.885 42.8022 401.785 43.8583 401.785C53.6062 401.785 61.5129 409.69 61.5129 419.436C61.5129 428.24 55.0762 435.503 46.6414 436.844L47.3121 440.84C56.1894 439.341 62.8831 432.649 64.8241 424.416C65.1523 423.046 65.3379 421.633 65.395 420.178C65.4378 418.737 65.3521 417.267 65.0952 415.783L65.1238 415.812Z" fill="#ACBBFF"/>
<path d="M159.477 393.01C173.642 393.01 185.124 381.53 185.124 367.369C185.124 353.208 173.642 341.728 159.477 341.728C145.313 341.728 133.83 353.208 133.83 367.369C133.83 381.53 145.313 393.01 159.477 393.01Z" fill="#00105B"/>
<path d="M159.476 393.723C144.947 393.723 133.115 381.894 133.115 367.368C133.115 352.843 144.947 341.014 159.476 341.014C174.005 341.014 185.837 352.843 185.837 367.368C185.837 381.894 174.005 393.723 159.476 393.723ZM159.476 342.441C145.732 342.441 134.542 353.627 134.542 367.368C134.542 381.109 145.732 392.296 159.476 392.296C173.22 392.296 184.409 381.109 184.409 367.368C184.409 353.627 173.22 342.441 159.476 342.441Z" fill="#00105B"/>
<path d="M161.788 390.513C175.952 390.513 187.435 379.033 187.435 364.871C187.435 350.71 175.952 339.23 161.788 339.23C147.623 339.23 136.141 350.71 136.141 364.871C136.141 379.033 147.623 390.513 161.788 390.513Z" fill="#ACBBFF"/>
<path d="M161.788 391.226C147.259 391.226 135.428 379.397 135.428 364.871C135.428 350.346 147.259 338.517 161.788 338.517C176.317 338.517 188.149 350.346 188.149 364.871C188.149 379.397 176.317 391.226 161.788 391.226ZM161.788 339.943C148.044 339.943 136.855 351.13 136.855 364.871C136.855 378.612 148.044 389.799 161.788 389.799C175.532 389.799 186.722 378.612 186.722 364.871C186.722 351.13 175.532 339.943 161.788 339.943Z" fill="#00105B"/>
<path d="M173.593 376.815C173.593 370.137 168.184 364.729 161.505 364.729C154.825 364.729 149.416 370.137 149.416 376.815C149.416 376.858 173.579 376.872 173.579 376.815H173.593Z" fill="white"/>
<path d="M162.816 377.571C159.591 377.571 156.251 377.571 153.696 377.571C150.366 377.571 148.701 377.324 148.701 376.829C148.701 369.78 154.439 364.03 161.503 364.03C168.568 364.03 174.305 369.766 174.305 376.829C174.305 377.333 170.476 377.585 162.816 377.585V377.571ZM150.157 376.116C153.682 376.144 169.382 376.144 172.85 376.116C172.493 370.165 167.54 365.442 161.503 365.442C155.466 365.442 150.514 370.165 150.157 376.116Z" fill="#00105B"/>
<path d="M154.725 356.21C154.725 360.005 157.793 363.073 161.59 363.073C165.386 363.073 168.454 360.005 168.454 356.21C168.454 352.414 165.386 349.346 161.59 349.346C157.793 349.346 154.725 352.414 154.725 356.21Z" fill="white"/>
<path d="M161.588 363.786C157.407 363.786 154.01 360.39 154.01 356.21C154.01 352.029 157.407 348.633 161.588 348.633C165.77 348.633 169.167 352.029 169.167 356.21C169.167 360.39 165.77 363.786 161.588 363.786ZM161.588 350.06C158.192 350.06 155.437 352.814 155.437 356.21C155.437 359.606 158.192 362.36 161.588 362.36C164.985 362.36 167.74 359.606 167.74 356.21C167.74 352.814 164.985 350.06 161.588 350.06Z" fill="#00105B"/>
<path d="M278.707 102.665C278.679 102.208 278.707 101.766 278.707 101.309C278.279 77.3516 257.542 57.7318 233.793 57.7318C229.654 57.7318 225.644 58.3025 221.833 59.3584C212.699 37.1845 190.877 21.5742 165.401 21.5742C132.275 21.5742 105.329 47.9575 104.416 80.8475H94.1829C75.572 80.8475 60.4863 95.9298 60.4863 114.537V114.993C60.4863 133.6 75.572 148.682 94.1829 148.682H238.303C263.793 148.682 280.349 124.525 278.693 102.665H278.707Z" fill="#CACAE5"/>
<path d="M279.036 94.3889C279.007 93.9323 279.036 93.4899 279.036 93.0333C278.607 69.0757 257.87 49.4559 234.121 49.4559C229.982 49.4559 225.972 50.0267 222.161 51.0826C213.027 28.9086 191.205 13.2983 165.729 13.2983C132.603 13.2983 105.658 39.6817 104.744 72.5716H94.511C75.9001 72.5716 60.8145 87.6539 60.8145 106.261V106.717C60.8145 125.324 75.9001 140.406 94.511 140.406H238.631C264.121 140.406 280.677 116.249 279.021 94.3889H279.036Z" fill="#ACBBFF"/>
<path d="M238.645 141.12H94.5254C75.5577 141.12 60.1152 125.681 60.1152 106.717V106.261C60.1152 87.2973 75.5577 71.8582 94.5254 71.8582H104.059C105.329 38.5545 132.289 12.585 165.729 12.585C190.634 12.585 212.884 27.3391 222.575 50.2408C226.357 49.2562 230.225 48.7568 234.121 48.7568C258.427 48.7568 279.321 69.033 279.749 93.0334C279.749 93.2189 279.749 93.4044 279.749 93.6041C279.749 93.8467 279.749 94.1036 279.749 94.3461C280.663 106.432 276.153 119.117 267.675 128.263C259.982 136.568 249.678 141.134 238.66 141.134L238.645 141.12ZM94.5254 73.2851C76.3427 73.2851 61.5424 88.0821 61.5424 106.261V106.717C61.5424 124.896 76.3427 139.693 94.5254 139.693H238.645C249.264 139.693 259.197 135.284 266.619 127.279C274.84 118.418 279.207 106.147 278.322 94.446C278.294 94.1464 278.308 93.8467 278.322 93.5613C278.322 93.3901 278.322 93.2189 278.322 93.0619C277.908 69.8178 257.67 50.198 234.121 50.198C230.154 50.198 226.2 50.7402 222.347 51.7961C221.99 51.896 221.633 51.7105 221.49 51.3823C212.142 28.6946 190.263 14.0404 165.715 14.0404C132.832 14.0404 106.357 39.7673 105.444 72.6288C105.444 73.014 105.115 73.3279 104.73 73.3279H94.4968L94.5254 73.2851Z" fill="#01004C"/>
<path d="M150.216 139.651C149.816 139.651 149.502 139.337 149.502 138.937V97.9566C149.502 97.5571 149.816 97.2432 150.216 97.2432C150.615 97.2432 150.929 97.5571 150.929 97.9566V138.937C150.929 139.337 150.615 139.651 150.216 139.651Z" fill="white"/>
<path d="M149.987 116.806H132.718C132.318 116.806 132.004 116.492 132.004 116.092V101.11C132.004 100.71 132.318 100.396 132.718 100.396C133.117 100.396 133.431 100.71 133.431 101.11V115.379H149.987C150.386 115.379 150.7 115.693 150.7 116.092C150.7 116.492 150.386 116.806 149.987 116.806Z" fill="white"/>
<path d="M132.745 101.652C131.146 101.652 129.848 100.354 129.848 98.7555C129.848 97.1574 131.146 95.8589 132.745 95.8589C134.343 95.8589 135.642 97.1574 135.642 98.7555C135.642 100.354 134.343 101.652 132.745 101.652ZM132.745 97.2715C131.931 97.2715 131.275 97.9279 131.275 98.7412C131.275 99.5545 131.931 100.211 132.745 100.211C133.558 100.211 134.215 99.5545 134.215 98.7412C134.215 97.9279 133.558 97.2715 132.745 97.2715Z" fill="white"/>
<path d="M169.682 139.793C169.283 139.793 168.969 139.479 168.969 139.079V78.2081C168.969 77.8085 169.283 77.4946 169.682 77.4946C170.082 77.4946 170.396 77.8085 170.396 78.2081V139.079C170.396 139.479 170.082 139.793 169.682 139.793Z" fill="white"/>
<path d="M150.186 98.2563C147.774 98.2563 145.805 96.2871 145.805 93.8757C145.805 91.4642 147.774 89.4951 150.186 89.4951C152.598 89.4951 154.568 91.4642 154.568 93.8757C154.568 96.2871 152.598 98.2563 150.186 98.2563ZM150.186 90.9077C148.559 90.9077 147.232 92.2348 147.232 93.8614C147.232 95.4881 148.559 96.8151 150.186 96.8151C151.813 96.8151 153.141 95.4881 153.141 93.8614C153.141 92.2348 151.813 90.9077 150.186 90.9077Z" fill="white"/>
<path d="M189.762 139.651C189.363 139.651 189.049 139.337 189.049 138.937V97.9566C189.049 97.5571 189.363 97.2432 189.762 97.2432C190.162 97.2432 190.476 97.5571 190.476 97.9566V138.937C190.476 139.337 190.162 139.651 189.762 139.651Z" fill="white"/>
<path d="M207.274 116.806H190.005C189.605 116.806 189.291 116.492 189.291 116.092C189.291 115.693 189.605 115.379 190.005 115.379H206.56V101.11C206.56 100.71 206.874 100.396 207.274 100.396C207.674 100.396 207.988 100.71 207.988 101.11V116.092C207.988 116.492 207.674 116.806 207.274 116.806Z" fill="white"/>
<path d="M207.231 101.652C205.633 101.652 204.334 100.354 204.334 98.7555C204.334 97.1574 205.633 95.8589 207.231 95.8589C208.83 95.8589 210.128 97.1574 210.128 98.7555C210.128 100.354 208.83 101.652 207.231 101.652ZM207.231 97.2715C206.418 97.2715 205.761 97.9279 205.761 98.7412C205.761 99.5545 206.418 100.211 207.231 100.211C208.045 100.211 208.701 99.5545 208.701 98.7412C208.701 97.9279 208.045 97.2715 207.231 97.2715Z" fill="white"/>
<path d="M189.79 98.2563C187.378 98.2563 185.408 96.2871 185.408 93.8757C185.408 91.4642 187.378 89.4951 189.79 89.4951C192.202 89.4951 194.171 91.4642 194.171 93.8757C194.171 96.2871 192.202 98.2563 189.79 98.2563ZM189.79 90.9077C188.163 90.9077 186.835 92.2348 186.835 93.8614C186.835 95.4881 188.163 96.8151 189.79 96.8151C191.417 96.8151 192.744 95.4881 192.744 93.8614C192.744 92.2348 191.417 90.9077 189.79 90.9077Z" fill="white"/>
<path d="M169.711 78.4361C166.914 78.4361 164.645 76.1674 164.645 73.3707C164.645 70.5739 166.914 68.3052 169.711 68.3052C172.508 68.3052 174.778 70.5739 174.778 73.3707C174.778 76.1674 172.508 78.4361 169.711 78.4361ZM169.711 69.7321C167.699 69.7321 166.072 71.3587 166.072 73.3707C166.072 75.3826 167.713 77.0092 169.711 77.0092C171.709 77.0092 173.351 75.3826 173.351 73.3707C173.351 71.3587 171.709 69.7321 169.711 69.7321Z" fill="white"/>
</svg>
