<svg width="274" height="522" viewBox="0 0 274 522" fill="none" xmlns="http://www.w3.org/2000/svg">
<path d="M249.448 407.498C249.189 407.498 248.943 407.354 248.814 407.123L245.266 400.591L238.747 397.001C238.516 396.871 238.372 396.626 238.372 396.367C238.372 396.107 238.516 395.862 238.747 395.732L245.28 392.185L248.871 385.668C249.001 385.437 249.246 385.293 249.506 385.293C249.765 385.293 250.011 385.437 250.14 385.668L253.688 392.2L260.207 395.79C260.438 395.92 260.582 396.165 260.582 396.424C260.582 396.684 260.438 396.929 260.207 397.059L253.674 400.606L250.083 407.123C249.953 407.354 249.708 407.498 249.448 407.498ZM240.593 396.367L246.146 399.423C246.261 399.495 246.362 399.596 246.434 399.712L249.463 405.277L252.52 399.726C252.592 399.611 252.693 399.51 252.809 399.438L258.375 396.41L252.823 393.353C252.708 393.281 252.607 393.18 252.534 393.065L249.506 387.499L246.448 393.05C246.376 393.166 246.29 393.267 246.16 393.339L240.593 396.367Z" fill="#849AFF"/>
<path opacity="0.72" d="M192.305 98.0952C189.622 98.0952 187.459 95.9179 187.459 93.2505C187.459 90.583 189.637 88.4058 192.305 88.4058C194.973 88.4058 197.151 90.583 197.151 93.2505C197.151 95.9179 194.973 98.0952 192.305 98.0952ZM192.305 89.8332C190.43 89.8332 188.901 91.3616 188.901 93.2361C188.901 95.1105 190.43 96.6389 192.305 96.6389C194.18 96.6389 195.708 95.1105 195.708 93.2361C195.708 91.3616 194.18 89.8332 192.305 89.8332Z" fill="#5C79FF"/>
<path opacity="0.71" d="M268.306 288.728C265.623 288.728 263.46 286.55 263.46 283.883C263.46 281.215 265.638 279.038 268.306 279.038C270.974 279.038 273.151 281.215 273.151 283.883C273.151 286.55 270.974 288.728 268.306 288.728ZM268.306 280.466C266.431 280.466 264.902 281.994 264.902 283.868C264.902 285.743 266.431 287.271 268.306 287.271C270.181 287.271 271.709 285.743 271.709 283.868C271.709 281.994 270.181 280.466 268.306 280.466Z" fill="#7FD6C3"/>
<path d="M250.678 447.386C248.948 447.386 247.549 445.987 247.549 444.257C247.549 442.527 248.948 441.128 250.678 441.128C252.409 441.128 253.808 442.527 253.808 444.257C253.808 445.987 252.409 447.386 250.678 447.386ZM250.678 442.57C249.741 442.57 248.991 443.32 248.991 444.257C248.991 445.194 249.755 445.944 250.678 445.944C251.601 445.944 252.366 445.18 252.366 444.257C252.366 443.334 251.601 442.57 250.678 442.57Z" fill="#ACBBFF"/>
<path d="M-5.54247 446.738H-368.501C-375.366 446.738 -380.933 440.913 -380.933 433.732V198.36C-380.933 191.18 -375.366 185.354 -368.501 185.354H-5.54247C1.3224 185.354 6.88928 191.18 6.88928 198.36V433.732C6.88928 440.913 1.3224 446.738 -5.54247 446.738Z" fill="white"/>
<path d="M-5.54211 447.459H-368.5C-375.755 447.459 -381.653 441.302 -381.653 433.732V198.36C-381.653 190.79 -375.755 184.633 -368.5 184.633H-5.54211C1.71216 184.633 7.61074 190.79 7.61074 198.36V433.732C7.61074 441.302 1.71216 447.459 -5.54211 447.459ZM-368.5 186.075C-374.962 186.075 -380.211 191.583 -380.211 198.36V433.732C-380.211 440.509 -374.962 446.017 -368.5 446.017H-5.54211C0.918945 446.017 6.16854 440.509 6.16854 433.732V198.36C6.16854 191.583 0.918945 186.075 -5.54211 186.075H-368.5Z" fill="#00105B"/>
<path d="M-6.88526 445.426H-366.959C-373.766 445.426 -379.29 440.019 -379.29 433.358V400.872H5.45997V433.358C5.45997 440.033 -0.0636859 445.426 -6.87087 445.426H-6.88526Z" fill="#00105B"/>
<path d="M-6.88486 446.147H-366.959C-374.155 446.147 -380.011 440.408 -380.011 433.343V400.858C-380.011 400.454 -379.693 400.137 -379.29 400.137H5.46036C5.86418 400.137 6.18146 400.454 6.18146 400.858V433.343C6.18146 440.394 0.326105 446.147 -6.87047 446.147H-6.88486ZM-378.583 401.579V433.343C-378.583 439.601 -373.377 444.705 -366.973 444.705H-6.8993C-0.495933 444.705 4.71039 439.615 4.71039 433.343V401.579H-378.583Z" fill="white"/>
<path d="M260.647 181.049L254.316 161.036C253.797 159.392 252.052 158.484 250.408 159.003L237.485 163.084C236.159 163.502 234.702 163.012 233.952 161.844C231.154 157.489 227.852 153.582 224.131 150.15C223.107 149.213 222.876 147.684 223.511 146.459L229.755 134.433C230.548 132.905 229.957 131.031 228.428 130.238L209.795 120.563C208.267 119.77 206.392 120.361 205.598 121.889L199.339 133.914C198.705 135.14 197.32 135.818 195.965 135.529C191.018 134.448 185.912 134.001 180.749 134.203C179.365 134.26 178.125 133.352 177.706 132.026L173.625 119.106C173.106 117.463 171.361 116.554 169.717 117.073L149.699 123.403C148.055 123.922 147.146 125.667 147.665 127.311L151.747 140.23C152.165 141.556 151.675 143.013 150.506 143.762C146.151 146.56 142.243 149.862 138.81 153.582C137.873 154.605 136.344 154.836 135.118 154.202L123.09 147.958C121.562 147.165 119.687 147.756 118.893 149.285L109.216 167.914C108.423 169.442 109.014 171.317 110.543 172.11L122.571 178.368C123.797 179.002 124.475 180.386 124.186 181.742C123.105 186.687 122.658 191.791 122.859 196.953C122.917 198.338 122.009 199.578 120.682 199.996L107.76 204.076C106.116 204.595 105.207 206.34 105.726 207.984L112.057 227.997C112.577 229.641 114.322 230.549 115.966 230.03L128.888 225.95C130.215 225.531 131.671 226.022 132.421 227.19C135.219 231.544 138.522 235.451 142.243 238.883C143.267 239.82 143.497 241.349 142.863 242.574L136.618 254.6C135.825 256.128 136.416 258.002 137.945 258.795L156.578 268.47C158.107 269.264 159.982 268.672 160.775 267.144L167.034 255.119C167.669 253.893 169.053 253.215 170.409 253.504C175.356 254.585 180.461 255.032 185.624 254.83C187.008 254.773 188.249 255.681 188.667 257.008L192.748 269.927C193.268 271.571 195.013 272.479 196.657 271.96L216.675 265.63C218.319 265.111 219.227 263.366 218.708 261.723L214.627 248.803C214.208 247.477 214.699 246.02 215.867 245.271C220.222 242.473 224.131 239.172 227.563 235.451C228.501 234.428 230.029 234.197 231.255 234.831L243.283 241.075C244.812 241.868 246.687 241.277 247.48 239.748L257.157 221.119C257.95 219.591 257.359 217.716 255.83 216.923L243.802 210.666C242.576 210.031 241.899 208.647 242.187 207.292C243.269 202.346 243.716 197.242 243.514 192.08C243.456 190.696 244.365 189.456 245.692 189.037L258.614 184.957C260.258 184.438 261.166 182.693 260.647 181.049ZM193.282 226.743C171.981 232.842 150.405 218.553 147.723 196.564C145.603 179.261 156.607 162.665 173.365 157.864C194.667 151.765 216.242 166.054 218.924 188.043C221.044 205.345 210.04 221.941 193.282 226.743Z" fill="#CACAE5"/>
<path d="M260.979 173.551L254.648 153.538C254.129 151.894 252.384 150.986 250.74 151.505L237.818 155.586C236.491 156.004 235.034 155.513 234.284 154.346C231.486 149.991 228.184 146.084 224.463 142.652C223.439 141.715 223.208 140.186 223.843 138.961L230.087 126.935C230.88 125.407 230.289 123.533 228.76 122.74L210.127 113.065C208.599 112.272 206.724 112.863 205.93 114.391L199.671 126.416C199.037 127.642 197.652 128.32 196.297 128.031C191.35 126.95 186.244 126.503 181.081 126.705C179.697 126.762 178.457 125.854 178.038 124.528L173.957 111.608C173.438 109.965 171.693 109.056 170.049 109.575L150.031 115.905C148.387 116.424 147.478 118.169 147.997 119.813L152.079 132.732C152.497 134.058 152.007 135.515 150.838 136.264C146.483 139.062 142.575 142.364 139.142 146.084C138.205 147.107 136.676 147.338 135.45 146.704L123.422 140.46C121.894 139.667 120.019 140.258 119.225 141.787L109.548 160.416C108.755 161.944 109.346 163.819 110.875 164.612L122.903 170.869C124.129 171.504 124.807 172.888 124.518 174.243C123.437 179.189 122.99 184.293 123.192 189.455C123.249 190.839 122.341 192.079 121.014 192.498L108.092 196.578C106.448 197.097 105.539 198.842 106.058 200.486L112.389 220.499C112.909 222.143 114.654 223.051 116.298 222.532L129.22 218.451C130.547 218.033 132.003 218.524 132.753 219.691C135.551 224.046 138.854 227.953 142.575 231.385C143.599 232.322 143.829 233.851 143.195 235.076L136.95 247.102C136.157 248.63 136.748 250.504 138.277 251.297L156.91 260.972C158.439 261.765 160.314 261.174 161.107 259.646L167.366 247.621C168.001 246.395 169.385 245.717 170.741 246.006C175.688 247.087 180.793 247.534 185.956 247.332C187.341 247.275 188.581 248.183 188.999 249.51L193.08 262.429C193.6 264.072 195.345 264.981 196.989 264.462L217.007 258.132C218.651 257.613 219.559 255.868 219.04 254.224L214.959 241.305C214.54 239.979 215.031 238.522 216.199 237.773C220.554 234.975 224.463 231.673 227.895 227.953C228.833 226.93 230.361 226.699 231.587 227.333L243.615 233.577C245.144 234.37 247.019 233.779 247.812 232.25L257.489 213.621C258.282 212.093 257.691 210.218 256.162 209.425L244.134 203.168C242.909 202.533 242.231 201.149 242.519 199.794C243.601 194.848 244.048 189.744 243.846 184.582C243.788 183.198 244.697 181.958 246.024 181.539L258.946 177.459C260.59 176.94 261.498 175.195 260.979 173.551ZM193.614 221.249C172.313 227.348 150.738 213.059 148.055 191.07C145.935 173.768 156.939 157.172 173.697 152.37C194.999 146.271 216.574 160.56 219.256 182.549C221.376 199.851 210.372 216.447 193.614 221.249Z" fill="#4361EE"/>
<path d="M196.065 265.312C194.436 265.312 192.921 264.26 192.402 262.63L188.321 249.711C188.003 248.687 187.037 247.981 185.999 248.039C180.836 248.255 175.644 247.808 170.596 246.698C169.572 246.467 168.505 246.986 168.015 247.938L161.77 259.963C161.294 260.871 160.501 261.549 159.52 261.852C158.539 262.155 157.501 262.068 156.592 261.592L137.959 251.917C137.05 251.441 136.373 250.648 136.07 249.668C135.767 248.687 135.853 247.649 136.329 246.741L142.574 234.716C143.064 233.764 142.877 232.596 142.113 231.89C138.305 228.386 134.959 224.406 132.176 220.066C131.613 219.187 130.503 218.797 129.479 219.129L116.557 223.209C114.538 223.844 112.374 222.719 111.74 220.715L105.409 200.702C104.774 198.683 105.899 196.535 107.904 195.886L120.826 191.805C121.85 191.488 122.542 190.522 122.499 189.484C122.282 184.322 122.744 179.131 123.84 174.085C124.056 173.061 123.552 172.008 122.6 171.504L110.572 165.26C109.663 164.785 108.985 163.992 108.682 163.011C108.38 162.031 108.466 160.992 108.942 160.084L118.619 141.455C119.095 140.547 119.888 139.869 120.869 139.566C121.85 139.263 122.888 139.35 123.797 139.826L135.825 146.069C136.776 146.559 137.945 146.372 138.651 145.608C142.156 141.801 146.136 138.456 150.477 135.673C151.357 135.111 151.746 134 151.415 132.977L147.333 120.058C147.031 119.077 147.117 118.039 147.593 117.131C148.069 116.222 148.862 115.544 149.843 115.242L169.861 108.912C171.865 108.277 174.028 109.388 174.677 111.406L178.759 124.325C179.076 125.349 180.042 126.027 181.081 125.998C186.258 125.782 191.436 126.229 196.484 127.339C197.507 127.555 198.56 127.051 199.065 126.099L205.324 114.074C206.305 112.199 208.612 111.464 210.502 112.444L229.135 122.119C231.01 123.1 231.745 125.407 230.765 127.296L224.52 139.321C224.03 140.273 224.217 141.441 224.981 142.147C228.789 145.651 232.135 149.63 234.918 153.985C235.481 154.864 236.591 155.254 237.615 154.922L250.537 150.842C251.518 150.539 252.556 150.625 253.465 151.101C254.373 151.577 255.037 152.37 255.354 153.35L261.685 173.364C262.32 175.382 261.209 177.531 259.19 178.18L246.268 182.26C245.244 182.592 244.552 183.543 244.595 184.582C244.812 189.744 244.35 194.934 243.254 199.981C243.038 201.005 243.543 202.057 244.494 202.562L256.522 208.82C258.397 209.8 259.133 212.107 258.152 213.996L248.475 232.625C247.999 233.533 247.206 234.211 246.225 234.514C245.244 234.817 244.206 234.73 243.297 234.254L231.269 228.011C230.318 227.506 229.149 227.708 228.443 228.472C224.938 232.279 220.958 235.624 216.602 238.407C215.722 238.969 215.333 240.079 215.665 241.118L219.746 254.037C220.381 256.055 219.256 258.204 217.251 258.853L197.233 265.183C196.844 265.298 196.469 265.356 196.08 265.356L196.065 265.312ZM186.085 246.597C187.715 246.597 189.186 247.678 189.691 249.279L193.772 262.198C194.176 263.452 195.517 264.159 196.772 263.755L216.79 257.425C218.044 257.022 218.751 255.681 218.347 254.426L214.266 241.507C213.747 239.863 214.381 238.075 215.809 237.152C220.049 234.427 223.943 231.154 227.361 227.449C228.515 226.194 230.39 225.891 231.918 226.684L243.946 232.928C244.509 233.216 245.158 233.274 245.763 233.086C246.369 232.899 246.874 232.481 247.162 231.904L256.84 213.275C257.445 212.107 256.984 210.665 255.816 210.045L243.788 203.787C242.259 202.994 241.437 201.279 241.797 199.62C242.865 194.689 243.312 189.628 243.095 184.582C243.023 182.895 244.119 181.337 245.778 180.818L258.7 176.738C259.955 176.334 260.661 174.993 260.258 173.739L253.926 153.725C253.739 153.12 253.321 152.615 252.744 152.327C252.181 152.038 251.532 151.981 250.927 152.168L238.004 156.249C236.375 156.768 234.572 156.133 233.649 154.706C230.923 150.452 227.649 146.574 223.943 143.156C222.688 142.003 222.385 140.128 223.179 138.6L229.423 126.575C230.029 125.407 229.568 123.965 228.399 123.345L209.766 113.67C208.598 113.064 207.141 113.511 206.536 114.694L200.291 126.719C199.498 128.247 197.782 129.069 196.123 128.709C191.191 127.642 186.129 127.195 181.081 127.411C179.393 127.469 177.836 126.387 177.317 124.729L173.235 111.81C172.831 110.556 171.49 109.849 170.236 110.253L150.218 116.583C149.612 116.77 149.107 117.188 148.819 117.765C148.53 118.327 148.473 118.976 148.66 119.582L152.742 132.501C153.261 134.145 152.626 135.933 151.198 136.855C146.958 139.581 143.064 142.854 139.646 146.559C138.493 147.814 136.618 148.131 135.089 147.323L123.061 141.08C122.499 140.792 121.85 140.734 121.244 140.922C120.638 141.109 120.134 141.527 119.845 142.104L110.168 160.733C109.879 161.295 109.822 161.944 110.009 162.564C110.197 163.17 110.615 163.674 111.192 163.963L123.22 170.206C124.749 170.999 125.571 172.715 125.21 174.373C124.143 179.304 123.696 184.365 123.912 189.412C123.984 191.099 122.874 192.656 121.23 193.175L108.307 197.256C107.053 197.659 106.346 199 106.75 200.255L113.081 220.268C113.485 221.522 114.826 222.229 116.081 221.825L129.003 217.745C130.647 217.226 132.435 217.86 133.358 219.288C136.084 223.527 139.344 227.42 143.064 230.837C144.319 231.991 144.622 233.865 143.829 235.393L137.584 247.419C137.296 247.981 137.238 248.63 137.425 249.25C137.613 249.855 138.031 250.36 138.608 250.648L157.241 260.323C157.804 260.626 158.453 260.669 159.058 260.482C159.664 260.295 160.169 259.876 160.457 259.3L166.702 247.274C167.495 245.746 169.212 244.924 170.87 245.285C175.802 246.352 180.865 246.799 185.912 246.582C185.97 246.582 186.013 246.582 186.071 246.582L186.085 246.597ZM183.648 223.383C176.523 223.383 169.5 221.306 163.457 217.298C154.516 211.372 148.646 201.855 147.333 191.157C145.185 173.537 156.434 156.566 173.495 151.678C183.85 148.708 194.926 150.409 203.853 156.321C212.795 162.247 218.665 171.763 219.977 182.462C222.126 200.082 210.877 217.053 193.815 221.941C190.47 222.892 187.052 223.368 183.648 223.368V223.383ZM183.648 151.692C180.389 151.692 177.1 152.139 173.884 153.062C157.486 157.763 146.684 174.056 148.761 190.984C150.016 201.25 155.655 210.406 164.25 216.101C172.831 221.782 183.46 223.411 193.412 220.571C209.809 215.87 220.612 199.577 218.535 182.649C217.28 172.383 211.641 163.227 203.046 157.532C197.233 153.682 190.484 151.692 183.648 151.692Z" fill="#00105B"/>
<path d="M163.891 189.138L163.804 189.08C163.271 188.792 162.91 188.2 162.91 187.58C162.91 187.004 163.227 186.441 163.804 186.11L173.943 180.818C174.217 180.674 174.477 180.616 174.751 180.616C175.702 180.616 176.438 181.424 176.438 182.346C176.438 182.909 176.15 183.471 175.587 183.788L168.203 187.653L175.529 191.632C176.092 191.906 176.424 192.483 176.424 193.103C176.424 194.026 175.688 194.804 174.765 194.804C174.491 194.804 174.217 194.747 173.972 194.602L163.891 189.152V189.138Z" fill="#00105B"/>
<path d="M178.067 198.193C178.067 197.991 178.111 197.775 178.168 197.573L185.365 175.195C185.653 174.301 186.49 173.739 187.384 173.739C188.639 173.739 189.461 174.82 189.461 176.046C189.461 176.276 189.417 176.507 189.36 176.709L182.163 198.856C181.846 199.75 181.038 200.313 180.144 200.313C179.942 200.313 179.755 200.298 179.538 200.226C178.659 199.909 178.067 199.087 178.067 198.193Z" fill="#00105B"/>
<path d="M191.48 183.76C190.917 183.443 190.629 182.88 190.629 182.318C190.629 181.395 191.35 180.588 192.316 180.588C192.59 180.588 192.85 180.646 193.124 180.79L203.263 186.081C203.839 186.413 204.157 187.004 204.157 187.581C204.157 188.158 203.811 188.763 203.263 189.052L203.162 189.109L193.109 194.56C192.864 194.704 192.59 194.762 192.316 194.762C191.379 194.762 190.658 193.969 190.658 193.06C190.658 192.44 190.989 191.849 191.552 191.589L198.864 187.61L191.494 183.746L191.48 183.76Z" fill="#00105B"/>
<path d="M135.826 177.732C135.826 177.732 135.725 177.732 135.681 177.718C135.292 177.631 135.047 177.256 135.119 176.867C138.84 158.973 152.497 144.194 169.905 139.22C174.419 137.922 179.048 137.273 183.663 137.259C184.067 137.259 184.385 137.576 184.385 137.98C184.385 138.383 184.067 138.701 183.663 138.701C179.178 138.701 174.679 139.35 170.294 140.604C153.392 145.449 140.138 159.795 136.532 177.17C136.46 177.516 136.157 177.747 135.826 177.747V177.732Z" fill="white"/>
<path d="M183.648 236.36C174 236.36 164.481 233.548 156.275 228.127C144.16 220.11 136.2 207.191 134.44 192.7C134.397 192.31 134.671 191.95 135.075 191.892C135.464 191.835 135.825 192.123 135.882 192.527C137.598 206.599 145.329 219.129 157.083 226.916C168.837 234.702 183.403 236.937 197.031 233.029C219.487 226.598 234.283 204.278 231.442 181.107C229.149 162.305 216.011 146.516 197.983 140.879C197.608 140.763 197.392 140.36 197.507 139.97C197.623 139.595 198.027 139.379 198.416 139.494C216.992 145.305 230.519 161.555 232.885 180.92C235.798 204.797 220.568 227.781 197.435 234.413C192.907 235.711 188.263 236.345 183.662 236.345L183.648 236.36Z" fill="white"/>
<path d="M183.649 227.925C175.645 227.925 167.741 225.603 160.949 221.09C150.896 214.429 144.291 203.715 142.82 191.705C140.397 171.893 153.045 152.817 172.241 147.324C183.894 143.993 196.326 145.896 206.378 152.558C216.43 159.219 223.035 169.932 224.492 181.943C226.915 201.755 214.267 220.831 195.085 226.324C191.321 227.406 187.471 227.939 183.649 227.939V227.925ZM183.649 146.79C179.928 146.79 176.178 147.309 172.515 148.362C153.839 153.711 141.522 172.283 143.873 191.575C145.301 203.283 151.733 213.708 161.525 220.196C171.304 226.67 183.418 228.53 194.768 225.286C213.445 219.937 225.761 201.365 223.41 182.073C221.983 170.365 215.55 159.94 205.772 153.452C199.152 149.068 191.451 146.79 183.663 146.79H183.649Z" fill="white"/>
<path d="M154.359 97.2471H153.695C152.087 97.2471 150.782 98.5511 150.782 100.16V122.437C150.782 124.045 152.087 125.349 153.695 125.349H154.359C155.968 125.349 157.272 124.045 157.272 122.437V100.16C157.272 98.5511 155.968 97.2471 154.359 97.2471Z" fill="#00105B"/>
<path d="M154.359 126.07H153.696C151.691 126.07 150.062 124.441 150.062 122.437V100.174C150.062 98.1699 151.691 96.5405 153.696 96.5405H154.359C156.364 96.5405 157.994 98.1699 157.994 100.174V122.437C157.994 124.441 156.364 126.07 154.359 126.07ZM153.696 97.968C152.484 97.968 151.504 98.9485 151.504 100.16V122.422C151.504 123.633 152.484 124.614 153.696 124.614H154.359C155.571 124.614 156.551 123.633 156.551 122.422V100.16C156.551 98.9485 155.571 97.968 154.359 97.968H153.696Z" fill="#00105B"/>
<path d="M23.552 266.148V68.4236C23.552 57.4077 32.4792 48.4824 43.4976 48.4824H36.7048C25.6287 48.4824 16.6582 57.4509 16.6582 68.5245V266.033C16.6582 277.107 25.6287 286.075 36.7048 286.075H43.4976C32.4792 286.075 23.552 277.15 23.552 266.134V266.148Z" fill="#00105B"/>
<path d="M43.497 286.811H36.7042C25.2532 286.811 15.9365 277.496 15.9365 266.048V68.5394C15.9365 57.0909 25.2532 47.7764 36.7042 47.7764H43.497V49.2182C32.8968 49.2182 24.2725 57.8407 24.2725 68.4385V266.163C24.2725 276.761 32.8968 285.383 43.497 285.383V286.825V286.811ZM35.8677 49.2182C25.5993 49.6652 17.3787 58.1579 17.3787 68.525V266.033C17.3787 276.401 25.5993 284.893 35.8677 285.34C28.2385 282.298 22.8303 274.843 22.8303 266.134V68.4241C22.8303 59.7295 28.2385 52.2606 35.8677 49.2182Z" fill="#00105B"/>
<path d="M20.3199 107.917C19.3825 107.917 18.6182 107.153 18.6182 106.216V81.5164C18.6182 80.5791 19.3825 79.8149 20.3199 79.8149C21.2574 79.8149 22.0217 80.5791 22.0217 81.5164V106.216C22.0217 107.153 21.2574 107.917 20.3199 107.917Z" fill="#CACAE5"/>
<path d="M20.3203 108.624C18.9791 108.624 17.8975 107.542 17.8975 106.201V81.5019C17.8975 80.161 18.9791 79.0796 20.3203 79.0796C21.6616 79.0796 22.7432 80.161 22.7432 81.5019V106.201C22.7432 107.542 21.6616 108.624 20.3203 108.624ZM20.3203 80.5215C19.7867 80.5215 19.3397 80.954 19.3397 81.5019V106.201C19.3397 106.735 19.7723 107.182 20.3203 107.182C20.8684 107.182 21.301 106.749 21.301 106.201V81.5019C21.301 80.9684 20.8684 80.5215 20.3203 80.5215Z" fill="#00105B"/>
<path d="M20.3199 145.117C19.3825 145.117 18.6182 144.353 18.6182 143.416V118.717C18.6182 117.779 19.3825 117.015 20.3199 117.015C21.2574 117.015 22.0217 117.779 22.0217 118.717V143.416C22.0217 144.353 21.2574 145.117 20.3199 145.117Z" fill="#CACAE5"/>
<path d="M20.3203 145.839C18.9791 145.839 17.8975 144.757 17.8975 143.416V118.717C17.8975 117.376 18.9791 116.294 20.3203 116.294C21.6616 116.294 22.7432 117.376 22.7432 118.717V143.416C22.7432 144.757 21.6616 145.839 20.3203 145.839ZM20.3203 117.736C19.7867 117.736 19.3397 118.169 19.3397 118.717V143.416C19.3397 143.95 19.7723 144.397 20.3203 144.397C20.8684 144.397 21.301 143.964 21.301 143.416V118.717C21.301 118.183 20.8684 117.736 20.3203 117.736Z" fill="#00105B"/>
<path d="M133.648 48.4824H43.4964C32.478 48.4824 23.5508 57.4077 23.5508 68.4236V266.148C23.5508 277.164 32.478 286.09 43.4964 286.09H133.648C144.667 286.09 153.594 277.164 153.594 266.148V68.4236C153.594 57.4077 144.667 48.4824 133.648 48.4824Z" fill="#CACAE5"/>
<path d="M133.649 286.81H43.4968C32.1034 286.81 22.8301 277.539 22.8301 266.148V68.4233C22.8301 57.0325 32.1034 47.7612 43.4968 47.7612H133.649C145.042 47.7612 154.315 57.0325 154.315 68.4233V266.148C154.315 277.539 145.042 286.81 133.649 286.81ZM43.4968 49.2031C32.8966 49.2031 24.2723 57.8255 24.2723 68.4233V266.148C24.2723 276.746 32.8966 285.368 43.4968 285.368H133.649C144.249 285.368 152.873 276.746 152.873 266.148V68.4233C152.873 57.8255 144.249 49.2031 133.649 49.2031H43.4968Z" fill="#00105B"/>
<path d="M88.5796 65.2519C86.7047 65.2519 85.1904 63.738 85.1904 61.8635C85.1904 59.9891 86.7047 58.4751 88.5796 58.4751C90.4545 58.4751 91.9687 59.9891 91.9687 61.8635C91.9687 63.738 90.4545 65.2519 88.5796 65.2519ZM88.5796 59.5565C87.3105 59.5565 86.2721 60.5947 86.2721 61.8635C86.2721 63.1324 87.3105 64.1705 88.5796 64.1705C89.8487 64.1705 90.8871 63.1324 90.8871 61.8635C90.8871 60.5947 89.8487 59.5565 88.5796 59.5565Z" fill="white"/>
<path d="M79.2487 63.6803H65.9517C64.971 63.6803 64.1777 62.8873 64.1777 61.9068C64.1777 60.9263 64.971 60.1333 65.9517 60.1333H79.2487C80.2294 60.1333 81.0226 60.9263 81.0226 61.9068C81.0226 62.8873 80.2294 63.6803 79.2487 63.6803ZM65.9517 61.2003C65.5623 61.2003 65.2594 61.5175 65.2594 61.8924C65.2594 62.2673 65.5767 62.5845 65.9517 62.5845H79.2487C79.6381 62.5845 79.941 62.2673 79.941 61.8924C79.941 61.5175 79.6237 61.2003 79.2487 61.2003H65.9517Z" fill="white"/>
<path d="M111.497 63.6803H98.1997C97.219 63.6803 96.4258 62.8873 96.4258 61.9068C96.4258 60.9263 97.219 60.1333 98.1997 60.1333H111.497C112.477 60.1333 113.271 60.9263 113.271 61.9068C113.271 62.8873 112.477 63.6803 111.497 63.6803ZM98.1997 61.2003C97.8103 61.2003 97.5074 61.5175 97.5074 61.8924C97.5074 62.2673 97.8247 62.5845 98.1997 62.5845H111.497C111.886 62.5845 112.189 62.2673 112.189 61.8924C112.189 61.5175 111.872 61.2003 111.497 61.2003H98.1997Z" fill="white"/>
<path d="M143.455 70.9321H33.7041V265.989H143.455V70.9321Z" fill="white"/>
<path d="M143.456 266.711H33.7045C33.3007 266.711 32.9834 266.393 32.9834 265.99V70.9324C32.9834 70.5286 33.3007 70.2114 33.7045 70.2114H143.456C143.86 70.2114 144.177 70.5286 144.177 70.9324V265.99C144.177 266.393 143.86 266.711 143.456 266.711ZM34.4256 265.269H142.735V71.6533H34.4256V265.269Z" fill="#00105B"/>
<path d="M142.706 71.6533H34.4541V86.6489H142.706V71.6533Z" fill="#ACBBFF"/>
<path d="M116.212 81.5014C114.871 81.5014 113.789 80.42 113.789 79.0791C113.789 77.7381 114.871 76.6567 116.212 76.6567C117.553 76.6567 118.635 77.7381 118.635 79.0791C118.635 80.42 117.553 81.5014 116.212 81.5014ZM116.212 77.7381C115.476 77.7381 114.871 78.3437 114.871 79.0791C114.871 79.8145 115.476 80.42 116.212 80.42C116.948 80.42 117.553 79.8145 117.553 79.0791C117.553 78.3437 116.948 77.7381 116.212 77.7381Z" fill="white"/>
<path d="M125.99 81.5014C124.649 81.5014 123.567 80.42 123.567 79.0791C123.567 77.7381 124.649 76.6567 125.99 76.6567C127.332 76.6567 128.413 77.7381 128.413 79.0791C128.413 80.42 127.332 81.5014 125.99 81.5014ZM125.99 77.7381C125.255 77.7381 124.649 78.3437 124.649 79.0791C124.649 79.8145 125.255 80.42 125.99 80.42C126.726 80.42 127.332 79.8145 127.332 79.0791C127.332 78.3437 126.726 77.7381 125.99 77.7381Z" fill="white"/>
<path d="M135.941 81.5014C134.6 81.5014 133.519 80.42 133.519 79.0791C133.519 77.7381 134.6 76.6567 135.941 76.6567C137.283 76.6567 138.364 77.7381 138.364 79.0791C138.364 80.42 137.283 81.5014 135.941 81.5014ZM135.941 77.7381C135.206 77.7381 134.6 78.3437 134.6 79.0791C134.6 79.8145 135.206 80.42 135.941 80.42C136.677 80.42 137.283 79.8145 137.283 79.0791C137.283 78.3437 136.677 77.7381 135.941 77.7381Z" fill="white"/>
<path d="M85.2054 109.704H51.8617C51.4579 109.704 51.1406 109.387 51.1406 108.983C51.1406 108.579 51.4579 108.262 51.8617 108.262H85.2054C85.6092 108.262 85.9265 108.579 85.9265 108.983C85.9265 109.387 85.6092 109.704 85.2054 109.704Z" fill="#4361EE"/>
<path d="M105.439 109.704H93.5268C93.1229 109.704 92.8057 109.387 92.8057 108.983C92.8057 108.579 93.1229 108.262 93.5268 108.262H105.439C105.843 108.262 106.16 108.579 106.16 108.983C106.16 109.387 105.843 109.704 105.439 109.704Z" fill="#ACBBFF"/>
<path d="M125.891 109.704H114.973C114.569 109.704 114.252 109.387 114.252 108.983C114.252 108.579 114.569 108.262 114.973 108.262H125.891C126.294 108.262 126.612 108.579 126.612 108.983C126.612 109.387 126.294 109.704 125.891 109.704Z" fill="#ACBBFF"/>
<path d="M125.89 135.514H92.5463C92.1425 135.514 91.8252 135.196 91.8252 134.793C91.8252 134.389 92.1425 134.072 92.5463 134.072H125.89C126.294 134.072 126.611 134.389 126.611 134.793C126.611 135.196 126.294 135.514 125.89 135.514Z" fill="#4361EE"/>
<path d="M84.2245 135.514H72.3119C71.9081 135.514 71.5908 135.196 71.5908 134.793C71.5908 134.389 71.9081 134.072 72.3119 134.072H84.2245C84.6283 134.072 84.9456 134.389 84.9456 134.793C84.9456 135.196 84.6283 135.514 84.2245 135.514Z" fill="#ACBBFF"/>
<path d="M62.7792 135.514H51.8617C51.4579 135.514 51.1406 135.196 51.1406 134.793C51.1406 134.389 51.4579 134.072 51.8617 134.072H62.7792C63.183 134.072 63.5003 134.389 63.5003 134.793C63.5003 135.196 63.183 135.514 62.7792 135.514Z" fill="#ACBBFF"/>
<path d="M69.0239 122.48H51.8617C51.4579 122.48 51.1406 122.163 51.1406 121.759C51.1406 121.355 51.4579 121.038 51.8617 121.038H69.0239C69.4278 121.038 69.745 121.355 69.745 121.759C69.745 122.163 69.4278 122.48 69.0239 122.48Z" fill="#4361EE"/>
<path d="M105.439 122.48H76.307C75.9032 122.48 75.5859 122.163 75.5859 121.759C75.5859 121.355 75.9032 121.038 76.307 121.038H105.439C105.843 121.038 106.161 121.355 106.161 121.759C106.161 122.163 105.843 122.48 105.439 122.48Z" fill="#ACBBFF"/>
<path d="M125.891 122.48H114.973C114.569 122.48 114.252 122.163 114.252 121.759C114.252 121.355 114.569 121.038 114.973 121.038H125.891C126.294 121.038 126.612 121.355 126.612 121.759C126.612 122.163 126.294 122.48 125.891 122.48Z" fill="#4361EE"/>
<path d="M85.2054 146.978H51.8617C51.4579 146.978 51.1406 146.66 51.1406 146.257C51.1406 145.853 51.4579 145.536 51.8617 145.536H85.2054C85.6092 145.536 85.9265 145.853 85.9265 146.257C85.9265 146.66 85.6092 146.978 85.2054 146.978Z" fill="#4361EE"/>
<path d="M105.439 146.978H93.5268C93.1229 146.978 92.8057 146.66 92.8057 146.257C92.8057 145.853 93.1229 145.536 93.5268 145.536H105.439C105.843 145.536 106.16 145.853 106.16 146.257C106.16 146.66 105.843 146.978 105.439 146.978Z" fill="#ACBBFF"/>
<path d="M85.2054 188.345H51.8617C51.4579 188.345 51.1406 188.028 51.1406 187.624C51.1406 187.221 51.4579 186.903 51.8617 186.903H85.2054C85.6092 186.903 85.9265 187.221 85.9265 187.624C85.9265 188.028 85.6092 188.345 85.2054 188.345Z" fill="#4361EE"/>
<path d="M105.439 188.345H93.5268C93.1229 188.345 92.8057 188.028 92.8057 187.624C92.8057 187.221 93.1229 186.903 93.5268 186.903H105.439C105.843 186.903 106.16 187.221 106.16 187.624C106.16 188.028 105.843 188.345 105.439 188.345Z" fill="#ACBBFF"/>
<path d="M125.891 146.978H114.973C114.569 146.978 114.252 146.66 114.252 146.257C114.252 145.853 114.569 145.536 114.973 145.536H125.891C126.294 145.536 126.612 145.853 126.612 146.257C126.612 146.66 126.294 146.978 125.891 146.978Z" fill="#ACBBFF"/>
<path d="M125.89 172.787H92.5463C92.1425 172.787 91.8252 172.47 91.8252 172.066C91.8252 171.662 92.1425 171.345 92.5463 171.345H125.89C126.294 171.345 126.611 171.662 126.611 172.066C126.611 172.47 126.294 172.787 125.89 172.787Z" fill="#4361EE"/>
<path d="M84.2245 172.787H72.3119C71.9081 172.787 71.5908 172.47 71.5908 172.066C71.5908 171.662 71.9081 171.345 72.3119 171.345H84.2245C84.6283 171.345 84.9456 171.662 84.9456 172.066C84.9456 172.47 84.6283 172.787 84.2245 172.787Z" fill="#ACBBFF"/>
<path d="M62.7792 172.787H51.8617C51.4579 172.787 51.1406 172.47 51.1406 172.066C51.1406 171.662 51.4579 171.345 51.8617 171.345H62.7792C63.183 171.345 63.5003 171.662 63.5003 172.066C63.5003 172.47 63.183 172.787 62.7792 172.787Z" fill="#ACBBFF"/>
<path d="M84.2245 202.331H72.3119C71.9081 202.331 71.5908 202.014 71.5908 201.61C71.5908 201.206 71.9081 200.889 72.3119 200.889H84.2245C84.6283 200.889 84.9456 201.206 84.9456 201.61C84.9456 202.014 84.6283 202.331 84.2245 202.331Z" fill="#4361EE"/>
<path d="M62.7792 202.331H51.8617C51.4579 202.331 51.1406 202.014 51.1406 201.61C51.1406 201.206 51.4579 200.889 51.8617 200.889H62.7792C63.183 200.889 63.5003 201.206 63.5003 201.61C63.5003 202.014 63.183 202.331 62.7792 202.331Z" fill="#4361EE"/>
<path d="M69.0239 159.752H51.8617C51.4579 159.752 51.1406 159.435 51.1406 159.031C51.1406 158.628 51.4579 158.311 51.8617 158.311H69.0239C69.4278 158.311 69.745 158.628 69.745 159.031C69.745 159.435 69.4278 159.752 69.0239 159.752Z" fill="#4361EE"/>
<path d="M105.439 159.752H76.307C75.9032 159.752 75.5859 159.435 75.5859 159.031C75.5859 158.628 75.9032 158.311 76.307 158.311H105.439C105.843 158.311 106.161 158.628 106.161 159.031C106.161 159.435 105.843 159.752 105.439 159.752Z" fill="#ACBBFF"/>
<path d="M125.89 159.752H114.972C114.568 159.752 114.251 159.435 114.251 159.031C114.251 158.628 114.568 158.311 114.972 158.311H125.89C126.293 158.311 126.611 158.628 126.611 159.031C126.611 159.435 126.293 159.752 125.89 159.752Z" fill="#4361EE"/>
<path d="M80.7637 216.072H51.6313C51.2274 216.072 50.9102 215.755 50.9102 215.351C50.9102 214.948 51.2274 214.63 51.6313 214.63H80.7637C81.1675 214.63 81.4848 214.948 81.4848 215.351C81.4848 215.755 81.1675 216.072 80.7637 216.072Z" fill="#ACBBFF"/>
<path d="M62.6063 228.934H51.6889C51.2851 228.934 50.9678 228.616 50.9678 228.213C50.9678 227.809 51.2851 227.492 51.6889 227.492H62.6063C63.0102 227.492 63.3274 227.809 63.3274 228.213C63.3274 228.616 63.0102 228.934 62.6063 228.934Z" fill="#4361EE"/>
<path d="M-42.6768 308.821H216.847C220.77 308.821 223.957 312.008 223.957 315.93V495.53C223.957 496.9 222.847 498.01 221.476 498.01H-47.2919C-48.662 498.01 -49.7725 496.9 -49.7725 495.53V315.93C-49.7725 312.008 -46.5852 308.821 -42.6624 308.821H-42.6768Z" fill="#00105B"/>
<path d="M221.477 498.745H-47.2915C-49.0654 498.745 -50.4932 497.304 -50.4932 495.544V315.944C-50.4932 311.633 -46.9742 308.115 -42.662 308.115H216.862C221.174 308.115 224.693 311.633 224.693 315.944V495.544C224.693 497.318 223.251 498.745 221.491 498.745H221.477ZM-42.662 309.542C-46.181 309.542 -49.051 312.412 -49.051 315.93V495.53C-49.051 496.496 -48.2578 497.289 -47.2915 497.289H221.477C222.443 497.289 223.236 496.496 223.236 495.53V315.93C223.236 312.412 220.366 309.542 216.847 309.542H-42.6764H-42.662Z" fill="#F2F1F6"/>
<path d="M203.94 326.975H-29.7686V479.871H203.94V326.975Z" fill="white"/>
<path d="M203.94 480.593H-29.7682C-30.172 480.593 -30.4893 480.275 -30.4893 479.872V326.975C-30.4893 326.571 -30.172 326.254 -29.7682 326.254H203.94C204.344 326.254 204.661 326.571 204.661 326.975V479.872C204.661 480.275 204.344 480.593 203.94 480.593ZM-29.0471 479.151H203.219V327.696H-29.0471V479.151Z" fill="#00105B"/>
<path d="M87.0926 320.919C85.535 320.919 84.2803 319.65 84.2803 318.107C84.2803 316.564 85.5494 315.295 87.0926 315.295C88.6357 315.295 89.9048 316.564 89.9048 318.107C89.9048 319.65 88.6357 320.919 87.0926 320.919ZM87.0926 316.723C86.3282 316.723 85.7225 317.343 85.7225 318.093C85.7225 318.842 86.3426 319.462 87.0926 319.462C87.8425 319.462 88.4626 318.842 88.4626 318.093C88.4626 317.343 87.8425 316.723 87.0926 316.723Z" fill="white"/>
<path d="M-94.5811 496.583H268.752V511.535C268.752 516.798 264.469 521.08 259.205 521.08H-85.0337C-90.2977 521.08 -94.5811 516.798 -94.5811 511.535V496.583Z" fill="#CACAE5"/>
<path d="M259.205 521.801H-85.0333C-90.7011 521.801 -95.3018 517.202 -95.3018 511.535V496.583C-95.3018 496.179 -94.9845 495.862 -94.5807 495.862H268.753C269.156 495.862 269.474 496.179 269.474 496.583V511.535C269.474 517.202 264.873 521.801 259.205 521.801ZM-93.8596 497.304V511.535C-93.8596 516.409 -89.8935 520.359 -85.0333 520.359H259.205C264.065 520.359 268.032 516.394 268.032 511.535V497.304H-93.8596Z" fill="#00105B"/>
<path d="M265.291 516.062H-91.1051C-91.5089 516.062 -91.8262 515.745 -91.8262 515.342C-91.8262 514.938 -91.5089 514.621 -91.1051 514.621H265.291C265.695 514.621 266.012 514.938 266.012 515.342C266.012 515.745 265.695 516.062 265.291 516.062Z" fill="#00105B"/>
<path d="M121.776 498.126H52.4209V505.782H121.776V498.126Z" fill="white"/>
<path d="M121.762 506.489H52.4213C52.0175 506.489 51.7002 506.172 51.7002 505.768V498.112C51.7002 497.708 52.0175 497.391 52.4213 497.391H121.762C122.166 497.391 122.483 497.708 122.483 498.112V505.768C122.483 506.172 122.166 506.489 121.762 506.489ZM53.1424 505.047H121.041V498.833H53.1424V505.047Z" fill="#00105B"/>
<path d="M9.24207 459.858H150.231C151.745 459.858 152.972 458.631 152.972 457.118V355.74C152.972 354.227 151.745 353 150.231 353H9.24207C7.7287 353 6.50185 354.227 6.50185 355.74V457.118C6.50185 458.631 7.7287 459.858 9.24207 459.858Z" fill="#CACAE5"/>
<path d="M161.178 362.906H14.7224V348.184C14.7224 346.382 16.1934 344.911 17.9962 344.911H156.938C159.274 344.911 161.163 346.814 161.163 349.136V362.906H161.178Z" fill="#4361EE"/>
<path d="M161.899 363.627H14.001V348.184C14.001 345.978 15.7893 344.19 17.9959 344.19H156.937C159.663 344.19 161.884 346.411 161.884 349.15V363.641L161.899 363.627ZM15.4432 362.185H160.456V349.136C160.456 347.204 158.884 345.618 156.952 345.618H18.0103C16.5969 345.618 15.4576 346.757 15.4576 348.17V362.171L15.4432 362.185Z" fill="#00105B"/>
<path d="M34.6259 357.196C32.7078 357.196 31.1357 355.624 31.1357 353.707C31.1357 351.789 32.7078 350.217 34.6259 350.217C36.544 350.217 38.116 351.789 38.116 353.707C38.116 355.624 36.5584 357.196 34.6259 357.196ZM34.6259 351.659C33.501 351.659 32.5779 352.582 32.5779 353.707C32.5779 354.831 33.501 355.754 34.6259 355.754C35.7508 355.754 36.6738 354.831 36.6738 353.707C36.6738 352.582 35.7508 351.659 34.6259 351.659Z" fill="white"/>
<path d="M45.4266 357.196C43.5085 357.196 41.9365 355.624 41.9365 353.707C41.9365 351.789 43.4941 350.217 45.4266 350.217C47.3592 350.217 48.9168 351.789 48.9168 353.707C48.9168 355.624 47.3592 357.196 45.4266 357.196ZM45.4266 351.659C44.3017 351.659 43.3787 352.582 43.3787 353.707C43.3787 354.831 44.3017 355.754 45.4266 355.754C46.5515 355.754 47.4746 354.831 47.4746 353.707C47.4746 352.582 46.5515 351.659 45.4266 351.659Z" fill="white"/>
<path d="M23.8954 357.196C21.9773 357.196 20.4053 355.624 20.4053 353.707C20.4053 351.789 21.9629 350.217 23.8954 350.217C25.828 350.217 27.3855 351.789 27.3855 353.707C27.3855 355.624 25.828 357.196 23.8954 357.196ZM23.8954 351.659C22.7705 351.659 21.8475 352.582 21.8475 353.707C21.8475 354.831 22.7705 355.754 23.8954 355.754C25.0203 355.754 25.9433 354.831 25.9433 353.707C25.9433 352.582 25.0203 351.659 23.8954 351.659Z" fill="white"/>
<path d="M15.1273 451.019H160.645C160.908 451.019 161.121 450.806 161.121 450.543V363.382C161.121 363.119 160.908 362.906 160.645 362.906H15.1273C14.8644 362.906 14.6513 363.119 14.6513 363.382V450.543C14.6513 450.806 14.8644 451.019 15.1273 451.019Z" fill="white"/>
<path d="M160.659 451.74H15.1413C14.4779 451.74 13.9443 451.206 13.9443 450.543V363.396C13.9443 362.733 14.4779 362.199 15.1413 362.199H160.659C161.323 362.199 161.856 362.733 161.856 363.396V450.543C161.856 451.206 161.323 451.74 160.659 451.74ZM15.3865 450.298H160.414V363.627H15.3865V450.298Z" fill="#00105B"/>
<path d="M147.118 380.713H115.245C115.11 380.713 115 380.823 115 380.958V430.429C115 430.564 115.11 430.674 115.245 430.674H147.118C147.253 430.674 147.363 430.564 147.363 430.429V380.958C147.363 380.823 147.253 380.713 147.118 380.713Z" fill="white"/>
<path d="M147.132 431.395H115.245C114.711 431.395 114.293 430.962 114.293 430.429V380.944C114.293 380.41 114.726 379.978 115.245 379.978H147.132C147.665 379.978 148.098 380.41 148.098 380.944V430.429C148.098 430.962 147.665 431.395 147.132 431.395ZM115.721 429.953H146.641V381.434H115.721V429.953Z" fill="#CACAE5"/>
<path d="M147.059 430.761C146.829 430.761 146.598 430.645 146.454 430.429L115.201 382.054C114.985 381.722 115.086 381.275 115.418 381.059C115.749 380.843 116.196 380.944 116.413 381.275L147.665 429.65C147.881 429.982 147.781 430.429 147.449 430.645C147.333 430.717 147.189 430.761 147.059 430.761Z" fill="#CACAE5"/>
<path d="M115.244 431.395C115.115 431.395 114.985 431.352 114.855 431.28C114.523 431.063 114.422 430.616 114.639 430.285L145.819 381.117C146.035 380.785 146.482 380.684 146.814 380.9C147.146 381.117 147.247 381.564 147.031 381.895L115.85 431.063C115.72 431.28 115.475 431.395 115.244 431.395Z" fill="#CACAE5"/>
<path d="M101.486 384.996H34.0629C33.6591 384.996 33.3418 384.679 33.3418 384.275C33.3418 383.871 33.6591 383.554 34.0629 383.554H101.486C101.89 383.554 102.207 383.871 102.207 384.275C102.207 384.679 101.89 384.996 101.486 384.996Z" fill="#7FD6C3"/>
<path d="M57.7584 395.219H34.0775C33.6737 395.219 33.3564 394.902 33.3564 394.498C33.3564 394.095 33.6737 393.777 34.0775 393.777H57.7584C58.1623 393.777 58.4795 394.095 58.4795 394.498C58.4795 394.902 58.1623 395.219 57.7584 395.219Z" fill="#4361EE"/>
<path d="M96.251 395.219H67.4936C67.0897 395.219 66.7725 394.902 66.7725 394.498C66.7725 394.095 67.0897 393.777 67.4936 393.777H96.251C96.6548 393.777 96.9721 394.095 96.9721 394.498C96.9721 394.902 96.6548 395.219 96.251 395.219Z" fill="#7FD6C3"/>
<path d="M77.2858 426.263H34.0775C33.6737 426.263 33.3564 425.945 33.3564 425.542C33.3564 425.138 33.6737 424.821 34.0775 424.821H77.2858C77.6896 424.821 78.0069 425.138 78.0069 425.542C78.0069 425.945 77.6896 426.263 77.2858 426.263Z" fill="#4361EE"/>
<path d="M102.091 405.975H34.0766C33.6728 405.975 33.3555 405.658 33.3555 405.254C33.3555 404.85 33.6728 404.533 34.0766 404.533H102.091C102.495 404.533 102.812 404.85 102.812 405.254C102.812 405.658 102.495 405.975 102.091 405.975Z" fill="#4361EE"/>
<path d="M55.623 416.198H34.0766C33.6728 416.198 33.3555 415.881 33.3555 415.477C33.3555 415.074 33.6728 414.756 34.0766 414.756H55.623C56.0268 414.756 56.3441 415.074 56.3441 415.477C56.3441 415.881 56.0268 416.198 55.623 416.198Z" fill="#7FD6C3"/>
<path d="M101.485 416.198H62.2426C61.8388 416.198 61.5215 415.881 61.5215 415.477C61.5215 415.074 61.8388 414.756 62.2426 414.756H101.485C101.889 414.756 102.206 415.074 102.206 415.477C102.206 415.881 101.889 416.198 101.485 416.198Z" fill="#4361EE"/>
<path d="M69.224 404.115C69.2673 402.731 69.1807 401.332 68.9355 399.905C69.1807 401.318 69.2673 402.731 69.224 404.115Z" fill="white"/>
<path d="M258.454 313.435C231.226 312.411 222.587 296.479 221.361 293.883H221.174C219.948 296.479 211.309 312.397 184.08 313.435C184.08 313.435 178.311 369.481 220.438 379.545H222.096C264.223 369.481 258.454 313.435 258.454 313.435Z" fill="#CACAE5"/>
<path d="M222.183 380.266H220.265C178.008 370.159 183.301 313.926 183.359 313.363L183.417 312.743L184.037 312.714C210.573 311.72 219.068 296.609 220.51 293.581L220.712 293.163H221.808L222.01 293.581C223.438 296.594 231.932 311.72 258.483 312.714L259.103 312.743L259.161 313.363C259.219 313.926 264.512 370.159 222.255 380.252H222.169L222.183 380.266ZM220.524 378.825H222.01C260.589 369.539 258.238 320.255 257.776 314.127C233.245 312.988 223.841 299.925 221.26 295.282C218.678 299.925 209.275 312.988 184.743 314.127C184.296 320.255 181.946 369.539 220.51 378.825H220.524Z" fill="#CACAE5"/>
<path d="M255.571 308.129C228.299 307.105 219.646 291.143 218.42 288.548H218.232C217.006 291.143 208.339 307.105 181.081 308.129C181.081 308.129 175.298 364.275 217.497 374.354H219.155C261.354 364.275 255.571 308.129 255.571 308.129Z" fill="#8499FF"/>
<path d="M219.155 375.076H217.497C217.497 375.076 217.381 375.076 217.323 375.061C174.995 364.954 180.302 308.634 180.36 308.057C180.403 307.697 180.692 307.423 181.052 307.408C207.646 306.399 216.155 291.259 217.583 288.246C217.698 288.001 217.958 287.828 218.232 287.828H218.42C218.694 287.828 218.953 287.986 219.069 288.246C220.496 291.274 229.005 306.413 255.599 307.408C255.96 307.408 256.248 307.697 256.292 308.057C256.349 308.62 261.657 364.939 219.328 375.061C219.27 375.061 219.213 375.076 219.155 375.076ZM217.583 373.634H219.083C257.719 364.334 255.369 314.949 254.922 308.821C230.332 307.682 220.915 294.59 218.333 289.933C215.751 294.576 206.334 307.668 181.744 308.821C181.297 314.949 178.947 364.334 217.583 373.634Z" fill="#00105B"/>
<path d="M192.763 344.537C196.859 354.183 204.286 363.065 217.655 366.251H219.011C253.249 358.076 248.547 312.527 248.547 312.527C226.424 311.691 219.4 298.757 218.405 296.652H218.261C217.641 297.964 214.699 303.458 207.242 307.625" fill="#8499FF"/>
<path d="M218.996 366.972H217.64C217.64 366.972 217.525 366.972 217.467 366.958C205.67 364.132 197.132 356.692 192.084 344.825C191.926 344.465 192.099 344.032 192.459 343.873C192.82 343.715 193.253 343.888 193.411 344.248C198.257 355.639 206.434 362.805 217.712 365.53H218.895C249.873 358.061 248.229 318.655 247.854 313.219C228.298 312.267 220.568 302.001 218.304 298.05C216.991 300.329 213.847 304.726 207.574 308.245C207.228 308.432 206.795 308.317 206.593 307.971C206.405 307.625 206.521 307.192 206.867 306.99C214.208 302.881 217.078 297.402 217.583 296.335C217.698 296.09 217.958 295.917 218.232 295.917H218.376C218.65 295.917 218.909 296.075 219.025 296.335C220.178 298.771 227.043 310.999 248.547 311.806C248.907 311.806 249.196 312.094 249.239 312.455C249.282 312.916 253.594 358.725 219.155 366.943C219.097 366.943 219.039 366.958 218.981 366.958L218.996 366.972Z" fill="white"/>
<path d="M195.373 311.762C193.152 312.166 190.729 312.44 188.09 312.541C188.09 312.541 187.369 319.534 188.551 328.531" fill="#8499FF"/>
<path d="M188.566 329.252C188.206 329.252 187.903 328.993 187.845 328.632C186.663 319.65 187.369 312.541 187.384 312.469C187.427 312.109 187.715 311.835 188.076 311.82C190.557 311.734 192.979 311.474 195.244 311.056C195.619 310.984 196.008 311.243 196.08 311.633C196.152 312.022 195.893 312.397 195.503 312.469C193.354 312.858 191.09 313.118 188.768 313.233C188.624 315.122 188.321 321.149 189.287 328.445C189.345 328.834 189.057 329.209 188.667 329.252C188.638 329.252 188.61 329.252 188.566 329.252Z" fill="white"/>
<path d="M218.319 352.683C227.925 352.683 235.712 344.898 235.712 335.294C235.712 325.691 227.925 317.905 218.319 317.905C208.713 317.905 200.926 325.691 200.926 335.294C200.926 344.898 208.713 352.683 218.319 352.683Z" fill="#8499FF"/>
<path d="M218.318 353.217C208.439 353.217 200.392 345.171 200.392 335.294C200.392 325.417 208.439 317.372 218.318 317.372C228.197 317.372 236.245 325.417 236.245 335.294C236.245 345.171 228.197 353.217 218.318 353.217ZM218.318 318.453C209.03 318.453 201.473 326.008 201.473 335.294C201.473 344.58 209.03 352.135 218.318 352.135C227.606 352.135 235.163 344.58 235.163 335.294C235.163 326.008 227.606 318.453 218.318 318.453Z" fill="white"/>
<path d="M218.318 347.954C225.311 347.954 230.98 342.286 230.98 335.294C230.98 328.302 225.311 322.634 218.318 322.634C211.324 322.634 205.655 328.302 205.655 335.294C205.655 342.286 211.324 347.954 218.318 347.954Z" fill="white"/>
<path d="M218.318 348.674C210.934 348.674 204.935 342.676 204.935 335.294C204.935 327.911 210.934 321.913 218.318 321.913C225.702 321.913 231.702 327.911 231.702 335.294C231.702 342.676 225.702 348.674 218.318 348.674ZM218.318 323.355C211.742 323.355 206.377 328.704 206.377 335.294C206.377 341.883 211.727 347.232 218.318 347.232C224.909 347.232 230.26 341.883 230.26 335.294C230.26 328.704 224.909 323.355 218.318 323.355Z" fill="#00105B"/>
<path d="M218.563 340.701C218.044 340.701 217.525 340.499 217.121 340.095L211.771 334.746C210.977 333.953 210.977 332.655 211.771 331.862C212.564 331.069 213.862 331.069 214.655 331.862L218.563 335.77L230.087 324.249C230.88 323.456 232.178 323.456 232.971 324.249C233.764 325.042 233.764 326.34 232.971 327.133L219.991 340.11C219.587 340.513 219.068 340.715 218.549 340.715L218.563 340.701Z" fill="#00105B"/>
</svg>
