<svg width="120" height="128" viewBox="0 0 120 128" fill="none" xmlns="http://www.w3.org/2000/svg">
<path d="M62.979 44.6521L58.8858 45.993C58.7239 45.5275 58.5654 45.0238 58.4035 44.4715L79.0761 37.6973C79.2002 38.2357 79.3725 38.7603 79.5895 39.271L64.2469 48.2233L62.9756 44.6486L62.979 44.6521ZM61.5285 40.0943L78.866 36.3598C78.8143 35.7901 78.8143 35.269 78.8591 34.7027H57.1286C57.1114 35.2342 57.1114 35.7692 57.1286 36.2973H61.4182L61.5319 40.0943H61.5285ZM80.2062 40.4799L62.6172 53.3648C62.8963 53.7677 63.1995 54.1881 63.5544 54.6501L67.024 52.1072L69.329 55.1122L81.1744 41.8174C80.8126 41.4005 80.4888 40.9524 80.2028 40.4799H80.2062ZM63.9747 23.3221L80.1752 30.5722C80.4578 30.0963 80.7782 29.6481 81.1365 29.2278L63.5544 16.3499C63.1961 16.8154 62.8929 17.2357 62.6172 17.6352L66.0937 20.1816L63.9713 23.3221H63.9747ZM84.6095 26.6675C85.116 26.4486 85.6397 26.2749 86.1703 26.1499L79.4551 5.3062C78.9039 5.46948 78.4043 5.62928 77.946 5.79256L79.276 9.9196L75.7306 11.2015L84.6095 26.671V26.6675ZM82.1323 42.7727L69.3565 60.5002C69.8182 60.8581 70.2317 61.1672 70.6314 61.4452L73.1569 57.9399L76.2681 60.0799L83.4622 43.7419C82.9902 43.4571 82.5423 43.1305 82.1288 42.7727H82.1323ZM82.0875 28.2655C82.5009 27.9007 82.9454 27.5742 83.414 27.2859L70.6348 9.55484C70.2351 9.83275 69.8148 10.1454 69.36 10.4998L71.882 13.998L68.9017 16.3221L82.0875 28.269V28.2655ZM61.4355 31.5102L79.0658 33.3583C79.1864 32.8199 79.3552 32.2918 79.5688 31.7811L58.8893 25.0104C58.7273 25.4759 58.5688 25.9797 58.4069 26.5285L62.4932 27.866L61.4389 31.5136L61.4355 31.5102ZM89.1437 25.9275V4.01737C88.8819 4.00695 88.6166 4 88.3513 4C88.086 4 87.8207 4.00695 87.5588 4.01737V8.34243L83.793 8.45707L87.4968 25.9345C87.7897 25.9067 88.0722 25.8963 88.3478 25.8963C88.6063 25.8963 88.8681 25.9067 89.1403 25.931L89.1437 25.9275ZM77.946 65.2074C78.4077 65.3707 78.9039 65.5305 79.4551 65.6938L80.7816 61.5737L84.3994 62.6402L86.2323 44.864C85.6983 44.7424 85.1746 44.5722 84.6681 44.3568L77.9495 65.2074H77.946ZM94.5703 28.2238L107.346 10.4963C106.884 10.1385 106.471 9.83275 106.071 9.55136L103.546 13.0566L100.434 10.9166L93.2404 27.2511C93.7124 27.536 94.1569 27.8591 94.5738 28.2203L94.5703 28.2238ZM112.452 22.7697L97.1096 31.7221C97.3267 32.2328 97.4989 32.7608 97.623 33.2958L118.296 26.5216C118.134 25.9692 117.975 25.469 117.813 25.0035L113.72 26.3444L112.449 22.7697H112.452ZM96.4963 30.5166L114.085 17.6318C113.81 17.2288 113.5 16.805 113.148 16.3464L109.679 18.8893L107.374 15.8844L95.5282 29.1792C95.8899 29.596 96.2138 30.0442 96.4998 30.5166H96.4963ZM115.288 34.6993L115.174 30.9022L97.84 34.6367C97.8917 35.203 97.8917 35.7275 97.8469 36.2938H119.581C119.601 35.7623 119.598 35.2273 119.581 34.6993H115.291H115.288ZM98.76 5.79256C98.3017 5.62928 97.8056 5.46948 97.2509 5.3062L95.9244 9.4263L92.3067 8.36328L90.4737 26.1395C91.0077 26.261 91.5314 26.4313 92.0379 26.6466L98.76 5.79256ZM92.0965 44.3325C91.59 44.5514 91.0663 44.7251 90.5357 44.8501L97.2543 65.6938C97.8021 65.5305 98.2983 65.3707 98.7634 65.2074L97.4335 61.0804L100.979 59.7985L92.0999 44.329L92.0965 44.3325ZM88.3547 45.1037C88.0929 45.1037 87.8345 45.0933 87.5623 45.069V66.9826C87.8241 66.9931 88.0894 67 88.3547 67C88.62 67 88.8819 66.9931 89.1472 66.9826V62.6576L92.9131 62.5429L89.2092 45.062C88.9163 45.0898 88.6338 45.1037 88.3582 45.1037H88.3547ZM112.731 47.6779L96.5273 40.4243C96.2448 40.9002 95.9244 41.3484 95.5661 41.7687L113.148 54.6466C113.503 54.1846 113.806 53.7677 114.085 53.3613L110.609 50.8149L112.731 47.6779ZM94.6186 42.731C94.2051 43.0923 93.7606 43.4223 93.2921 43.7107L106.071 61.4452C106.471 61.1672 106.884 60.8581 107.346 60.5002L104.824 57.002L107.804 54.6779L94.6186 42.731ZM115.271 39.4864L97.6402 37.6382C97.5196 38.1767 97.3508 38.7047 97.1372 39.2154L117.817 45.9896C117.979 45.5241 118.137 45.0203 118.299 44.468L114.213 43.1305L115.271 39.4829V39.4864Z" fill="white"/>
<path d="M60.4662 115.23L58.1272 115.996C58.0347 115.73 57.9441 115.442 57.8516 115.127L69.6645 111.256C69.7354 111.563 69.8339 111.863 69.9579 112.155L61.1907 117.27L60.4642 115.228L60.4662 115.23ZM59.6373 112.625L69.5444 110.491C69.5149 110.166 69.5149 109.868 69.5405 109.544H57.1231C57.1133 109.848 57.1133 110.154 57.1231 110.456H59.5743L59.6393 112.625H59.6373ZM70.3103 112.846L60.2594 120.208C60.4189 120.439 60.5922 120.679 60.795 120.943L62.7776 119.49L64.0947 121.207L70.8635 113.61C70.6568 113.372 70.4718 113.116 70.3083 112.846H70.3103ZM61.0352 103.041L70.2926 107.184C70.454 106.912 70.6371 106.656 70.8419 106.416L60.795 99.0571C60.5902 99.3231 60.417 99.5633 60.2594 99.7916L62.246 101.247L61.0332 103.041H61.0352ZM72.8265 104.953C73.1159 104.828 73.4151 104.729 73.7183 104.657L69.8811 92.7464C69.5661 92.8397 69.2806 92.931 69.0188 93.0243L69.7787 95.3826L67.7528 96.1151L72.8265 104.955V104.953ZM71.4109 114.156L64.1105 124.286C64.3743 124.49 64.6106 124.667 64.8389 124.826L66.2821 122.823L68.0599 124.046L72.1709 114.71C71.9011 114.547 71.6452 114.36 71.4089 114.156H71.4109ZM71.3853 105.866C71.6215 105.658 71.8755 105.471 72.1433 105.306L64.8409 95.1742C64.6125 95.333 64.3723 95.5117 64.1124 95.7141L65.5536 97.7132L63.8506 99.0412L71.3853 105.868V105.866ZM59.5841 107.72L69.6586 108.776C69.7275 108.468 69.824 108.167 69.9461 107.875L58.1292 104.006C58.0366 104.272 57.9461 104.56 57.8535 104.873L60.1886 105.638L59.5861 107.722L59.5841 107.72ZM75.4174 104.53V92.0099C75.2678 92.004 75.1162 92 74.9646 92C74.813 92 74.6614 92.004 74.5118 92.0099V94.4814L72.3599 94.5469L74.4763 104.534C74.6437 104.518 74.8051 104.512 74.9626 104.512C75.1103 104.512 75.2599 104.518 75.4155 104.532L75.4174 104.53ZM69.0188 126.976C69.2826 127.069 69.5661 127.16 69.8811 127.254L70.6391 124.899L72.7064 125.509L73.7538 115.351C73.4486 115.281 73.1494 115.184 72.8599 115.061L69.0207 126.976H69.0188ZM78.5183 105.842L85.8188 95.7122C85.5549 95.5077 85.3187 95.333 85.0903 95.1722L83.6471 97.1752L81.8693 95.9524L77.7584 105.286C78.0281 105.449 78.2821 105.634 78.5203 105.84L78.5183 105.842ZM88.7366 102.726L79.9694 107.841C80.0934 108.133 80.1919 108.435 80.2627 108.74L92.0757 104.869C91.9832 104.554 91.8926 104.268 91.8001 104.002L89.4611 104.768L88.7346 102.726H88.7366ZM79.6189 107.152L89.6698 99.7896C89.5123 99.5593 89.3351 99.3171 89.1343 99.0551L87.1517 100.508L85.8345 98.7911L79.0657 106.388C79.2724 106.626 79.4575 106.882 79.6209 107.152H79.6189ZM90.3569 109.542L90.2919 107.373L80.3868 109.507C80.4163 109.83 80.4163 110.13 80.3907 110.454H92.8101C92.8219 110.15 92.8199 109.844 92.8101 109.542H90.3589H90.3569ZM80.9124 93.0243C80.6506 92.931 80.3671 92.8397 80.0501 92.7464L79.2921 95.1007L77.2248 94.4933L76.1774 104.651C76.4826 104.721 76.7818 104.818 77.0713 104.941L80.9124 93.0243ZM77.1047 115.047C76.8153 115.172 76.5161 115.271 76.2129 115.343L80.0521 127.254C80.3651 127.16 80.6486 127.069 80.9144 126.976L80.1544 124.617L82.1804 123.885L77.1067 115.045L77.1047 115.047ZM74.9666 115.488C74.817 115.488 74.6693 115.482 74.5138 115.468V127.99C74.6634 127.996 74.815 128 74.9666 128C75.1182 128 75.2678 127.996 75.4194 127.99V125.519L77.5713 125.453L75.4549 115.464C75.2875 115.48 75.1261 115.488 74.9686 115.488H74.9666ZM88.896 116.959L79.6366 112.814C79.4752 113.086 79.2921 113.342 79.0873 113.582L89.1343 120.941C89.3371 120.677 89.5103 120.439 89.6698 120.206L87.6832 118.751L88.896 116.959ZM78.5459 114.132C78.3097 114.338 78.0557 114.527 77.7879 114.692L85.0903 124.826C85.3187 124.667 85.5549 124.49 85.8188 124.286L84.3776 122.287L86.0806 120.959L78.5459 114.132ZM90.3471 112.278L80.2726 111.222C80.2037 111.53 80.1072 111.831 79.9851 112.123L91.802 115.994C91.8946 115.728 91.9851 115.44 92.0777 115.125L89.7426 114.36L90.3471 112.276V112.278Z" fill="white"/>
<path d="M37.1592 12.9054L35.8598 13.3311C35.8084 13.1833 35.7581 13.0234 35.7067 12.8481L42.2694 10.6975C42.3088 10.8685 42.3635 11.035 42.4324 11.1971L37.5617 14.0392L37.1581 12.9043L37.1592 12.9054ZM36.6987 11.4585L42.2027 10.273C42.1863 10.0921 42.1863 9.92666 42.2005 9.7469H35.302C35.2965 9.91563 35.2965 10.0855 35.302 10.2531H36.6637L36.6998 11.4585H36.6987ZM42.6282 11.5809L37.0444 15.6714C37.133 15.7993 37.2292 15.9327 37.3419 16.0794L38.4433 15.2721L39.1751 16.2261L42.9355 12.0055C42.8207 11.8732 42.7179 11.7309 42.6271 11.5809H42.6282ZM37.4753 6.13399L42.6183 8.43562C42.708 8.28453 42.8097 8.14227 42.9235 8.00882L37.3419 3.9206C37.2281 4.06838 37.1319 4.20182 37.0444 4.32865L38.148 5.13703L37.4742 6.13399H37.4753ZM44.026 7.19603C44.1868 7.12655 44.3531 7.07141 44.5215 7.03171L42.3897 0.414668C42.2147 0.466501 42.0561 0.517232 41.9106 0.569065L42.3329 1.87924L41.2073 2.28619L44.026 7.19713V7.19603ZM43.2396 12.3088L39.1838 17.9366C39.3304 18.0502 39.4616 18.1483 39.5885 18.2366L40.3903 17.1238L41.378 17.8031L43.6618 12.6165C43.512 12.5261 43.3698 12.4224 43.2385 12.3088H43.2396ZM43.2254 7.70334C43.3566 7.58754 43.4977 7.48387 43.6465 7.39233L39.5896 1.76344C39.4627 1.85167 39.3293 1.95092 39.1849 2.06341L39.9856 3.17397L39.0394 3.91177L43.2254 7.70444V7.70334ZM36.6692 8.73339L42.2661 9.3201C42.3044 9.14916 42.358 8.98153 42.4258 8.81941L35.8609 6.66997C35.8095 6.81776 35.7592 6.97767 35.7078 7.15192L37.005 7.57651L36.6703 8.73449L36.6692 8.73339ZM45.4655 6.96112V0.0055142C45.3823 0.00220568 45.2981 0 45.2139 0C45.1297 0 45.0455 0.00220568 44.9623 0.0055142V1.37855L43.7668 1.41494L44.9426 6.96333C45.0356 6.95451 45.1253 6.9512 45.2128 6.9512C45.2948 6.9512 45.378 6.95451 45.4644 6.96223L45.4655 6.96112ZM41.9106 19.4309C42.0572 19.4828 42.2147 19.5335 42.3897 19.5853L42.8108 18.2774L43.9593 18.6159L44.5412 12.9727C44.3717 12.9341 44.2054 12.8801 44.0446 12.8117L41.9117 19.4309H41.9106ZM47.1882 7.6901L51.244 2.06231C51.0974 1.94872 50.9662 1.85167 50.8393 1.76234L50.0375 2.8751L49.0498 2.19575L46.766 7.38131C46.9158 7.47174 47.0569 7.5743 47.1893 7.689L47.1882 7.6901ZM52.865 5.95864L47.9943 8.80066C48.0632 8.96278 48.1179 9.13041 48.1573 9.30025L54.7201 7.14971C54.6686 6.97436 54.6183 6.81555 54.5669 6.66777L53.2675 7.09347L52.8639 5.95864H52.865ZM47.7996 8.41798L53.3834 4.32754C53.2959 4.19961 53.1975 4.06507 53.0859 3.91949L51.9845 4.72677L51.2527 3.77281L47.4923 7.99338C47.6071 8.12572 47.7099 8.26799 47.8007 8.41798H47.7996ZM53.7652 9.7458L53.7291 8.54039L48.2262 9.72594C48.2426 9.90571 48.2426 10.0722 48.2284 10.252H55.128C55.1346 10.0833 55.1335 9.91343 55.128 9.7458H53.7663H53.7652ZM48.5183 0.569065C48.3728 0.517232 48.2153 0.466501 48.0392 0.414668L47.6181 1.72264L46.4696 1.38517L45.8877 7.0284C46.0572 7.067 46.2235 7.12104 46.3843 7.18941L48.5183 0.569065ZM46.4029 12.804C46.2421 12.8734 46.0758 12.9286 45.9074 12.9683L48.0403 19.5853C48.2142 19.5335 48.3717 19.4828 48.5193 19.4309L48.0971 18.1208L49.2227 17.7138L46.4039 12.8029L46.4029 12.804ZM45.215 13.0488C45.1319 13.0488 45.0498 13.0455 44.9634 13.0378V19.9945C45.0466 19.9978 45.1308 20 45.215 20C45.2992 20 45.3823 19.9978 45.4666 19.9945V18.6215L46.6621 18.5851L45.4863 13.0356C45.3933 13.0444 45.3036 13.0488 45.2161 13.0488H45.215ZM52.9536 13.866L47.8095 11.5633C47.7198 11.7144 47.6181 11.8566 47.5043 11.9901L53.0859 16.0783C53.1986 15.9316 53.2948 15.7993 53.3834 15.6703L52.2798 14.8619L52.9536 13.866ZM47.2035 12.2956C47.0723 12.4103 46.9312 12.515 46.7824 12.6066L50.8393 18.2366C50.9662 18.1483 51.0974 18.0502 51.244 17.9366L50.4433 16.826L51.3895 16.0882L47.2035 12.2956ZM53.7597 11.2655L48.1628 10.6788C48.1245 10.8497 48.0709 11.0174 48.0031 11.1795L54.568 13.33C54.6194 13.1822 54.6697 13.0223 54.7211 12.847L53.4239 12.4224L53.7597 11.2644V11.2655Z" fill="white"/>
<path d="M90.5268 85.6149L89.3573 85.998C89.311 85.865 89.2658 85.7211 89.2195 85.5633L95.126 83.6278C95.1614 83.7816 95.2106 83.9315 95.2726 84.0774L90.8891 86.6352L90.5258 85.6139L90.5268 85.6149ZM90.1124 84.3127L95.0659 83.2457C95.0512 83.0829 95.0512 82.934 95.064 82.7722H88.8553C88.8503 82.9241 88.8503 83.0769 88.8553 83.2278H90.0808L90.1133 84.3127H90.1124ZM95.4489 84.4228L90.4234 88.1042C90.5032 88.2194 90.5898 88.3395 90.6912 88.4715L91.6825 87.7449L92.3411 88.6035L95.7255 84.805C95.6221 84.6859 95.5296 84.5578 95.4479 84.4228H95.4489ZM90.8113 79.5206L95.44 81.5921C95.5207 81.4561 95.6123 81.328 95.7146 81.2079L90.6912 77.5285C90.5888 77.6615 90.5022 77.7816 90.4234 77.8958L91.4167 78.6233L90.8103 79.5206H90.8113ZM96.7069 80.4764C96.8516 80.4139 97.0013 80.3643 97.1529 80.3285L95.2343 74.3732C95.0767 74.4199 94.934 74.4655 94.8031 74.5122L95.1831 75.6913L94.1701 76.0576L96.7069 80.4774V80.4764ZM95.9991 85.0779L92.3489 90.1429C92.4808 90.2452 92.599 90.3335 92.7132 90.4129L93.4347 89.4114L94.3237 90.0228L96.3791 85.3548C96.2443 85.2734 96.1163 85.1801 95.9982 85.0779H95.9991ZM95.9863 80.933C96.1045 80.8288 96.2315 80.7355 96.3653 80.6531L92.7142 75.5871C92.6 75.6665 92.4799 75.7558 92.3499 75.8571L93.0705 76.8566L92.219 77.5206L95.9863 80.934V80.933ZM90.0858 81.86L95.123 82.3881C95.1575 82.2342 95.2057 82.0834 95.2667 81.9375L89.3583 80.003C89.312 80.136 89.2667 80.2799 89.2205 80.4367L90.388 80.8189L90.0868 81.861L90.0858 81.86ZM98.0024 80.265V74.005C97.9276 74.002 97.8518 74 97.776 74C97.7002 74 97.6244 74.002 97.5496 74.005V75.2407L96.4736 75.2734L97.5319 80.267C97.6156 80.2591 97.6963 80.2561 97.775 80.2561C97.8489 80.2561 97.9237 80.2591 98.0014 80.266L98.0024 80.265ZM94.8031 91.4878C94.935 91.5345 95.0767 91.5801 95.2343 91.6268L95.6133 90.4496L96.6469 90.7543L97.1706 85.6754C97.018 85.6407 96.8684 85.5921 96.7237 85.5305L94.8041 91.4878H94.8031ZM99.5529 80.9211L103.203 75.8561C103.071 75.7538 102.953 75.6665 102.839 75.5861L102.117 76.5876L101.228 75.9762L99.1729 80.6432C99.3078 80.7246 99.4347 80.8169 99.5539 80.9201L99.5529 80.9211ZM104.662 79.3628L100.278 81.9206C100.34 82.0665 100.39 82.2174 100.425 82.3702L106.332 80.4347C106.285 80.2769 106.24 80.134 106.194 80.001L105.024 80.3841L104.661 79.3628H104.662ZM100.103 81.5762L105.129 77.8948C105.05 77.7797 104.961 77.6586 104.861 77.5275L103.87 78.2541L103.211 77.3955L99.8265 81.194C99.9299 81.3132 100.022 81.4412 100.104 81.5762H100.103ZM105.472 82.7712L105.44 81.6864L100.487 82.7533C100.502 82.9151 100.502 83.065 100.489 83.2268H106.699C106.705 83.0749 106.704 82.9221 106.699 82.7712H105.473H105.472ZM100.75 74.5122C100.619 74.4655 100.477 74.4199 100.319 74.3732L99.9398 75.5504L98.9061 75.2467L98.3824 80.3256C98.535 80.3603 98.6846 80.4089 98.8293 80.4705L100.75 74.5122ZM98.8461 85.5236C98.7014 85.5861 98.5517 85.6357 98.4001 85.6715L100.32 91.6268C100.476 91.5801 100.618 91.5345 100.751 91.4878L100.371 90.3087L101.384 89.9424L98.8471 85.5226L98.8461 85.5236ZM97.777 85.7439C97.7022 85.7439 97.6283 85.7409 97.5506 85.734V91.995C97.6254 91.998 97.7012 92 97.777 92C97.8528 92 97.9276 91.998 98.0034 91.995V90.7593L99.0794 90.7266L98.0211 85.732C97.9375 85.7399 97.8567 85.7439 97.778 85.7439H97.777ZM104.742 86.4794L100.112 84.4069C100.031 84.5429 99.9398 84.671 99.8374 84.7911L104.861 88.4705C104.962 88.3385 105.049 88.2194 105.129 88.1032L104.135 87.3757L104.742 86.4794ZM99.5667 85.066C99.4485 85.1692 99.3215 85.2635 99.1877 85.3459L102.839 90.4129C102.953 90.3335 103.071 90.2452 103.203 90.1429L102.482 89.1434L103.334 88.4794L99.5667 85.066ZM105.467 84.139L100.43 83.6109C100.396 83.7648 100.347 83.9156 100.286 84.0615L106.195 85.997C106.241 85.864 106.286 85.7201 106.333 85.5623L105.165 85.1801L105.467 84.138V84.139Z" fill="white"/>
<path d="M53.8325 79.6149L52.663 79.998C52.6167 79.865 52.5714 79.7211 52.5252 79.5633L58.4316 77.6278C58.4671 77.7816 58.5163 77.9315 58.5783 78.0774L54.1947 80.6352L53.8315 79.6139L53.8325 79.6149ZM53.418 78.3127L58.3716 77.2457C58.3568 77.0829 58.3568 76.934 58.3696 76.7722H52.1609C52.156 76.9241 52.156 77.0769 52.1609 77.2278H53.3865L53.419 78.3127H53.418ZM58.7545 78.4228L53.7291 82.1042C53.8088 82.2194 53.8955 82.3395 53.9968 82.4715L54.9882 81.7449L55.6467 82.6035L59.0311 78.805C58.9278 78.6859 58.8352 78.5578 58.7535 78.4228H58.7545ZM54.1169 73.5206L58.7457 75.5921C58.8264 75.4561 58.9179 75.328 59.0203 75.2079L53.9968 71.5285C53.8945 71.6615 53.8078 71.7816 53.7291 71.8958L54.7224 72.6233L54.116 73.5206H54.1169ZM60.0126 74.4764C60.1573 74.4139 60.3069 74.3643 60.4585 74.3285L58.5399 68.3732C58.3824 68.4199 58.2397 68.4655 58.1087 68.5122L58.4887 69.6913L57.4758 70.0576L60.0126 74.4774V74.4764ZM59.3048 79.0779L55.6546 84.1429C55.7865 84.2452 55.9046 84.3335 56.0188 84.4129L56.7404 83.4114L57.6293 84.0228L59.6848 79.3548C59.5499 79.2734 59.422 79.1801 59.3038 79.0779H59.3048ZM59.292 74.933C59.4101 74.8288 59.5371 74.7355 59.671 74.6531L56.0198 69.5871C55.9056 69.6665 55.7855 69.7558 55.6556 69.8571L56.3762 70.8566L55.5247 71.5206L59.292 74.934V74.933ZM53.3914 75.86L58.4287 76.3881C58.4631 76.2342 58.5114 76.0834 58.5724 75.9375L52.664 74.003C52.6177 74.136 52.5724 74.2799 52.5261 74.4367L53.6937 74.8189L53.3924 75.861L53.3914 75.86ZM61.3081 74.265V68.005C61.2333 68.002 61.1575 68 61.0817 68C61.0059 68 60.9301 68.002 60.8553 68.005V69.2407L59.7793 69.2734L60.8375 74.267C60.9212 74.2591 61.0019 74.2561 61.0807 74.2561C61.1545 74.2561 61.2293 74.2591 61.3071 74.266L61.3081 74.265ZM58.1087 85.4878C58.2407 85.5345 58.3824 85.5801 58.5399 85.6268L58.9189 84.4496L59.9526 84.7543L60.4763 79.6754C60.3237 79.6407 60.174 79.5921 60.0293 79.5305L58.1097 85.4878H58.1087ZM62.8585 74.9211L66.5087 69.8561C66.3768 69.7538 66.2587 69.6665 66.1445 69.5861L65.4229 70.5876L64.534 69.9762L62.4786 74.6432C62.6134 74.7246 62.7404 74.8169 62.8595 74.9201L62.8585 74.9211ZM67.9676 73.3628L63.5841 75.9206C63.6461 76.0665 63.6953 76.2174 63.7307 76.3702L69.6372 74.4347C69.5909 74.2769 69.5457 74.134 69.4994 74.001L68.3299 74.3841L67.9667 73.3628H67.9676ZM63.4088 75.5762L68.4343 71.8948C68.3555 71.7797 68.2669 71.6586 68.1665 71.5275L67.1752 72.2541L66.5166 71.3955L63.1322 75.194C63.2356 75.3132 63.3281 75.4412 63.4098 75.5762H63.4088ZM68.7778 76.7712L68.7453 75.6864L63.7927 76.7533C63.8075 76.9151 63.8075 77.065 63.7947 77.2268H70.0044C70.0103 77.0749 70.0093 76.9221 70.0044 76.7712H68.7788H68.7778ZM64.0556 68.5122C63.9247 68.4655 63.7829 68.4199 63.6244 68.3732L63.2454 69.5504L62.2118 69.2467L61.6881 74.3256C61.8407 74.3603 61.9903 74.4089 62.135 74.4705L64.0556 68.5122ZM62.1517 79.5236C62.007 79.5861 61.8574 79.6357 61.7058 79.6715L63.6254 85.6268C63.7819 85.5801 63.9237 85.5345 64.0566 85.4878L63.6766 84.3087L64.6895 83.9424L62.1527 79.5226L62.1517 79.5236ZM61.0827 79.7439C61.0078 79.7439 60.934 79.7409 60.8562 79.734V85.995C60.9311 85.998 61.0069 86 61.0827 86C61.1585 86 61.2333 85.998 61.3091 85.995V84.7593L62.385 84.7266L61.3268 79.732C61.2431 79.7399 61.1624 79.7439 61.0836 79.7439H61.0827ZM68.0474 80.4794L63.4177 78.4069C63.337 78.5429 63.2454 78.671 63.143 78.7911L68.1665 82.4705C68.2679 82.3385 68.3545 82.2194 68.4343 82.1032L67.441 81.3757L68.0474 80.4794ZM62.8723 79.066C62.7542 79.1692 62.6272 79.2635 62.4933 79.3459L66.1445 84.4129C66.2587 84.3335 66.3768 84.2452 66.5087 84.1429L65.7882 83.1434L66.6397 82.4794L62.8723 79.066ZM68.7729 78.139L63.7357 77.6109C63.7012 77.7648 63.653 77.9156 63.5919 78.0615L69.5004 79.997C69.5466 79.864 69.5919 79.7201 69.6382 79.5623L68.4707 79.1801L68.7729 78.138V78.139Z" fill="white"/>
<path d="M5.42645 58.5541L2.04795 59.6609C1.91429 59.2767 1.78347 58.8609 1.64981 58.405L18.713 52.8136C18.8154 53.2581 18.9575 53.691 19.1367 54.1125L6.473 61.5018L5.42361 58.5513L5.42645 58.5541ZM4.22919 54.7921L18.5395 51.7097C18.4968 51.2394 18.4968 50.8093 18.5338 50.3419H0.597579C0.583359 50.7806 0.583359 51.2222 0.597579 51.6581H4.13819L4.23203 54.7921H4.22919ZM19.6458 55.1104L5.12785 65.7455C5.3582 66.0781 5.60846 66.4251 5.90138 66.8065L8.76515 64.7075L10.6677 67.1878L20.4449 56.2143C20.1463 55.8702 19.879 55.5004 19.6429 55.1104H19.6458ZM6.24833 40.9484L19.6202 46.9326C19.8534 46.5398 20.1178 46.1699 20.4136 45.8229L5.90138 35.1935C5.60562 35.5778 5.35536 35.9247 5.12785 36.2545L7.99731 38.3563L6.24549 40.9484H6.24833ZM23.2802 43.7097C23.6983 43.529 24.1305 43.3857 24.5685 43.2824L19.0258 26.0781C18.5708 26.2129 18.1584 26.3448 17.7802 26.4796L18.8779 29.886L15.9516 30.9441L23.2802 43.7125V43.7097ZM21.2355 57.0029L10.6904 71.6351C11.0715 71.9305 11.4128 72.1857 11.7427 72.4151L13.8272 69.5219L16.3952 71.2882L22.3332 57.8029C21.9436 57.5677 21.5739 57.2982 21.2326 57.0029H21.2355ZM21.1985 45.0287C21.5398 44.7276 21.9066 44.4581 22.2934 44.2201L11.7455 29.5849C11.4156 29.8143 11.0687 30.0724 10.6933 30.3649L12.775 33.2523L10.3151 35.1706L21.1985 45.0315V45.0287ZM4.15241 47.7068L18.7044 49.2323C18.804 48.7878 18.9433 48.352 19.1196 47.9305L2.05079 42.3419C1.91713 42.7262 1.78631 43.1419 1.65265 43.595L5.02547 44.6989L4.15525 47.7097L4.15241 47.7068ZM27.0227 43.0989V25.0143C26.8066 25.0057 26.5876 25 26.3686 25C26.1497 25 25.9307 25.0057 25.7146 25.0143V28.5842L22.6062 28.6789L25.6634 43.1047C25.9051 43.0817 26.1383 43.0731 26.3658 43.0731C26.5791 43.0731 26.7952 43.0817 27.0199 43.1018L27.0227 43.0989ZM17.7802 75.5204C18.1613 75.6552 18.5708 75.7871 19.0258 75.9219L20.1207 72.5211L23.1067 73.4014L24.6197 58.729C24.1789 58.6287 23.7466 58.4882 23.3286 58.3104L17.783 75.5204H17.7802ZM31.5018 44.9943L42.0469 30.362C41.6658 30.0667 41.3245 29.8143 40.9946 29.5821L38.9101 32.4753L36.3421 30.709L30.4041 44.1914C30.7937 44.4265 31.1606 44.6932 31.5047 44.9914L31.5018 44.9943ZM46.2615 40.4925L33.5977 47.8817C33.7769 48.3032 33.9191 48.7391 34.0215 49.1806L51.0846 43.5892C50.951 43.1333 50.8202 42.7204 50.6865 42.3362L47.308 43.443L46.2586 40.4925H46.2615ZM33.0915 46.8867L47.6095 36.2516C47.3819 35.919 47.126 35.5692 46.8359 35.1907L43.9721 37.2896L42.0696 34.8093L32.2924 45.7828C32.591 46.1269 32.8583 46.4968 33.0944 46.8867H33.0915ZM48.602 50.3391L48.5081 47.205L34.2006 50.2875C34.2433 50.7548 34.2433 51.1878 34.2063 51.6552H52.1454C52.1625 51.2165 52.1596 50.7749 52.1454 50.3391H48.6048H48.602ZM34.96 26.4796C34.5817 26.3448 34.1722 26.2129 33.7143 26.0781L32.6195 29.4789L29.6334 28.6014L28.1205 43.2738C28.5613 43.3742 28.9935 43.5147 29.4116 43.6925L34.96 26.4796ZM29.4599 58.2903C29.0419 58.471 28.6096 58.6143 28.1717 58.7176L33.7172 75.9219C34.1694 75.7871 34.5789 75.6552 34.9628 75.5204L33.8651 72.114L36.7914 71.0559L29.4628 58.2875L29.4599 58.2903ZM26.3715 58.9269C26.1554 58.9269 25.9421 58.9183 25.7174 58.8982V76.9857C25.9335 76.9943 26.1525 77 26.3715 77C26.5905 77 26.8066 76.9943 27.0256 76.9857V73.4158L30.1339 73.3211L27.0768 58.8925C26.835 58.9154 26.6018 58.9269 26.3743 58.9269H26.3715ZM46.4918 61.0516L33.1171 55.0645C32.8839 55.4573 32.6195 55.8272 32.3237 56.1742L46.8359 66.8036C47.1288 66.4222 47.3791 66.0781 47.6095 65.7426L44.74 63.6409L46.4918 61.0516ZM31.5416 56.9685C31.2004 57.2667 30.8335 57.5391 30.4467 57.7771L40.9946 72.4151C41.3245 72.1857 41.6658 71.9305 42.0469 71.6351L39.9651 68.7477L42.4251 66.8294L31.5416 56.9685ZM48.5877 54.2903L34.0357 52.7649C33.9362 53.2093 33.7968 53.6452 33.6205 54.0667L50.6893 59.6581C50.823 59.2738 50.9538 58.8581 51.0875 58.4021L47.7147 57.2982L48.5877 54.2875V54.2903Z" fill="white"/>
</svg>
