<svg width="175" height="334" viewBox="0 0 175 334" fill="none" xmlns="http://www.w3.org/2000/svg">
<path d="M159.055 256.129C158.88 256.129 158.715 256.032 158.628 255.877L156.241 251.483L151.856 249.068C151.701 248.981 151.604 248.816 151.604 248.641C151.604 248.467 151.701 248.302 151.856 248.215L156.251 245.828L158.667 241.444C158.754 241.289 158.919 241.192 159.093 241.192C159.268 241.192 159.433 241.289 159.52 241.444L161.907 245.838L166.292 248.253C166.447 248.341 166.544 248.505 166.544 248.68C166.544 248.855 166.447 249.02 166.292 249.107L161.897 251.493L159.481 255.877C159.394 256.032 159.229 256.129 159.055 256.129ZM153.098 248.641L156.833 250.698C156.91 250.746 156.978 250.814 157.027 250.892L159.064 254.636L161.121 250.901C161.17 250.824 161.237 250.756 161.315 250.707L165.06 248.67L161.325 246.614C161.247 246.566 161.179 246.498 161.131 246.42L159.093 242.676L157.037 246.41C156.988 246.488 156.93 246.556 156.843 246.604L153.098 248.641Z" fill="#849AFF"/>
<path opacity="0.72" d="M120.613 47.9899C118.809 47.9899 117.354 46.5252 117.354 44.7308C117.354 42.9363 118.818 41.4717 120.613 41.4717C122.408 41.4717 123.873 42.9363 123.873 44.7308C123.873 46.5252 122.408 47.9899 120.613 47.9899ZM120.613 42.432C119.352 42.432 118.324 43.4601 118.324 44.7211C118.324 45.982 119.352 47.0102 120.613 47.0102C121.875 47.0102 122.903 45.982 122.903 44.7211C122.903 43.4601 121.875 42.432 120.613 42.432Z" fill="#5C79FF"/>
<path opacity="0.71" d="M171.74 176.231C169.936 176.231 168.48 174.766 168.48 172.972C168.48 171.178 169.945 169.713 171.74 169.713C173.535 169.713 175 171.178 175 172.972C175 174.766 173.535 176.231 171.74 176.231ZM171.74 170.673C170.479 170.673 169.451 171.701 169.451 172.962C169.451 174.223 170.479 175.251 171.74 175.251C173.002 175.251 174.03 174.223 174.03 172.962C174.03 171.701 173.002 170.673 171.74 170.673Z" fill="#7FD6C3"/>
<path d="M159.883 282.963C158.718 282.963 157.777 282.022 157.777 280.858C157.777 279.694 158.718 278.753 159.883 278.753C161.047 278.753 161.988 279.694 161.988 280.858C161.988 282.022 161.047 282.963 159.883 282.963ZM159.883 279.723C159.252 279.723 158.748 280.227 158.748 280.858C158.748 281.488 159.262 281.993 159.883 281.993C160.504 281.993 161.018 281.479 161.018 280.858C161.018 280.237 160.504 279.723 159.883 279.723Z" fill="#ACBBFF"/>
<path d="M166.589 103.794L162.33 90.3309C161.981 89.2251 160.807 88.614 159.701 88.9632L151.008 91.7082C150.115 91.9895 149.136 91.6597 148.631 90.874C146.749 87.9447 144.527 85.3161 142.024 83.0076C141.335 82.3771 141.18 81.3489 141.607 80.5244L145.808 72.4349C146.341 71.4067 145.944 70.1458 144.915 69.6123L132.38 63.1038C131.352 62.5703 130.091 62.968 129.557 63.9961L125.347 72.0857C124.92 72.9102 123.988 73.3661 123.076 73.1721C119.749 72.4446 116.314 72.1439 112.841 72.2797C111.909 72.3185 111.075 71.7074 110.794 70.815L108.048 62.1241C107.699 61.0183 106.525 60.4072 105.419 60.7564L91.9527 65.0146C90.8467 65.3638 90.2355 66.5375 90.5848 67.6432L93.3304 76.3342C93.6117 77.2265 93.2819 78.2062 92.496 78.7106C89.5661 80.5923 86.9368 82.8136 84.6278 85.3161C83.9972 86.0048 82.9688 86.16 82.1441 85.7332L74.0528 81.5332C73.0244 80.9997 71.7631 81.3974 71.2295 82.4256L64.7196 94.9576C64.186 95.9858 64.5837 97.2467 65.6121 97.7802L73.7035 101.99C74.5281 102.417 74.9841 103.348 74.7901 104.26C74.0625 107.587 73.7617 111.02 73.8975 114.493C73.9363 115.424 73.3251 116.258 72.4325 116.539L63.7397 119.284C62.6336 119.634 62.0224 120.807 62.3717 121.913L66.6308 135.376C66.9801 136.482 68.154 137.093 69.26 136.744L77.9529 133.999C78.8455 133.718 79.8254 134.047 80.3299 134.833C82.212 137.762 84.4338 140.391 86.9368 142.7C87.6257 143.33 87.7809 144.358 87.354 145.183L83.1531 153.272C82.6195 154.3 83.0173 155.561 84.0457 156.095L96.5805 162.603C97.6089 163.137 98.8701 162.739 99.4038 161.711L103.614 153.621C104.041 152.797 104.973 152.341 105.885 152.535C109.212 153.263 112.647 153.563 116.12 153.427C117.051 153.389 117.886 154 118.167 154.892L120.913 163.583C121.262 164.689 122.436 165.3 123.542 164.951L137.008 160.693C138.114 160.343 138.725 159.17 138.376 158.064L135.631 149.373C135.349 148.481 135.679 147.501 136.465 146.997C139.395 145.115 142.024 142.894 144.333 140.391C144.964 139.702 145.992 139.547 146.817 139.974L154.908 144.174C155.937 144.707 157.198 144.31 157.731 143.282L164.241 130.75C164.775 129.721 164.377 128.46 163.349 127.927L155.257 123.717C154.433 123.29 153.977 122.359 154.171 121.448C154.898 118.121 155.199 114.687 155.063 111.214C155.025 110.283 155.636 109.449 156.528 109.168L165.221 106.423C166.327 106.073 166.938 104.9 166.589 103.794ZM121.272 134.532C106.942 138.635 92.4281 129.023 90.6235 114.231C89.1974 102.591 96.5999 91.4269 107.873 88.1969C122.203 84.0939 136.717 93.7063 138.522 108.498C139.948 120.138 132.545 131.302 121.272 134.532Z" fill="#CACAE5"/>
<path d="M166.813 98.7501L162.554 85.2869C162.204 84.1811 161.03 83.5701 159.924 83.9193L151.232 86.6643C150.339 86.9456 149.359 86.6158 148.855 85.8301C146.973 82.9008 144.751 80.2722 142.248 77.9636C141.559 77.3332 141.404 76.305 141.83 75.4805L146.031 67.3909C146.565 66.3628 146.167 65.1018 145.139 64.5683L132.604 58.0598C131.576 57.5263 130.314 57.924 129.781 58.9522L125.57 67.0418C125.143 67.8662 124.212 68.3221 123.3 68.1281C119.972 67.4006 116.538 67.1 113.064 67.2358C112.133 67.2746 111.299 66.6635 111.017 65.7711L108.272 57.0802C107.922 55.9744 106.749 55.3633 105.643 55.7125L92.1763 59.9707C91.0703 60.3199 90.4591 61.4935 90.8084 62.5993L93.554 71.2902C93.8354 72.1826 93.5055 73.1623 92.7196 73.6667C89.7897 75.5484 87.1605 77.7696 84.8514 80.2722C84.2208 80.9608 83.1924 81.116 82.3677 80.6892L74.2764 76.4893C73.248 75.9558 71.9867 76.3535 71.4531 77.3817L64.9432 89.9137C64.4096 90.9418 64.8074 92.2028 65.8357 92.7363L73.9271 96.946C74.7518 97.3728 75.2077 98.3039 75.0137 99.2157C74.2861 102.543 73.9853 105.976 74.1212 109.449C74.16 110.38 73.5487 111.214 72.6562 111.496L63.9633 114.241C62.8573 114.59 62.2461 115.763 62.5953 116.869L66.8544 130.332C67.2037 131.438 68.3776 132.049 69.4837 131.7L78.1765 128.955C79.0691 128.674 80.049 129.003 80.5535 129.789C82.4356 132.718 84.6574 135.347 87.1605 137.656C87.8493 138.286 88.0045 139.314 87.5776 140.139L83.3767 148.228C82.8431 149.257 83.2409 150.517 84.2693 151.051L96.8041 157.559C97.8325 158.093 99.0938 157.695 99.6274 156.667L103.838 148.578C104.265 147.753 105.196 147.297 106.108 147.491C109.436 148.219 112.87 148.519 116.344 148.384C117.275 148.345 118.109 148.956 118.391 149.848L121.136 158.539C121.486 159.645 122.66 160.256 123.766 159.907L137.232 155.649C138.338 155.299 138.949 154.126 138.6 153.02L135.854 144.329C135.573 143.437 135.903 142.457 136.689 141.953C139.618 140.071 142.248 137.85 144.557 135.347C145.187 134.658 146.216 134.503 147.04 134.93L155.132 139.13C156.16 139.663 157.421 139.266 157.955 138.238L164.465 125.706C164.999 124.677 164.601 123.416 163.572 122.883L155.481 118.673C154.656 118.247 154.2 117.315 154.394 116.404C155.122 113.077 155.423 109.643 155.287 106.17C155.248 105.239 155.859 104.405 156.752 104.124L165.445 101.379C166.551 101.03 167.162 99.8559 166.813 98.7501ZM121.495 130.837C107.166 134.94 92.6517 125.327 90.8472 110.535C89.421 98.8956 96.8235 87.7312 108.097 84.5012C122.427 80.3983 136.941 90.0107 138.745 104.803C140.171 116.442 132.769 127.607 121.495 130.837Z" fill="#4361EE"/>
<path d="M123.145 160.479C122.048 160.479 121.03 159.771 120.68 158.675L117.935 149.984C117.721 149.295 117.071 148.82 116.373 148.859C112.9 149.004 109.407 148.703 106.011 147.956C105.322 147.801 104.604 148.15 104.275 148.791L100.074 156.88C99.7535 157.491 99.2199 157.947 98.5602 158.151C97.9005 158.355 97.2019 158.296 96.5907 157.976L84.0559 151.468C83.4447 151.148 82.9887 150.614 82.7849 149.955C82.5812 149.295 82.6394 148.597 82.9596 147.986L87.1605 139.896C87.4904 139.256 87.3642 138.47 86.85 137.995C84.2887 135.638 82.0379 132.961 80.1654 130.041C79.787 129.449 79.04 129.188 78.3512 129.411L69.6583 132.156C68.3 132.582 66.8448 131.826 66.4179 130.478L62.1587 117.014C61.7319 115.656 62.4886 114.211 63.8372 113.775L72.5301 111.03C73.2189 110.816 73.6846 110.166 73.6555 109.468C73.5099 105.996 73.8204 102.504 74.5577 99.1087C74.7033 98.42 74.3637 97.712 73.7234 97.3725L65.632 93.1725C65.0208 92.8524 64.5648 92.3189 64.3611 91.6593C64.1574 90.9997 64.2156 90.3014 64.5357 89.6903L71.0457 77.1583C71.3658 76.5472 71.8994 76.0913 72.5592 75.8876C73.2189 75.6839 73.9174 75.7421 74.5286 76.0622L82.62 80.2622C83.2603 80.592 84.0462 80.4659 84.5216 79.9518C86.8791 77.3911 89.5568 75.1407 92.4771 73.2687C93.0689 72.8904 93.3309 72.1435 93.1077 71.4548L90.3621 62.7639C90.1584 62.1043 90.2166 61.4059 90.5367 60.7948C90.8569 60.1838 91.3905 59.7279 92.0502 59.5242L105.516 55.266C106.865 54.8392 108.32 55.5861 108.757 56.9441L111.502 65.635C111.716 66.3237 112.366 66.7796 113.064 66.7602C116.547 66.6147 120.03 66.9154 123.426 67.6622C124.115 67.8077 124.823 67.4683 125.163 66.8281L129.373 58.7385C130.033 57.4776 131.585 56.9829 132.856 57.6424L145.391 64.151C146.652 64.8105 147.147 66.3625 146.487 67.6331L142.287 75.7227C141.957 76.3629 142.083 77.1486 142.597 77.6239C145.158 79.9809 147.409 82.658 149.282 85.5873C149.66 86.179 150.407 86.4409 151.096 86.2178L159.789 83.4728C160.448 83.2691 161.147 83.3273 161.758 83.6474C162.369 83.9675 162.816 84.5009 163.029 85.1605L167.288 98.6237C167.715 99.9817 166.968 101.427 165.61 101.863L156.917 104.608C156.228 104.832 155.762 105.472 155.791 106.17C155.937 109.643 155.627 113.134 154.889 116.529C154.744 117.218 155.083 117.926 155.724 118.266L163.815 122.475C165.076 123.135 165.571 124.687 164.911 125.958L158.401 138.49C158.081 139.101 157.548 139.556 156.888 139.76C156.228 139.964 155.53 139.906 154.918 139.586L146.827 135.386C146.187 135.046 145.401 135.182 144.925 135.696C142.568 138.257 139.89 140.507 136.96 142.379C136.368 142.757 136.106 143.504 136.33 144.203L139.075 152.894C139.502 154.252 138.745 155.697 137.397 156.133L123.931 160.391C123.669 160.469 123.416 160.508 123.154 160.508L123.145 160.479ZM116.431 147.889C117.527 147.889 118.517 148.616 118.856 149.693L121.602 158.384C121.874 159.228 122.776 159.703 123.62 159.431L137.086 155.173C137.93 154.901 138.406 153.999 138.134 153.155L135.388 144.465C135.039 143.359 135.466 142.156 136.427 141.535C139.279 139.702 141.898 137.5 144.198 135.007C144.974 134.163 146.235 133.96 147.264 134.493L155.355 138.693C155.733 138.887 156.17 138.926 156.577 138.8C156.985 138.674 157.324 138.393 157.518 138.005L164.028 125.473C164.436 124.687 164.125 123.717 163.34 123.3L155.248 119.09C154.22 118.557 153.667 117.402 153.909 116.287C154.627 112.97 154.928 109.565 154.783 106.17C154.734 105.035 155.471 103.988 156.587 103.638L165.28 100.893C166.124 100.622 166.599 99.7198 166.328 98.8759L162.069 85.4127C161.943 85.0053 161.661 84.6658 161.273 84.4718C160.895 84.2779 160.458 84.2391 160.051 84.3651L151.358 87.1102C150.261 87.4594 149.049 87.0326 148.428 86.0723C146.594 83.2109 144.392 80.6017 141.898 78.3028C141.054 77.5269 140.851 76.2659 141.384 75.2377L145.585 67.1482C145.993 66.3625 145.682 65.3925 144.896 64.9754L132.362 58.4669C131.576 58.0595 130.596 58.3602 130.188 59.1556L125.987 67.2452C125.454 68.2733 124.299 68.8262 123.184 68.5837C119.865 67.8659 116.46 67.5653 113.064 67.7107C111.929 67.7495 110.882 67.0221 110.532 65.9066L107.787 57.2157C107.515 56.3718 106.613 55.8965 105.769 56.1681L92.3025 60.4263C91.895 60.5524 91.5554 60.8336 91.3614 61.2216C91.1673 61.5999 91.1286 62.0364 91.2547 62.4438L94.0003 71.1347C94.3496 72.2405 93.9227 73.4433 92.9622 74.0641C90.1098 75.8973 87.4904 78.0991 85.191 80.592C84.4149 81.4358 83.1536 81.6492 82.1252 81.106L74.0339 76.9061C73.6555 76.7121 73.2189 76.6733 72.8114 76.7994C72.4039 76.9255 72.0644 77.2068 71.8703 77.5947L65.3604 90.1268C65.1663 90.5051 65.1275 90.9416 65.2536 91.3586C65.3798 91.766 65.6611 92.1055 66.0492 92.2995L74.1406 96.4995C75.169 97.033 75.722 98.1872 75.4794 99.3027C74.7615 102.62 74.4607 106.025 74.6063 109.419C74.6548 110.554 73.9077 111.602 72.8017 111.951L64.1088 114.696C63.2648 114.968 62.7894 115.87 63.061 116.714L67.3201 130.177C67.5918 131.021 68.4941 131.496 69.3381 131.224L78.031 128.479C79.137 128.13 80.3401 128.557 80.961 129.517C82.7946 132.369 84.9873 134.988 87.4903 137.287C88.3344 138.063 88.5381 139.324 88.0045 140.352L83.8036 148.441C83.6096 148.82 83.5708 149.256 83.6969 149.673C83.823 150.081 84.1044 150.42 84.4925 150.614L97.0273 157.123C97.4057 157.326 97.8422 157.355 98.2497 157.229C98.6572 157.103 98.9968 156.822 99.1908 156.434L103.392 148.344C103.925 147.316 105.08 146.763 106.196 147.006C109.514 147.724 112.919 148.024 116.315 147.879C116.353 147.879 116.383 147.879 116.421 147.879L116.431 147.889ZM114.791 132.272C109.999 132.272 105.274 130.875 101.209 128.179C95.1936 124.192 91.245 117.79 90.3621 110.593C88.9165 98.7401 96.484 87.3236 107.961 84.0354C114.927 82.0372 122.378 83.1818 128.384 87.1587C134.399 91.1452 138.348 97.5471 139.23 104.744C140.676 116.597 133.109 128.014 121.631 131.302C119.38 131.942 117.081 132.262 114.791 132.262V132.272ZM114.791 84.0451C112.599 84.0451 110.387 84.3458 108.223 84.9665C97.1922 88.1286 89.9255 99.0893 91.3226 110.477C92.1666 117.383 95.9601 123.542 101.742 127.374C107.515 131.195 114.665 132.291 121.36 130.381C132.391 127.218 139.657 116.258 138.26 104.87C137.416 97.9642 133.623 91.8048 127.84 87.9734C123.931 85.3836 119.39 84.0451 114.791 84.0451Z" fill="#00105B"/>
<path d="M101.5 109.235L101.442 109.196C101.083 109.002 100.84 108.604 100.84 108.187C100.84 107.799 101.054 107.421 101.442 107.198L108.262 103.638C108.447 103.541 108.621 103.502 108.806 103.502C109.446 103.502 109.941 104.046 109.941 104.666C109.941 105.045 109.747 105.423 109.368 105.636L104.401 108.236L109.329 110.913C109.708 111.097 109.931 111.485 109.931 111.902C109.931 112.523 109.436 113.047 108.815 113.047C108.631 113.047 108.447 113.008 108.282 112.911L101.5 109.245V109.235Z" fill="#00105B"/>
<path d="M111.037 115.327C111.037 115.191 111.066 115.045 111.105 114.91L115.946 99.8556C116.14 99.2543 116.703 98.876 117.304 98.876C118.148 98.876 118.701 99.6035 118.701 100.428C118.701 100.583 118.672 100.738 118.633 100.874L113.792 115.773C113.579 116.374 113.035 116.753 112.434 116.753C112.298 116.753 112.172 116.743 112.026 116.694C111.434 116.481 111.037 115.928 111.037 115.327Z" fill="#00105B"/>
<path d="M120.059 105.617C119.681 105.404 119.487 105.026 119.487 104.647C119.487 104.027 119.972 103.483 120.622 103.483C120.806 103.483 120.981 103.522 121.165 103.619L127.986 107.179C128.374 107.402 128.587 107.8 128.587 108.188C128.587 108.576 128.354 108.983 127.986 109.177L127.918 109.216L121.156 112.882C120.991 112.979 120.806 113.018 120.622 113.018C119.991 113.018 119.506 112.485 119.506 111.874C119.506 111.457 119.729 111.059 120.108 110.884L125.027 108.207L120.069 105.608L120.059 105.617Z" fill="#00105B"/>
<path d="M82.6201 101.563C82.6201 101.563 82.5522 101.563 82.5231 101.553C82.2611 101.495 82.0962 101.243 82.1447 100.981C84.6478 88.9437 93.8354 79.0015 105.546 75.6551C108.582 74.7821 111.697 74.3456 114.801 74.3359C115.073 74.3359 115.286 74.5493 115.286 74.8209C115.286 75.0925 115.073 75.3059 114.801 75.3059C111.784 75.3059 108.757 75.7424 105.808 76.5863C94.437 79.8454 85.5209 89.4966 83.0955 101.185C83.047 101.418 82.8432 101.573 82.6201 101.573V101.563Z" fill="white"/>
<path d="M114.791 141.002C108.3 141.002 101.897 139.111 96.3767 135.464C88.2272 130.071 82.8717 121.38 81.6881 111.632C81.659 111.37 81.8433 111.127 82.115 111.088C82.3769 111.05 82.6195 111.244 82.6583 111.515C83.8128 120.982 89.013 129.411 96.92 134.649C104.827 139.887 114.626 141.39 123.794 138.762C138.9 134.436 148.854 119.421 146.943 103.833C145.4 91.1847 136.562 80.5635 124.435 76.7709C124.182 76.6933 124.037 76.4217 124.114 76.1598C124.192 75.9076 124.464 75.7622 124.726 75.8397C137.222 79.7487 146.322 90.6803 147.913 103.707C149.873 119.77 139.628 135.231 124.066 139.693C121.019 140.566 117.895 140.993 114.801 140.993L114.791 141.002Z" fill="white"/>
<path d="M114.791 135.328C109.407 135.328 104.09 133.766 99.5204 130.73C92.7582 126.249 88.3147 119.042 87.3251 110.962C85.6952 97.6346 94.2037 84.8019 107.117 81.1063C114.956 78.8657 123.319 80.146 130.081 84.6273C136.843 89.1086 141.287 96.3154 142.267 104.395C143.897 117.723 135.388 130.555 122.485 134.251C119.952 134.978 117.362 135.337 114.791 135.337V135.328ZM114.791 80.7474C112.288 80.7474 109.766 81.0966 107.301 81.8047C94.7373 85.4033 86.4519 97.8965 88.0333 110.875C88.9938 118.751 93.3209 125.764 99.9084 130.129C106.486 134.484 114.636 135.735 122.271 133.553C134.835 129.954 143.121 117.461 141.539 104.483C140.579 96.6064 136.252 89.5935 129.674 85.2287C125.221 82.28 120.04 80.7474 114.801 80.7474H114.791Z" fill="white"/>
<path d="M95.0867 47.4189H94.6405C93.5581 47.4189 92.6807 48.2962 92.6807 49.3783V64.3643C92.6807 65.4464 93.5581 66.3237 94.6405 66.3237H95.0867C96.1691 66.3237 97.0465 65.4464 97.0465 64.3643V49.3783C97.0465 48.2962 96.1691 47.4189 95.0867 47.4189Z" fill="#00105B"/>
<path d="M95.0875 66.8089H94.6412C93.2926 66.8089 92.1963 65.7128 92.1963 64.3645V49.3882C92.1963 48.0399 93.2926 46.9438 94.6412 46.9438H95.0875C96.436 46.9438 97.5323 48.0399 97.5323 49.3882V64.3645C97.5323 65.7128 96.436 66.8089 95.0875 66.8089ZM94.6412 47.9041C93.8262 47.9041 93.1665 48.5637 93.1665 49.3785V64.3548C93.1665 65.1696 93.8262 65.8292 94.6412 65.8292H95.0875C95.9024 65.8292 96.5621 65.1696 96.5621 64.3548V49.3785C96.5621 48.5637 95.9024 47.9041 95.0875 47.9041H94.6412Z" fill="#00105B"/>
<path d="M7.09162 161.042V28.0294C7.09162 20.6189 13.0971 14.6147 20.5093 14.6147H15.9397C8.48869 14.6147 2.4541 20.648 2.4541 28.0973V160.964C2.4541 168.413 8.48869 174.447 15.9397 174.447H20.5093C13.0971 174.447 7.09162 168.442 7.09162 161.032V161.042Z" fill="#00105B"/>
<path d="M20.509 174.941H15.9395C8.23618 174.941 1.96875 168.675 1.96875 160.974V28.1072C1.96875 20.4057 8.23618 14.1396 15.9395 14.1396H20.509V15.1096C13.3782 15.1096 7.57646 20.91 7.57646 28.0393V161.051C7.57646 168.181 13.3782 173.981 20.509 173.981V174.951V174.941ZM15.3767 15.1096C8.46901 15.4103 2.93894 21.1234 2.93894 28.0975V160.964C2.93894 167.938 8.46901 173.651 15.3767 173.952C10.2445 171.905 6.60627 166.891 6.60627 161.032V28.0296C6.60627 22.1807 10.2445 17.1563 15.3767 15.1096Z" fill="#00105B"/>
<path d="M4.91727 54.5976C4.28665 54.5976 3.77246 54.0835 3.77246 53.453V36.8374C3.77246 36.207 4.28665 35.6929 4.91727 35.6929C5.5479 35.6929 6.06209 36.207 6.06209 36.8374V53.453C6.06209 54.0835 5.5479 54.5976 4.91727 54.5976Z" fill="#CACAE5"/>
<path d="M4.91702 55.073C4.01474 55.073 3.28711 54.3455 3.28711 53.4434V36.8278C3.28711 35.9257 4.01474 35.1982 4.91702 35.1982C5.81929 35.1982 6.54692 35.9257 6.54692 36.8278V53.4434C6.54692 54.3455 5.81929 55.073 4.91702 55.073ZM4.91702 36.1682C4.55805 36.1682 4.2573 36.4592 4.2573 36.8278V53.4434C4.2573 53.8023 4.54835 54.103 4.91702 54.103C5.28569 54.103 5.57674 53.812 5.57674 53.4434V36.8278C5.57674 36.4689 5.28569 36.1682 4.91702 36.1682Z" fill="#00105B"/>
<path d="M4.91727 79.6225C4.28665 79.6225 3.77246 79.1084 3.77246 78.4779V61.8623C3.77246 61.2319 4.28665 60.7178 4.91727 60.7178C5.5479 60.7178 6.06209 61.2319 6.06209 61.8623V78.4779C6.06209 79.1084 5.5479 79.6225 4.91727 79.6225Z" fill="#CACAE5"/>
<path d="M4.91702 80.1076C4.01474 80.1076 3.28711 79.3801 3.28711 78.4781V61.8625C3.28711 60.9604 4.01474 60.2329 4.91702 60.2329C5.81929 60.2329 6.54692 60.9604 6.54692 61.8625V78.4781C6.54692 79.3801 5.81929 80.1076 4.91702 80.1076ZM4.91702 61.2029C4.55805 61.2029 4.2573 61.4939 4.2573 61.8625V78.4781C4.2573 78.837 4.54835 79.1376 4.91702 79.1376C5.28569 79.1376 5.57674 78.8467 5.57674 78.4781V61.8625C5.57674 61.5036 5.28569 61.2029 4.91702 61.2029Z" fill="#00105B"/>
<path d="M81.1539 14.6147H20.5075C13.0953 14.6147 7.08984 20.6189 7.08984 28.0294V161.042C7.08984 168.452 13.0953 174.456 20.5075 174.456H81.1539C88.5662 174.456 94.5716 168.452 94.5716 161.042V28.0294C94.5716 20.6189 88.5662 14.6147 81.1539 14.6147Z" fill="#CACAE5"/>
<path d="M81.1546 174.941H20.5082C12.8438 174.941 6.60547 168.704 6.60547 161.042V28.0296C6.60547 20.3668 12.8438 14.1299 20.5082 14.1299H81.1546C88.8191 14.1299 95.0574 20.3668 95.0574 28.0296V161.042C95.0574 168.704 88.8191 174.941 81.1546 174.941ZM20.5082 15.0999C13.3774 15.0999 7.57566 20.9003 7.57566 28.0296V161.042C7.57566 168.171 13.3774 173.971 20.5082 173.971H81.1546C88.2855 173.971 94.0872 168.171 94.0872 161.042V28.0296C94.0872 20.9003 88.2855 15.0999 81.1546 15.0999H20.5082Z" fill="#00105B"/>
<path d="M87.7526 29.7173H13.9214V160.935H87.7526V29.7173Z" fill="white"/>
<path d="M87.7529 161.42H13.9216C13.65 161.42 13.4365 161.207 13.4365 160.935V29.7174C13.4365 29.4458 13.65 29.2324 13.9216 29.2324H87.7529C88.0245 29.2324 88.238 29.4458 88.238 29.7174V160.935C88.238 161.207 88.0245 161.42 87.7529 161.42ZM14.4067 160.45H87.2678V30.2024H14.4067V160.45Z" fill="#00105B"/>
<path d="M87.248 30.2021H14.4258V40.2898H87.248V30.2021Z" fill="#ACBBFF"/>
<path d="M69.4249 36.827C68.5226 36.827 67.7949 36.0995 67.7949 35.1974C67.7949 34.2953 68.5226 33.5679 69.4249 33.5679C70.3271 33.5679 71.0548 34.2953 71.0548 35.1974C71.0548 36.0995 70.3271 36.827 69.4249 36.827ZM69.4249 34.2953C68.9301 34.2953 68.5226 34.7027 68.5226 35.1974C68.5226 35.6921 68.9301 36.0995 69.4249 36.0995C69.9197 36.0995 70.3271 35.6921 70.3271 35.1974C70.3271 34.7027 69.9197 34.2953 69.4249 34.2953Z" fill="white"/>
<path d="M76.0025 36.827C75.1002 36.827 74.3726 36.0995 74.3726 35.1974C74.3726 34.2953 75.1002 33.5679 76.0025 33.5679C76.9048 33.5679 77.6324 34.2953 77.6324 35.1974C77.6324 36.0995 76.9048 36.827 76.0025 36.827ZM76.0025 34.2953C75.5077 34.2953 75.1002 34.7027 75.1002 35.1974C75.1002 35.6921 75.5077 36.0995 76.0025 36.0995C76.4973 36.0995 76.9048 35.6921 76.9048 35.1974C76.9048 34.7027 76.4973 34.2953 76.0025 34.2953Z" fill="white"/>
<path d="M82.6968 36.827C81.7945 36.827 81.0669 36.0995 81.0669 35.1974C81.0669 34.2953 81.7945 33.5679 82.6968 33.5679C83.5991 33.5679 84.3267 34.2953 84.3267 35.1974C84.3267 36.0995 83.5991 36.827 82.6968 36.827ZM82.6968 34.2953C82.202 34.2953 81.7945 34.7027 81.7945 35.1974C81.7945 35.6921 82.202 36.0995 82.6968 36.0995C83.1916 36.0995 83.5991 35.6921 83.5991 35.1974C83.5991 34.7027 83.1916 34.2953 82.6968 34.2953Z" fill="white"/>
<path d="M48.5667 55.7996H26.136C25.8643 55.7996 25.6509 55.5862 25.6509 55.3146C25.6509 55.043 25.8643 54.8296 26.136 54.8296H48.5667C48.8384 54.8296 49.0518 55.043 49.0518 55.3146C49.0518 55.5862 48.8384 55.7996 48.5667 55.7996Z" fill="#4361EE"/>
<path d="M62.1785 55.7996H54.1648C53.8931 55.7996 53.6797 55.5862 53.6797 55.3146C53.6797 55.043 53.8931 54.8296 54.1648 54.8296H62.1785C62.4502 54.8296 62.6636 55.043 62.6636 55.3146C62.6636 55.5862 62.4502 55.7996 62.1785 55.7996Z" fill="#ACBBFF"/>
<path d="M75.9359 55.7996H68.5915C68.3199 55.7996 68.1064 55.5862 68.1064 55.3146C68.1064 55.043 68.3199 54.8296 68.5915 54.8296H75.9359C76.2075 54.8296 76.421 55.043 76.421 55.3146C76.421 55.5862 76.2075 55.7996 75.9359 55.7996Z" fill="#ACBBFF"/>
<path d="M75.9353 73.1619H53.5046C53.233 73.1619 53.0195 72.9485 53.0195 72.6769C53.0195 72.4053 53.233 72.1919 53.5046 72.1919H75.9353C76.207 72.1919 76.4204 72.4053 76.4204 72.6769C76.4204 72.9485 76.207 73.1619 75.9353 73.1619Z" fill="#4361EE"/>
<path d="M47.907 73.1619H39.8933C39.6216 73.1619 39.4082 72.9485 39.4082 72.6769C39.4082 72.4053 39.6216 72.1919 39.8933 72.1919H47.907C48.1787 72.1919 48.3921 72.4053 48.3921 72.6769C48.3921 72.9485 48.1787 73.1619 47.907 73.1619Z" fill="#ACBBFF"/>
<path d="M33.4803 73.1619H26.136C25.8643 73.1619 25.6509 72.9485 25.6509 72.6769C25.6509 72.4053 25.8643 72.1919 26.136 72.1919H33.4803C33.752 72.1919 33.9654 72.4053 33.9654 72.6769C33.9654 72.9485 33.752 73.1619 33.4803 73.1619Z" fill="#ACBBFF"/>
<path d="M37.6812 64.3943H26.136C25.8643 64.3943 25.6509 64.1809 25.6509 63.9093C25.6509 63.6377 25.8643 63.4243 26.136 63.4243H37.6812C37.9529 63.4243 38.1663 63.6377 38.1663 63.9093C38.1663 64.1809 37.9529 64.3943 37.6812 64.3943Z" fill="#4361EE"/>
<path d="M62.1781 64.3943H42.5803C42.3087 64.3943 42.0952 64.1809 42.0952 63.9093C42.0952 63.6377 42.3087 63.4243 42.5803 63.4243H62.1781C62.4498 63.4243 62.6632 63.6377 62.6632 63.9093C62.6632 64.1809 62.4498 64.3943 62.1781 64.3943Z" fill="#ACBBFF"/>
<path d="M75.9359 64.3943H68.5915C68.3199 64.3943 68.1064 64.1809 68.1064 63.9093C68.1064 63.6377 68.3199 63.4243 68.5915 63.4243H75.9359C76.2075 63.4243 76.421 63.6377 76.421 63.9093C76.421 64.1809 76.2075 64.3943 75.9359 64.3943Z" fill="#4361EE"/>
<path d="M48.5667 80.8743H26.136C25.8643 80.8743 25.6509 80.6609 25.6509 80.3893C25.6509 80.1177 25.8643 79.9043 26.136 79.9043H48.5667C48.8384 79.9043 49.0518 80.1177 49.0518 80.3893C49.0518 80.6609 48.8384 80.8743 48.5667 80.8743Z" fill="#4361EE"/>
<path d="M62.1785 80.8743H54.1648C53.8931 80.8743 53.6797 80.6609 53.6797 80.3893C53.6797 80.1177 53.8931 79.9043 54.1648 79.9043H62.1785C62.4502 79.9043 62.6636 80.1177 62.6636 80.3893C62.6636 80.6609 62.4502 80.8743 62.1785 80.8743Z" fill="#ACBBFF"/>
<path d="M48.5667 108.703H26.136C25.8643 108.703 25.6509 108.489 25.6509 108.218C25.6509 107.946 25.8643 107.733 26.136 107.733H48.5667C48.8384 107.733 49.0518 107.946 49.0518 108.218C49.0518 108.489 48.8384 108.703 48.5667 108.703Z" fill="#4361EE"/>
<path d="M62.1785 108.703H54.1648C53.8931 108.703 53.6797 108.489 53.6797 108.218C53.6797 107.946 53.8931 107.733 54.1648 107.733H62.1785C62.4502 107.733 62.6636 107.946 62.6636 108.218C62.6636 108.489 62.4502 108.703 62.1785 108.703Z" fill="#ACBBFF"/>
<path d="M75.9359 80.8743H68.5915C68.3199 80.8743 68.1064 80.6609 68.1064 80.3893C68.1064 80.1177 68.3199 79.9043 68.5915 79.9043H75.9359C76.2075 79.9043 76.421 80.1177 76.421 80.3893C76.421 80.6609 76.2075 80.8743 75.9359 80.8743Z" fill="#ACBBFF"/>
<path d="M75.9353 98.2361H53.5046C53.233 98.2361 53.0195 98.0227 53.0195 97.7511C53.0195 97.4795 53.233 97.2661 53.5046 97.2661H75.9353C76.207 97.2661 76.4204 97.4795 76.4204 97.7511C76.4204 98.0227 76.207 98.2361 75.9353 98.2361Z" fill="#4361EE"/>
<path d="M47.907 98.2361H39.8933C39.6216 98.2361 39.4082 98.0227 39.4082 97.7511C39.4082 97.4795 39.6216 97.2661 39.8933 97.2661H47.907C48.1787 97.2661 48.3921 97.4795 48.3921 97.7511C48.3921 98.0227 48.1787 98.2361 47.907 98.2361Z" fill="#ACBBFF"/>
<path d="M33.4803 98.2361H26.136C25.8643 98.2361 25.6509 98.0227 25.6509 97.7511C25.6509 97.4795 25.8643 97.2661 26.136 97.2661H33.4803C33.752 97.2661 33.9654 97.4795 33.9654 97.7511C33.9654 98.0227 33.752 98.2361 33.4803 98.2361Z" fill="#ACBBFF"/>
<path d="M47.907 118.111H39.8933C39.6216 118.111 39.4082 117.897 39.4082 117.626C39.4082 117.354 39.6216 117.141 39.8933 117.141H47.907C48.1787 117.141 48.3921 117.354 48.3921 117.626C48.3921 117.897 48.1787 118.111 47.907 118.111Z" fill="#4361EE"/>
<path d="M33.4803 118.111H26.136C25.8643 118.111 25.6509 117.897 25.6509 117.626C25.6509 117.354 25.8643 117.141 26.136 117.141H33.4803C33.752 117.141 33.9654 117.354 33.9654 117.626C33.9654 117.897 33.752 118.111 33.4803 118.111Z" fill="#4361EE"/>
<path d="M37.6812 89.4675H26.136C25.8643 89.4675 25.6509 89.2541 25.6509 88.9825C25.6509 88.711 25.8643 88.4976 26.136 88.4976H37.6812C37.9529 88.4976 38.1663 88.711 38.1663 88.9825C38.1663 89.2541 37.9529 89.4675 37.6812 89.4675Z" fill="#4361EE"/>
<path d="M62.1786 89.4675H42.5808C42.3091 89.4675 42.0957 89.2541 42.0957 88.9825C42.0957 88.711 42.3091 88.4976 42.5808 88.4976H62.1786C62.4502 88.4976 62.6637 88.711 62.6637 88.9825C62.6637 89.2541 62.4502 89.4675 62.1786 89.4675Z" fill="#ACBBFF"/>
<path d="M75.9354 89.4675H68.5911C68.3194 89.4675 68.106 89.2541 68.106 88.9825C68.106 88.711 68.3194 88.4976 68.5911 88.4976H75.9354C76.207 88.4976 76.4205 88.711 76.4205 88.9825C76.4205 89.2541 76.207 89.4675 75.9354 89.4675Z" fill="#4361EE"/>
<path d="M45.579 127.355H25.9812C25.7095 127.355 25.4961 127.141 25.4961 126.87C25.4961 126.598 25.7095 126.385 25.9812 126.385H45.579C45.8506 126.385 46.0641 126.598 46.0641 126.87C46.0641 127.141 45.8506 127.355 45.579 127.355Z" fill="#ACBBFF"/>
<path d="M33.3636 136.007H26.0193C25.7476 136.007 25.5342 135.793 25.5342 135.522C25.5342 135.25 25.7476 135.037 26.0193 135.037H33.3636C33.6353 135.037 33.8487 135.25 33.8487 135.522C33.8487 135.793 33.6353 136.007 33.3636 136.007Z" fill="#4361EE"/>
<path d="M-37.461 189.747H137.124C139.763 189.747 141.907 191.891 141.907 194.529V315.349C141.907 316.27 141.16 317.017 140.238 317.017H-40.5657C-41.4873 317.017 -42.2344 316.27 -42.2344 315.349V194.529C-42.2344 191.891 -40.0902 189.747 -37.4513 189.747H-37.461Z" fill="#00105B"/>
<path d="M140.239 317.512H-40.5649C-41.7583 317.512 -42.7188 316.542 -42.7188 315.359V194.539C-42.7188 191.639 -40.3515 189.272 -37.4506 189.272H137.135C140.035 189.272 142.403 191.639 142.403 194.539V315.359C142.403 316.552 141.432 317.512 140.249 317.512H140.239ZM-37.4506 190.232C-39.8179 190.232 -41.7486 192.162 -41.7486 194.529V315.349C-41.7486 315.999 -41.215 316.532 -40.5649 316.532H140.239C140.889 316.532 141.423 315.999 141.423 315.349V194.529C141.423 192.162 139.492 190.232 137.125 190.232H-37.4603H-37.4506Z" fill="#F2F1F6"/>
<path d="M128.441 201.959H-28.7773V304.815H128.441V201.959Z" fill="white"/>
<path d="M128.442 305.3H-28.7766C-29.0483 305.3 -29.2617 305.087 -29.2617 304.815V201.96C-29.2617 201.688 -29.0483 201.475 -28.7766 201.475H128.442C128.714 201.475 128.927 201.688 128.927 201.96V304.815C128.927 305.087 128.714 305.3 128.442 305.3ZM-28.2915 304.33H127.957V202.445H-28.2915V304.33Z" fill="#00105B"/>
<path d="M49.8372 197.886C48.7894 197.886 47.9453 197.032 47.9453 195.994C47.9453 194.957 48.7991 194.103 49.8372 194.103C50.8753 194.103 51.729 194.957 51.729 195.994C51.729 197.032 50.8753 197.886 49.8372 197.886ZM49.8372 195.063C49.323 195.063 48.9155 195.48 48.9155 195.985C48.9155 196.489 49.3327 196.906 49.8372 196.906C50.3417 196.906 50.7588 196.489 50.7588 195.985C50.7588 195.48 50.3417 195.063 49.8372 195.063Z" fill="white"/>
<path d="M-72.377 316.058H172.042V326.116C172.042 329.657 169.161 332.537 165.62 332.537H-65.9543C-69.4955 332.537 -72.377 329.657 -72.377 326.116V316.058Z" fill="#CACAE5"/>
<path d="M165.62 333.023H-65.9536C-69.7664 333.023 -72.8613 329.928 -72.8613 326.116V316.058C-72.8613 315.786 -72.6479 315.573 -72.3762 315.573H172.043C172.315 315.573 172.528 315.786 172.528 316.058V326.116C172.528 329.928 169.433 333.023 165.62 333.023ZM-71.8911 316.543V326.116C-71.8911 329.395 -69.2231 332.053 -65.9536 332.053H165.62C168.89 332.053 171.558 329.385 171.558 326.116V316.543H-71.8911Z" fill="#00105B"/>
<path d="M169.714 329.162H-70.0383C-70.31 329.162 -70.5234 328.948 -70.5234 328.677C-70.5234 328.405 -70.31 328.192 -70.0383 328.192H169.714C169.986 328.192 170.199 328.405 170.199 328.677C170.199 328.948 169.986 329.162 169.714 329.162Z" fill="#00105B"/>
<path d="M73.17 317.096H26.5137V322.246H73.17V317.096Z" fill="white"/>
<path d="M73.161 322.722H26.5144C26.2427 322.722 26.0293 322.508 26.0293 322.237V317.086C26.0293 316.814 26.2427 316.601 26.5144 316.601H73.161C73.4326 316.601 73.6461 316.814 73.6461 317.086V322.237C73.6461 322.508 73.4326 322.722 73.161 322.722ZM26.9995 321.752H72.6759V317.571H26.9995V321.752Z" fill="#00105B"/>
<path d="M-2.53409 291.352H92.3114C93.3295 291.352 94.1548 290.527 94.1548 289.509L94.1548 221.31C94.1548 220.293 93.3295 219.468 92.3114 219.468H-2.53409C-3.55214 219.468 -4.37746 220.293 -4.37746 221.31L-4.37746 289.509C-4.37746 290.527 -3.55214 291.352 -2.53409 291.352Z" fill="#CACAE5"/>
<path d="M99.6753 226.13H1.15277V216.227C1.15277 215.015 2.14238 214.025 3.35511 214.025H96.8229C98.3946 214.025 99.6656 215.306 99.6656 216.867V226.13H99.6753Z" fill="#4361EE"/>
<path d="M100.16 226.616H0.66748V216.227C0.66748 214.743 1.87053 213.541 3.35492 213.541H96.8227C98.6564 213.541 100.15 215.034 100.15 216.877V226.625L100.16 226.616ZM1.63767 225.646H99.19V216.868C99.19 215.568 98.1325 214.501 96.8325 214.501H3.3646C2.41382 214.501 1.64738 215.267 1.64738 216.218V225.636L1.63767 225.646Z" fill="#00105B"/>
<path d="M14.5412 222.289C13.2509 222.289 12.1934 221.232 12.1934 219.942C12.1934 218.652 13.2509 217.595 14.5412 217.595C15.8316 217.595 16.8891 218.652 16.8891 219.942C16.8891 221.232 15.8413 222.289 14.5412 222.289ZM14.5412 218.565C13.7845 218.565 13.1635 219.185 13.1635 219.942C13.1635 220.699 13.7845 221.319 14.5412 221.319C15.298 221.319 15.9189 220.699 15.9189 219.942C15.9189 219.185 15.298 218.565 14.5412 218.565Z" fill="white"/>
<path d="M21.8068 222.289C20.5165 222.289 19.459 221.232 19.459 219.942C19.459 218.652 20.5068 217.595 21.8068 217.595C23.1069 217.595 24.1547 218.652 24.1547 219.942C24.1547 221.232 23.1069 222.289 21.8068 222.289ZM21.8068 218.565C21.0501 218.565 20.4292 219.185 20.4292 219.942C20.4292 220.699 21.0501 221.319 21.8068 221.319C22.5636 221.319 23.1845 220.699 23.1845 219.942C23.1845 219.185 22.5636 218.565 21.8068 218.565Z" fill="white"/>
<path d="M7.32248 222.289C6.03213 222.289 4.97461 221.232 4.97461 219.942C4.97461 218.652 6.02242 217.595 7.32248 217.595C8.62253 217.595 9.67031 218.652 9.67031 219.942C9.67031 221.232 8.62253 222.289 7.32248 222.289ZM7.32248 218.565C6.56573 218.565 5.9448 219.185 5.9448 219.942C5.9448 220.699 6.56573 221.319 7.32248 221.319C8.07922 221.319 8.70012 220.699 8.70012 219.942C8.70012 219.185 8.07922 218.565 7.32248 218.565Z" fill="white"/>
<path d="M1.42469 285.406H99.3166C99.4934 285.406 99.6367 285.262 99.6367 285.086L99.6367 226.451C99.6367 226.274 99.4934 226.131 99.3166 226.131H1.42469C1.24787 226.131 1.10451 226.274 1.10451 226.451L1.10451 285.086C1.10451 285.262 1.24787 285.406 1.42469 285.406Z" fill="white"/>
<path d="M99.326 285.891H1.43415C0.987862 285.891 0.628906 285.532 0.628906 285.086V226.461C0.628906 226.015 0.987862 225.656 1.43415 225.656H99.326C99.7723 225.656 100.131 226.015 100.131 226.461V285.086C100.131 285.532 99.7723 285.891 99.326 285.891ZM1.59909 284.921H99.1611V226.616H1.59909V284.921Z" fill="#00105B"/>
<path d="M90.2174 238.11H68.7763C68.6852 238.11 68.6113 238.184 68.6113 238.275V271.554C68.6113 271.646 68.6852 271.719 68.7763 271.719H90.2174C90.3085 271.719 90.3823 271.646 90.3823 271.554V238.275C90.3823 238.184 90.3085 238.11 90.2174 238.11Z" fill="white"/>
<path d="M90.2264 272.204H68.7756C68.4166 272.204 68.1353 271.913 68.1353 271.555V238.265C68.1353 237.906 68.4263 237.615 68.7756 237.615H90.2264C90.5854 237.615 90.8764 237.906 90.8764 238.265V271.555C90.8764 271.913 90.5854 272.204 90.2264 272.204ZM69.0957 271.234H89.8965V238.595H69.0957V271.234Z" fill="#CACAE5"/>
<path d="M90.1773 271.778C90.0221 271.778 89.8668 271.7 89.7698 271.555L68.7458 239.012C68.6003 238.789 68.6682 238.488 68.8914 238.343C69.1145 238.198 69.4153 238.265 69.5608 238.488L90.5848 271.031C90.7303 271.254 90.6624 271.555 90.4392 271.7C90.3616 271.749 90.2646 271.778 90.1773 271.778Z" fill="#CACAE5"/>
<path d="M68.7749 272.204C68.6876 272.204 68.6003 272.175 68.513 272.127C68.2898 271.981 68.2219 271.681 68.3674 271.458L89.3429 238.382C89.4884 238.158 89.7892 238.091 90.0123 238.236C90.2354 238.382 90.3034 238.682 90.1578 238.905L69.1824 271.981C69.0951 272.127 68.9301 272.204 68.7749 272.204Z" fill="#CACAE5"/>
<path d="M59.5181 240.991H14.1619C13.8902 240.991 13.6768 240.778 13.6768 240.506C13.6768 240.235 13.8902 240.021 14.1619 240.021H59.5181C59.7898 240.021 60.0032 240.235 60.0032 240.506C60.0032 240.778 59.7898 240.991 59.5181 240.991Z" fill="#7FD6C3"/>
<path d="M30.1021 247.868H14.1716C13.9 247.868 13.6865 247.655 13.6865 247.383C13.6865 247.112 13.9 246.898 14.1716 246.898H30.1021C30.3737 246.898 30.5872 247.112 30.5872 247.383C30.5872 247.655 30.3737 247.868 30.1021 247.868Z" fill="#4361EE"/>
<path d="M55.9966 247.868H36.6511C36.3795 247.868 36.166 247.655 36.166 247.383C36.166 247.112 36.3795 246.898 36.6511 246.898H55.9966C56.2683 246.898 56.4817 247.112 56.4817 247.383C56.4817 247.655 56.2683 247.868 55.9966 247.868Z" fill="#7FD6C3"/>
<path d="M43.2389 268.752H14.1721C13.9005 268.752 13.687 268.538 13.687 268.267C13.687 267.995 13.9005 267.782 14.1721 267.782H43.2389C43.5106 267.782 43.724 267.995 43.724 268.267C43.724 268.538 43.5106 268.752 43.2389 268.752Z" fill="#4361EE"/>
<path d="M59.9257 255.104H14.1716C13.9 255.104 13.6865 254.891 13.6865 254.619C13.6865 254.348 13.9 254.134 14.1716 254.134H59.9257C60.1973 254.134 60.4107 254.348 60.4107 254.619C60.4107 254.891 60.1973 255.104 59.9257 255.104Z" fill="#4361EE"/>
<path d="M28.6662 261.981H14.1716C13.9 261.981 13.6865 261.768 13.6865 261.496C13.6865 261.225 13.9 261.011 14.1716 261.011H28.6662C28.9379 261.011 29.1513 261.225 29.1513 261.496C29.1513 261.768 28.9379 261.981 28.6662 261.981Z" fill="#7FD6C3"/>
<path d="M59.5177 261.981H33.1189C32.8472 261.981 32.6338 261.768 32.6338 261.496C32.6338 261.225 32.8472 261.011 33.1189 261.011H59.5177C59.7893 261.011 60.0028 261.225 60.0028 261.496C60.0028 261.768 59.7893 261.981 59.5177 261.981Z" fill="#4361EE"/>
<path d="M37.8166 253.853C37.8457 252.922 37.7875 251.981 37.6226 251.021C37.7875 251.971 37.8457 252.922 37.8166 253.853Z" fill="white"/>
<path d="M165.114 192.852C146.797 192.163 140.985 181.445 140.161 179.699H140.034C139.21 181.445 133.398 192.154 115.081 192.852C115.081 192.852 111.2 230.555 139.54 237.325H140.655C168.995 230.555 165.114 192.852 165.114 192.852Z" fill="#CACAE5"/>
<path d="M140.713 237.81H139.423C110.997 231.011 114.557 193.182 114.596 192.804L114.635 192.387L115.052 192.367C132.903 191.698 138.618 181.533 139.588 179.496L139.724 179.214H140.461L140.597 179.496C141.558 181.523 147.272 191.698 165.133 192.367L165.55 192.387L165.589 192.804C165.628 193.182 169.188 231.011 140.762 237.801H140.704L140.713 237.81ZM139.598 236.84H140.597C166.55 230.594 164.968 197.44 164.658 193.318C148.155 192.551 141.829 183.764 140.093 180.64C138.356 183.764 132.03 192.551 115.527 193.318C115.227 197.44 113.645 230.594 139.588 236.84H139.598Z" fill="#CACAE5"/>
<path d="M163.175 189.282C144.828 188.593 139.007 177.856 138.182 176.11H138.056C137.232 177.856 131.401 188.593 113.064 189.282C113.064 189.282 109.174 227.053 137.562 233.833H138.677C167.065 227.053 163.175 189.282 163.175 189.282Z" fill="#8499FF"/>
<path d="M138.677 234.318H137.561C137.561 234.318 137.484 234.318 137.445 234.309C108.97 227.509 112.54 189.622 112.579 189.234C112.608 188.992 112.802 188.807 113.045 188.798C130.935 188.119 136.659 177.934 137.62 175.907C137.697 175.742 137.872 175.625 138.056 175.625H138.182C138.367 175.625 138.541 175.732 138.619 175.907C139.579 177.944 145.304 188.128 163.194 188.798C163.436 188.798 163.63 188.992 163.659 189.234C163.698 189.612 167.269 227.5 138.794 234.309C138.755 234.309 138.716 234.318 138.677 234.318ZM137.62 233.348H138.629C164.62 227.092 163.039 193.871 162.738 189.748C146.196 188.982 139.861 180.175 138.124 177.042C136.388 180.165 130.052 188.972 113.51 189.748C113.21 193.871 111.628 227.092 137.62 233.348Z" fill="#00105B"/>
<path d="M120.922 213.774C123.678 220.263 128.674 226.238 137.668 228.382H138.58C161.612 222.882 158.449 192.241 158.449 192.241C143.567 191.678 138.842 182.978 138.172 181.562H138.075C137.658 182.444 135.679 186.14 130.663 188.943" fill="#8499FF"/>
<path d="M138.57 228.868H137.658C137.658 228.868 137.58 228.868 137.541 228.858C129.605 226.957 123.862 221.952 120.466 213.969C120.359 213.726 120.476 213.435 120.718 213.329C120.961 213.222 121.252 213.338 121.359 213.581C124.618 221.244 130.119 226.064 137.706 227.898H138.502C159.341 222.873 158.235 196.364 157.983 192.707C144.827 192.067 139.627 185.161 138.104 182.503C137.221 184.036 135.106 186.994 130.886 189.361C130.653 189.487 130.362 189.409 130.226 189.176C130.1 188.944 130.178 188.653 130.41 188.517C135.349 185.752 137.279 182.066 137.619 181.349C137.697 181.184 137.871 181.067 138.055 181.067H138.153C138.337 181.067 138.511 181.174 138.589 181.349C139.365 182.988 143.983 191.213 158.449 191.756C158.691 191.756 158.885 191.95 158.915 192.193C158.944 192.503 161.844 223.319 138.676 228.848C138.638 228.848 138.599 228.858 138.56 228.858L138.57 228.868Z" fill="white"/>
<path d="M122.678 191.727C121.184 191.999 119.554 192.183 117.779 192.251C117.779 192.251 117.294 196.955 118.089 203.008" fill="#8499FF"/>
<path d="M118.099 203.493C117.857 203.493 117.653 203.318 117.614 203.076C116.818 197.033 117.294 192.251 117.304 192.202C117.333 191.96 117.527 191.776 117.769 191.766C119.438 191.708 121.068 191.533 122.591 191.252C122.843 191.203 123.105 191.378 123.154 191.64C123.202 191.902 123.028 192.154 122.766 192.202C121.32 192.464 119.797 192.639 118.235 192.716C118.138 193.987 117.934 198.042 118.584 202.95C118.623 203.211 118.429 203.464 118.167 203.493C118.148 203.493 118.128 203.493 118.099 203.493Z" fill="white"/>
<path d="M138.115 219.255C144.577 219.255 149.815 214.017 149.815 207.557C149.815 201.096 144.577 195.859 138.115 195.859C131.653 195.859 126.415 201.096 126.415 207.557C126.415 214.017 131.653 219.255 138.115 219.255Z" fill="#8499FF"/>
<path d="M138.115 219.613C131.469 219.613 126.055 214.201 126.055 207.557C126.055 200.912 131.469 195.5 138.115 195.5C144.76 195.5 150.174 200.912 150.174 207.557C150.174 214.201 144.76 219.613 138.115 219.613ZM138.115 196.227C131.867 196.227 126.783 201.31 126.783 207.557C126.783 213.803 131.867 218.886 138.115 218.886C144.363 218.886 149.446 213.803 149.446 207.557C149.446 201.31 144.363 196.227 138.115 196.227Z" fill="white"/>
<path d="M138.113 216.073C142.817 216.073 146.631 212.26 146.631 207.557C146.631 202.853 142.817 199.041 138.113 199.041C133.408 199.041 129.595 202.853 129.595 207.557C129.595 212.26 133.408 216.073 138.113 216.073Z" fill="white"/>
<path d="M138.114 216.558C133.146 216.558 129.11 212.523 129.11 207.557C129.11 202.59 133.146 198.555 138.114 198.555C143.081 198.555 147.117 202.59 147.117 207.557C147.117 212.523 143.081 216.558 138.114 216.558ZM138.114 199.525C133.69 199.525 130.081 203.124 130.081 207.557C130.081 211.989 133.68 215.588 138.114 215.588C142.547 215.588 146.147 211.989 146.147 207.557C146.147 203.124 142.547 199.525 138.114 199.525Z" fill="#00105B"/>
<path d="M138.279 211.194C137.93 211.194 137.58 211.058 137.309 210.787L133.709 207.188C133.176 206.655 133.176 205.782 133.709 205.248C134.243 204.715 135.116 204.715 135.65 205.248L138.279 207.877L146.031 200.127C146.564 199.593 147.437 199.593 147.971 200.127C148.505 200.66 148.505 201.533 147.971 202.067L139.239 210.796C138.968 211.068 138.618 211.204 138.269 211.204L138.279 211.194Z" fill="#00105B"/>
</svg>
