<svg width="198" height="50" viewBox="0 0 198 50" fill="none" xmlns="http://www.w3.org/2000/svg">
<path d="M4.6126 31.7183L1.39252 32.7646C1.26513 32.4014 1.14045 32.0084 1.01305 31.5774L17.2761 26.2919C17.3737 26.712 17.5092 27.1213 17.6799 27.5198L5.61007 34.5047L4.60989 31.7156L4.6126 31.7183ZM3.47148 28.1622L17.1107 25.2484C17.0701 24.8038 17.0701 24.3973 17.1053 23.9554H0.0101644C-0.00338813 24.3702 -0.00338813 24.7876 0.0101644 25.1996H3.38474L3.47419 28.1622H3.47148ZM18.1651 28.463L4.328 38.5163C4.54755 38.8307 4.78608 39.1587 5.06526 39.5192L7.79474 37.5351L9.60806 39.8797L18.9268 29.5066C18.6422 29.1813 18.3874 28.8316 18.1624 28.463H18.1651ZM5.39594 15.0758L18.1407 20.7327C18.363 20.3613 18.6151 20.0117 18.897 19.6837L5.06526 9.63585C4.78336 9.99905 4.54484 10.327 4.328 10.6387L7.0629 12.6255L5.39323 15.0758H5.39594ZM21.6292 17.686C22.0276 17.5153 22.4396 17.3798 22.857 17.2822L17.5742 1.01915C17.1406 1.14654 16.7475 1.27123 16.387 1.39862L17.4333 4.6187L14.6442 5.61888L21.6292 17.6888V17.686ZM19.6803 30.252L9.62975 44.0837C9.99296 44.3628 10.3182 44.6041 10.6326 44.8209L12.6194 42.086L15.067 43.7557L20.7266 31.0082C20.3552 30.7859 20.0029 30.5311 19.6776 30.252H19.6803ZM19.6451 18.9329C19.9703 18.6483 20.32 18.3935 20.6886 18.1685L10.6353 4.3341C10.3209 4.55094 9.99025 4.79488 9.63246 5.07136L11.6165 7.80083L9.27196 9.61416L19.6451 18.9356V18.9329ZM3.3983 21.4645L17.268 22.9065C17.3628 22.4864 17.4956 22.0744 17.6637 21.6759L1.39523 16.3931C1.26784 16.7563 1.14316 17.1494 1.01576 17.5776L4.23042 18.6212L3.40101 21.4672L3.3983 21.4645ZM25.1962 17.1087V0.0135525C24.9902 0.00542101 24.7815 0 24.5728 0C24.3641 0 24.1553 0.00542101 23.9493 0.0135525V3.38813L20.9868 3.47758L23.9006 17.1141C24.131 17.0924 24.3532 17.0843 24.5701 17.0843C24.7733 17.0843 24.9793 17.0924 25.1935 17.1114L25.1962 17.1087ZM16.387 47.7564C16.7502 47.8838 17.1406 48.0085 17.5742 48.1359L18.6178 44.9212L21.4638 45.7533L22.9058 31.8837C22.4857 31.7888 22.0737 31.656 21.6752 31.4879L16.3897 47.7564H16.387ZM29.4652 18.9004L39.5158 5.06865C39.1526 4.78946 38.8273 4.55094 38.5129 4.33139L36.5261 7.06629L34.0785 5.39662L28.419 18.1414C28.7903 18.3637 29.14 18.6158 29.4679 18.8976L29.4652 18.9004ZM43.5327 14.6449L31.4629 21.6298C31.6336 22.0283 31.7692 22.4403 31.8667 22.8577L48.1298 17.5722C48.0024 17.1412 47.8777 16.7509 47.7503 16.3877L44.5302 17.434L43.53 14.6449H43.5327ZM30.9804 20.6893L44.8175 10.636C44.6007 10.3216 44.3567 9.99092 44.0803 9.63314L41.3508 11.6172L39.5375 9.27264L30.2187 19.6457C30.5033 19.971 30.7581 20.3207 30.9831 20.6893H30.9804ZM45.7635 23.9527L45.674 20.9902L32.0375 23.9039C32.0782 24.3458 32.0782 24.755 32.0429 25.1969H49.1408C49.157 24.7822 49.1543 24.3647 49.1408 23.9527H45.7662H45.7635ZM32.7612 1.39862C32.4007 1.27123 32.0104 1.14654 31.574 1.01915L30.5305 4.23381L27.6844 3.40439L26.2424 17.2741C26.6626 17.3689 27.0746 17.5017 27.473 17.6698L32.7612 1.39862ZM27.5191 31.469C27.1206 31.6397 26.7086 31.7753 26.2912 31.8728L31.5767 48.1359C32.0077 48.0085 32.398 47.8838 32.7639 47.7564L31.7177 44.5363L34.5068 43.5361L27.5218 31.4663L27.5191 31.469ZM24.5755 32.0707C24.3695 32.0707 24.1662 32.0626 23.9521 32.0436V49.1415C24.1581 49.1496 24.3668 49.155 24.5755 49.155C24.7842 49.155 24.9902 49.1496 25.1989 49.1415V45.7669L28.1615 45.6774L25.2477 32.0382C25.0173 32.0599 24.795 32.0707 24.5782 32.0707H24.5755ZM43.7523 34.0792L31.0048 28.4196C30.7825 28.791 30.5305 29.1406 30.2486 29.4686L44.0803 39.5165C44.3595 39.156 44.598 38.8307 44.8175 38.5136L42.0826 36.5268L43.7523 34.0792ZM29.5032 30.2194C29.1779 30.5013 28.8283 30.7588 28.4596 30.9838L38.5129 44.8209C38.8273 44.6041 39.1526 44.3628 39.5158 44.0837L37.5317 41.3542L39.8763 39.5409L29.5032 30.2194ZM45.7499 27.6878L31.8803 26.2458C31.7854 26.666 31.6526 27.0779 31.4846 27.4764L47.753 32.7619C47.8804 32.3987 48.0051 32.0056 48.1325 31.5747L44.9178 30.5311L45.7499 27.6851V27.6878Z" fill="white"/>
<path d="M60.6602 34.9164V14.5314H69.9209C72.1341 14.5314 74.0852 14.9585 75.7743 15.8127C77.4633 16.6475 78.7835 17.8221 79.7348 19.3364C80.6861 20.8507 81.1617 22.6465 81.1617 24.7239C81.1617 26.7818 80.6861 28.5776 79.7348 30.1113C78.7835 31.6257 77.4633 32.8099 75.7743 33.6642C74.0852 34.499 72.1341 34.9164 69.9209 34.9164H60.6602ZM65.3779 31.0432H69.6879C71.0469 31.0432 72.2215 30.7908 73.2116 30.2861C74.2211 29.7619 74.9977 29.0241 75.5413 28.0728C76.1043 27.1215 76.3858 26.0052 76.3858 24.7239C76.3858 23.4231 76.1043 22.3068 75.5413 21.3749C74.9977 20.4236 74.2211 19.6956 73.2116 19.1908C72.2215 18.6666 71.0469 18.4045 69.6879 18.4045H65.3779V31.0432ZM94.0093 34.9164V31.8586L93.7181 31.1888V25.714C93.7181 24.7433 93.4172 23.9861 92.8153 23.4425C92.2329 22.8989 91.3301 22.6271 90.107 22.6271C89.2722 22.6271 88.4471 22.763 87.6317 23.0348C86.8357 23.2872 86.1562 23.6367 85.5932 24.0832L83.9624 20.909C84.8166 20.3071 85.8456 19.8412 87.0493 19.5111C88.253 19.1811 89.4761 19.0161 90.7186 19.0161C93.1065 19.0161 94.9606 19.5791 96.2808 20.7051C97.601 21.8311 98.261 23.5881 98.261 25.9761V34.9164H94.0093ZM89.2334 35.1494C88.0103 35.1494 86.9619 34.9455 86.0883 34.5378C85.2146 34.1107 84.5448 33.538 84.0789 32.8196C83.613 32.1013 83.38 31.2956 83.38 30.4026C83.38 29.4707 83.6032 28.6553 84.0498 27.9564C84.5157 27.2574 85.2438 26.7138 86.2339 26.3256C87.224 25.9179 88.5151 25.714 90.107 25.714H94.2714V28.3641H90.6021C89.5343 28.3641 88.7966 28.5388 88.3889 28.8882C88.0006 29.2377 87.8064 29.6745 87.8064 30.1987C87.8064 30.7811 88.0297 31.2471 88.4762 31.5965C88.9422 31.9266 89.5731 32.0916 90.3691 32.0916C91.1263 32.0916 91.8058 31.9169 92.4076 31.5674C93.0095 31.1985 93.4463 30.6646 93.7181 29.9657L94.417 32.0625C94.087 33.072 93.4851 33.8389 92.6115 34.3631C91.7378 34.8873 90.6118 35.1494 89.2334 35.1494ZM108.779 35.1494C106.935 35.1494 105.498 34.6834 104.469 33.7515C103.44 32.8002 102.926 31.3927 102.926 29.5289V15.7836H107.469V29.4707C107.469 30.1308 107.644 30.6452 107.993 31.0141C108.343 31.3636 108.818 31.5383 109.42 31.5383C110.138 31.5383 110.75 31.3442 111.255 30.9559L112.478 34.1592C112.012 34.4893 111.449 34.7417 110.789 34.9164C110.148 35.0717 109.478 35.1494 108.779 35.1494ZM100.509 23.0931V19.5985H111.371V23.0931H100.509ZM124.638 34.9164V31.8586L124.347 31.1888V25.714C124.347 24.7433 124.046 23.9861 123.444 23.4425C122.862 22.8989 121.959 22.6271 120.736 22.6271C119.901 22.6271 119.076 22.763 118.26 23.0348C117.464 23.2872 116.785 23.6367 116.222 24.0832L114.591 20.909C115.445 20.3071 116.474 19.8412 117.678 19.5111C118.882 19.1811 120.105 19.0161 121.347 19.0161C123.735 19.0161 125.589 19.5791 126.909 20.7051C128.23 21.8311 128.89 23.5881 128.89 25.9761V34.9164H124.638ZM119.862 35.1494C118.639 35.1494 117.591 34.9455 116.717 34.5378C115.843 34.1107 115.174 33.538 114.708 32.8196C114.242 32.1013 114.009 31.2956 114.009 30.4026C114.009 29.4707 114.232 28.6553 114.678 27.9564C115.144 27.2574 115.872 26.7138 116.863 26.3256C117.853 25.9179 119.144 25.714 120.736 25.714H124.9V28.3641H121.231C120.163 28.3641 119.425 28.5388 119.018 28.8882C118.629 29.2377 118.435 29.6745 118.435 30.1987C118.435 30.7811 118.658 31.2471 119.105 31.5965C119.571 31.9266 120.202 32.0916 120.998 32.0916C121.755 32.0916 122.435 31.9169 123.036 31.5674C123.638 31.1985 124.075 30.6646 124.347 29.9657L125.046 32.0625C124.716 33.072 124.114 33.8389 123.24 34.3631C122.367 34.8873 121.241 35.1494 119.862 35.1494ZM134.224 34.9164V14.5314H136.379V34.9164H134.224ZM150.38 19.482C151.622 19.482 152.71 19.7247 153.641 20.21C154.593 20.676 155.33 21.3943 155.855 22.365C156.398 23.3358 156.67 24.5589 156.67 26.0343V34.9164H154.602V26.2382C154.602 24.6268 154.195 23.4134 153.379 22.598C152.583 21.7632 151.457 21.3458 150.001 21.3458C148.914 21.3458 147.963 21.569 147.147 22.0156C146.351 22.4427 145.73 23.0737 145.284 23.9085C144.856 24.7239 144.643 25.714 144.643 26.8789V34.9164H142.575V19.6276H144.556V23.8211L144.235 23.0348C144.721 21.9282 145.497 21.0643 146.565 20.443C147.633 19.8023 148.904 19.482 150.38 19.482ZM162.604 34.9164V17.7056C162.604 16.3466 163.002 15.2497 163.798 14.4149C164.594 13.5801 165.74 13.1627 167.235 13.1627C167.817 13.1627 168.38 13.2403 168.924 13.3956C169.467 13.5509 169.924 13.7936 170.293 14.1237L169.594 15.6671C169.302 15.4147 168.963 15.2303 168.574 15.1138C168.186 14.9779 167.769 14.9099 167.322 14.9099C166.448 14.9099 165.779 15.1526 165.313 15.638C164.847 16.1233 164.614 16.8417 164.614 17.793V20.1227L164.672 21.0837V34.9164H162.604ZM159.867 21.3458V19.6276H169.331V21.3458H159.867ZM172.123 34.9164V19.6276H174.104V23.792L173.9 23.064C174.327 21.8991 175.045 21.0157 176.055 20.4139C177.064 19.7926 178.316 19.482 179.811 19.482V21.4914C179.734 21.4914 179.656 21.4914 179.578 21.4914C179.501 21.472 179.423 21.4623 179.345 21.4623C177.734 21.4623 176.472 21.9573 175.56 22.9475C174.647 23.9182 174.191 25.3063 174.191 27.1118V34.9164H172.123ZM192.028 34.9164V31.5383L191.94 30.985V25.3354C191.94 24.0347 191.571 23.0348 190.834 22.3359C190.115 21.637 189.038 21.2875 187.601 21.2875C186.611 21.2875 185.669 21.4526 184.776 21.7826C183.883 22.1126 183.126 22.5495 182.505 23.0931L181.573 21.5496C182.35 20.8895 183.281 20.3848 184.369 20.0353C185.456 19.6664 186.601 19.482 187.805 19.482C189.785 19.482 191.309 19.9771 192.377 20.9672C193.464 21.9379 194.008 23.4231 194.008 25.4228V34.9164H192.028ZM186.757 35.062C185.611 35.062 184.611 34.8776 183.757 34.5087C182.922 34.1204 182.282 33.5962 181.835 32.9361C181.389 32.2566 181.165 31.4801 181.165 30.6064C181.165 29.8104 181.35 29.0921 181.719 28.4514C182.107 27.7913 182.728 27.2671 183.582 26.8789C184.456 26.4712 185.621 26.2673 187.077 26.2673H192.348V27.8107H187.135C185.66 27.8107 184.631 28.0728 184.048 28.597C183.485 29.1212 183.204 29.7716 183.204 30.5482C183.204 31.4218 183.544 32.1207 184.223 32.6449C184.903 33.1691 185.854 33.4312 187.077 33.4312C188.242 33.4312 189.242 33.1691 190.076 32.6449C190.931 32.1013 191.552 31.3247 191.94 30.3152L192.406 31.7421C192.018 32.7517 191.338 33.5574 190.368 34.1592C189.416 34.7611 188.213 35.062 186.757 35.062Z" fill="white"/>
</svg>
