<svg width="201" height="50" viewBox="0 0 201 50" fill="none" xmlns="http://www.w3.org/2000/svg">
<path d="M4.6126 31.7183L1.39252 32.7646C1.26513 32.4014 1.14045 32.0084 1.01305 31.5774L17.2761 26.2919C17.3737 26.712 17.5092 27.1213 17.6799 27.5198L5.61007 34.5047L4.60989 31.7156L4.6126 31.7183ZM3.47148 28.1622L17.1107 25.2484C17.0701 24.8038 17.0701 24.3973 17.1053 23.9554H0.0101644C-0.00338813 24.3702 -0.00338813 24.7876 0.0101644 25.1996H3.38474L3.47419 28.1622H3.47148ZM18.1651 28.463L4.328 38.5163C4.54755 38.8307 4.78607 39.1587 5.06526 39.5192L7.79474 37.5351L9.60806 39.8797L18.9268 29.5066C18.6422 29.1813 18.3874 28.8316 18.1624 28.463H18.1651ZM5.39594 15.0758L18.1407 20.7327C18.363 20.3613 18.6151 20.0117 18.897 19.6837L5.06526 9.63585C4.78336 9.99905 4.54484 10.327 4.328 10.6387L7.0629 12.6255L5.39323 15.0758H5.39594ZM21.6292 17.686C22.0276 17.5153 22.4396 17.3798 22.857 17.2822L17.5742 1.01915C17.1406 1.14654 16.7475 1.27123 16.387 1.39862L17.4333 4.6187L14.6442 5.61888L21.6292 17.6888V17.686ZM19.6803 30.252L9.62975 44.0837C9.99296 44.3628 10.3182 44.6041 10.6326 44.8209L12.6194 42.086L15.067 43.7557L20.7266 31.0082C20.3552 30.7859 20.0029 30.5311 19.6776 30.252H19.6803ZM19.6451 18.9329C19.9703 18.6483 20.32 18.3935 20.6886 18.1685L10.6353 4.3341C10.3209 4.55094 9.99025 4.79488 9.63246 5.07136L11.6165 7.80083L9.27196 9.61416L19.6451 18.9356V18.9329ZM3.3983 21.4645L17.268 22.9065C17.3628 22.4864 17.4956 22.0744 17.6637 21.6759L1.39523 16.3931C1.26784 16.7563 1.14316 17.1494 1.01576 17.5776L4.23042 18.6212L3.40101 21.4672L3.3983 21.4645ZM25.1962 17.1087V0.0135525C24.9902 0.00542101 24.7815 0 24.5728 0C24.3641 0 24.1553 0.00542101 23.9493 0.0135525V3.38813L20.9868 3.47758L23.9006 17.1141C24.131 17.0924 24.3532 17.0843 24.5701 17.0843C24.7733 17.0843 24.9793 17.0924 25.1935 17.1114L25.1962 17.1087ZM16.387 47.7564C16.7502 47.8838 17.1406 48.0085 17.5742 48.1359L18.6178 44.9212L21.4638 45.7533L22.9058 31.8837C22.4857 31.7888 22.0737 31.656 21.6752 31.4879L16.3897 47.7564H16.387ZM29.4652 18.9004L39.5158 5.06865C39.1526 4.78946 38.8273 4.55094 38.5129 4.33139L36.5261 7.06629L34.0785 5.39662L28.419 18.1414C28.7903 18.3637 29.14 18.6158 29.4679 18.8976L29.4652 18.9004ZM43.5327 14.6449L31.4629 21.6298C31.6336 22.0283 31.7692 22.4403 31.8667 22.8577L48.1298 17.5722C48.0024 17.1412 47.8777 16.7509 47.7503 16.3877L44.5302 17.434L43.53 14.6449H43.5327ZM30.9804 20.6893L44.8175 10.636C44.6007 10.3216 44.3567 9.99092 44.0803 9.63314L41.3508 11.6172L39.5375 9.27264L30.2187 19.6457C30.5033 19.971 30.7581 20.3207 30.9831 20.6893H30.9804ZM45.7635 23.9527L45.674 20.9902L32.0375 23.9039C32.0782 24.3458 32.0782 24.755 32.0429 25.1969H49.1408C49.157 24.7822 49.1543 24.3647 49.1408 23.9527H45.7662H45.7635ZM32.7612 1.39862C32.4007 1.27123 32.0104 1.14654 31.574 1.01915L30.5305 4.23381L27.6844 3.40439L26.2424 17.2741C26.6626 17.3689 27.0746 17.5017 27.473 17.6698L32.7612 1.39862ZM27.5191 31.469C27.1206 31.6397 26.7086 31.7753 26.2912 31.8728L31.5767 48.1359C32.0077 48.0085 32.398 47.8838 32.7639 47.7564L31.7177 44.5363L34.5068 43.5361L27.5218 31.4663L27.5191 31.469ZM24.5755 32.0707C24.3695 32.0707 24.1662 32.0626 23.9521 32.0436V49.1415C24.1581 49.1496 24.3668 49.155 24.5755 49.155C24.7842 49.155 24.9902 49.1496 25.1989 49.1415V45.7669L28.1615 45.6774L25.2477 32.0382C25.0173 32.0599 24.795 32.0707 24.5782 32.0707H24.5755ZM43.7523 34.0792L31.0048 28.4196C30.7825 28.791 30.5305 29.1406 30.2486 29.4686L44.0803 39.5165C44.3595 39.156 44.598 38.8307 44.8175 38.5136L42.0826 36.5268L43.7523 34.0792ZM29.5032 30.2194C29.1779 30.5013 28.8283 30.7588 28.4596 30.9838L38.5129 44.8209C38.8273 44.6041 39.1526 44.3628 39.5158 44.0837L37.5317 41.3542L39.8763 39.5409L29.5032 30.2194ZM45.7499 27.6878L31.8803 26.2458C31.7854 26.666 31.6526 27.0779 31.4846 27.4764L47.753 32.7619C47.8804 32.3987 48.0051 32.0056 48.1325 31.5747L44.9178 30.5311L45.7499 27.6851V27.6878Z" fill="#4361EE"/>
<path d="M60.6599 34.9164V14.5314H69.9206C76.5894 14.5314 81.1614 18.5501 81.1614 24.7239C81.1614 30.8976 76.5894 34.9164 69.9206 34.9164H60.6599ZM65.3776 31.0432H69.6876C73.7355 31.0432 76.3855 28.6261 76.3855 24.7239C76.3855 20.8216 73.7355 18.4045 69.6876 18.4045H65.3776V31.0432ZM90.7183 19.0161C95.4942 19.0161 98.2607 21.2293 98.2607 25.9761V34.9164H94.009V32.9652C93.1645 34.3922 91.5337 35.1494 89.2331 35.1494C85.5638 35.1494 83.3797 33.1109 83.3797 30.4026C83.3797 27.636 85.3308 25.714 90.1067 25.714H93.7178C93.7178 23.7629 92.5529 22.6271 90.1067 22.6271C88.4468 22.6271 86.7286 23.1804 85.5929 24.0832L83.9621 20.909C85.6803 19.6859 88.2138 19.0161 90.7183 19.0161ZM90.3688 32.0916C91.8831 32.0916 93.1936 31.3927 93.7178 29.9657V28.3641H90.6018C88.4759 28.3641 87.8061 29.1503 87.8061 30.1987C87.8061 31.3344 88.7671 32.0916 90.3688 32.0916ZM111.254 30.9559L112.477 34.1592C111.546 34.829 110.177 35.1494 108.779 35.1494C105.081 35.1494 102.926 33.2565 102.926 29.5289V23.0931H100.509V19.5985H102.926V15.7836H107.469V19.5985H111.371V23.0931H107.469V29.4707C107.469 30.8103 108.197 31.5383 109.42 31.5383C110.09 31.5383 110.759 31.3344 111.254 30.9559ZM121.347 19.0161C126.123 19.0161 128.889 21.2293 128.889 25.9761V34.9164H124.638V32.9652C123.793 34.3922 122.162 35.1494 119.862 35.1494C116.192 35.1494 114.008 33.1109 114.008 30.4026C114.008 27.636 115.96 25.714 120.735 25.714H124.347C124.347 23.7629 123.182 22.6271 120.735 22.6271C119.076 22.6271 117.357 23.1804 116.222 24.0832L114.591 20.909C116.309 19.6859 118.843 19.0161 121.347 19.0161ZM120.998 32.0916C122.512 32.0916 123.822 31.3927 124.347 29.9657V28.3641H121.231C119.105 28.3641 118.435 29.1503 118.435 30.1987C118.435 31.3344 119.396 32.0916 120.998 32.0916ZM134.224 34.9164V14.5314H136.379V34.9164H134.224ZM150.379 19.482C154.107 19.482 156.67 21.637 156.67 26.0343V34.9164H154.602V26.2382C154.602 23.0057 152.913 21.3458 150.001 21.3458C146.71 21.3458 144.643 23.3843 144.643 26.8789V34.9164H142.575V19.5985H144.555V22.4233C145.662 20.5595 147.729 19.482 150.379 19.482ZM167.35 14.9099C165.574 14.9099 164.642 15.9001 164.642 17.793V19.5985H169.36V21.3458H164.7V34.9164H162.633V21.3458H159.895V19.5985H162.633V17.7056C162.633 14.9682 164.263 13.1627 167.263 13.1627C168.399 13.1627 169.563 13.483 170.321 14.1237L169.622 15.6671C169.039 15.172 168.224 14.9099 167.35 14.9099ZM176.464 22.598C177.425 20.5595 179.376 19.482 182.201 19.482V21.4914C182.026 21.4914 181.851 21.4623 181.706 21.4623C178.502 21.4623 176.551 23.5008 176.551 27.1118V34.9164H174.483V19.5985H176.464V22.598ZM191.274 19.482C195.235 19.482 197.477 21.4623 197.477 25.4228V34.9164H195.497V32.5284C194.565 34.101 192.759 35.062 190.226 35.062C186.76 35.062 184.635 33.2565 184.635 30.6064C184.635 28.2476 186.149 26.2673 190.546 26.2673H195.409V25.3354C195.409 22.7145 193.924 21.2875 191.07 21.2875C189.09 21.2875 187.226 21.9865 185.974 23.0931L185.042 21.5496C186.586 20.2392 188.857 19.482 191.274 19.482ZM190.546 33.4312C192.876 33.4312 194.594 32.3246 195.409 30.3152V27.8107H190.604C187.634 27.8107 186.673 28.9756 186.673 30.5482C186.673 32.3246 188.1 33.4312 190.546 33.4312Z" fill="#4361EE"/>
</svg>
