<svg width="363" height="49" viewBox="0 0 363 49" fill="none" xmlns="http://www.w3.org/2000/svg">
<path d="M4.59806 31.6183L1.38813 32.6613C1.26114 32.2992 1.13685 31.9074 1.00986 31.4778L17.2216 26.209C17.3189 26.6278 17.454 27.0358 17.6242 27.433L5.59238 34.3959L4.59535 31.6156L4.59806 31.6183ZM3.46053 28.0733L17.0568 25.1687C17.0163 24.7256 17.0163 24.3203 17.0514 23.8799H0.0101323C-0.00337745 24.2933 -0.00337745 24.7094 0.0101323 25.1201H3.37407L3.46323 28.0733H3.46053ZM18.1078 28.3733L4.31435 38.3948C4.53321 38.7082 4.77098 39.0352 5.04928 39.3945L7.77015 37.4167L9.57776 39.7539L18.8671 29.4135C18.5834 29.0893 18.3294 28.7407 18.1051 28.3733H18.1078ZM5.37892 15.0283L18.0835 20.6673C18.3051 20.2971 18.5564 19.9486 18.8374 19.6216L5.04928 9.60546C4.76828 9.96752 4.53051 10.2945 4.31435 10.6052L7.04063 12.5857L5.37622 15.0283H5.37892ZM21.5609 17.6303C21.9581 17.46 22.3688 17.325 22.7849 17.2277L17.5188 1.01594C17.0865 1.14293 16.6947 1.26722 16.3354 1.39421L17.3783 4.60414L14.598 5.60116L21.5609 17.633V17.6303ZM19.6182 30.1565L9.59938 43.9446C9.96144 44.2229 10.2857 44.4634 10.5991 44.6796L12.5796 41.9533L15.0195 43.6177L20.6612 30.9104C20.291 30.6888 19.9398 30.4348 19.6155 30.1565H19.6182ZM19.5831 18.8732C19.9073 18.5895 20.2559 18.3355 20.6234 18.1112L10.6018 4.32043C10.2884 4.53659 9.95874 4.77976 9.60208 5.05536L11.5799 7.77623L9.24272 9.58384L19.5831 18.8759V18.8732ZM3.38758 21.3968L17.2135 22.8342C17.3081 22.4154 17.4405 22.0047 17.608 21.6076L1.39083 16.3414C1.26384 16.7035 1.13955 17.0953 1.01256 17.5222L4.21708 18.5624L3.39028 21.3995L3.38758 21.3968ZM25.1167 17.0548V0.0135098C24.9114 0.00540392 24.7033 0 24.4953 0C24.2872 0 24.0792 0.00540392 23.8738 0.0135098V3.37745L20.9206 3.46661L23.8252 17.0602C24.0549 17.0385 24.2764 17.0304 24.4926 17.0304C24.6952 17.0304 24.9006 17.0385 25.114 17.0575L25.1167 17.0548ZM16.3354 47.6058C16.6974 47.7328 17.0865 47.8571 17.5188 47.9841L18.5591 44.7795L21.3961 45.609L22.8336 31.7831C22.4148 31.6886 22.0041 31.5562 21.6069 31.3886L16.3381 47.6058H16.3354ZM29.3723 18.8408L39.3912 5.05266C39.0291 4.77436 38.7049 4.53659 38.3914 4.31773L36.4109 7.044L33.971 5.3796L28.3293 18.0842C28.6995 18.3058 29.0481 18.557 29.375 18.838L29.3723 18.8408ZM43.3955 14.5987L31.3636 21.5616C31.5339 21.9588 31.669 22.3695 31.7662 22.7856L47.978 17.5168C47.851 17.0872 47.7267 16.6981 47.5997 16.336L44.3898 17.379L43.3928 14.5987H43.3955ZM30.8827 20.624L44.6762 10.6025C44.46 10.2891 44.2169 9.95942 43.9413 9.60276L41.2204 11.5806L39.4128 9.2434L30.1234 19.5838C30.4072 19.908 30.6611 20.2566 30.8854 20.624H30.8827ZM45.6192 23.8772L45.53 20.924L31.9365 23.8286C31.977 24.269 31.977 24.677 31.9419 25.1174H48.9858C49.002 24.704 48.9993 24.2879 48.9858 23.8772H45.6219H45.6192ZM32.6579 1.39421C32.2985 1.26722 31.9094 1.14293 31.4744 1.01594L30.4342 4.22046L27.5971 3.39366L26.1597 17.2196C26.5785 17.3141 26.9892 17.4465 27.3864 17.6141L32.6579 1.39421ZM27.4323 31.3697C27.0351 31.5399 26.6244 31.675 26.2083 31.7723L31.4771 47.9841C31.9067 47.8571 32.2958 47.7328 32.6606 47.6058L31.6176 44.3959L34.3979 43.3988L27.435 31.367L27.4323 31.3697ZM24.498 31.9696C24.2926 31.9696 24.09 31.9615 23.8765 31.9425V48.9865C24.0819 48.9946 24.2899 49 24.498 49C24.706 49 24.9114 48.9946 25.1194 48.9865V45.6226L28.0727 45.5334L25.1681 31.9371C24.9384 31.9588 24.7168 31.9696 24.5007 31.9696H24.498ZM43.6143 33.9717L30.907 28.33C30.6855 28.7002 30.4342 29.0487 30.1532 29.3757L43.9413 39.3918C44.2196 39.0325 44.4573 38.7082 44.6762 38.3921L41.9499 36.4116L43.6143 33.9717ZM29.4101 30.1241C29.0859 30.4051 28.7373 30.6618 28.3699 30.8861L38.3914 44.6796C38.7049 44.4634 39.0291 44.2229 39.3912 43.9446L37.4133 41.2238L39.7505 39.4162L29.4101 30.1241ZM45.6057 27.6005L31.7797 26.1631C31.6852 26.5819 31.5528 26.9926 31.3853 27.3897L47.6024 32.6586C47.7294 32.2965 47.8537 31.9047 47.9807 31.4751L44.7762 30.4348L45.6057 27.5978V27.6005Z" fill="white"/>
<path d="M60.4199 34.8941V14.9881H69.4629C75.975 14.9881 80.4396 18.9124 80.4396 24.9411C80.4396 30.9698 75.975 34.8941 69.4629 34.8941H60.4199ZM65.0267 31.112H69.2354C73.1881 31.112 75.7759 28.7517 75.7759 24.9411C75.7759 21.1305 73.1881 18.7702 69.2354 18.7702H65.0267V31.112ZM89.7719 19.3674C94.4356 19.3674 97.1371 21.5286 97.1371 26.1639V34.8941H92.9853V32.9888C92.1606 34.3822 90.5681 35.1216 88.3216 35.1216C84.7385 35.1216 82.6057 33.131 82.6057 30.4863C82.6057 27.7848 84.511 25.908 89.1747 25.908H92.7009C92.7009 24.0027 91.5634 22.8936 89.1747 22.8936C87.5538 22.8936 85.876 23.4339 84.767 24.3155L83.1745 21.2158C84.8523 20.0215 87.3263 19.3674 89.7719 19.3674ZM89.4307 32.1357C90.9094 32.1357 92.1891 31.4532 92.7009 30.0598V28.4957H89.6582C87.5822 28.4957 86.9282 29.2635 86.9282 30.2873C86.9282 31.3963 87.8666 32.1357 89.4307 32.1357ZM109.825 31.0266L111.02 34.1547C110.11 34.8088 108.773 35.1216 107.408 35.1216C103.797 35.1216 101.692 33.2732 101.692 29.6332V23.3486H99.3321V19.9362H101.692V16.2109H106.129V19.9362H109.939V23.3486H106.129V29.5764C106.129 30.8845 106.84 31.5954 108.034 31.5954C108.688 31.5954 109.342 31.3963 109.825 31.0266ZM119.681 19.3674C124.345 19.3674 127.046 21.5286 127.046 26.1639V34.8941H122.894V32.9888C122.07 34.3822 120.477 35.1216 118.231 35.1216C114.648 35.1216 112.515 33.131 112.515 30.4863C112.515 27.7848 114.42 25.908 119.084 25.908H122.61C122.61 24.0027 121.472 22.8936 119.084 22.8936C117.463 22.8936 115.785 23.4339 114.676 24.3155L113.083 21.2158C114.761 20.0215 117.235 19.3674 119.681 19.3674ZM119.34 32.1357C120.818 32.1357 122.098 31.4532 122.61 30.0598V28.4957H119.567C117.491 28.4957 116.837 29.2635 116.837 30.2873C116.837 31.3963 117.776 32.1357 119.34 32.1357ZM132.255 34.8941V14.9881H134.36V34.8941H132.255ZM148.031 19.8224C151.671 19.8224 154.174 21.9268 154.174 26.2208V34.8941H152.155V26.4198C152.155 23.2633 150.505 21.6424 147.662 21.6424C144.448 21.6424 142.429 23.633 142.429 27.0454V34.8941H140.41V19.9362H142.344V22.6946C143.424 20.8746 145.443 19.8224 148.031 19.8224ZM164.603 15.3578C162.869 15.3578 161.959 16.3246 161.959 18.173V19.9362H166.565V21.6424H162.015V34.8941H159.996V21.6424H157.323V19.9362H159.996V18.0877C159.996 15.4146 161.589 13.6515 164.518 13.6515C165.627 13.6515 166.764 13.9643 167.504 14.59L166.821 16.0971C166.253 15.6137 165.456 15.3578 164.603 15.3578ZM173.502 22.8652C174.441 20.8746 176.346 19.8224 179.105 19.8224V21.7846C178.934 21.7846 178.763 21.7561 178.621 21.7561C175.493 21.7561 173.588 23.7467 173.588 27.2729V34.8941H171.569V19.9362H173.502V22.8652ZM187.965 19.8224C191.832 19.8224 194.022 21.7561 194.022 25.6236V34.8941H192.088V32.5623C191.178 34.0979 189.415 35.0363 186.941 35.0363C183.557 35.0363 181.481 33.2732 181.481 30.6854C181.481 28.382 182.96 26.4483 187.254 26.4483H192.003V25.5383C192.003 22.9789 190.553 21.5855 187.766 21.5855C185.832 21.5855 184.012 22.268 182.789 23.3486L181.879 21.8414C183.387 20.5618 185.605 19.8224 187.965 19.8224ZM187.254 33.4438C189.529 33.4438 191.207 32.3632 192.003 30.401V27.9554H187.311C184.41 27.9554 183.472 29.0929 183.472 30.6285C183.472 32.3632 184.865 33.4438 187.254 33.4438Z" fill="white"/>
<path d="M208.471 34.8941V14.9881H217.514C224.026 14.9881 228.49 18.9124 228.49 24.9411C228.49 30.9698 224.026 34.8941 217.514 34.8941H208.471ZM213.077 31.112H217.286C221.239 31.112 223.827 28.7517 223.827 24.9411C223.827 21.1305 221.239 18.7702 217.286 18.7702H213.077V31.112ZM246.638 27.3014C246.638 27.6426 246.581 28.1261 246.553 28.4957H234.979C235.406 30.401 237.026 31.567 239.358 31.567C240.979 31.567 242.145 31.0835 243.197 30.0882L245.558 32.6476C244.136 34.2685 242.003 35.1216 239.245 35.1216C233.955 35.1216 230.514 31.7945 230.514 27.2445C230.514 22.6661 234.012 19.3674 238.676 19.3674C243.169 19.3674 246.638 22.3817 246.638 27.3014ZM238.704 22.723C236.685 22.723 235.235 23.9458 234.922 25.908H242.458C242.145 23.9742 240.695 22.723 238.704 22.723ZM260.234 19.5949H264.499L258.044 34.8941H253.466L247.039 19.5949H251.617L255.855 30.0029L260.234 19.5949ZM280.879 27.3014C280.879 27.6426 280.823 28.1261 280.794 28.4957H269.22C269.647 30.401 271.268 31.567 273.6 31.567C275.22 31.567 276.386 31.0835 277.439 30.0882L279.799 32.6476C278.377 34.2685 276.244 35.1216 273.486 35.1216C268.196 35.1216 264.756 31.7945 264.756 27.2445C264.756 22.6661 268.253 19.3674 272.917 19.3674C277.41 19.3674 280.879 22.3817 280.879 27.3014ZM272.945 22.723C270.926 22.723 269.476 23.9458 269.163 25.908H276.699C276.386 23.9742 274.936 22.723 272.945 22.723ZM283.833 34.8941V13.7937H288.269V34.8941H283.833ZM299.666 35.1216C294.803 35.1216 291.249 31.8513 291.249 27.2445C291.249 22.6377 294.803 19.3674 299.666 19.3674C304.529 19.3674 308.055 22.6377 308.055 27.2445C308.055 31.8513 304.529 35.1216 299.666 35.1216ZM299.666 31.4816C301.884 31.4816 303.562 29.8892 303.562 27.2445C303.562 24.5998 301.884 23.0074 299.666 23.0074C297.448 23.0074 295.742 24.5998 295.742 27.2445C295.742 29.8892 297.448 31.4816 299.666 31.4816ZM320.063 19.3674C324.357 19.3674 327.685 22.4386 327.685 27.2445C327.685 32.0504 324.357 35.1216 320.063 35.1216C318.158 35.1216 316.594 34.5244 315.457 33.2732V40.4109H311.02V19.5949H315.258V21.358C316.367 20.0215 318.016 19.3674 320.063 19.3674ZM319.296 31.4816C321.514 31.4816 323.192 29.8892 323.192 27.2445C323.192 24.5998 321.514 23.0074 319.296 23.0074C317.078 23.0074 315.4 24.5998 315.4 27.2445C315.4 29.8892 317.078 31.4816 319.296 31.4816ZM345.641 27.3014C345.641 27.6426 345.584 28.1261 345.555 28.4957H333.981C334.408 30.401 336.029 31.567 338.361 31.567C339.982 31.567 341.148 31.0835 342.2 30.0882L344.56 32.6476C343.138 34.2685 341.005 35.1216 338.247 35.1216C332.958 35.1216 329.517 31.7945 329.517 27.2445C329.517 22.6661 333.015 19.3674 337.678 19.3674C342.171 19.3674 345.641 22.3817 345.641 27.3014ZM337.707 22.723C335.688 22.723 334.237 23.9458 333.925 25.908H341.46C341.148 23.9742 339.697 22.723 337.707 22.723ZM352.831 21.6139C353.912 20.1352 355.732 19.3674 358.092 19.3674V23.4624C357.722 23.4339 357.438 23.4055 357.097 23.4055C354.651 23.4055 353.03 24.742 353.03 27.6711V34.8941H348.594V19.5949H352.831V21.6139Z" fill="white"/>
</svg>
