<svg width="49" height="49" viewBox="0 0 49 49" fill="none" xmlns="http://www.w3.org/2000/svg">
<path d="M4.59806 31.6183L1.38813 32.6613C1.26114 32.2992 1.13685 31.9074 1.00986 31.4778L17.2216 26.209C17.3189 26.6278 17.454 27.0358 17.6242 27.433L5.59238 34.3959L4.59535 31.6156L4.59806 31.6183ZM3.46053 28.0733L17.0568 25.1687C17.0163 24.7256 17.0163 24.3203 17.0514 23.8799H0.0101323C-0.00337745 24.2933 -0.00337745 24.7094 0.0101323 25.1201H3.37407L3.46323 28.0733H3.46053ZM18.1078 28.3733L4.31435 38.3948C4.53321 38.7082 4.77098 39.0352 5.04928 39.3945L7.77015 37.4167L9.57776 39.7539L18.8671 29.4135C18.5834 29.0893 18.3294 28.7407 18.1051 28.3733H18.1078ZM5.37892 15.0283L18.0835 20.6673C18.3051 20.2971 18.5564 19.9486 18.8374 19.6216L5.04928 9.60546C4.76828 9.96752 4.53051 10.2945 4.31435 10.6052L7.04063 12.5857L5.37622 15.0283H5.37892ZM21.5609 17.6303C21.9581 17.46 22.3688 17.325 22.7849 17.2277L17.5188 1.01594C17.0865 1.14293 16.6947 1.26722 16.3354 1.39421L17.3783 4.60414L14.598 5.60116L21.5609 17.633V17.6303ZM19.6182 30.1565L9.59938 43.9446C9.96144 44.2229 10.2857 44.4634 10.5991 44.6796L12.5796 41.9533L15.0195 43.6177L20.6612 30.9104C20.291 30.6888 19.9398 30.4348 19.6155 30.1565H19.6182ZM19.5831 18.8732C19.9073 18.5895 20.2559 18.3355 20.6234 18.1112L10.6018 4.32043C10.2884 4.53659 9.95874 4.77976 9.60208 5.05536L11.5799 7.77623L9.24272 9.58384L19.5831 18.8759V18.8732ZM3.38758 21.3968L17.2135 22.8342C17.3081 22.4154 17.4405 22.0047 17.608 21.6076L1.39083 16.3414C1.26384 16.7035 1.13955 17.0953 1.01256 17.5222L4.21708 18.5624L3.39028 21.3995L3.38758 21.3968ZM25.1167 17.0548V0.0135098C24.9114 0.00540392 24.7033 0 24.4953 0C24.2872 0 24.0792 0.00540392 23.8738 0.0135098V3.37745L20.9206 3.46661L23.8252 17.0602C24.0549 17.0385 24.2764 17.0304 24.4926 17.0304C24.6952 17.0304 24.9006 17.0385 25.114 17.0575L25.1167 17.0548ZM16.3354 47.6058C16.6974 47.7328 17.0865 47.8571 17.5188 47.9841L18.5591 44.7795L21.3961 45.609L22.8336 31.7831C22.4148 31.6886 22.0041 31.5562 21.6069 31.3886L16.3381 47.6058H16.3354ZM29.3723 18.8408L39.3912 5.05266C39.0291 4.77436 38.7049 4.53659 38.3914 4.31773L36.4109 7.044L33.971 5.3796L28.3293 18.0842C28.6995 18.3058 29.0481 18.557 29.375 18.838L29.3723 18.8408ZM43.3955 14.5987L31.3636 21.5616C31.5339 21.9588 31.669 22.3695 31.7662 22.7856L47.978 17.5168C47.851 17.0872 47.7267 16.6981 47.5997 16.336L44.3898 17.379L43.3928 14.5987H43.3955ZM30.8827 20.624L44.6762 10.6025C44.46 10.2891 44.2169 9.95942 43.9413 9.60276L41.2204 11.5806L39.4128 9.2434L30.1234 19.5838C30.4072 19.908 30.6611 20.2566 30.8854 20.624H30.8827ZM45.6192 23.8772L45.53 20.924L31.9365 23.8286C31.977 24.269 31.977 24.677 31.9419 25.1174H48.9858C49.002 24.704 48.9993 24.2879 48.9858 23.8772H45.6219H45.6192ZM32.6579 1.39421C32.2985 1.26722 31.9094 1.14293 31.4744 1.01594L30.4342 4.22046L27.5971 3.39366L26.1597 17.2196C26.5785 17.3141 26.9892 17.4465 27.3864 17.6141L32.6579 1.39421ZM27.4323 31.3697C27.0351 31.5399 26.6244 31.675 26.2083 31.7723L31.4771 47.9841C31.9067 47.8571 32.2958 47.7328 32.6606 47.6058L31.6176 44.3959L34.3979 43.3988L27.435 31.367L27.4323 31.3697ZM24.498 31.9696C24.2926 31.9696 24.09 31.9615 23.8765 31.9425V48.9865C24.0819 48.9946 24.2899 49 24.498 49C24.706 49 24.9114 48.9946 25.1194 48.9865V45.6226L28.0727 45.5334L25.1681 31.9371C24.9384 31.9588 24.7168 31.9696 24.5007 31.9696H24.498ZM43.6143 33.9717L30.907 28.33C30.6855 28.7002 30.4342 29.0487 30.1532 29.3757L43.9413 39.3918C44.2196 39.0325 44.4573 38.7082 44.6762 38.3921L41.9499 36.4116L43.6143 33.9717ZM29.4101 30.1241C29.0859 30.4051 28.7373 30.6618 28.3699 30.8861L38.3914 44.6796C38.7049 44.4634 39.0291 44.2229 39.3912 43.9446L37.4133 41.2238L39.7505 39.4162L29.4101 30.1241ZM45.6057 27.6005L31.7797 26.1631C31.6852 26.5819 31.5528 26.9926 31.3853 27.3897L47.6024 32.6586C47.7294 32.2965 47.8537 31.9047 47.9807 31.4751L44.7762 30.4348L45.6057 27.5978V27.6005Z" fill="white"/>
</svg>
