<svg width="176" height="40" viewBox="0 0 176 40" fill="none" xmlns="http://www.w3.org/2000/svg">
<path d="M3.65991 25.1672L1.10491 25.9974C1.00383 25.7092 0.904897 25.3973 0.803815 25.0554L13.7079 20.8616C13.7853 21.1949 13.8928 21.5197 14.0283 21.8358L4.45136 27.3781L3.65776 25.1651L3.65991 25.1672ZM2.75448 22.3455L13.5767 20.0335C13.5444 19.6808 13.5444 19.3582 13.5724 19.0077H0.00806503C-0.00268834 19.3367 -0.00268834 19.6679 0.00806503 19.9948H2.68566L2.75663 22.3455H2.75448ZM14.4133 22.5842L3.43409 30.5611C3.6083 30.8106 3.79756 31.0708 4.01907 31.3568L6.1848 29.7826L7.62361 31.6429L15.0176 23.4123C14.7918 23.1542 14.5896 22.8767 14.4111 22.5842H14.4133ZM4.28146 11.9621L14.3939 16.4505C14.5703 16.1559 14.7703 15.8784 14.994 15.6182L4.01907 7.64565C3.7954 7.93384 3.60615 8.19407 3.43409 8.4414L5.60412 10.0178L4.27931 11.9621H4.28146ZM17.1619 14.0332C17.478 13.8977 17.8049 13.7901 18.1361 13.7127L13.9444 0.808654C13.6003 0.909736 13.2885 1.00867 13.0024 1.10975L13.8326 3.66475L11.6196 4.45835L17.1619 14.0353V14.0332ZM15.6155 24.0037L7.64081 34.9786C7.929 35.2001 8.18708 35.3915 8.43656 35.5636L10.013 33.3935L11.9551 34.7184L16.4457 24.6037C16.151 24.4274 15.8714 24.2252 15.6134 24.0037H15.6155ZM15.5876 15.0225C15.8456 14.7966 16.1231 14.5945 16.4156 14.416L8.43871 3.43893C8.18924 3.61098 7.92685 3.80454 7.64296 4.02391L9.21726 6.18964L7.35692 7.62845L15.5876 15.0246V15.0225ZM2.69641 17.0312L13.7014 18.1754C13.7767 17.842 13.8821 17.5151 14.0154 17.199L1.10706 13.0073C1.00598 13.2955 0.907047 13.6073 0.805966 13.9471L3.35667 14.7751L2.69856 17.0333L2.69641 17.0312ZM19.9921 13.5751V0.0107534C19.8287 0.00430135 19.6631 0 19.4975 0C19.3319 0 19.1663 0.00430135 19.0028 0.0107534V2.68834L16.6521 2.75932L18.9641 13.5794C19.1469 13.5622 19.3233 13.5557 19.4953 13.5557C19.6566 13.5557 19.8201 13.5622 19.99 13.5772L19.9921 13.5751ZM13.0024 37.8928C13.2906 37.9938 13.6003 38.0928 13.9444 38.1938L14.7725 35.6431L17.0307 36.3034L18.1748 25.2984C17.8415 25.2231 17.5146 25.1177 17.1984 24.9844L13.0046 37.8928H13.0024ZM23.3795 14.9967L31.3542 4.02176C31.066 3.80024 30.8079 3.61098 30.5584 3.43678L28.982 5.60681L27.0399 4.28199L22.5493 14.3945C22.8439 14.5708 23.1214 14.7708 23.3816 14.9945L23.3795 14.9967ZM34.5415 11.6201L24.9645 17.1624C25.1 17.4785 25.2075 17.8054 25.285 18.1366L38.189 13.9428C38.0879 13.6009 37.989 13.2912 37.8879 13.003L35.3329 13.8331L34.5393 11.6201H34.5415ZM24.5817 16.4161L35.5609 8.43925C35.3888 8.18977 35.1953 7.92739 34.9759 7.6435L32.8102 9.2178L31.3714 7.35746L23.9773 15.5881C24.2032 15.8462 24.4053 16.1236 24.5838 16.4161H24.5817ZM36.3115 19.0055L36.2405 16.6548L25.4204 18.9668C25.4527 19.3174 25.4527 19.6421 25.4247 19.9927H38.9912C39.0041 19.6636 39.002 19.3324 38.9912 19.0055H36.3136H36.3115ZM25.9947 1.10975C25.7086 1.00867 25.3989 0.909736 25.0527 0.808654L24.2247 3.35936L21.9665 2.70125L20.8223 13.7063C21.1557 13.7815 21.4826 13.8869 21.7987 14.0203L25.9947 1.10975ZM21.8353 24.9693C21.5191 25.1048 21.1922 25.2124 20.861 25.2898L25.0548 38.1938C25.3968 38.0928 25.7065 37.9938 25.9968 37.8928L25.1667 35.3377L27.3797 34.5441L21.8374 24.9672L21.8353 24.9693ZM19.4996 25.4468C19.3362 25.4468 19.1749 25.4403 19.005 25.4253V38.9917C19.1684 38.9982 19.334 39.0025 19.4996 39.0025C19.6652 39.0025 19.8287 38.9982 19.9943 38.9917V36.3142L22.345 36.2432L20.033 25.421C19.8502 25.4382 19.6738 25.4468 19.5018 25.4468H19.4996ZM34.7157 27.0404L24.601 22.5498C24.4247 22.8445 24.2247 23.1219 24.001 23.3821L34.9759 31.3547C35.1974 31.0687 35.3867 30.8106 35.5609 30.5589L33.3909 28.9825L34.7157 27.0404ZM23.4096 23.9779C23.1515 24.2016 22.874 24.4059 22.5816 24.5844L30.5584 35.5636C30.8079 35.3915 31.066 35.2001 31.3542 34.9786L29.7799 32.8129L31.6402 31.3741L23.4096 23.9779ZM36.3007 21.9692L25.2957 20.825C25.2204 21.1583 25.1151 21.4852 24.9817 21.8014L37.8901 25.9952C37.9911 25.707 38.0901 25.3952 38.1912 25.0532L35.6405 24.2252L36.3007 21.967V21.9692Z" fill="#4361EE"/>
<path d="M45.598 31.6536V9.38339H54.1556C55.8309 9.38339 57.3794 9.66943 58.801 10.2415C60.2205 10.8136 61.4614 11.605 62.5238 12.6116C63.5841 13.6181 64.4164 14.8009 65.0208 16.158C65.6251 17.5151 65.9284 18.9797 65.9284 20.5476C65.9284 22.1154 65.6316 23.5757 65.038 24.922C64.4444 26.2683 63.6121 27.4405 62.541 28.4384C61.47 29.4363 60.2248 30.2191 58.8032 30.7934C57.3816 31.3654 55.8331 31.6515 54.1577 31.6515H45.6002L45.598 31.6536ZM50.2112 27.5502H54.0932C55.089 27.5502 56.018 27.3695 56.8762 27.0103C57.7343 26.6512 58.487 26.1522 59.1344 25.5156C59.7817 24.879 60.2807 24.1435 60.6291 23.3047C60.9797 22.4681 61.1539 21.5498 61.1539 20.554C61.1539 19.5582 60.9797 18.6614 60.6291 17.8033C60.2785 16.9452 59.7817 16.1924 59.1344 15.5451C58.487 14.8977 57.7343 14.3945 56.8762 14.0332C56.0159 13.6718 55.0997 13.4933 54.1255 13.4933H50.2134V27.5545L50.2112 27.5502Z" fill="#4361EE"/>
<path d="M73.7223 31.9396C72.5566 31.9396 71.5157 31.7224 70.6038 31.288C69.6919 30.8536 68.9822 30.2535 68.4725 29.49C67.9628 28.7265 67.709 27.8469 67.709 26.849C67.709 25.2575 68.3026 24.023 69.4897 23.1434C70.6769 22.2638 72.3308 21.8229 74.4514 21.8229C75.8923 21.8229 77.2515 22.0465 78.5226 22.4917V21.2831C78.5226 20.3282 78.2258 19.6077 77.6322 19.1195C77.0386 18.6313 76.1697 18.3882 75.0234 18.3882C74.3438 18.3882 73.5911 18.5001 72.7652 18.7216C71.9394 18.9453 71.0038 19.2894 69.965 19.7561L68.4058 16.5107C69.7199 15.9386 70.9716 15.5042 72.1587 15.2074C73.3459 14.9106 74.5331 14.7622 75.7224 14.7622C77.9914 14.7622 79.742 15.2977 80.9722 16.3688C82.2024 17.4398 82.8175 18.9517 82.8175 20.9024V31.6558H78.5226V30.4793C77.843 30.9891 77.1117 31.359 76.3267 31.5934C75.5417 31.8257 74.6729 31.944 73.718 31.944L73.7223 31.9396ZM71.8447 26.7544C71.8447 27.391 72.12 27.8942 72.6706 28.2663C73.2212 28.6384 73.9524 28.8233 74.8664 28.8233C75.5869 28.8233 76.2493 28.7394 76.8558 28.5695C77.4601 28.3996 78.0172 28.1244 78.5247 27.7415V25.3242C77.9935 25.0919 77.4429 24.9263 76.8709 24.8317C76.2988 24.737 75.6837 24.6876 75.0256 24.6876C74.0277 24.6876 73.2491 24.8682 72.6878 25.2274C72.1265 25.5887 71.8447 26.0984 71.8447 26.7544Z" fill="#4361EE"/>
<path d="M93.4762 31.9074C91.6524 31.9074 90.2674 31.488 89.3254 30.6514C88.3813 29.8126 87.9103 28.5996 87.9103 27.0081V18.7044H84.5057V15.0783H87.9103V10.8479L92.2374 9.86078V15.0783H97.0098V18.7044H92.2374V26.0855C92.2374 26.849 92.4116 27.3952 92.7622 27.7243C93.1127 28.0533 93.6999 28.2168 94.5279 28.2168C94.9731 28.2168 95.3709 28.191 95.7215 28.1372C96.0721 28.0835 96.4592 27.9931 96.8829 27.8662V31.4299C96.4377 31.5783 95.885 31.6944 95.229 31.7805C94.5709 31.8643 93.9881 31.9074 93.4784 31.9074H93.4762Z" fill="#4361EE"/>
<path d="M104.389 31.9396C103.223 31.9396 102.182 31.7224 101.27 31.288C100.358 30.8536 99.6487 30.2535 99.139 29.49C98.6293 28.7265 98.3755 27.8469 98.3755 26.849C98.3755 25.2575 98.9691 24.023 100.156 23.1434C101.343 22.2638 102.997 21.8229 105.118 21.8229C106.559 21.8229 107.918 22.0465 109.189 22.4917V21.2831C109.189 20.3282 108.892 19.6077 108.299 19.1195C107.705 18.6313 106.836 18.3882 105.69 18.3882C105.01 18.3882 104.258 18.5001 103.432 18.7216C102.606 18.9453 101.67 19.2894 100.632 19.7561L99.0723 16.5107C100.386 15.9386 101.638 15.5042 102.825 15.2074C104.012 14.9106 105.2 14.7622 106.389 14.7622C108.658 14.7622 110.409 15.2977 111.639 16.3688C112.869 17.4398 113.484 18.9517 113.484 20.9024V31.6558H109.189V30.4793C108.509 30.9891 107.778 31.359 106.993 31.5934C106.208 31.8257 105.339 31.944 104.384 31.944L104.389 31.9396ZM102.511 26.7544C102.511 27.391 102.787 27.8942 103.337 28.2663C103.888 28.6384 104.619 28.8233 105.533 28.8233C106.253 28.8233 106.916 28.7394 107.522 28.5695C108.127 28.3996 108.684 28.1244 109.191 27.7415V25.3242C108.66 25.0919 108.109 24.9263 107.537 24.8317C106.965 24.737 106.35 24.6876 105.692 24.6876C104.694 24.6876 103.916 24.8682 103.354 25.2274C102.793 25.5887 102.511 26.0984 102.511 26.7544Z" fill="#4361EE"/>
<path d="M117.527 31.6536V9.38339H119.977V31.6515H117.527V31.6536Z" fill="#4361EE"/>
<path d="M124.431 31.6537V15.7151H126.786V17.5926C128.038 16.1301 129.713 15.3968 131.812 15.3968C133.021 15.3968 134.088 15.657 135.01 16.1753C135.933 16.6958 136.653 17.4162 137.174 18.3389C137.694 19.2615 137.952 20.339 137.952 21.567V31.6516H135.63V22.0445C135.63 20.6229 135.232 19.5046 134.436 18.6894C133.64 17.8743 132.554 17.4657 131.176 17.4657C130.221 17.4657 129.373 17.6786 128.629 18.1023C127.887 18.526 127.272 19.1303 126.784 19.9153V31.6537H124.429H124.431Z" fill="#4361EE"/>
<path d="M143.708 31.6536V17.7194H139.955V15.7149H143.708V12.6932C143.708 11.1232 144.131 9.92532 144.981 9.09946C145.828 8.27145 147.05 7.85852 148.639 7.85852C149.063 7.85852 149.446 7.88003 149.783 7.92304C150.123 7.96605 150.452 8.03918 150.771 8.14671V10.2458C150.409 10.1404 150.08 10.0608 149.783 10.007C149.487 9.95543 149.158 9.92747 148.798 9.92747C147.865 9.92747 147.17 10.1554 146.714 10.6114C146.258 11.0673 146.03 11.7835 146.03 12.7578V15.7171H150.771V17.7215H146.03V31.6557H143.708V31.6536Z" fill="#4361EE"/>
<path d="M153.314 31.6536V15.715H155.669V17.9732C156.158 17.1452 156.777 16.5043 157.53 16.0483C158.283 15.5924 159.147 15.3644 160.123 15.3644C160.674 15.3644 161.173 15.4397 161.618 15.5881V17.7517C161.343 17.6463 161.065 17.571 160.792 17.528C160.517 17.485 160.24 17.4635 159.966 17.4635C158.99 17.4635 158.136 17.7452 157.405 18.3065C156.674 18.8679 156.095 19.6808 155.672 20.7411V31.6515H153.317L153.314 31.6536Z" fill="#4361EE"/>
<path d="M168.554 31.9397C167.389 31.9397 166.365 31.7375 165.485 31.3354C164.606 30.9332 163.915 30.3719 163.418 29.6492C162.92 28.9288 162.67 28.09 162.67 27.1351C162.67 25.6296 163.242 24.4425 164.388 23.5714C165.535 22.7026 167.081 22.2681 169.034 22.2681C170.752 22.2681 172.309 22.6294 173.709 23.3499V21.2509C173.709 19.9777 173.348 19.0185 172.628 18.3732C171.905 17.7259 170.858 17.4033 169.477 17.4033C168.692 17.4033 167.903 17.5151 167.107 17.7366C166.311 17.9582 165.438 18.3152 164.483 18.8034L163.593 16.9904C164.739 16.4398 165.799 16.0355 166.774 15.7817C167.75 15.5279 168.724 15.3989 169.701 15.3989C171.716 15.3989 173.269 15.8763 174.361 16.8312C175.454 17.7861 176 19.1539 176 20.9347V31.6558H173.709V30.0966C172.987 30.7117 172.198 31.1741 171.339 31.4795C170.481 31.787 169.552 31.9397 168.556 31.9397H168.554ZM164.928 27.0727C164.928 27.9631 165.305 28.69 166.057 29.2514C166.81 29.8127 167.78 30.0944 168.969 30.0944C169.924 30.0944 170.793 29.946 171.578 29.6492C172.363 29.3524 173.073 28.8858 173.709 28.2492V25.2597C173.051 24.8145 172.352 24.4919 171.61 24.2898C170.868 24.0876 170.03 23.9865 169.098 23.9865C167.825 23.9865 166.812 24.2683 166.06 24.8296C165.307 25.3909 164.93 26.1393 164.93 27.0727H164.928Z" fill="#4361EE"/>
</svg>
