<svg width="570" height="430" viewBox="0 0 570 430" fill="none" xmlns="http://www.w3.org/2000/svg">
<g clip-path="url(#clip0_51_888)">
<path d="M548.967 149.018C553.242 151.153 557.535 153.254 561.788 155.433C564.64 156.894 567.435 158.465 570.627 159.993C571 163.693 571 167.386 571 171.539C563.193 176.313 555.382 180.617 547.582 184.941C540.775 188.716 534.032 192.613 527.139 196.221C525.659 196.996 523.655 196.943 521.889 196.966C515.898 197.042 509.906 196.981 503.512 196.527C503.737 192.715 504.365 189.351 505.011 185.734C505.021 185.314 505.012 185.146 505.004 184.992C505.006 185.006 504.977 185.009 505.242 184.945C505.675 184.58 505.843 184.279 506.009 183.993C506.007 184.01 505.975 184.006 506.292 184.025C507.078 183.69 507.547 183.335 508.012 182.996C508.007 183.012 507.975 183.007 508.334 183.027C509.468 182.355 510.243 181.662 511.011 180.989C511.004 181.008 510.963 181.013 511.285 181.026C512.077 180.686 512.546 180.333 513.011 179.996C513.007 180.011 512.975 180.006 513.305 180.021C514.152 179.677 514.668 179.319 515.534 178.958C518.573 177.398 521.261 175.84 524.202 174.127C524.639 173.642 524.824 173.311 525.007 172.993C525.005 173.006 524.979 173.003 525.296 173.025C526.078 172.692 526.543 172.337 527.005 171.994C527.003 172.006 526.98 172 527.296 172.028C528.076 171.698 528.539 171.34 529.002 170.993C529.002 171.003 528.982 170.995 529.295 171.016C530.075 170.685 530.542 170.333 531.006 169.994C531.004 170.006 530.979 170.001 531.29 170.009C532.068 169.672 532.536 169.327 533.003 168.993C533.003 169.004 532.981 169.001 533.239 168.931C533.668 168.568 533.838 168.274 534.007 167.993C534.005 168.007 533.978 168.004 534.295 168.022C535.075 167.688 535.539 167.335 536.003 166.993C536.002 167.003 535.982 166.996 536.295 167.016C537.073 166.685 537.539 166.334 538.003 165.993C538.003 166.004 537.981 166.001 538.245 165.939C538.675 165.578 538.841 165.279 539.006 164.993C539.005 165.006 538.979 165.003 539.298 165.031C540.082 164.7 540.545 164.341 541.007 163.994C541.004 164.007 540.979 164.002 541.294 164.016C542.072 163.682 542.537 163.332 543.001 162.993C543.001 163.002 542.983 162.994 543.296 163.018C544.074 162.689 544.54 162.335 545.005 161.994C545.004 162.005 544.981 162.002 545.249 161.945C545.68 161.585 545.844 161.283 546.006 160.993C546.004 161.006 545.979 161.002 546.298 161.029C547.081 160.698 547.545 160.34 548.007 159.995C548.005 160.007 547.979 160.003 548.288 160.003C549.083 159.662 549.57 159.321 550.318 158.765C550.612 156.724 550.644 154.898 550.515 152.735C549.891 151.272 549.429 150.145 548.967 149.018Z" fill="#7E96CE"/>
<path d="M316.539 1C319.977 3.3346 322.856 5.80852 325.953 7.97101C330.547 11.1785 335.294 14.1653 339.598 17.7421C329.836 23.5103 320.453 28.7825 310.711 33.9864C309.028 33.2489 307.681 32.6197 306.383 31.9043C297.973 27.2718 289.573 22.6205 281.17 17.9753C283.573 15.9856 285.811 13.7416 288.412 12.0585C294.033 8.42114 299.841 5.07146 305.286 1.30204C308.693 1 312.386 1 316.539 1Z" fill="#EEF1F8"/>
<path d="M1 154.333C4.0931 152.433 7.22242 150.933 10.2698 149.282C13.7649 147.389 17.0619 147.412 20.3235 149.799C22.8284 151.632 25.4007 153.372 27.5317 155.583C23.1805 158.12 19.2408 160.226 14.9139 162.25C10.0179 160.111 5.50895 158.056 1 156C1 155.556 1 155.111 1 154.333Z" fill="#EEF1F8"/>
<path d="M1 156.466C5.50896 158.056 10.0179 160.111 14.8074 162.673C15.0515 167.458 15.015 171.735 14.6192 175.983C9.83997 174.302 5.41998 172.651 1 171C1 166.311 1 161.621 1 156.466Z" fill="#C9CFEA"/>
<path d="M269.437 431C268.177 430.002 267.529 428.733 266.493 428.065C264.672 426.89 262.455 426.297 260.732 425.017C260.011 424.482 260.13 422.815 260.407 421.339C264.611 422.353 268.277 423.689 272.16 425.266C274.009 424.954 275.651 424.428 277.271 423.842C279.8 422.929 282.313 421.975 284.833 421.038C287.298 423.832 284.852 424.865 282.988 426.003C280.498 427.523 277.941 428.932 275.706 430.695C273.958 431 271.916 431 269.437 431Z" fill="#E5E9F6"/>
<path d="M1 171.375C5.41998 172.651 9.83997 174.302 14.9711 175.931C19.3995 174.29 23.1168 172.673 26.834 171.055C29.098 173.216 27.3196 174.606 25.7123 175.627C22.7888 177.486 19.7216 179.133 16.6286 180.7C15.8316 181.103 14.507 181.265 13.7803 180.875C9.71824 178.696 5.7653 176.314 1.38754 174.001C1 173.25 1 172.5 1 171.375Z" fill="#E5E9F6"/>
<path d="M184.176 113.986C182.068 103.88 185.994 98.1874 195.492 93.449C212.116 85.1558 227.715 74.8272 243.904 65.6347C255.843 58.8555 268.038 52.5274 280.973 45.9903C290.661 45.4555 299.204 46.0929 306.608 51.785C307.871 52.7562 309.457 53.3088 311.116 54.3147C314.867 56.321 318.395 58.0674 322.115 60.1176C325.248 61.628 328.189 62.8344 331.13 64.0409C340.128 69.3667 349.097 74.7438 358.134 80.0031C366.136 84.6596 374.213 89.1852 382.754 94.1446C384.235 95.3651 385.09 96.511 386.228 97.0005C390.652 98.9039 392.776 102.236 392.804 107.234C390.539 109.361 388.68 111.592 386.32 112.964C370.496 122.164 354.579 131.206 338.664 140.25C323.96 148.605 309.22 156.898 294.497 165.219C297.282 165.093 300.378 164.676 302.946 163.283C312.597 158.046 322.098 152.529 331.616 147.05C351.949 135.346 372.258 123.601 392.619 112.294C392.454 113.538 392.247 114.361 391.869 115.468C389.981 117.046 388.373 118.531 386.525 119.6C376.457 125.424 366.307 131.107 356.226 136.911C340.11 146.189 324.026 155.524 307.597 164.904C305.773 165.939 304.281 166.905 302.491 167.924C301.463 168.329 300.733 168.681 299.688 169.104C298.202 169.678 297.031 170.182 295.477 170.736C294.066 170.884 293.038 170.984 291.611 171.049C290.147 171.048 289.082 171.082 287.601 171.068C285.796 170.973 284.406 170.925 282.792 170.641C281.715 170.262 280.86 170.119 279.801 169.726C278.768 169.291 277.94 169.107 276.93 168.633C274.507 167.202 272.267 166.06 269.82 164.655C252.644 154.709 235.584 145.181 218.734 135.295C207.065 128.448 195.685 121.107 184.176 113.986ZM206.037 122.922C206.412 122.815 206.786 122.708 207.16 122.601C206.87 122.304 206.58 122.008 205.862 121.158C204.285 120.366 202.708 119.575 201.131 118.783C200.943 119.178 200.756 119.572 200.569 119.966C202.232 120.81 203.896 121.653 206.037 122.922ZM196.706 117.892C197.75 118.258 198.793 118.624 199.836 118.99C199.98 118.636 200.124 118.282 200.268 117.928C196.527 115.823 192.785 113.719 189.043 111.614C188.789 112.037 188.534 112.46 188.28 112.883C190.875 114.421 193.471 115.959 196.706 117.892ZM211.048 125.595C210.238 124.62 209.429 123.646 208.619 122.671C208.325 123.042 208.032 123.413 207.739 123.784C208.624 124.375 209.51 124.965 211.048 125.595Z" fill="#EEF1F8"/>
<path d="M307.93 164.835C324.027 155.524 340.111 146.189 356.228 136.911C366.308 131.107 376.458 125.424 386.527 119.6C388.375 118.531 389.982 117.046 392.119 115.604C392.704 115.997 392.871 116.539 393.038 117.08C393.03 139.38 393.023 161.68 392.594 184.507C387.088 185.65 382.004 186.265 376.993 186.541C378.278 183.823 383.688 183.949 381.155 179.11C380.502 179.244 379.81 179.228 379.287 179.517C370.747 184.227 362.261 189.037 353.686 193.68C350.971 195.15 350.45 196.961 351.723 199.976C352.844 199.304 353.63 198.743 354.488 198.334C359.653 195.871 364.835 193.444 369.904 191.321C367.209 194.094 364.621 196.551 361.837 198.748C354.261 200.239 350.939 203.227 351.63 207.658C352.741 207.425 353.846 207.193 354.969 207.321C344.103 225.177 338.13 243.957 340.032 265.175C338.632 268.057 337.278 270.569 335.58 273.092C330.1 278.812 324.778 284.367 319.895 290.284C316.616 294.257 313.959 298.744 310.626 302.911C309.819 300.993 309.056 299.167 309.053 297.34C308.985 255.947 309.021 214.554 308.955 173.162C308.95 170.385 308.287 167.61 307.93 164.835ZM368.322 152.848C363.571 155.546 358.71 158.071 354.133 161.037C352.587 162.038 351.764 164.154 350.611 165.761C351.057 166.187 351.504 166.613 351.95 167.039C361.519 161.562 371.128 156.152 380.593 150.501C381.506 149.955 381.526 147.913 381.961 146.566C381.603 146.306 381.245 146.045 380.887 145.785C376.915 148.023 372.942 150.261 368.322 152.848ZM378.476 138.807C370.364 143.357 362.196 147.811 354.191 152.541C352.706 153.419 351.876 155.409 350.744 156.885C351.242 157.383 351.739 157.881 352.237 158.378C355.959 156.349 359.695 154.346 363.4 152.285C368.914 149.217 374.464 146.203 379.857 142.931C380.87 142.316 381.215 140.601 381.869 139.393C380.959 139.084 380.049 138.775 378.476 138.807ZM352.62 186.246C352.072 187.643 351.524 189.041 350.976 190.439C351.419 190.74 351.863 191.04 352.306 191.341C361.815 186.025 371.362 180.774 380.766 175.278C381.569 174.808 381.42 172.71 381.713 171.368C381.323 171.131 380.932 170.894 380.541 170.657C371.456 175.734 362.372 180.812 352.62 186.246ZM376.907 169.437C379.039 167.555 383.097 166.907 381.27 161.946C371.766 167.341 362.411 172.547 353.204 178.004C352.004 178.716 351.57 180.719 350.781 182.124C351.233 182.477 351.685 182.831 352.138 183.185C360.185 178.735 368.233 174.285 376.907 169.437ZM376.059 156.519C368.873 160.602 361.613 164.564 354.554 168.857C352.866 169.883 351.846 172.009 350.52 173.629C351.012 174.141 351.503 174.653 351.995 175.164C361.432 169.822 370.917 164.561 380.241 159.029C381.323 158.387 381.517 156.248 382.694 153.441C379.646 154.826 378.175 155.495 376.059 156.519Z" fill="#7F97CD"/>
<path d="M184.093 114.449C195.685 121.107 207.065 128.448 218.734 135.295C235.584 145.181 252.644 154.709 269.811 165.132C270.005 213.916 270.018 261.959 269.957 310.001C269.954 312.612 269.332 315.222 268.997 317.833C260.176 312.891 251.329 307.995 242.539 302.997C227.734 294.58 212.977 286.08 198.172 277.662C195.669 276.239 192.959 275.178 190.468 273.737C186.463 271.421 183.869 268.557 183.889 263.216C184.076 213.782 184.005 164.347 184.093 114.449ZM225.261 258.858C225.789 259.053 226.318 259.247 227.272 259.945C230.849 261.882 234.427 263.818 238.547 266.196C241.011 267.504 243.474 268.813 246.361 270.652C250.896 273.197 255.431 275.742 260.871 278.796C261.018 275.61 261.183 273.684 261.185 271.758C261.215 244.179 261.359 216.599 261.187 189.021C261.079 171.67 264.177 176.021 247.491 166.437C247.353 166.358 247.17 166.36 246.455 165.879C243.98 164.549 241.504 163.219 238.616 161.363C235.11 159.454 231.605 157.545 227.717 155.22C227.2 154.99 226.682 154.759 225.703 154.066C222.794 152.465 219.885 150.863 216.413 148.844C212.94 146.94 209.468 145.036 205.501 142.639C202.526 140.993 199.551 139.347 195.764 137.25C195.477 140.155 195.129 142.055 195.126 143.955C195.077 174.051 195.07 204.146 195.059 234.241C195.056 241.791 196.094 243.213 204.096 246.687C207.569 248.543 211.042 250.399 214.967 252.808C218.27 254.688 221.574 256.568 225.261 258.858ZM219.482 275.008C221.136 275.888 222.79 276.768 224.528 277.693C226.085 272.838 224.363 270.188 220.583 268.3C217.037 266.53 213.661 264.419 210.177 262.519C208.433 261.568 206.615 260.755 204.689 259.81C203.231 264.342 204.394 266.85 208.03 268.588C211.752 270.368 215.273 272.57 219.482 275.008ZM198.907 256.495C197.934 257.061 196.962 257.626 195.989 258.192C197.014 259.94 198.039 261.689 199.063 263.438C199.791 263.083 200.519 262.728 201.247 262.372C200.669 260.581 200.091 258.79 198.907 256.495Z" fill="#C9CFEA"/>
<path d="M419.072 236.943C435.325 243.617 451.659 250.108 467.75 257.152C470.383 258.304 472.785 261.597 473.797 264.435C475.125 268.162 471.697 270.337 468.842 271.994C453.814 280.723 438.721 289.342 423.661 298.016C414.064 303.544 404.471 309.079 394.901 314.653C385.148 320.335 375.569 324.923 363.364 324.306C341.606 323.208 319.753 323.984 297.668 323.676C298.262 322.915 299.129 322.454 300.322 321.966C301.765 321.292 302.882 320.644 304.312 319.842C307.548 318.109 309.324 315.927 309.459 312.355C309.531 310.456 310.537 308.593 311.365 306.988C313.514 312.596 318.886 312.253 323.112 314.452C326.691 316.774 330.019 317.028 332.694 313.815C338.949 306.3 345.038 298.648 351.46 290.886C353.168 289.124 354.609 287.527 356.39 286.078C358.284 286.747 360.062 286.946 361.357 287.844C368.849 293.037 376.327 291.825 383.844 288.078C392.706 283.659 399.323 276.721 404.728 268.652C411.12 259.109 416.358 248.989 418.307 237.276C418.727 237.079 418.9 237.011 419.072 236.943Z" fill="#7D96CD"/>
<path d="M527.099 78.9362C540.002 85.9533 539.998 85.9533 540.001 100.8C540.004 114.61 540.018 128.421 540.08 142.936C540.132 143.64 540.16 144.101 539.776 144.131C535.26 142.159 531.128 140.157 526.803 137.864C522.704 135.028 518.798 132.482 515.203 129.753C518.431 127.921 519.684 126.198 515.948 123.966C515.39 123.633 515.222 122.647 515.197 121.874C516.623 120.991 517.725 120.196 519.451 118.951C517.144 117.342 515.487 116.187 514.032 114.732C515.745 113.282 517.255 112.132 519.797 110.196C514.396 107.338 509.239 105.764 505.669 102.47C499.01 96.3266 493.024 96.4749 486.437 101.934C485.704 102.542 484.71 102.822 483.895 103.344C480.147 105.74 476.42 108.167 472.167 110.92C474.689 112.657 476.407 113.84 477.837 115.197C476.055 116.478 474.562 117.585 472.396 119.19C474.463 120.405 475.788 121.184 477.112 122.316C475.526 123.723 473.941 124.778 471.6 126.336C474.446 128.22 475.757 129.089 476.927 130.275C472.51 133.335 468.235 136.078 463.605 138.893C459.514 141.027 455.778 143.089 451.967 145.098C451.892 145.044 451.965 144.875 451.965 144.875C451.978 126.734 452.072 108.593 451.93 90.454C451.905 87.2373 452.695 85.3687 455.753 83.9461C459.107 82.3859 462.09 80.0291 465.661 78.0411C466.088 78.0629 466.257 78.1838 466.534 78.4551C486.907 78.7963 507.003 78.8663 527.099 78.9362Z" fill="#1F50FF"/>
<path d="M418.058 237.405C416.357 248.989 411.119 259.109 404.726 268.652C399.321 276.721 392.705 283.659 383.843 288.078C376.326 291.825 368.847 293.037 361.355 287.844C360.061 286.946 358.283 286.747 356.596 285.81C356.759 284.137 357.623 282.666 357.245 281.662C355.99 278.328 354.289 275.162 352.749 271.634C352.092 270.631 351.444 269.926 351.078 268.962C351.24 266.427 351.022 264.15 351.018 261.873C350.983 241.94 357.328 224.116 369.273 208.316C377.171 197.87 386.315 189.198 400.826 189.823C401.585 189.855 402.37 189.261 403.143 188.958C408.081 190.21 412.284 192.501 414.896 197.871C415.623 199.363 416.241 200.179 416.86 200.995C416.86 200.995 417.023 201.402 417.026 201.926C417.304 202.959 417.579 203.469 417.854 203.978C417.854 203.978 418.017 204.399 418.01 205.063C418.341 210.507 418.958 215.288 418.944 220.067C418.928 225.847 418.378 231.625 418.058 237.405ZM368.482 272.822C368.65 272.878 368.818 272.935 369.329 273.648C371.42 274.438 373.465 275.729 375.611 275.926C383.259 276.627 389.051 272.358 393.871 267.367C402.547 258.385 408.255 247.499 410.312 235.136C411.806 226.151 412.517 216.918 406.849 208.787C404.281 205.103 400.957 202.54 395.1 204.001C394.203 204.018 393.306 204.035 391.707 204.14C385.183 205.016 380.761 209.094 376.258 214.246C369.101 222.63 364.284 232.169 361.767 243.738C359.629 251.53 358.973 259.29 362.375 267.626C364.269 269.311 363.663 273.692 368.482 272.822Z" fill="#CAD1EB"/>
<path d="M167.083 342.928C174.857 347.311 182.658 351.648 190.38 356.121C191.682 356.876 192.644 358.217 193.603 359.836C192.004 362.072 190.883 364.301 189.075 365.364C175.376 373.42 161.68 381.505 147.657 388.969C144.021 390.905 139.232 390.674 134.728 391.26C132.658 390.376 130.832 389.67 129.002 388.983C128.998 389.002 129.031 388.982 128.925 388.675C128.215 388.234 127.611 388.099 127.004 387.984C127.002 388.004 127.032 387.98 127.021 387.627C124.676 386.172 122.342 385.069 120.003 383.984C119.997 384.002 120.032 383.988 120.003 383.712C119.652 383.28 119.331 383.124 119.005 382.985C119 383.002 119.029 382.981 118.892 382.701C118.172 382.269 117.587 382.117 117.001 381.984C117 382.004 117.033 381.981 116.927 381.674C115.884 380.897 114.948 380.426 114.003 379.976C113.994 379.997 114.038 379.986 113.873 379.729C113.14 379.302 112.571 379.132 112 378.983C111.998 379.003 112.033 378.983 111.89 378.707C111.166 378.276 110.585 378.121 110.002 377.984C110 378.003 110.031 377.981 109.921 377.676C108.877 376.898 107.943 376.425 107.001 375.975C106.993 375.998 107.041 375.989 106.865 375.741C106.127 375.318 105.566 375.141 105.001 374.984C104.999 375.002 105.03 374.981 104.887 374.678C103.167 373.568 101.588 372.761 100.002 371.976C99.9933 371.998 100.04 371.988 99.8675 371.737C99.1308 371.312 98.5662 371.138 98.0002 370.983C97.9987 371.003 98.0324 370.982 97.8795 370.673C96.4795 369.846 95.2324 369.327 93.8039 368.591C90.715 366.905 87.8075 365.438 84.8999 363.97C82.5891 359.803 85.0379 357.819 88.3463 355.937C101.11 348.677 113.81 341.304 126.526 333.96C126.798 333.803 126.973 333.479 127.61 333.539C127.603 338.687 128.219 342.931 133.72 344.754C134.397 344.978 134.738 346.217 134.86 346.999C131.363 348.706 128.241 350.399 124.754 352.035C120.927 350.277 117.466 348.576 113.071 346.416C113.071 355.052 113.026 362.627 113.134 370.199C113.145 371.035 113.819 372.235 114.535 372.625C117.991 374.508 121.568 376.172 125.423 377.811C127.482 376.784 129.208 375.835 130.961 374.94C134.136 373.319 137.113 371.589 136.394 367.269C137.769 367.676 138.815 368.009 140.243 368.305C142.495 367.269 144.552 366.504 146.189 365.209C148.054 363.732 149.545 361.781 151.429 359.913C152.485 359.831 153.309 359.872 154.499 359.961C164.573 356.762 165.597 355.459 166.138 346.075C166.199 345.012 166.756 343.977 167.083 342.928Z" fill="#EDF1F8"/>
<path d="M402.979 188.611C402.372 189.261 401.586 189.855 400.828 189.823C386.317 189.198 377.172 197.87 369.275 208.316C357.329 224.116 350.985 241.94 351.019 261.873C351.023 264.15 351.242 266.427 350.73 268.88C346.759 267.639 343.419 266.221 340.078 264.804C338.13 243.957 344.103 225.177 355.162 207.05C357.569 203.95 359.801 201.479 362.033 199.008C364.621 196.551 367.209 194.094 369.899 191.319C370.001 191.001 370.005 191.01 370.329 191.019C371.455 190.36 372.255 189.692 373.369 188.948C374.762 188.208 375.841 187.544 376.921 186.881C382.004 186.265 387.088 185.65 392.63 184.969C396.331 186.023 399.572 187.144 402.979 188.611Z" fill="#ECEFF8"/>
<path d="M75.1602 154.992C76.5403 153.411 77.6341 151.344 79.3502 150.334C86.6649 146.03 94.1238 141.964 101.635 138.01C102.863 137.364 104.979 137.09 106.074 137.715C115.458 143.072 124.702 148.675 133.572 154.638C123.487 160.432 113.817 165.792 103.82 170.985C94.0495 165.543 84.6049 160.267 75.1602 154.992Z" fill="#EEF1F8"/>
<path d="M104.146 171.153C113.816 165.792 123.486 160.432 133.501 155.007C133.895 164.562 133.794 174.186 134.064 183.799C134.178 187.843 130.7 187.99 128.005 189.927C125.39 191.022 123.46 191.937 121.562 192.913C115.721 195.916 109.893 198.943 104.055 201.494C104.082 191.07 104.114 181.111 104.146 171.153Z" fill="#8299CF"/>
<path d="M548.981 149.013C549.429 150.145 549.891 151.272 550.332 153.068C549.152 155.055 548.201 156.683 546.793 157.629C543.767 159.661 540.574 161.479 537.327 163.144C522.816 170.583 509.85 180.983 493.491 185.931C495.593 186.077 497.236 186.191 498.914 186.585C498.965 187.243 498.982 187.62 499.012 188.029C499.026 188.06 499.065 188.117 498.646 188.075C496.835 188.057 495.443 188.081 493.687 188.032C491.893 187.607 490.462 187.257 488.86 186.612C483.827 183.557 478.949 180.824 474.105 178.031C463.121 171.7 452.155 165.339 441.182 158.99C438.709 150.142 445.433 147.898 451.599 144.932C451.965 144.875 451.892 145.044 451.988 145.546C452.255 148.132 452.426 150.216 452.487 152.634C453.5 154.614 454.253 156.885 455.806 157.808C467.111 164.529 478.576 170.979 489.992 177.512C493.921 179.76 497.966 179.91 501.879 177.678C513.449 171.08 525.023 164.481 536.403 157.566C537.885 156.666 538.238 153.909 539.347 151.722C540.366 149.595 541.151 147.759 542.267 146.029C543.052 146.112 543.505 146.089 543.959 146.066C543.959 146.066 543.994 146.011 543.967 146.386C544.942 147.198 545.945 147.635 546.948 148.072C546.948 148.072 547 148.001 547.08 148.339C547.768 148.796 548.376 148.915 548.985 149.034C548.985 149.034 548.996 149.007 548.981 149.013ZM482.95 179.432C482.716 179.479 482.483 179.525 482.25 179.571C482.44 179.769 482.63 179.966 483.155 180.67C483.893 180.947 484.631 181.223 485.37 181.499C485.47 181.22 485.57 180.941 485.67 180.661C484.854 180.361 484.037 180.061 482.95 179.432ZM480.047 178.576C480.284 178.528 480.52 178.481 480.756 178.433C480.562 178.236 480.368 178.039 479.793 177.297C478.595 176.792 477.398 176.287 475.937 175.444C475.702 175.489 475.467 175.535 475.232 175.581C475.428 175.776 475.624 175.971 476.202 176.705C477.392 177.218 478.583 177.732 480.047 178.576ZM470.018 171.624C469.46 171.542 468.902 171.461 468.345 171.38C468.255 171.644 468.165 171.908 468.074 172.173C469.214 172.735 470.354 173.297 471.493 173.859C471.637 173.626 471.782 173.392 471.926 173.159C471.487 172.745 471.049 172.331 470.018 171.624ZM463.032 169.441C463.579 169.36 464.127 169.28 464.674 169.199C463.653 168.699 462.633 168.199 461.612 167.699C461.899 168.185 462.186 168.67 463.032 169.441ZM466.527 170.261C466.427 170.332 466.327 170.403 466.227 170.474C466.313 170.561 466.394 170.709 466.488 170.717C466.581 170.725 466.687 170.593 466.527 170.261ZM473.215 174.471C473.399 174.488 473.584 174.506 473.769 174.523C473.684 174.436 473.599 174.349 473.215 174.471Z" fill="#E8EDF7"/>
<path d="M103.819 170.985C104.114 181.111 104.082 191.07 103.688 201.486C101.297 200.894 99.2737 199.83 97.2342 198.798C91.4467 195.87 85.6524 192.956 79.8608 190.037C75.8516 188.674 74.7473 185.895 74.9027 181.743C75.2244 173.146 75.0057 164.529 75.0841 155.456C84.6037 160.267 94.0484 165.543 103.819 170.985Z" fill="#CAD1EA"/>
<path d="M321.923 59.8137C318.395 58.0674 314.867 56.321 311.154 53.8424C311.003 46.7583 311.036 40.4065 311.069 34.0547C320.453 28.7826 329.836 23.5104 339.531 18.1027C339.893 27.6706 340.178 37.3833 339.797 47.0697C339.72 49.0166 337.115 50.864 334.969 52.8958C330.148 55.2941 326.035 57.5539 321.923 59.8137Z" fill="#8299CF"/>
<path d="M193.818 366.008C193.711 368.498 194.657 369.917 197.088 371.196C202.435 374.01 202.383 377.282 197.164 380.357C184.342 387.911 171.612 395.652 158.46 402.589C155.001 404.414 150.142 403.586 145.664 403.6C149.469 400.357 148.301 396.677 147.155 392.674C156.739 386.908 166.132 381.392 175.596 376.001C181.615 372.573 187.74 369.333 193.818 366.008Z" fill="#7E96CE"/>
<path d="M269.318 317.982C269.331 315.222 269.954 312.612 269.957 310.001C270.018 261.959 270.005 213.916 270.017 165.396C272.267 166.06 274.507 167.202 276.524 168.742C275.866 171.121 275.058 173.102 275.055 175.084C274.983 221.162 275.014 267.241 274.955 313.319C274.952 315.585 274.305 317.851 273.958 320.116C272.518 319.455 271.079 318.793 269.318 317.982Z" fill="#C3CBE8"/>
<path d="M283.015 170.877C284.405 170.925 285.796 170.973 287.595 171.525C288 222.631 287.996 273.232 287.993 323.833C286.601 323.884 285.21 323.935 283.408 323.453C283.004 272.239 283.009 221.558 283.015 170.877Z" fill="#ABB9DE"/>
<path d="M310.71 33.9864C311.036 40.4065 311.003 46.7583 310.931 53.5825C309.457 53.3088 307.872 52.7562 306.608 51.785C299.205 46.0929 290.662 45.4555 281.355 45.9611C280.927 36.9282 280.972 27.9166 281.093 18.4401C289.573 22.6205 297.972 27.2718 306.382 31.9043C307.681 32.6197 309.028 33.2489 310.71 33.9864Z" fill="#CAD1EA"/>
<path d="M274.088 320.434C274.306 317.851 274.953 315.585 274.956 313.319C275.015 267.241 274.984 221.162 275.056 175.084C275.059 173.102 275.867 171.121 276.707 169.031C277.941 169.107 278.769 169.291 279.798 170.158C279.666 176.281 279.054 181.723 279.045 187.166C278.966 232.389 278.998 277.612 278.997 322.834C277.404 322.14 275.81 321.446 274.088 320.434Z" fill="#BAC4E4"/>
<path d="M299.996 321.992C299.129 322.454 298.262 322.915 297.206 323.601C296.845 323.865 296.675 323.905 296.251 323.425C295.999 310.095 296.012 297.285 295.999 284.475C295.959 246.545 295.908 208.616 295.861 170.686C297.032 170.182 298.203 169.678 299.688 169.569C300 220.64 299.998 271.316 299.996 321.992Z" fill="#92A6D5"/>
<path d="M295.478 170.736C295.907 208.616 295.958 246.545 295.998 284.475C296.011 297.285 295.998 310.095 295.995 323.362C294.924 323.873 293.855 323.927 292.392 323.449C292.002 272.305 292.006 221.694 292.011 171.083C293.039 170.984 294.067 170.884 295.478 170.736Z" fill="#9AABD8"/>
<path d="M291.611 171.049C292.006 221.694 292.002 272.305 291.996 323.374C290.925 323.883 289.855 323.933 288.389 323.908C287.997 273.232 288.001 222.631 288.011 171.572C289.082 171.082 290.147 171.048 291.611 171.049Z" fill="#A2B2DB"/>
<path d="M279.326 322.989C278.997 277.612 278.965 232.389 279.044 187.166C279.053 181.723 279.666 176.281 280.002 170.408C280.861 170.119 281.715 170.262 282.793 170.641C283.01 221.558 283.004 272.239 282.997 323.377C281.882 323.604 280.769 323.373 279.326 322.989Z" fill="#B3BFE1"/>
<path d="M167.044 342.466C166.756 343.977 166.2 345.012 166.139 346.075C165.598 355.459 164.574 356.762 154.486 359.501C154.088 344.052 154.069 329.111 154.35 313.982C158.483 311.505 162.316 309.214 166.149 306.923C166.43 308.452 166.943 309.978 166.954 311.508C167.031 321.673 167.001 331.838 167.044 342.466Z" fill="#8299CF"/>
<path d="M84.5282 364.181C87.8068 365.438 90.7143 366.905 93.9178 368.938C95.4865 369.996 96.7591 370.489 98.0318 370.982C98.0318 370.982 97.998 371.003 98.128 371.271C98.8517 371.689 99.4453 371.838 100.039 371.988C100.039 371.988 99.9926 371.998 100.021 372.333C101.709 373.44 103.369 374.21 105.029 374.981C105.029 374.981 104.998 375.002 105.125 375.273C105.848 375.693 106.444 375.841 107.04 375.989C107.04 375.989 106.992 375.998 107.015 376.331C108.036 377.103 109.033 377.542 110.03 377.981C110.03 377.981 109.999 378.003 110.13 378.271C110.851 378.687 111.442 378.835 112.032 378.983C112.032 378.983 111.997 379.003 112.125 379.273C112.848 379.691 113.442 379.839 114.037 379.986C114.037 379.986 113.993 379.997 114.022 380.332C115.044 381.104 116.038 381.543 117.032 381.981C117.032 381.981 117 382.004 117.135 382.266C117.857 382.68 118.442 382.83 119.028 382.981C119.028 382.981 118.999 383.001 119.071 383.239C119.439 383.647 119.735 383.818 120.032 383.988C120.032 383.988 119.996 384.002 120.139 384.297C122.531 385.722 124.781 386.851 127.032 387.98C127.032 387.98 127.001 388.004 127.151 388.255C127.878 388.665 128.454 388.823 129.03 388.982C129.03 388.982 128.997 389.002 129.112 389.277C130.16 390.354 131.094 391.155 132.018 392.392C131.302 395.568 130.596 398.31 129.89 401.052C120.81 396.075 111.722 391.111 102.653 386.113C99.5553 384.406 96.6861 382.068 93.3948 380.969C85.0408 378.181 82.5325 372.538 84.5282 364.181Z" fill="#CAD1EA"/>
<path d="M79.8048 190.389C85.6538 192.956 91.4481 195.87 97.2357 198.798C99.2751 199.83 101.298 200.894 103.694 201.952C109.894 198.943 115.723 195.916 121.563 192.913C123.462 191.937 125.391 191.022 127.668 190.063C130.081 191.386 132.134 192.726 135.002 194.598C128.518 198.53 122.71 202.062 116.892 205.575C114.963 206.74 112.895 207.707 111.082 209.026C105.086 213.39 100.014 210.819 94.7051 207.416C89.7358 204.23 84.339 201.717 79.2834 198.655C77.6136 197.644 76.4207 195.845 75.0098 194.407C76.589 193.185 78.1682 191.964 79.8048 190.389Z" fill="#E5E9F6"/>
<path d="M441.1 159.431C452.155 165.339 463.121 171.7 474.105 178.031C478.949 180.824 483.827 183.557 488.707 186.974C488.114 189.771 487.504 191.911 486.894 194.051C482.073 191.625 477.18 189.333 472.448 186.744C463.965 182.103 455.776 176.876 447.086 172.677C441.121 169.795 440.467 165.352 441.1 159.431Z" fill="#CAD1EA"/>
<path d="M154.049 314.17C154.068 329.111 154.087 344.052 154.12 359.453C153.309 359.872 152.484 359.831 151.353 359.447C150.984 349.029 150.922 338.952 150.777 328.553C148.074 326.152 145.454 324.075 142.834 321.997C142.894 317.629 142.955 313.26 143.442 308.482C147.262 310.106 150.655 312.138 154.049 314.17Z" fill="#C9CFEA"/>
<path d="M139.862 368.343C138.816 368.009 137.769 367.676 136.376 366.785C135.764 359.814 135.499 353.4 135.235 346.985C134.738 346.217 134.397 344.978 133.72 344.754C128.219 342.931 127.604 338.687 127.94 333.409C127.907 331.907 127.963 330.84 128.437 329.427C132.589 330.74 136.325 332.401 140.038 334.524C139.965 346.105 139.913 357.224 139.862 368.343Z" fill="#3B67FD"/>
<path d="M383.184 92.9689C383.639 92.0462 383.856 90.7925 384.593 90.2604C387.194 88.3839 389.841 86.4642 392.735 85.1398C394.497 84.3335 397.193 83.7425 398.688 84.533C402.656 86.6312 406.199 89.532 409.485 92.4948C405.101 94.9795 401.144 97.0829 396.801 99.1267C392.005 97.0343 387.594 95.0016 383.184 92.9689Z" fill="#EDF1F8"/>
<path d="M137.186 43.9679C137.483 43.1162 137.522 41.8807 138.121 41.4778C141.027 39.5235 144.184 37.9392 147.062 35.9484C151.518 32.8657 154.148 37.5416 157.612 38.4264C159.957 39.0253 161.826 41.489 163.48 43.4815C158.809 46.0005 154.567 48.1566 149.95 50.1909C145.445 48.0354 141.315 46.0017 137.186 43.9679Z" fill="#EDF1F8"/>
<path d="M49.1836 278.969C50.487 277.645 51.8284 276.357 53.0876 274.993C60.0806 267.417 66.6471 271.856 73.1944 275.732C74.2129 276.335 75.0077 277.316 75.4849 278.491C71.0895 280.955 67.115 283.05 62.7538 285.096C57.9725 283.02 53.5781 280.994 49.1836 278.969Z" fill="#EDF1F8"/>
<path d="M259.18 405.97C259.763 404.977 260.108 403.606 260.974 403.061C263.909 401.211 266.937 399.44 270.118 398.082C271.495 397.494 273.648 397.409 274.904 398.094C278.723 400.178 282.277 402.748 285.511 405.525C281.119 408.012 277.151 410.103 272.794 412.13C267.996 410.035 263.588 408.002 259.18 405.97Z" fill="#EEF1F8"/>
<path d="M445.184 309.967C446.134 308.639 446.852 307.011 448.088 306.051C450.094 304.494 452.379 303.254 454.666 302.12C455.918 301.499 457.84 300.632 458.729 301.144C462.931 303.565 466.882 306.424 470.501 309.531C466.134 312.03 462.187 314.124 457.868 316.122C453.392 314.007 449.288 311.987 445.184 309.967Z" fill="#EEF1F8"/>
<path d="M150.325 50.3127C154.567 48.1566 158.81 46.0005 163.418 43.8364C163.853 47.7556 164.016 51.6852 163.92 55.6085C163.899 56.4697 162.958 57.3085 161.891 58.5505C159.521 59.6508 157.714 60.3978 155.875 61.0551C153.884 61.7665 151.864 62.3942 149.918 62.5964C150.095 58.1938 150.21 54.2533 150.325 50.3127Z" fill="#8299CF"/>
<path d="M273.183 412.193C277.151 410.103 281.119 408.012 285.443 405.89C285.603 410.661 285.407 415.464 285.022 420.652C282.314 421.975 279.8 422.929 277.272 423.842C275.652 424.428 274.01 424.954 272.217 424.809C272.432 420.139 272.807 416.166 273.183 412.193Z" fill="#8299CF"/>
<path d="M63.1418 285.145C67.1163 283.05 71.0907 280.955 75.4245 278.847C75.8518 282.657 76.0444 286.486 75.9048 290.302C75.8674 291.325 74.8169 292.31 73.6728 293.672C71.2292 294.906 69.3921 295.912 67.4455 296.614C65.6395 297.266 63.7165 297.594 61.9102 297.607C62.3642 293.148 62.753 289.147 63.1418 285.145Z" fill="#859BD0"/>
<path d="M27.018 170.666C23.1162 172.673 19.3989 174.29 15.3298 175.961C15.0144 171.735 15.0509 167.458 15.1939 162.757C19.2402 160.226 23.18 158.12 27.4615 155.941C27.603 160.672 27.4028 165.475 27.018 170.666Z" fill="#8299CF"/>
<path d="M397.186 99.1864C401.143 97.0829 405.101 94.9795 409.415 92.8439C409.588 97.6465 409.405 102.481 408.675 107.656C404.756 109.433 401.382 110.869 397.712 111.984C397.339 107.504 397.262 103.345 397.186 99.1864Z" fill="#8299CF"/>
<path d="M62.755 285.096C62.753 289.147 62.3641 293.148 61.5484 297.587C57.4649 296.689 53.8082 295.354 50.1515 294.018C49.7738 289.308 49.396 284.598 49.1016 279.428C53.5793 280.994 57.9737 283.02 62.755 285.096Z" fill="#CAD1EA"/>
<path d="M458.241 316.218C462.188 314.124 466.135 312.03 470.431 309.88C470.79 314.407 470.799 318.99 470.088 323.859C465.491 325.8 461.614 327.455 457.818 328.647C458.014 324.196 458.127 320.207 458.241 316.218Z" fill="#8299CF"/>
<path d="M272.793 412.13C272.806 416.166 272.431 420.139 271.999 424.569C268.277 423.689 264.611 422.353 260.566 421.018C259.797 416.309 259.407 411.599 259.098 406.43C263.587 408.002 267.996 410.035 272.793 412.13Z" fill="#CAD1EA"/>
<path d="M149.95 50.1909C150.21 54.2533 150.095 58.1939 149.556 62.5787C145.37 61.6585 141.608 60.2941 137.846 58.9296C137.57 54.2484 137.294 49.5671 137.102 44.4269C141.316 46.0017 145.445 48.0354 149.95 50.1909Z" fill="#CAD1EA"/>
<path d="M457.87 316.122C458.128 320.207 458.015 324.196 457.472 328.613C453.318 327.373 449.594 325.704 445.869 324.035C445.585 319.651 445.301 315.268 445.102 310.426C449.29 311.987 453.394 314.006 457.87 316.122Z" fill="#CAD1EA"/>
<path d="M154.349 313.982C150.655 312.138 147.262 310.106 143.525 308.022C146.057 302.389 154.579 299.804 159.549 302.914C161.55 304.166 163.715 305.158 165.976 306.596C162.314 309.214 158.482 311.505 154.349 313.982Z" fill="#ECEFF8"/>
<path d="M466.016 77.9888C468.949 76.9538 471.932 75.2552 474.964 75.164C486.055 74.8303 497.163 74.9957 508.264 75.0466C514.165 75.0736 520.202 74.2159 525.455 77.6715C505.554 78.071 485.905 78.1274 466.257 78.1838C466.257 78.1838 466.088 78.0629 466.016 77.9888Z" fill="#1A50F3"/>
<path d="M140.06 334.062C136.325 332.401 132.589 330.74 128.504 329.031C130.607 324.362 138.09 320.601 142.467 321.986C145.454 324.075 148.075 326.152 150.433 328.63C146.801 330.707 143.431 332.385 140.06 334.062Z" fill="#1F50FF"/>
<path d="M193.977 365.666C187.74 369.333 181.615 372.573 175.596 376.001C166.132 381.392 156.739 386.908 146.805 392.687C145.192 393.339 144.091 393.676 142.565 394.011C140.443 393.984 138.746 393.958 136.858 393.713C136.119 393.32 135.57 393.146 135.015 392.589C134.996 391.949 134.985 391.694 134.973 391.438C139.232 390.674 144.022 390.905 147.658 388.969C161.681 381.505 175.377 373.419 189.076 365.364C190.883 364.301 192.005 362.072 193.717 360.172C194.039 361.749 194.087 363.536 193.977 365.666Z" fill="#7E90B9"/>
<path d="M445.807 324.395C449.592 325.704 453.316 327.373 457.388 329.076C461.613 327.455 465.49 325.8 469.721 324.088C470.381 324.932 471.067 325.898 470.926 326.723C470.312 330.302 458.045 335.354 454.908 333.482C452.296 331.924 449.436 330.718 447.045 328.886C446.108 328.168 446.15 326.171 445.807 324.395Z" fill="#E5E9F6"/>
<path d="M137.517 59.0906C141.607 60.294 145.369 61.6585 149.493 63.0407C151.863 62.3942 153.883 61.7665 155.874 61.0551C157.713 60.3978 159.52 59.6508 161.724 58.9144C162.788 59.5289 163.468 60.1724 164.485 61.1339C160.078 63.7481 156.05 66.2344 151.91 68.517C151.006 69.0151 149.448 69.2552 148.625 68.8106C144.961 66.8296 141.387 64.6542 137.949 62.3032C137.302 61.8609 137.422 60.2975 137.517 59.0906Z" fill="#E5E9F6"/>
<path d="M50.002 294.344C53.8073 295.354 57.464 296.689 61.4824 298.044C63.7156 297.594 65.6386 297.266 67.4446 296.614C69.3912 295.912 71.2283 294.906 73.4766 294.043C74.5482 294.623 75.2565 295.192 76.5087 296.198C72.1618 298.756 68.0922 301.284 63.8739 303.534C62.8768 304.066 61.1426 304.118 60.157 303.605C56.9319 301.925 53.8086 300.004 50.8491 297.892C50.1213 297.372 50.1645 295.772 50.002 294.344Z" fill="#E5E9F6"/>
<path d="M322.115 60.1176C326.036 57.5539 330.148 55.2941 334.634 53.045C335.171 53.3131 335.273 53.6863 335.508 53.8111C341.656 57.0811 341.714 57.7981 335.966 61.4718C334.628 62.3266 333.178 63.0051 331.455 63.9027C328.189 62.8344 325.249 61.6279 322.115 60.1176Z" fill="#E5E9F6"/>
<path d="M541.935 145.923C541.15 147.759 540.366 149.595 539.019 151.596C534.926 149.581 531.395 147.403 527.894 144.822C527.614 142.331 527.305 140.243 526.996 138.155C531.128 140.157 535.261 142.159 539.966 144.131C540.538 144.101 540.912 144.033 540.912 144.033C541.213 144.178 541.515 144.323 541.889 144.952C541.962 145.435 541.935 145.923 541.935 145.923Z" fill="#859FFC"/>
<path d="M396.801 99.1267C397.263 103.345 397.34 107.504 397.444 112.2C395.851 112.398 394.231 112.059 392.77 111.396C392.945 109.695 392.962 108.317 392.979 106.939C392.777 102.236 390.653 98.9039 386.229 97.0005C385.092 96.511 384.236 95.365 383.107 94.2056C382.962 93.8904 383.003 93.4129 383.094 93.1909C387.595 95.0017 392.006 97.0344 396.801 99.1267Z" fill="#C3CBE8"/>
<path d="M392.61 111.72C394.23 112.059 395.85 112.398 397.74 112.521C401.383 110.869 404.756 109.432 408.51 108.055C409.076 109.082 409.669 110.747 409.386 110.912C405.146 113.388 400.824 115.737 396.42 117.908C395.833 118.198 394.687 117.354 393.419 117.058C392.871 116.539 392.704 115.997 392.289 115.319C392.247 114.361 392.454 113.538 392.649 112.261C392.637 111.807 392.61 111.72 392.61 111.72Z" fill="#E5E9F6"/>
<path d="M466.533 78.4551C485.905 78.1274 505.553 78.071 525.684 78.0013C526.514 78.0135 526.774 78.1784 527.022 78.7095C507.002 78.8663 486.906 78.7963 466.533 78.4551Z" fill="#3B67FD"/>
<path d="M137.049 393.932C138.746 393.958 140.443 393.984 142.569 394.459C142.992 397.882 142.987 400.855 142.982 403.828C141.264 403.883 139.547 403.937 137.412 403.468C137.012 399.941 137.03 396.936 137.049 393.932Z" fill="#A2B2DB"/>
<path d="M136.858 393.713C137.03 396.936 137.012 399.941 136.989 403.389C134.725 403.127 132.466 402.42 130.049 401.383C130.597 398.31 131.303 395.568 132.334 392.431C133.446 392.348 134.233 392.661 135.02 392.973C135.569 393.146 136.118 393.32 136.858 393.713Z" fill="#BAC4E4"/>
<path d="M504.994 185.986C504.366 189.351 503.738 192.715 503.049 196.449C501.918 196.875 500.848 196.933 499.388 196.476C499.021 193.347 499.043 190.732 499.065 188.117C499.065 188.117 499.026 188.06 499.351 188.023C500.784 187.315 501.892 186.644 503.001 185.988C503.002 186.002 502.978 185.986 503.314 186.006C504.098 186.012 504.546 185.999 504.994 185.986Z" fill="#8CA0D3"/>
<path d="M418.305 237.276C418.377 231.625 418.928 225.847 418.944 220.067C418.958 215.288 418.341 210.507 418.021 205.288C422.067 212.086 421.112 219.934 420.677 227.665C420.517 230.503 419.6 233.3 419.05 236.529C418.898 237.011 418.725 237.079 418.305 237.276Z" fill="#E8EDF7"/>
<path d="M487.039 194.388C487.503 191.911 488.113 189.771 488.876 187.269C490.461 187.257 491.892 187.607 493.661 188.409C493.993 191.516 493.987 194.173 493.981 196.83C491.715 196.128 489.45 195.426 487.039 194.388Z" fill="#BAC4E4"/>
<path d="M494.392 196.91C493.987 194.173 493.993 191.516 494.025 188.483C495.442 188.081 496.834 188.057 498.645 188.075C499.042 190.732 499.019 193.347 498.991 196.398C497.591 196.887 496.197 196.939 494.392 196.91Z" fill="#A2B2DB"/>
<path d="M143.317 403.903C142.986 400.855 142.991 397.882 142.992 394.461C144.09 393.676 145.191 393.339 146.642 392.989C148.3 396.677 149.467 400.357 145.209 403.525C144.561 403.877 144.107 403.928 143.317 403.903Z" fill="#8CA0D3"/>
<path d="M546.882 147.735C545.944 147.635 544.941 147.198 543.939 146.405C544.899 146.5 545.858 146.949 546.882 147.735Z" fill="#7E96CE"/>
<path d="M416.928 200.66C416.242 200.179 415.624 199.363 415.025 198.191C415.695 198.665 416.345 199.495 416.928 200.66Z" fill="#E8EDF7"/>
<path d="M417.923 203.656C417.58 203.469 417.305 202.959 417.037 202.145C417.36 202.338 417.675 202.836 417.923 203.656Z" fill="#E8EDF7"/>
<path d="M548.911 148.711C548.375 148.915 547.767 148.796 547.053 148.374C547.578 148.176 548.208 148.282 548.911 148.711Z" fill="#7E96CE"/>
<path d="M542.267 146.029C541.935 145.923 541.962 145.435 541.985 145.192C542.621 145.108 543.233 145.267 543.902 145.746C543.505 146.089 543.052 146.112 542.267 146.029Z" fill="#7E96CE"/>
<path d="M540.873 143.828C540.912 144.033 540.539 144.101 540.349 144.101C540.16 144.101 540.132 143.64 540.155 143.411C540.483 143.2 540.702 143.348 540.873 143.828Z" fill="#7E96CE"/>
<path d="M498.878 186.305C497.235 186.191 495.592 186.077 493.49 185.931C509.849 180.983 522.815 170.583 537.326 163.144C540.574 161.479 543.766 159.661 546.792 157.629C548.201 156.683 549.151 155.055 550.493 153.404C550.644 154.898 550.612 156.724 550.007 158.789C548.95 159.353 548.465 159.678 547.979 160.003C547.979 160.003 548.004 160.007 547.703 159.997C546.927 160.325 546.453 160.664 545.979 161.002C545.979 161.002 546.004 161.006 545.747 161.063C545.32 161.414 545.15 161.708 544.981 162.002C544.981 162.002 545.003 162.005 544.692 161.983C543.915 162.305 543.449 162.65 542.983 162.994C542.983 162.994 543.001 163.002 542.695 162.99C541.92 163.319 541.449 163.66 540.979 164.002C540.979 164.002 541.004 164.007 540.701 163.997C539.925 164.325 539.452 164.664 538.979 165.002C538.979 165.002 539.004 165.006 538.751 165.068C538.325 165.42 538.153 165.711 537.981 166.001C537.981 166.001 538.003 166.004 537.691 165.979C536.914 166.301 536.448 166.649 535.982 166.996C535.982 166.996 536.002 167.003 535.696 166.99C534.919 167.319 534.449 167.661 533.978 168.004C533.978 168.004 534.005 168.007 533.749 168.066C533.322 168.417 533.151 168.709 532.981 169.001C532.981 169.001 533.002 169.004 532.688 168.965C531.909 169.284 531.444 169.643 530.979 170.001C530.979 170.001 531.004 170.006 530.694 169.984C529.916 170.306 529.449 170.651 528.982 170.995C528.982 170.995 529.002 171.003 528.693 170.986C527.916 171.312 527.448 171.656 526.98 172C526.98 172 527.003 172.006 526.702 172.004C525.926 172.336 525.452 172.67 524.978 173.003C524.978 173.003 525.005 173.006 524.723 173.105C524.278 173.563 524.113 173.923 523.948 174.282C521.26 175.84 518.572 177.398 515.204 178.964C514.007 179.317 513.491 179.662 512.974 180.006C512.974 180.006 513.006 180.011 512.707 180.009C511.926 180.342 511.445 180.678 510.963 181.013C510.963 181.013 511.003 181.008 510.69 181.033C509.576 181.708 508.775 182.357 507.975 183.007C507.975 183.007 508.007 183.012 507.702 183.001C506.923 183.329 506.449 183.668 505.975 184.006C505.975 184.006 506.007 184.01 505.747 184.064C505.317 184.415 505.147 184.712 504.977 185.009C504.977 185.009 505.006 185.006 504.689 184.972C503.906 185.287 503.441 185.637 502.977 185.986C502.977 185.986 503.001 186.002 502.587 185.932C501.075 186.009 499.977 186.157 498.878 186.305Z" fill="#7E90B9"/>
<path d="M508.334 183.027C508.776 182.357 509.576 181.708 510.698 181.014C510.244 181.663 509.468 182.355 508.334 183.027Z" fill="#C3CBE8"/>
<path d="M529.295 171.016C529.449 170.651 529.916 170.306 530.696 169.972C530.542 170.333 530.075 170.684 529.295 171.016Z" fill="#BAC4E4"/>
<path d="M541.295 164.016C541.451 163.66 541.921 163.319 542.697 162.98C542.538 163.332 542.074 163.682 541.295 164.016Z" fill="#BAC4E4"/>
<path d="M534.295 168.022C534.449 167.661 534.919 167.319 535.697 166.979C535.539 167.335 535.075 167.688 534.295 168.022Z" fill="#BAC4E4"/>
<path d="M513.305 180.021C513.49 179.662 514.006 179.317 514.853 178.967C514.667 179.319 514.151 179.677 513.305 180.021Z" fill="#C3CBE8"/>
<path d="M511.285 181.026C511.445 180.678 511.927 180.342 512.712 179.994C512.546 180.333 512.077 180.686 511.285 181.026Z" fill="#C3CBE8"/>
<path d="M506.293 184.025C506.451 183.668 506.925 183.329 507.708 182.985C507.548 183.335 507.079 183.69 506.293 184.025Z" fill="#C3CBE8"/>
<path d="M536.295 167.017C536.448 166.649 536.914 166.301 537.692 165.968C537.538 166.334 537.073 166.685 536.295 167.017Z" fill="#BAC4E4"/>
<path d="M546.299 161.029C546.454 160.664 546.928 160.325 547.707 159.985C547.546 160.34 547.082 160.698 546.299 161.029Z" fill="#BAC4E4"/>
<path d="M503.312 186.006C503.442 185.637 503.907 185.287 504.687 184.957C505.012 185.146 505.021 185.314 505.011 185.734C504.544 185.999 504.096 186.012 503.312 186.006Z" fill="#C3CBE8"/>
<path d="M548.287 160.003C548.464 159.678 548.95 159.353 549.746 159.004C549.569 159.321 549.082 159.662 548.287 160.003Z" fill="#BAC4E4"/>
<path d="M531.291 170.009C531.446 169.643 531.911 169.284 532.69 168.954C532.537 169.327 532.069 169.672 531.291 170.009Z" fill="#BAC4E4"/>
<path d="M543.297 163.018C543.45 162.65 543.917 162.305 544.695 161.971C544.541 162.335 544.075 162.689 543.297 163.018Z" fill="#BAC4E4"/>
<path d="M525.297 173.025C525.453 172.67 525.927 172.336 526.705 171.992C526.544 172.337 526.079 172.692 525.297 173.025Z" fill="#BAC4E4"/>
<path d="M527.297 172.028C527.449 171.656 527.917 171.312 528.694 170.975C528.54 171.34 528.076 171.698 527.297 172.028Z" fill="#BAC4E4"/>
<path d="M539.299 165.031C539.452 164.664 539.925 164.325 540.704 163.984C540.546 164.341 540.082 164.7 539.299 165.031Z" fill="#BAC4E4"/>
<path d="M538.245 165.939C538.153 165.711 538.325 165.42 538.752 165.055C538.841 165.279 538.674 165.577 538.245 165.939Z" fill="#BAC4E4"/>
<path d="M545.25 161.945C545.151 161.708 545.321 161.414 545.749 161.05C545.844 161.283 545.681 161.585 545.25 161.945Z" fill="#BAC4E4"/>
<path d="M524.203 174.127C524.114 173.923 524.279 173.563 524.727 173.092C524.825 173.311 524.641 173.642 524.203 174.127Z" fill="#BAC4E4"/>
<path d="M533.239 168.931C533.152 168.709 533.322 168.417 533.75 168.053C533.838 168.274 533.668 168.568 533.239 168.931Z" fill="#BAC4E4"/>
<path d="M505.242 184.945C505.148 184.712 505.317 184.415 505.75 184.048C505.843 184.279 505.675 184.58 505.242 184.945Z" fill="#C3CBE8"/>
<path d="M311.121 306.713C310.536 308.593 309.53 310.456 309.458 312.355C309.323 315.927 307.547 318.109 304.312 319.374C303.999 270.688 304.014 222.316 303.949 173.944C303.946 171.919 303.193 169.895 302.789 167.87C304.281 166.905 305.773 165.939 307.597 164.904C308.286 167.61 308.949 170.385 308.954 173.162C309.02 214.554 308.984 255.947 309.052 297.34C309.055 299.167 309.818 300.993 310.656 303.284C311.096 304.736 311.109 305.725 311.121 306.713Z" fill="#859BD0"/>
<path d="M302.491 167.924C303.193 169.895 303.946 171.919 303.949 173.944C304.015 222.316 304 270.688 303.999 319.528C302.881 320.644 301.765 321.292 300.322 321.966C299.998 271.316 299.999 220.64 300.003 169.498C300.734 168.681 301.463 168.329 302.491 167.924Z" fill="#8CA0D3"/>
<path d="M392.768 111.396C392.609 111.72 392.636 111.807 392.606 111.84C372.257 123.601 351.949 135.346 331.616 147.05C322.097 152.529 312.597 158.046 302.945 163.283C300.378 164.676 297.282 165.093 294.496 165.219C309.22 156.898 323.959 148.605 338.663 140.25C354.578 131.206 370.495 122.164 386.32 112.964C388.679 111.592 390.539 109.361 392.803 107.234C392.961 108.317 392.944 109.695 392.768 111.396Z" fill="#275393"/>
<path d="M196.386 117.694C193.47 115.959 190.875 114.421 188.279 112.883C188.534 112.46 188.788 112.037 189.042 111.614C192.784 113.719 196.526 115.823 200.268 117.928C200.124 118.282 199.979 118.636 199.835 118.99C198.792 118.624 197.749 118.258 196.386 117.694Z" fill="#7E90B9"/>
<path d="M205.56 122.497C203.897 121.653 202.234 120.81 200.57 119.966C200.757 119.572 200.945 119.178 201.132 118.783C202.709 119.575 204.286 120.366 205.89 121.626C205.798 122.229 205.679 122.363 205.56 122.497Z" fill="#7E90B9"/>
<path d="M210.721 125.575C209.509 124.965 208.624 124.375 207.738 123.784C208.032 123.413 208.325 123.042 208.618 122.671C209.428 123.646 210.238 124.62 210.721 125.575Z" fill="#7E90B9"/>
<path d="M206.103 121.903C206.581 122.008 206.87 122.304 207.16 122.601C206.786 122.708 206.412 122.815 205.798 122.709C205.678 122.363 205.796 122.229 206.103 121.903Z" fill="#7E90B9"/>
<path d="M311.363 306.988C311.108 305.725 311.096 304.737 311.053 303.375C313.957 298.744 316.614 294.257 319.894 290.284C324.776 284.367 330.099 278.812 335.805 273.354C339.23 275.103 342.084 276.601 344.791 278.387C340.602 283.441 336.74 288.376 332.474 292.932C326.821 298.968 321.262 304.893 322.888 314.152C318.885 312.253 313.513 312.596 311.363 306.988Z" fill="#ECEFF8"/>
<path d="M376.993 186.542C375.841 187.544 374.762 188.208 373.009 188.911C371.558 189.637 370.781 190.323 370.005 191.01C370.005 191.01 370.001 191.001 370.006 191.003C364.835 193.444 359.653 195.871 354.488 198.334C353.63 198.743 352.845 199.304 351.723 199.976C350.45 196.961 350.971 195.15 353.686 193.68C362.261 189.037 370.747 184.227 379.287 179.517C379.81 179.228 380.502 179.244 381.155 179.11C383.688 183.949 378.278 183.823 376.993 186.542Z" fill="#546AA0"/>
<path d="M368.646 152.673C372.942 150.261 376.915 148.023 380.887 145.785C381.245 146.045 381.603 146.306 381.961 146.566C381.526 147.913 381.506 149.955 380.593 150.501C371.128 156.152 361.519 161.562 351.95 167.039C351.504 166.613 351.057 166.187 350.611 165.761C351.764 164.154 352.587 162.038 354.133 161.037C358.71 158.071 363.571 155.546 368.646 152.673Z" fill="#546AA0"/>
<path d="M378.807 138.636C380.049 138.775 380.959 139.084 381.869 139.393C381.215 140.601 380.87 142.316 379.856 142.931C374.464 146.203 368.914 149.217 363.399 152.285C359.695 154.346 355.959 156.349 352.237 158.378C351.739 157.881 351.242 157.383 350.744 156.885C351.876 155.409 352.705 153.419 354.191 152.541C362.196 147.811 370.364 143.357 378.807 138.636Z" fill="#546AA0"/>
<path d="M352.952 186.068C362.37 180.812 371.454 175.734 380.539 170.657C380.93 170.894 381.321 171.131 381.712 171.368C381.418 172.71 381.567 174.808 380.764 175.278C371.36 180.774 361.813 186.025 352.304 191.341C351.861 191.04 351.418 190.74 350.975 190.439C351.522 189.041 352.07 187.643 352.952 186.068Z" fill="#546AA0"/>
<path d="M376.593 169.636C368.232 174.285 360.184 178.735 352.136 183.185C351.684 182.831 351.232 182.477 350.779 182.124C351.568 180.719 352.003 178.716 353.203 178.004C362.409 172.547 371.764 167.341 381.269 161.946C383.096 166.907 379.038 167.555 376.593 169.636Z" fill="#546AA0"/>
<path d="M376.381 156.342C378.175 155.495 379.646 154.826 382.694 153.441C381.517 156.248 381.323 158.387 380.241 159.029C370.916 164.561 361.432 169.822 351.995 175.164C351.503 174.653 351.011 174.141 350.52 173.629C351.846 172.009 352.866 169.883 354.553 168.857C361.613 164.564 368.873 160.602 376.381 156.342Z" fill="#546AA0"/>
<path d="M344.939 278.1C342.085 276.601 339.231 275.103 336.15 273.342C337.278 270.569 338.632 268.057 340.031 265.175C343.418 266.221 346.759 267.639 350.449 269.138C351.446 269.926 352.093 270.631 352.431 271.682C350.078 273.97 348.034 275.911 345.721 277.886C345.28 277.98 345.11 278.04 344.939 278.1Z" fill="#7E90B9"/>
<path d="M361.836 198.748C359.799 201.479 357.568 203.95 355.143 206.692C353.845 207.193 352.74 207.425 351.628 207.658C350.937 203.227 354.26 200.239 361.836 198.748Z" fill="#546AA0"/>
<path d="M247.008 166.324C247.17 166.36 247.354 166.358 247.491 166.437C264.177 176.021 261.079 171.67 261.188 189.021C261.36 216.599 261.216 244.179 261.186 271.758C261.184 273.684 261.019 275.61 260.872 278.796C255.431 275.742 250.897 273.197 246.308 270.026C246.854 267.062 248.615 264.495 245.002 262.526C245.081 241.369 245.144 220.679 245.339 199.914C245.704 199.576 245.691 199.318 245.434 198.878C245.435 198.693 245.427 198.322 245.713 198.319C246.546 198.162 247.094 198.008 248.164 197.923C249.036 198.025 249.386 198.058 249.798 198.512C249.876 204.396 249.77 209.862 249.962 215.318C250.052 217.857 250.723 220.375 251.137 223.377C251.134 228.841 251.121 233.83 251.117 238.819C251.112 243.642 251.088 248.465 251.123 253.287C251.157 257.942 251.255 262.597 251.324 267.253C251.939 267.205 252.553 267.158 253.167 267.11C253.167 252.833 253.167 238.555 253.459 224.189C254.129 223.963 254.507 223.824 255.242 223.49C255.455 214.484 255.312 205.674 255.087 196.877C255.006 196.89 255.165 196.842 255.065 196.579C254.621 196.266 254.276 196.216 253.909 196.067C253.886 195.968 254.046 195.844 253.903 195.652C253.524 195.227 253.241 195.09 252.951 195.032C252.99 195.013 252.944 195.087 252.967 194.613C252.99 187.628 252.99 181.118 252.99 174.608C252.318 174.618 251.647 174.629 250.975 174.64C250.975 176.718 251.068 178.801 250.957 180.873C250.703 185.616 250.35 190.353 250.021 195.056C250.005 195.021 250.077 195.05 249.582 195.01C248.757 194.959 248.426 194.95 248.034 194.525C247.936 191.643 247.965 189.174 247.85 186.712C247.593 181.187 247.264 175.665 246.975 169.76C246.993 168.36 247.001 167.342 247.008 166.324Z" fill="#1A50F3"/>
<path d="M203.663 246.132C196.094 243.213 195.056 241.791 195.059 234.241C195.07 204.146 195.077 174.051 195.126 143.955C195.129 142.055 195.477 140.155 195.764 137.25C199.552 139.347 202.527 140.993 205.749 143.307C205.969 145.385 205.942 146.794 205.498 148.149C204.747 152.751 204.412 157.408 203.802 162.341C203.105 163.614 202.331 164.604 202.314 165.608C202.195 172.732 202.109 179.862 202.307 186.981C202.352 188.636 203.53 190.259 204.092 192.364C203.972 207.575 203.903 222.318 204.006 237.06C204.015 238.26 205.199 239.451 205.881 241.079C205.171 243.052 204.417 244.592 203.663 246.132Z" fill="#0A4EBC"/>
<path d="M203.879 246.409C204.416 244.592 205.171 243.052 205.875 240.641C205.936 223.909 206.048 208.047 206.554 192.048C207.345 191.235 208.079 190.563 208.086 189.883C208.173 182.115 208.245 174.343 208.051 166.58C208.021 165.395 206.618 164.244 205.872 162.607C205.9 157.492 205.907 152.847 205.914 148.203C205.942 146.794 205.969 145.385 205.996 143.554C209.468 145.036 212.94 146.94 216.701 149.502C216.994 158.078 217.149 165.999 216.891 173.907C216.832 175.718 215.349 177.482 214.297 179.239C213.807 179.066 213.536 178.931 213.287 178.349C213.312 169.504 213.312 161.113 213.312 152.722C212.762 152.722 212.211 152.721 211.66 152.721C211.66 161.381 211.66 170.041 211.28 178.86C210.629 186.562 210.187 194.106 210.195 201.649C210.198 203.741 211.538 205.832 212.168 208.389C212.072 220.706 212.072 232.558 212.072 244.41C212.468 244.41 212.864 244.409 213.259 244.408C213.259 232.335 213.259 220.262 213.593 208.185C214.553 207.972 215.18 207.762 215.891 207.986C216.801 211.681 217.627 214.944 218.334 218.648C218.314 227.985 218.412 236.881 218.17 245.989C216.725 248.219 215.62 250.237 214.516 252.256C211.042 250.399 207.569 248.543 203.879 246.409Z" fill="#0E4FC5"/>
<path d="M246.732 166.101C247.001 167.342 246.993 168.36 246.594 169.662C245.017 169.601 243.832 169.257 241.993 168.722C241.993 177.846 241.92 186.27 242.08 194.691C242.102 195.812 243.309 196.91 243.901 198.482C243.821 218.647 243.778 238.348 243.845 258.049C243.85 259.699 244.589 261.346 244.986 262.994C248.615 264.495 246.854 267.062 246.096 269.76C243.475 268.813 241.011 267.504 238.331 265.617C238.156 263.311 238.489 261.529 238.175 259.869C237.677 257.229 236.425 254.711 236.087 252.066C235.71 249.117 235.999 246.083 236.312 242.99C237.4 242.55 238.175 242.206 239.22 241.862C239.545 241.542 239.598 241.221 239.697 240.44C239.76 233.176 239.978 226.363 239.667 219.574C239.58 217.681 237.932 215.86 237.062 213.54C237.101 197.376 237.077 181.677 237.359 165.813C238.119 164.395 238.574 163.142 239.029 161.888C241.504 163.219 243.98 164.549 246.732 166.101Z" fill="#1F55E4"/>
<path d="M214.521 179.268C215.349 177.482 216.831 175.718 216.891 173.907C217.149 165.999 216.994 158.078 216.982 149.711C219.885 150.863 222.794 152.465 225.889 154.779C226.379 163.272 226.683 171.054 226.689 179.151C226.276 187.551 226.058 195.636 226.139 203.718C226.154 205.144 227.421 206.557 228.029 208.432C227.861 212.587 227.772 216.286 227.299 219.989C225.889 220.017 224.864 220.04 223.565 219.948C222.523 219.224 221.753 218.617 221.054 217.544C221.125 197.265 221.125 177.45 221.125 157.636C220.723 157.637 220.321 157.638 219.919 157.639C219.919 177.742 219.919 197.844 219.679 218.021C219.11 218.133 218.781 218.17 218.452 218.207C217.627 214.944 216.801 211.681 215.961 207.553C215.988 199.052 216.113 191.414 216 183.78C215.977 182.269 215.038 180.772 214.521 179.268Z" fill="#1855CD"/>
<path d="M235.998 243.086C235.998 246.083 235.709 249.117 236.086 252.066C236.424 254.711 237.676 257.229 238.174 259.869C238.488 261.529 238.155 263.311 238.058 265.397C234.427 263.818 230.849 261.882 227.102 259.286C227.29 257.074 227.649 255.52 228.38 253.751C228.9 238.5 229.048 223.464 229.615 208.408C230.669 207.385 231.831 206.393 231.854 205.375C232.021 198.081 232.048 190.779 231.876 183.486C231.847 182.233 230.661 181.007 230.007 179.315C229.37 171.12 228.735 163.378 228.1 155.637C231.605 157.545 235.11 159.454 238.822 161.626C238.573 163.142 238.118 164.395 236.975 166.022C236.192 181.941 236.096 197.486 235.63 213.188C234.843 214.826 234.1 216.301 234.067 217.791C233.931 223.917 233.832 230.056 234.101 236.174C234.204 238.501 235.335 240.784 235.998 243.086Z" fill="#1D55DC"/>
<path d="M219.182 274.798C215.273 272.57 211.753 270.368 208.03 268.588C204.395 266.85 203.232 264.342 204.689 259.81C206.615 260.755 208.434 261.568 210.177 262.519C213.662 264.419 217.037 266.53 220.584 268.3C224.363 270.188 226.086 272.838 224.529 277.693C222.791 276.768 221.136 275.888 219.182 274.798Z" fill="#8299CF"/>
<path d="M214.742 252.532C215.621 250.237 216.726 248.219 218.455 246.103C219.583 246.981 220.086 247.956 220.504 248.766C221.694 248.116 222.769 247.528 224.226 246.957C225.623 246.987 226.64 247.001 227.742 247.435C227.78 249.566 227.734 251.277 227.355 253.082C226.308 254.934 225.593 256.691 224.878 258.448C221.575 256.568 218.271 254.688 214.742 252.532Z" fill="#1855CD"/>
<path d="M227.908 155.428C228.734 163.378 229.369 171.12 229.685 179.249C228.573 179.369 227.779 179.102 226.986 178.835C226.682 171.054 226.379 163.272 226.119 155.009C226.681 154.759 227.199 154.989 227.908 155.428Z" fill="#1F58D5"/>
<path d="M199.21 256.747C200.091 258.79 200.67 260.581 201.248 262.372C200.52 262.728 199.792 263.083 199.064 263.438C198.039 261.689 197.015 259.94 195.99 258.192C196.963 257.626 197.935 257.061 199.21 256.747Z" fill="#859BD0"/>
<path d="M225.068 258.653C225.591 256.691 226.306 254.934 227.459 253.318C227.934 253.629 227.971 253.798 228.007 253.966C227.649 255.52 227.29 257.074 226.888 259.035C226.317 259.247 225.789 259.053 225.068 258.653Z" fill="#1F58D5"/>
<path d="M344.792 278.387C345.109 278.04 345.28 277.98 345.859 278.229C347.909 282.71 349.551 286.881 351.193 291.052C345.037 298.648 338.948 306.3 332.693 313.815C330.019 317.028 326.691 316.774 323.112 314.452C321.263 304.893 326.822 298.968 332.475 292.932C336.741 288.376 340.603 283.441 344.792 278.387Z" fill="#CAD1EB"/>
<path d="M351.46 290.886C349.552 286.881 347.909 282.71 346.129 278.196C348.035 275.911 350.078 273.97 352.441 271.979C354.29 275.162 355.992 278.328 357.246 281.662C357.624 282.666 356.76 284.137 356.258 285.662C354.609 287.527 353.168 289.124 351.46 290.886Z" fill="#AAB4C0"/>
<path d="M478.126 115.023C476.408 113.84 474.69 112.657 472.168 110.92C476.421 108.167 480.148 105.74 483.896 103.344C484.711 102.822 485.705 102.542 486.438 101.934C493.025 96.475 499.011 96.3266 505.67 102.47C509.24 105.764 514.397 107.338 519.798 110.196C517.256 112.132 515.746 113.282 513.685 114.762C507.576 117.612 507.586 117.606 510.704 122.59C510.946 122.977 510.917 123.535 510.842 124.256C510.115 124.67 509.559 124.842 508.732 124.725C500.362 124.342 492.262 124.235 484.163 124.19C483.776 124.188 483.387 124.73 482.656 124.96C481.865 123.943 481.416 122.984 481.174 121.749C485.231 118.089 484.835 117.303 478.126 115.023Z" fill="#D3DDFF"/>
<path d="M463.961 138.822C468.236 136.078 472.511 133.335 477.239 130.389C479.439 131.14 481.187 132.095 482.966 133.342C483.007 133.832 483.016 134.029 482.847 134.506C476.466 138.232 470.266 141.677 464.044 144.675C464.002 142.426 463.982 140.624 463.961 138.822Z" fill="#708FFD"/>
<path d="M526.802 137.864C527.304 140.243 527.613 142.331 527.554 144.722C521.13 141.416 515.074 137.807 509.117 133.871C511.108 132.341 513 131.139 514.892 129.937C518.798 132.482 522.703 135.028 526.802 137.864Z" fill="#708FFD"/>
<path d="M482.934 133.049C481.186 132.095 479.438 131.14 477.379 130.072C475.757 129.089 474.445 128.22 471.6 126.336C473.94 124.778 475.525 123.723 477.497 122.32C478.911 121.99 479.938 122.007 480.965 122.025C481.414 122.984 481.863 123.943 482.846 125.226C485.598 127.05 487.815 128.549 489.856 130.356C487.431 131.458 485.182 132.253 482.934 133.049Z" fill="#B7C6FF"/>
<path d="M515.204 129.753C513.001 131.139 511.109 132.341 508.746 133.815C507.526 134.085 506.776 134.084 505.888 133.786C504.501 132.354 503.252 131.219 502.188 129.801C504.582 128.016 506.793 126.515 509.003 125.014C509.559 124.842 510.115 124.67 511.163 124.208C512.729 123.266 513.801 122.615 514.874 121.963C515.222 122.647 515.39 123.633 515.948 123.966C519.685 126.198 518.431 127.921 515.204 129.753Z" fill="#B7C6FF"/>
<path d="M463.605 138.893C463.981 140.624 464.001 142.426 463.855 144.952C459.99 147.884 456.294 150.092 452.597 152.3C452.426 150.216 452.254 148.132 452.062 145.6C455.778 143.089 459.514 141.027 463.605 138.893Z" fill="#859FFC"/>
<path d="M515.197 121.874C513.801 122.615 512.728 123.266 511.334 123.965C510.916 123.535 510.945 122.977 510.703 122.59C507.585 117.606 507.575 117.612 513.481 115.062C515.486 116.187 517.144 117.342 519.451 118.951C517.725 120.196 516.623 120.991 515.197 121.874Z" fill="#C8D4FF"/>
<path d="M481.173 121.749C479.939 122.007 478.912 121.99 477.499 121.968C475.789 121.184 474.463 120.405 472.396 119.19C474.562 117.585 476.055 116.478 477.837 115.197C484.834 117.303 485.231 118.089 481.173 121.749Z" fill="#C8D4FF"/>
<path d="M395.996 204.023C400.958 202.54 404.282 205.103 406.85 208.787C412.518 216.918 411.807 226.151 410.313 235.136C408.256 247.499 402.548 258.385 393.872 267.367C389.052 272.358 383.26 276.627 375.612 275.926C373.466 275.729 371.421 274.438 369.488 273.208C371.155 272.256 372.664 271.744 374.535 271.214C381.447 268.591 386.555 264.35 390.164 257.901C394.3 249.958 398.198 242.19 401.801 234.289C402.287 233.223 401.291 231.481 401.15 229.666C401.99 223.454 403.448 217.578 400.14 211.635C399.695 210.108 399.314 208.952 398.757 207.554C397.718 206.215 396.857 205.119 395.996 204.023Z" fill="#ECEFF8"/>
<path d="M362.252 266.968C358.975 259.29 359.63 251.53 362.254 243.313C363.8 241.319 364.954 239.804 365.902 238.169C367.654 235.15 369.285 232.06 371.288 229.136C375.407 231.851 379.205 234.429 383.002 237.004C383.001 236.999 383.008 237.002 382.649 237.037C377.631 239.656 372.972 242.24 367.108 245.491C371.355 247.427 374.177 248.713 376.856 250.325C374.494 255.105 372.273 259.558 369.68 264.011C366.955 264.997 364.603 265.982 362.252 266.968Z" fill="#3B67FD"/>
<path d="M383.003 237.008C379.205 234.429 375.407 231.851 371.299 228.762C371.33 224.224 374.051 222.332 377.368 220.737C379.023 219.941 380.356 218.474 381.834 217.31C380.165 216.178 378.496 215.045 376.828 213.913C380.762 209.094 385.184 205.016 392.14 204.513C394.699 211.395 389.41 213.989 385.422 217.272C387.669 218.975 389.492 220.356 391.01 221.955C389.145 226.13 387.585 230.087 386.008 234.029C385.993 234.013 386.036 234.009 385.81 234.104C385.302 234.39 385.112 234.649 385.004 235.305C385.006 236.073 385.017 236.512 384.692 236.963C383.903 236.987 383.453 236.997 383.003 237.008Z" fill="#466EFC"/>
<path d="M383.001 237.004C383.453 236.997 383.903 236.987 384.998 237.128C388.614 238.404 387.887 240.256 386.83 242.422C383.064 250.132 379.36 257.874 375.761 265.663C374.961 267.395 374.688 269.369 374.172 271.232C372.663 271.744 371.155 272.256 369.316 272.879C368.819 272.935 368.651 272.878 368.109 272.524C368.508 269.488 369.28 266.75 370.052 264.012C372.273 259.558 374.493 255.105 377.001 250.008C379.195 245.243 381.101 241.122 383.007 237.002C383.007 237.002 383 236.999 383.001 237.004Z" fill="#2958FA"/>
<path d="M376.544 214.079C378.497 215.045 380.166 216.178 381.835 217.31C380.357 218.474 379.024 219.941 377.369 220.737C374.052 222.332 371.331 224.224 370.979 228.626C369.286 232.06 367.654 235.15 365.902 238.169C364.954 239.804 363.801 241.319 362.398 242.939C364.285 232.169 369.103 222.63 376.544 214.079Z" fill="#2958FA"/>
<path d="M391.314 221.737C389.492 220.356 387.669 218.975 385.422 217.272C389.41 213.989 394.699 211.395 392.492 204.469C393.307 204.035 394.204 204.018 395.548 204.012C396.857 205.119 397.718 206.215 398.416 207.698C396.112 212.601 393.971 217.118 391.695 221.626C391.559 221.616 391.314 221.737 391.314 221.737Z" fill="#FBFBFD"/>
<path d="M369.679 264.011C369.28 266.75 368.508 269.488 367.843 272.512C363.663 273.692 364.269 269.311 362.312 267.297C364.602 265.982 366.954 264.997 369.679 264.011Z" fill="#466EFC"/>
<path d="M140.037 334.524C143.43 332.385 146.801 330.707 150.516 328.953C150.922 338.952 150.984 349.029 151.122 359.571C149.544 361.781 148.054 363.732 146.188 365.209C144.552 366.504 142.495 367.269 140.242 368.305C139.912 357.224 139.963 346.105 140.037 334.524Z" fill="#044BB2"/>
<path d="M125.102 377.913C121.568 376.172 117.992 374.508 114.536 372.625C113.82 372.235 113.146 371.035 113.134 370.199C113.027 362.627 113.072 355.052 113.072 346.416C117.467 348.576 120.928 350.277 124.712 352.493C125.057 361.31 125.08 369.612 125.102 377.913Z" fill="#CAD1EA"/>
<path d="M125.423 377.811C125.08 369.612 125.057 361.31 125.078 352.55C128.242 350.399 131.364 348.706 134.861 346.999C135.5 353.4 135.765 359.814 136.048 366.712C137.114 371.589 134.137 373.319 130.962 374.94C129.209 375.835 127.483 376.784 125.423 377.811Z" fill="#8299CF"/>
<path d="M127.02 387.627C124.782 386.851 122.532 385.722 120.145 384.279C122.341 385.069 124.675 386.172 127.02 387.627Z" fill="#92A6D5"/>
<path d="M135.014 392.589C134.234 392.66 133.447 392.348 132.344 391.996C131.095 391.155 130.161 390.354 129.117 389.258C130.833 389.67 132.658 390.376 134.728 391.26C134.984 391.694 134.996 391.949 135.014 392.589Z" fill="#92A6D5"/>
<path d="M104.887 374.678C103.369 374.21 101.709 373.44 100.029 372.311C101.588 372.761 103.166 373.568 104.887 374.678Z" fill="#92A6D5"/>
<path d="M97.8792 370.673C96.7595 370.489 95.4869 369.996 94.0996 369.156C95.2321 369.327 96.4792 369.846 97.8792 370.673Z" fill="#92A6D5"/>
<path d="M116.927 381.674C116.039 381.543 115.045 381.104 114.031 380.311C114.948 380.426 115.884 380.897 116.927 381.674Z" fill="#92A6D5"/>
<path d="M109.92 377.676C109.033 377.542 108.035 377.103 107.023 376.308C107.942 376.425 108.876 376.898 109.92 377.676Z" fill="#92A6D5"/>
<path d="M111.889 378.707C111.442 378.835 110.852 378.687 110.133 378.252C110.585 378.121 111.166 378.276 111.889 378.707Z" fill="#92A6D5"/>
<path d="M99.8682 371.737C99.4467 371.838 98.8531 371.689 98.1309 371.251C98.5669 371.138 99.1315 371.312 99.8682 371.737Z" fill="#92A6D5"/>
<path d="M106.865 375.741C106.445 375.841 105.849 375.693 105.129 375.255C105.566 375.141 106.127 375.318 106.865 375.741Z" fill="#92A6D5"/>
<path d="M113.873 379.729C113.442 379.839 112.848 379.691 112.127 379.253C112.57 379.132 113.139 379.302 113.873 379.729Z" fill="#92A6D5"/>
<path d="M128.925 388.675C128.454 388.823 127.878 388.665 127.154 388.236C127.611 388.1 128.215 388.234 128.925 388.675Z" fill="#92A6D5"/>
<path d="M118.892 382.701C118.443 382.83 117.857 382.68 117.137 382.247C117.587 382.117 118.171 382.269 118.892 382.701Z" fill="#92A6D5"/>
<path d="M120.002 383.712C119.736 383.818 119.439 383.647 119.076 383.222C119.33 383.124 119.651 383.28 120.002 383.712Z" fill="#92A6D5"/>
<path d="M370.328 191.019C370.78 190.323 371.557 189.637 372.694 188.987C372.254 189.692 371.453 190.36 370.328 191.019Z" fill="#7F97CD"/>
<path d="M452.486 152.634C456.294 150.092 459.99 147.884 463.876 145.399C470.265 141.677 476.466 138.232 483.202 134.475C485.544 134.984 487.405 135.7 489.144 136.644C496.848 140.825 499.045 140.516 506.026 134.083C506.775 134.084 507.525 134.085 508.647 134.142C515.075 137.807 521.13 141.416 527.525 145.125C531.395 147.403 534.926 149.581 538.785 151.886C538.238 153.909 537.884 156.666 536.403 157.566C525.023 164.481 513.449 171.08 501.879 177.678C497.966 179.91 493.921 179.76 489.991 177.512C478.575 170.979 467.11 164.529 455.806 157.808C454.252 156.885 453.5 154.614 452.486 152.634Z" fill="#2051FF"/>
<path d="M470.314 171.77C471.048 172.331 471.487 172.745 471.925 173.159C471.781 173.392 471.637 173.626 471.493 173.859C470.354 173.297 469.214 172.735 468.074 172.173C468.164 171.908 468.254 171.644 468.344 171.38C468.902 171.461 469.46 171.543 470.314 171.77Z" fill="#A2B2DB"/>
<path d="M462.752 169.298C462.185 168.67 461.898 168.185 461.611 167.699C462.632 168.199 463.652 168.699 464.673 169.199C464.126 169.28 463.578 169.36 462.752 169.298Z" fill="#A2B2DB"/>
<path d="M476.199 175.782C477.397 176.287 478.595 176.792 479.881 177.669C479.969 178.04 479.772 178.245 479.772 178.245C478.582 177.732 477.392 177.218 476.107 176.341C476.012 175.977 476.199 175.782 476.199 175.782Z" fill="#A2B2DB"/>
<path d="M498.914 186.585C499.978 186.157 501.076 186.009 502.587 185.917C501.891 186.644 500.783 187.315 499.337 187.991C498.982 187.62 498.965 187.243 498.914 186.585Z" fill="#C3CBE8"/>
<path d="M483.221 179.761C484.037 180.061 484.854 180.361 485.67 180.661C485.57 180.941 485.47 181.22 485.37 181.499C484.631 181.223 483.893 180.947 483.089 180.318C483.024 179.966 483.221 179.761 483.221 179.761Z" fill="#A2B2DB"/>
<path d="M466.658 170.392C466.687 170.593 466.581 170.725 466.488 170.717C466.394 170.709 466.313 170.561 466.227 170.474C466.327 170.403 466.427 170.332 466.658 170.392Z" fill="#A2B2DB"/>
<path d="M473.363 174.366C473.598 174.349 473.683 174.436 473.768 174.523C473.583 174.506 473.398 174.489 473.363 174.366Z" fill="#A2B2DB"/>
<path d="M475.916 176.071C475.624 175.971 475.428 175.776 475.232 175.581C475.467 175.535 475.702 175.489 476.068 175.613C476.2 175.782 476.013 175.977 475.916 176.071Z" fill="#A2B2DB"/>
<path d="M482.922 180.065C482.63 179.966 482.44 179.769 482.25 179.571C482.483 179.525 482.716 179.479 483.085 179.597C483.221 179.761 483.024 179.965 482.922 180.065Z" fill="#A2B2DB"/>
<path d="M480.072 177.941C480.368 178.039 480.562 178.236 480.757 178.433C480.52 178.481 480.284 178.528 479.91 178.41C479.773 178.245 479.97 178.04 480.072 177.941Z" fill="#A2B2DB"/>
<path d="M243.967 198.019C243.309 196.91 242.102 195.812 242.081 194.691C241.92 186.27 241.993 177.846 241.993 168.722C243.833 169.257 245.018 169.601 246.583 170.044C247.264 175.665 247.593 181.187 247.851 186.712C247.966 189.174 247.936 191.643 247.925 194.798C247.799 196.276 247.72 197.065 247.642 197.854C247.094 198.008 246.546 198.162 245.353 198.219C244.46 198.088 244.214 198.053 243.967 198.019Z" fill="#ECEFF8"/>
<path d="M251.13 222.902C250.723 220.375 250.052 217.857 249.962 215.318C249.77 209.862 249.876 204.396 249.884 198.218C249.964 196.685 250.02 195.867 250.077 195.05C250.077 195.05 250.005 195.021 250.383 195.013C251.489 195.032 252.216 195.059 252.944 195.087C252.944 195.087 252.99 195.013 253.042 195.295C253.411 195.665 253.728 195.755 254.046 195.844C254.046 195.844 253.886 195.968 254.054 196.276C254.536 196.67 254.85 196.756 255.165 196.842C255.165 196.842 255.006 196.89 255.015 197.353C254.978 206.439 254.931 215.062 254.884 223.686C254.507 223.824 254.129 223.963 253.196 224.022C252.137 223.597 251.634 223.249 251.13 222.902Z" fill="#FBFBFD"/>
<path d="M251.136 223.377C251.633 223.249 252.136 223.597 252.903 224.11C253.166 238.555 253.166 252.832 253.166 267.11C252.552 267.158 251.938 267.205 251.323 267.253C251.254 262.597 251.156 257.942 251.122 253.287C251.087 248.465 251.111 243.642 251.116 238.819C251.12 233.83 251.133 228.841 251.136 223.377Z" fill="#859FFC"/>
<path d="M243.901 198.482C244.214 198.053 244.461 198.088 245.067 198.222C245.427 198.322 245.436 198.693 245.297 199.09C245.174 199.655 245.191 199.822 245.208 199.989C245.145 220.679 245.081 241.369 245.002 262.526C244.589 261.346 243.851 259.699 243.845 258.049C243.779 238.348 243.821 218.647 243.901 198.482Z" fill="#BAC4E4"/>
<path d="M252.967 194.613C252.216 195.059 251.489 195.032 250.399 195.048C250.35 190.353 250.703 185.615 250.957 180.873C251.068 178.801 250.975 176.718 250.975 174.64C251.647 174.629 252.318 174.618 252.99 174.608C252.99 181.118 252.99 187.628 252.967 194.613Z" fill="#285AEB"/>
<path d="M255.241 223.49C254.931 215.062 254.978 206.439 255.096 197.34C255.312 205.674 255.455 214.484 255.241 223.49Z" fill="#C3CBE8"/>
<path d="M249.581 195.01C250.019 195.867 249.963 196.685 249.82 197.796C249.385 198.058 249.035 198.025 248.163 197.923C247.719 197.065 247.798 196.276 247.985 195.213C248.425 194.95 248.756 194.959 249.581 195.01Z" fill="#285AEB"/>
<path d="M245.339 199.914C245.191 199.822 245.174 199.655 245.295 199.276C245.691 199.318 245.704 199.576 245.339 199.914Z" fill="#285AEB"/>
<path d="M255.066 196.579C254.85 196.756 254.536 196.67 254.076 196.375C254.276 196.216 254.621 196.266 255.066 196.579Z" fill="#C3CBE8"/>
<path d="M253.903 195.652C253.728 195.755 253.41 195.665 253.002 195.313C253.241 195.09 253.524 195.227 253.903 195.652Z" fill="#285AEB"/>
<path d="M205.85 163.077C206.618 164.244 208.021 165.395 208.051 166.58C208.246 174.343 208.173 182.115 208.087 189.883C208.079 190.563 207.346 191.235 206.233 191.958C205.074 191.97 204.631 191.933 204.188 191.897C203.531 190.259 202.353 188.636 202.307 186.981C202.109 179.862 202.195 172.732 202.315 165.608C202.332 164.604 203.105 163.614 204.031 162.46C204.972 162.562 205.411 162.82 205.85 163.077Z" fill="#E5E9F6"/>
<path d="M204.091 192.364C204.63 191.933 205.073 191.97 205.837 192.096C206.047 208.047 205.936 223.909 205.83 240.209C205.198 239.451 204.014 238.26 204.006 237.06C203.902 222.318 203.971 207.575 204.091 192.364Z" fill="#92A6D5"/>
<path d="M205.872 162.607C205.411 162.82 204.972 162.562 204.305 162.184C204.412 157.408 204.747 152.751 205.498 148.149C205.907 152.847 205.9 157.492 205.872 162.607Z" fill="#92A6D5"/>
<path d="M223.845 246.94C222.769 247.528 221.693 248.116 220.504 248.766C220.086 247.956 219.582 246.981 218.795 245.891C218.413 236.881 218.314 227.985 218.335 218.648C218.782 218.17 219.111 218.133 219.945 218.063C220.628 218.023 220.806 218.016 220.984 218.009C221.754 218.617 222.524 219.224 223.591 220.411C223.874 229.64 223.859 238.29 223.845 246.94Z" fill="#EEF1F8"/>
<path d="M214.297 179.239C215.039 180.772 215.978 182.269 216 183.78C216.114 191.414 215.988 199.051 215.877 207.12C215.18 207.762 214.553 207.972 213.354 208.082C212.609 207.963 212.436 207.944 212.264 207.924C211.538 205.832 210.198 203.741 210.195 201.649C210.187 194.106 210.629 186.562 211.679 178.919C212.725 178.814 212.994 178.809 213.262 178.804C213.537 178.931 213.807 179.066 214.297 179.239Z" fill="#ECEFF8"/>
<path d="M212.168 208.389C212.436 207.944 212.608 207.963 213.02 208.086C213.259 220.262 213.259 232.335 213.259 244.408C212.864 244.409 212.468 244.41 212.072 244.41C212.072 232.558 212.072 220.706 212.168 208.389Z" fill="#BAC4E4"/>
<path d="M213.287 178.349C212.994 178.809 212.725 178.814 212.059 178.76C211.66 170.041 211.66 161.381 211.66 152.721C212.211 152.721 212.762 152.722 213.313 152.722C213.313 161.113 213.313 169.504 213.287 178.349Z" fill="#ABB9DE"/>
<path d="M236.312 242.99C235.336 240.784 234.204 238.501 234.102 236.174C233.832 230.056 233.931 223.917 234.068 217.791C234.101 216.301 234.843 214.826 235.698 213.43C236.425 213.679 236.712 213.843 237 214.007C237.931 215.86 239.58 217.681 239.666 219.574C239.977 226.363 239.76 233.176 239.52 240.548C239.122 241.337 239.006 241.585 238.949 241.861C238.174 242.206 237.399 242.55 236.312 242.99Z" fill="#FBFBFD"/>
<path d="M237.061 213.541C236.711 213.843 236.424 213.679 236.068 213.273C236.096 197.486 236.191 181.941 236.669 166.187C237.076 181.677 237.099 197.376 237.061 213.541Z" fill="#ABB9DE"/>
<path d="M239.219 241.862C239.005 241.585 239.121 241.337 239.473 241.008C239.597 241.221 239.543 241.542 239.219 241.862Z" fill="#B3BFE1"/>
<path d="M226.69 179.151C227.78 179.102 228.574 179.369 229.688 179.702C230.661 181.007 231.847 182.233 231.877 183.486C232.048 190.779 232.021 198.081 231.855 205.375C231.831 206.393 230.669 207.385 229.498 208.318C228.695 208.096 228.412 208.006 228.111 207.976C227.422 206.557 226.154 205.144 226.14 203.718C226.058 195.636 226.277 187.551 226.69 179.151Z" fill="#ECEFF8"/>
<path d="M224.225 246.957C223.859 238.29 223.873 229.64 223.863 220.527C224.864 220.04 225.89 220.017 227.39 220.452C227.795 229.611 227.725 238.313 227.655 247.015C226.639 247.001 225.622 246.987 224.225 246.957Z" fill="#1F58D5"/>
<path d="M221.055 217.544C220.806 218.016 220.627 218.023 220.184 217.988C219.92 197.844 219.92 177.741 219.92 157.639C220.322 157.638 220.724 157.637 221.126 157.636C221.126 177.45 221.126 197.265 221.055 217.544Z" fill="#B3BFE1"/>
<path d="M227.74 247.435C227.725 238.313 227.795 229.612 227.775 220.447C227.773 216.286 227.861 212.587 228.03 208.432C228.411 208.006 228.695 208.097 229.079 208.337C229.048 223.464 228.9 238.5 228.38 253.751C227.971 253.798 227.934 253.629 227.792 253.224C227.733 251.277 227.779 249.566 227.74 247.435Z" fill="#B3BFE1"/>
<path d="M508.731 124.725C506.792 126.515 504.582 128.016 501.816 129.822C497.499 132.839 493.764 131.62 490.032 130.049C487.815 128.549 485.598 127.05 483.189 125.284C483.386 124.73 483.775 124.188 484.162 124.19C492.261 124.235 500.361 124.342 508.731 124.725Z" fill="#C8D4FF"/>
<path d="M489.856 130.356C493.764 131.62 497.498 132.839 501.631 130.105C503.251 131.219 504.5 132.354 505.887 133.786C499.045 140.516 496.848 140.825 489.144 136.644C487.405 135.7 485.543 134.984 483.382 134.194C483.015 134.029 483.006 133.832 482.965 133.342C485.183 132.253 487.432 131.458 489.856 130.356Z" fill="#A0B5FF"/>
<path d="M374.535 271.214C374.688 269.369 374.962 267.395 375.762 265.663C379.36 257.874 383.065 250.132 386.83 242.422C387.888 240.256 388.614 238.404 385.336 237.115C385.018 236.512 385.006 236.073 385.231 235.211C385.767 234.608 385.956 234.348 386.036 234.009C386.036 234.009 385.993 234.013 386.343 233.99C388.066 233.286 389.44 232.606 390.817 232.294C390.595 235.06 389.358 238.021 390.323 239.756C394.016 246.395 393.847 248.38 387.583 252.734C386.716 253.337 385.946 254.081 384.764 255.066C386.77 256.24 388.302 257.137 389.834 258.034C386.555 264.35 381.447 268.591 374.535 271.214Z" fill="#6688F7"/>
<path d="M390.164 257.901C388.302 257.137 386.77 256.24 384.764 255.066C385.946 254.081 386.716 253.337 387.583 252.734C393.847 248.38 394.016 246.395 390.323 239.756C389.358 238.021 390.596 235.06 391.025 232.013C391.879 229.888 392.53 228.411 393.491 227.092C396.195 228.183 398.588 229.118 400.981 230.053C401.291 231.481 402.287 233.223 401.801 234.289C398.198 242.19 394.3 249.958 390.164 257.901Z" fill="#C3CBE8"/>
<path d="M401.151 229.666C398.588 229.118 396.195 228.183 393.439 226.859C393.076 226.469 393.178 226.002 393.499 225.842C395.948 221.123 398.076 216.565 400.204 212.006C403.449 217.578 401.99 223.454 401.151 229.666Z" fill="#FBFBFD"/>
<path d="M400.138 211.635C398.074 216.565 395.947 221.123 393.422 225.461C392.626 224.039 392.228 222.837 391.83 221.636C393.97 217.118 396.111 212.601 398.592 207.939C399.313 208.952 399.694 210.108 400.138 211.635Z" fill="black"/>
<path d="M382.648 237.037C381.101 241.122 379.195 245.243 377.143 249.681C374.176 248.713 371.354 247.427 367.107 245.491C372.971 242.24 377.63 239.656 382.648 237.037Z" fill="#466EFC"/>
<path d="M391.694 221.626C392.228 222.837 392.626 224.039 393.1 225.621C393.177 226.002 393.074 226.469 393.127 226.702C392.529 228.411 391.878 229.888 391.019 231.645C389.439 232.606 388.065 233.286 386.357 234.005C387.584 230.087 389.144 226.13 391.009 221.955C391.313 221.737 391.558 221.616 391.694 221.626Z" fill="#2958FA"/>
<path d="M385.809 234.104C385.955 234.348 385.766 234.608 385.241 234.882C385.111 234.649 385.301 234.39 385.809 234.104Z" fill="#2958FA"/>
</g>
<defs>
<clipPath id="clip0_51_888">
<rect width="570" height="430" fill="white"/>
</clipPath>
</defs>
</svg>
