<svg width="437" height="297" viewBox="0 0 437 297" fill="none" xmlns="http://www.w3.org/2000/svg">
<path d="M282.213 9.92204C285.877 7.80616 290.393 7.80615 294.057 9.92203L405.628 74.3376C409.293 76.4535 411.551 80.3638 411.551 84.5956V213.427C411.551 217.659 409.293 221.569 405.628 223.685L294.057 288.1C290.393 290.216 285.877 290.216 282.213 288.1L170.641 223.685C166.977 221.569 164.719 217.659 164.719 213.427V84.5956C164.719 80.3638 166.977 76.4535 170.641 74.3376L282.213 9.92204Z" fill="#4361EE"/>
<path d="M293.612 19.3196L397.362 79.2194C400.843 81.2294 402.988 84.9442 402.988 88.9644V208.764C402.988 212.784 400.843 216.499 397.362 218.509L293.612 278.409C290.131 280.419 285.841 280.419 282.36 278.409L178.61 218.509C175.129 216.499 172.984 212.784 172.984 208.764V88.9644C172.984 84.9443 175.129 81.2295 178.61 79.2194L282.36 19.3196C285.841 17.3096 290.131 17.3095 293.612 19.3196Z" stroke="white" stroke-width="1.18449"/>
<path d="M286.802 92.38L285.247 94.3048L285.84 96.5998L288.061 97.7102L290.207 96.5998L290.8 94.3048L289.245 92.38H286.802Z" fill="#415EE7"/>
<g filter="url(#filter0_di_1_57)">
<path fill-rule="evenodd" clip-rule="evenodd" d="M270.539 96.5191L279.684 94.6348C280.349 94.6938 281.658 95.1547 281.733 96.5191H293.284C293.359 95.1547 294.668 94.6938 295.332 94.6348L304.477 96.5191H318.873C347.26 163.325 322.814 185.964 305.95 193.647C287.168 200.903 289.301 230.573 289.301 230.573C289.301 230.573 304.135 233.075 311.072 238.986C324.683 250.583 251.269 250.091 265.284 238.986C270.923 234.518 278.45 232.692 283.179 231.544C284.715 231.171 285.956 230.87 286.741 230.573C285.461 207.949 284.181 200.69 270.947 194.287C220.149 170.383 257.004 96.5191 257.004 96.5191H270.539Z" fill="white"/>
</g>
<path d="M275.875 167.228V138.597H288.964C291.582 138.597 293.831 139.019 295.713 139.865C297.621 140.71 299.094 141.937 300.13 143.546C301.166 145.128 301.684 147.009 301.684 149.19C301.684 151.345 301.166 153.213 300.13 154.794C299.094 156.376 297.621 157.603 295.713 158.475C293.831 159.321 291.582 159.743 288.964 159.743H280.374L283.974 156.226V167.228H275.875ZM283.974 157.085L280.374 153.362H288.473C290.164 153.362 291.418 152.994 292.236 152.258C293.081 151.522 293.504 150.499 293.504 149.19C293.504 147.854 293.081 146.818 292.236 146.082C291.418 145.346 290.164 144.978 288.473 144.978H280.374L283.974 141.255V157.085Z" fill="#4361EE"/>
<circle cx="288.073" cy="148.72" r="6.33255" fill="white"/>
<path d="M308.612 186.371C312.555 185.291 320.848 180.734 322.475 171.15C314.79 170.773 319.537 179.891 308.612 186.371Z" fill="#4361EE"/>
<path d="M268.22 186.371C264.277 185.291 255.984 180.734 254.356 171.15C262.042 170.773 257.295 179.891 268.22 186.371Z" fill="#4361EE"/>
<ellipse cx="288.16" cy="241.656" rx="13.6064" ry="2.56725" fill="#4361EE"/>
<circle cx="288.074" cy="90.6988" r="40.2203" fill="#4361EE"/>
<g filter="url(#filter1_di_1_57)">
<path d="M317.626 95.4633C317.533 95.4633 317.439 95.4633 317.439 95.3699C317.439 95.2764 317.251 95.2764 317.066 95.2764C316.694 95.183 316.319 95.183 315.939 95.183C315.752 95.183 315.567 95.183 315.379 95.0895H315.286C314.252 94.9961 313.13 94.8092 312.096 94.5312C311.815 94.4378 311.536 94.1598 311.443 93.8794L310.695 93.6925C311.068 90.9776 310.883 88.1789 310.323 85.464C309.669 82.7491 308.542 80.1372 307.04 77.8009L307.6 77.2426V77.1491C307.6 76.8688 307.694 76.4973 307.881 76.3104C308.722 75.5652 309.568 74.9997 310.503 74.4414L311.063 74.161C311.435 73.9741 311.717 73.7896 312.096 73.6027C312.19 73.5093 312.284 73.5093 312.378 73.4158C312.471 73.3224 312.378 73.3224 312.378 73.2289C313.219 72.5771 313.411 71.4533 312.75 70.6147C312.469 70.2432 311.909 69.9629 311.435 69.9629C310.962 69.9629 310.496 70.1498 310.121 70.4277L310.027 70.5212C309.933 70.6147 309.84 70.7081 309.746 70.7081C309.465 70.9885 309.186 71.2664 308.999 71.5468C308.905 71.7337 308.717 71.8271 308.626 71.9182C307.972 72.6634 307.124 73.4158 306.285 73.9741C306.098 74.0676 305.913 74.161 305.725 74.161C305.632 74.161 305.444 74.161 305.353 74.0676H305.259L304.512 74.5325C303.764 73.7872 302.918 73.0348 302.171 72.292C298.703 69.5771 294.391 67.9021 289.984 67.4301L289.89 66.6849V66.7783C289.609 66.5914 289.517 66.3135 289.424 66.0331C289.424 65.0027 289.424 63.9772 289.611 62.8533V62.7599C289.611 62.573 289.705 62.3885 289.705 62.2016C289.799 61.8302 289.799 61.4563 289.892 61.0777V60.505C289.986 59.5681 289.239 58.636 288.299 58.5426C287.739 58.4491 287.172 58.7295 286.706 59.1943C286.333 59.5657 286.146 60.033 286.146 60.505V60.9699C286.146 61.3413 286.239 61.7151 286.333 62.0937C286.427 62.2806 286.427 62.4651 286.427 62.6521V62.7455C286.614 63.7759 286.614 64.8015 286.614 65.9253C286.52 66.2056 286.427 66.4836 286.148 66.6705V66.8574L286.054 67.6026C285.021 67.6961 283.992 67.883 282.865 68.0675C278.462 69.0044 274.427 71.3407 271.336 74.6115L270.776 74.2401H270.683C270.589 74.2401 270.495 74.3336 270.31 74.3336C270.125 74.3336 269.938 74.2401 269.75 74.1467C268.909 73.4949 268.063 72.7425 267.409 71.9973C267.316 71.8104 267.128 71.7169 267.037 71.6259C266.756 71.3455 266.571 71.0675 266.289 70.7872C266.196 70.6937 266.102 70.6937 266.008 70.6003L265.915 70.5068C265.542 70.2265 265.073 70.042 264.6 70.042C264.04 70.042 263.567 70.2289 263.285 70.6937C262.725 71.5324 262.913 72.6562 263.658 73.308C263.752 73.308 263.752 73.4014 263.752 73.4014C263.752 73.4014 263.939 73.5883 264.033 73.5883C264.314 73.7753 264.686 73.9598 265.066 74.1467C265.254 74.2401 265.439 74.3336 265.626 74.427C266.566 74.9853 267.501 75.5508 268.248 76.2961C268.436 76.483 268.621 76.8544 268.529 77.1347V77.0413L269.089 77.5996C268.996 77.7865 268.902 77.88 268.808 78.0645C265.9 82.6484 264.686 88.0686 265.525 93.3954L264.778 93.5823C264.778 93.6758 264.684 93.6758 264.684 93.6758C264.59 93.9561 264.312 94.1406 264.03 94.3275C262.997 94.6079 261.968 94.7924 260.841 94.8859C260.654 94.8859 260.469 94.8859 260.281 94.9793C259.909 94.9793 259.534 95.0728 259.154 95.0728C259.06 95.0728 258.967 95.1662 258.782 95.1662C258.719 95.1662 258.657 95.1974 258.594 95.2597C257.561 95.4466 256.907 96.3835 257.092 97.4091C257.279 98.2477 258.125 98.8132 258.967 98.7198C259.154 98.7198 259.248 98.7198 259.433 98.6263C259.495 98.6263 259.527 98.5952 259.527 98.5329C259.527 98.4394 259.808 98.5329 259.899 98.5329C260.272 98.4394 260.646 98.2525 260.932 98.1615C261.12 98.068 261.305 97.9746 261.492 97.9746H261.586C262.62 97.6032 263.554 97.3228 264.682 97.1359H264.775C265.057 97.1359 265.335 97.2293 265.523 97.4162C265.617 97.4162 265.617 97.5097 265.617 97.5097L266.458 97.4162C267.866 101.713 270.488 105.551 274.143 108.35C274.985 109.002 275.737 109.567 276.672 110.032L276.205 110.684C276.205 110.778 276.299 110.778 276.299 110.778C276.487 111.058 276.487 111.429 276.393 111.714C276.02 112.651 275.453 113.583 274.891 114.429V114.523C274.797 114.71 274.703 114.803 274.518 114.988C274.331 115.175 274.146 115.546 273.865 115.925C273.771 116.018 273.771 116.111 273.677 116.205C273.677 116.205 273.677 116.298 273.583 116.298C273.117 117.235 273.49 118.354 274.331 118.819C274.518 118.913 274.797 119.006 274.985 119.006C275.732 119.006 276.393 118.541 276.765 117.882C276.765 117.882 276.765 117.789 276.859 117.789C276.859 117.695 276.953 117.602 277.047 117.508C277.14 117.137 277.328 116.857 277.419 116.478L277.607 115.92C277.888 114.889 278.354 113.957 278.827 113.02C279.015 112.74 279.294 112.555 279.575 112.462C279.637 112.462 279.669 112.431 279.669 112.369L280.041 111.623C282.663 112.654 285.384 113.121 288.193 113.121C289.88 113.121 291.57 112.934 293.257 112.469C294.29 112.282 295.319 111.911 296.259 111.631L296.631 112.282C296.694 112.282 296.725 112.313 296.725 112.376C297.006 112.469 297.285 112.656 297.472 112.934C297.939 113.871 298.412 114.803 298.693 115.834V115.927L298.881 116.485C298.974 116.857 299.068 117.231 299.253 117.516C299.347 117.609 299.347 117.703 299.441 117.796C299.441 117.796 299.441 117.889 299.534 117.889C299.907 118.541 300.568 119.013 301.315 119.013C301.596 119.013 301.781 118.92 302.063 118.826C302.435 118.639 302.81 118.268 302.904 117.796C302.998 117.331 302.998 116.859 302.81 116.392C302.81 116.298 302.716 116.298 302.716 116.298C302.716 116.205 302.623 116.111 302.529 116.018C302.341 115.647 302.156 115.366 301.875 115.081C301.781 114.894 301.688 114.801 301.503 114.616V114.429C300.849 113.591 300.375 112.654 300.001 111.714C299.907 111.434 299.907 111.063 300.094 110.778C300.094 110.684 300.188 110.684 300.188 110.684L299.907 109.939C304.689 107.039 308.345 102.556 310.034 97.2293L310.782 97.3228C310.876 97.3228 310.876 97.2293 310.876 97.2293C311.063 97.0424 311.342 96.949 311.623 96.949H311.717C312.75 97.1359 313.779 97.4139 314.718 97.7877H314.812C315 97.8811 315.185 97.9746 315.372 97.9746C315.745 98.1615 316.026 98.346 316.406 98.4394C316.499 98.4394 316.593 98.5329 316.778 98.5329C316.841 98.5329 316.903 98.564 316.965 98.6263C317.153 98.7198 317.247 98.7198 317.432 98.7198C318.273 98.7198 319.025 98.1615 319.306 97.4091C319.227 96.3979 318.472 95.6455 317.631 95.4609L317.626 95.4633ZM290.536 92.5639L288.008 93.7812L285.48 92.5639L284.826 89.849L286.607 87.6086H289.421L291.202 89.849L290.534 92.5639H290.536ZM305.812 86.4919C306.278 88.4544 306.372 90.4169 306.184 92.3794L297.278 89.8586C296.436 89.6717 295.963 88.8282 296.15 87.9896C296.244 87.7092 296.338 87.5247 296.523 87.3378L303.555 80.9783C304.588 82.6604 305.343 84.5294 305.809 86.4919H305.812ZM300.748 77.5181L293.062 82.9384C292.409 83.3098 291.469 83.2187 291 82.5669C290.813 82.38 290.719 82.1955 290.719 81.9152L290.159 72.4765C294.281 72.9414 297.939 74.717 300.746 77.5181H300.748ZM283.783 72.7497L285.658 72.3783L285.191 81.7235C285.191 82.5622 284.444 83.2211 283.598 83.2211C283.317 83.2211 283.132 83.1277 282.851 83.0342L275.071 77.5205C277.498 75.1866 280.5 73.5021 283.783 72.7521V72.7497ZM272.348 80.9783L279.287 87.1437C279.94 87.702 280.034 88.6413 279.474 89.2931C279.287 89.5735 279.101 89.6645 278.727 89.758L269.635 92.3722C269.349 88.4544 270.281 84.4384 272.351 80.9783H272.348ZM270.755 96.7741L280.034 95.1854C280.781 95.1854 281.536 95.6502 281.627 96.4027C281.721 96.683 281.721 97.0544 281.534 97.3396L277.972 105.94C274.689 103.785 272.062 100.512 270.755 96.7741ZM292.036 108.36C290.721 108.64 289.414 108.825 288.006 108.825C286.037 108.825 283.975 108.453 282.101 107.888L286.698 99.568C287.165 99.0097 287.919 98.8228 288.573 99.1966C288.854 99.3835 289.039 99.568 289.32 99.8484L293.824 107.984C293.25 108.084 292.69 108.175 292.036 108.362V108.36ZM303.471 100.232C302.063 102.472 300.094 104.435 297.847 105.839L294.192 97.052C294.004 96.3068 294.379 95.5544 295.033 95.2764C295.314 95.183 295.593 95.0895 295.874 95.0895L305.247 96.6782C304.786 97.9818 304.221 99.199 303.473 100.229L303.471 100.232Z" fill="white"/>
</g>
<g opacity="0.48">
<path d="M63.5902 108.126L45.5571 121.414" stroke="#4361EE" stroke-width="0.949107"/>
<circle cx="3.79643" cy="87.246" r="3.79643" fill="#4361EE"/>
<circle cx="11.8638" cy="85.8223" r="2.37277" fill="#4361EE"/>
<circle cx="36.0661" cy="118.567" r="3.79643" fill="#4361EE"/>
<circle cx="46.5063" cy="120.465" r="3.79643" fill="#4361EE"/>
<circle cx="70.2339" cy="128.058" r="3.79643" fill="#4361EE"/>
<circle cx="87.3179" cy="140.396" r="3.79643" fill="#4361EE"/>
<circle cx="61.692" cy="71.1112" r="3.79643" fill="#4361EE"/>
<circle cx="81.6232" cy="80.6023" r="2.84732" fill="#4361EE"/>
<path d="M11.8638 86.2969L28.4732 102.432" stroke="#4361EE" stroke-width="0.949107"/>
<path d="M82.0978 81.5514L100.605 97.2116" stroke="#4361EE" stroke-width="0.949107"/>
<path d="M149.959 97.2116H91.5888L60.7429 71.1112" stroke="#4361EE" stroke-width="0.949107"/>
<path d="M149.959 114.296H91.5888L68.8103 129.007" stroke="#4361EE" stroke-width="0.949107"/>
<path d="M149.959 128.058H104.219L86.3687 141.345" stroke="#4361EE" stroke-width="0.949107"/>
<path d="M149.959 105.279H55.248L36.0661 118.567" stroke="#4361EE" stroke-width="0.949107"/>
<path d="M55.0482 102.432H19.5483L5.69464 89.1442" stroke="#4361EE" stroke-width="0.949107"/>
<path d="M63.5902 194.496L45.5571 207.783" stroke="#4361EE" stroke-width="0.949107"/>
<circle cx="3.79643" cy="173.615" r="3.79643" fill="#4361EE"/>
<circle cx="11.8638" cy="172.192" r="2.37277" fill="#4361EE"/>
<circle cx="36.0661" cy="204.936" r="3.79643" fill="#4361EE"/>
<circle cx="46.5063" cy="206.834" r="3.79643" fill="#4361EE"/>
<circle cx="70.2339" cy="214.427" r="3.79643" fill="#4361EE"/>
<circle cx="87.3179" cy="226.765" r="3.79643" fill="#4361EE"/>
<circle cx="61.692" cy="157.481" r="3.79643" fill="#4361EE"/>
<circle cx="81.6232" cy="166.972" r="2.84732" fill="#4361EE"/>
<path d="M11.8638 172.666L28.4732 188.801" stroke="#4361EE" stroke-width="0.949107"/>
<path d="M82.0978 167.921L100.605 183.581" stroke="#4361EE" stroke-width="0.949107"/>
<path d="M149.959 183.581H91.5888L60.7429 157.481" stroke="#4361EE" stroke-width="0.949107"/>
<path d="M149.959 200.665H91.5888L68.8103 215.376" stroke="#4361EE" stroke-width="0.949107"/>
<path d="M149.959 214.427H104.219L86.3687 227.714" stroke="#4361EE" stroke-width="0.949107"/>
<path d="M149.959 191.648H55.248L36.0661 204.936" stroke="#4361EE" stroke-width="0.949107"/>
<path d="M55.0482 188.801H19.5483L5.69464 175.514" stroke="#4361EE" stroke-width="0.949107"/>
</g>
<defs>
<filter id="filter0_di_1_57" x="234.503" y="86.4195" width="106.969" height="172.034" filterUnits="userSpaceOnUse" color-interpolation-filters="sRGB">
<feFlood flood-opacity="0" result="BackgroundImageFix"/>
<feColorMatrix in="SourceAlpha" type="matrix" values="0 0 0 0 0 0 0 0 0 0 0 0 0 0 0 0 0 0 127 0" result="hardAlpha"/>
<feOffset dy="1.3692"/>
<feGaussianBlur stdDeviation="4.7922"/>
<feComposite in2="hardAlpha" operator="out"/>
<feColorMatrix type="matrix" values="0 0 0 0 0 0 0 0 0 0 0 0 0 0 0 0 0 0 0.12 0"/>
<feBlend mode="normal" in2="BackgroundImageFix" result="effect1_dropShadow_1_57"/>
<feBlend mode="normal" in="SourceGraphic" in2="effect1_dropShadow_1_57" result="shape"/>
<feColorMatrix in="SourceAlpha" type="matrix" values="0 0 0 0 0 0 0 0 0 0 0 0 0 0 0 0 0 0 127 0" result="hardAlpha"/>
<feOffset dy="1.3692"/>
<feGaussianBlur stdDeviation="2.0538"/>
<feComposite in2="hardAlpha" operator="arithmetic" k2="-1" k3="1"/>
<feColorMatrix type="matrix" values="0 0 0 0 0 0 0 0 0 0 0 0 0 0 0 0 0 0 0.16 0"/>
<feBlend mode="normal" in2="shape" result="effect2_innerShadow_1_57"/>
</filter>
<filter id="filter1_di_1_57" x="252.953" y="55.1016" width="70.4608" height="68.7038" filterUnits="userSpaceOnUse" color-interpolation-filters="sRGB">
<feFlood flood-opacity="0" result="BackgroundImageFix"/>
<feColorMatrix in="SourceAlpha" type="matrix" values="0 0 0 0 0 0 0 0 0 0 0 0 0 0 0 0 0 0 127 0" result="hardAlpha"/>
<feOffset dy="0.684601"/>
<feGaussianBlur stdDeviation="2.0538"/>
<feComposite in2="hardAlpha" operator="out"/>
<feColorMatrix type="matrix" values="0 0 0 0 0 0 0 0 0 0 0 0 0 0 0 0 0 0 0.12 0"/>
<feBlend mode="normal" in2="BackgroundImageFix" result="effect1_dropShadow_1_57"/>
<feBlend mode="normal" in="SourceGraphic" in2="effect1_dropShadow_1_57" result="shape"/>
<feColorMatrix in="SourceAlpha" type="matrix" values="0 0 0 0 0 0 0 0 0 0 0 0 0 0 0 0 0 0 127 0" result="hardAlpha"/>
<feOffset dy="0.684601"/>
<feGaussianBlur stdDeviation="0.684601"/>
<feComposite in2="hardAlpha" operator="arithmetic" k2="-1" k3="1"/>
<feColorMatrix type="matrix" values="0 0 0 0 0 0 0 0 0 0 0 0 0 0 0 0 0 0 0.16 0"/>
<feBlend mode="normal" in2="shape" result="effect2_innerShadow_1_57"/>
</filter>
</defs>
</svg>
