<svg width="176" height="347" viewBox="0 0 176 347" fill="none" xmlns="http://www.w3.org/2000/svg">
<path d="M49.1363 32.7238C48.944 32.7527 48.7998 32.6277 48.7133 32.474L46.4255 28.2645L42.2343 25.9579C42.0805 25.8715 41.9844 25.7081 41.9844 25.5351C41.9844 25.3621 42.0805 25.1987 42.2343 25.1122L46.4447 22.8249L48.7518 18.6346C48.8383 18.4809 49.0017 18.3848 49.1747 18.3848C49.3478 18.3848 49.5112 18.4809 49.5977 18.6346L51.8855 22.8441L56.0767 25.1507C56.2305 25.2372 56.3267 25.4005 56.3267 25.5735C56.3267 25.7465 56.2305 25.9099 56.0767 25.9964L51.8663 28.2837L49.5593 32.474C49.4727 32.6277 49.3093 32.7238 49.1363 32.7238ZM43.4647 25.5447L47.0119 27.4957C47.0888 27.5437 47.1561 27.611 47.2041 27.6879L49.1363 31.2438L51.0877 27.6975C51.1357 27.6206 51.203 27.5533 51.2799 27.5053L54.8367 25.5735L51.2895 23.6226C51.2126 23.5745 51.1454 23.5072 51.0973 23.4304L49.1651 19.8744L47.2137 23.4207C47.1657 23.4976 47.0984 23.5649 47.0215 23.613L43.4647 25.5447Z" fill="#2AAFEB"/>
<path d="M126.863 336.929C126.69 336.929 126.527 336.833 126.44 336.679L124.075 332.326L119.73 329.933C119.577 329.846 119.48 329.683 119.48 329.51C119.48 329.337 119.577 329.174 119.73 329.087L124.085 326.723L126.479 322.379C126.565 322.225 126.729 322.129 126.902 322.129C127.075 322.129 127.238 322.225 127.325 322.379L129.689 326.732L134.034 329.125C134.188 329.212 134.284 329.375 134.284 329.548C134.284 329.721 134.188 329.885 134.034 329.971L129.68 332.335L127.286 336.679C127.2 336.833 127.036 336.929 126.863 336.929ZM120.961 329.51L124.662 331.547C124.739 331.595 124.806 331.663 124.854 331.74L126.873 335.449L128.911 331.749C128.959 331.672 129.026 331.605 129.103 331.557L132.813 329.539L129.112 327.501C129.036 327.453 128.968 327.386 128.92 327.309L126.902 323.599L124.864 327.299C124.816 327.376 124.748 327.444 124.671 327.492L120.961 329.51Z" fill="#2AAFEB"/>
<path d="M177.534 11.2824H173.045C172.776 11.2824 172.564 11.0709 172.564 10.8018C172.564 10.5327 172.776 10.3213 173.045 10.3213H177.534C177.803 10.3213 178.015 10.5327 178.015 10.8018C178.015 11.0709 177.803 11.2824 177.534 11.2824Z" fill="#01004C"/>
<path d="M175.39 16.9449C175.265 16.9449 175.14 16.8969 175.054 16.8008C174.862 16.6085 174.862 16.3106 175.054 16.1184L178.226 12.9469C178.418 12.7547 178.716 12.7547 178.909 12.9469C179.101 13.1391 179.101 13.437 178.909 13.6293L175.736 16.8008C175.64 16.8969 175.515 16.9449 175.4 16.9449H175.39Z" fill="#01004C"/>
<path d="M178.563 8.79453C178.438 8.79453 178.313 8.74648 178.226 8.65037L175.054 5.47886C174.862 5.28665 174.862 4.98872 175.054 4.7965C175.246 4.60429 175.544 4.60429 175.736 4.7965L178.909 7.96801C179.101 8.16023 179.101 8.45816 178.909 8.65037C178.812 8.74648 178.687 8.79453 178.572 8.79453H178.563Z" fill="#01004C"/>
<path d="M49.5971 147.691C47.8187 147.691 46.3672 146.24 46.3672 144.462C46.3672 142.684 47.8187 141.233 49.5971 141.233C51.3754 141.233 52.827 142.684 52.827 144.462C52.827 146.24 51.3754 147.691 49.5971 147.691ZM49.5971 142.184C48.3474 142.184 47.3285 143.203 47.3285 144.452C47.3285 145.702 48.3474 146.721 49.5971 146.721C50.8467 146.721 51.8657 145.702 51.8657 144.452C51.8657 143.203 50.8467 142.184 49.5971 142.184Z" fill="#ACBBFF"/>
<path d="M16.4844 190.16C15.3309 190.16 14.3984 189.228 14.3984 188.075C14.3984 186.921 15.3309 185.989 16.4844 185.989C17.6379 185.989 18.5704 186.921 18.5704 188.075C18.5704 189.228 17.6379 190.16 16.4844 190.16ZM16.4844 186.95C15.8596 186.95 15.3597 187.46 15.3597 188.075C15.3597 188.69 15.8692 189.199 16.4844 189.199C17.0996 189.199 17.6091 188.69 17.6091 188.075C17.6091 187.46 17.0996 186.95 16.4844 186.95Z" fill="#8499FF"/>
<path d="M206.026 333.278L217.129 292.481H162.749L151.762 333.297C152.002 333.288 152.242 333.278 152.483 333.278H206.026Z" fill="white"/>
<path d="M151.819 333.777C151.675 333.777 151.511 333.71 151.415 333.595C151.319 333.48 151.261 333.316 151.3 333.172L162.287 292.356C162.345 292.144 162.537 292 162.748 292H217.128C217.282 292 217.416 292.067 217.512 292.192C217.599 292.308 217.637 292.461 217.589 292.605L206.487 333.403C206.429 333.614 206.237 333.758 206.025 333.758H152.482C152.271 333.758 152.059 333.758 151.838 333.777H151.819ZM163.123 292.961L152.395 332.797H205.66L216.503 292.961H163.123Z" fill="#00105B"/>
<path d="M240.933 336.238C240.75 336.132 240.558 336.026 240.366 335.921C237.357 334.268 233.646 333.278 229.619 333.278H152.486C152.245 333.278 152.005 333.287 151.765 333.297C146.324 333.518 141.527 336.238 139.576 340.274L136.5 346.675H247.681C247.681 342.456 245.047 338.689 240.933 336.238Z" fill="#00105B"/>
<path d="M317.577 297.767H75.6519C71.0763 297.767 67.3657 293.884 67.3657 289.098V132.214C67.3657 127.428 71.0763 123.545 75.6519 123.545H317.577C322.152 123.545 325.863 127.428 325.863 132.214V289.098C325.863 293.884 322.152 297.767 317.577 297.767Z" fill="white"/>
<path d="M317.575 298.247H75.6506C70.8154 298.247 66.8838 294.143 66.8838 289.098V132.214C66.8838 127.168 70.8154 123.064 75.6506 123.064H317.575C322.411 123.064 326.342 127.168 326.342 132.214V289.098C326.342 294.143 322.411 298.247 317.575 298.247ZM75.6506 124.026C71.3441 124.026 67.8451 127.697 67.8451 132.214V289.098C67.8451 293.615 71.3441 297.286 75.6506 297.286H317.575C321.882 297.286 325.381 293.615 325.381 289.098V132.214C325.381 127.697 321.882 124.026 317.575 124.026H75.6506Z" fill="#00105B"/>
<path d="M67.3657 289.097V132.213C67.3657 127.466 71.0089 123.621 75.527 123.554H66.9908C62.4151 123.554 58.7046 127.447 58.7046 132.242V289.434C58.7046 294.23 62.4151 298.122 66.9908 298.122H308.916C309.723 298.122 310.492 297.997 311.232 297.776H75.6519C71.0762 297.776 67.3657 293.893 67.3657 289.107V289.097Z" fill="#00105B"/>
<path d="M308.914 298.602H66.9895C62.1543 298.602 58.2227 294.489 58.2227 289.433V132.242C58.2227 127.187 62.1543 123.073 66.9895 123.073H75.5257V124.034C71.296 124.102 67.8451 127.773 67.8451 132.213V289.097C67.8451 293.614 71.3441 297.285 75.6506 297.285H314.451L311.366 298.227C310.558 298.477 309.731 298.602 308.914 298.602ZM66.9895 124.034C62.683 124.034 59.1839 127.715 59.1839 132.242V289.433C59.1839 293.96 62.683 297.641 66.9895 297.641H72.4976C69.2101 296.315 66.8838 292.989 66.8838 289.107V132.223C66.8838 128.667 68.8736 125.543 71.7575 124.044H66.9991L66.9895 124.034Z" fill="#00105B"/>
<path d="M83.1396 170.983V135.712C83.1396 134.223 84.3509 133.012 85.8408 133.012H308.838C310.328 133.012 311.539 134.223 311.539 135.712V267.195H83.1396V232.328" fill="#CACAE5"/>
<path d="M311.548 267.666H83.1384C82.8692 267.666 82.6577 267.455 82.6577 267.186V232.318C82.6577 232.049 82.8692 231.838 83.1384 231.838C83.4075 231.838 83.619 232.049 83.619 232.318V266.705H311.057V135.703C311.057 134.482 310.058 133.483 308.837 133.483H85.8396C84.6187 133.483 83.619 134.482 83.619 135.703V170.974C83.619 171.243 83.4075 171.454 83.1384 171.454C82.8692 171.454 82.6577 171.243 82.6577 170.974V135.703C82.6577 133.944 84.09 132.521 85.8396 132.521H308.837C310.596 132.521 312.019 133.953 312.019 135.703V267.186C312.019 267.455 311.807 267.666 311.538 267.666H311.548Z" fill="#00105B"/>
<path d="M83.1388 213.904C82.8697 213.904 82.6582 213.693 82.6582 213.424V187.196C82.6582 186.927 82.8697 186.716 83.1388 186.716C83.408 186.716 83.6195 186.927 83.6195 187.196V213.424C83.6195 213.693 83.408 213.904 83.1388 213.904Z" fill="#00105B"/>
<path d="M316.681 296.891H76.6789C72.1417 296.891 68.46 293.287 68.46 288.847V267.194H324.91V288.847C324.91 293.297 321.228 296.891 316.691 296.891H316.681Z" fill="#00105B"/>
<path d="M316.68 297.372H76.6776C71.8808 297.372 67.978 293.547 67.978 288.837V267.185C67.978 266.916 68.1895 266.704 68.4587 266.704H324.908C325.178 266.704 325.389 266.916 325.389 267.185V288.837C325.389 293.537 321.486 297.372 316.689 297.372H316.68ZM68.9297 267.665V288.837C68.9297 293.008 72.3999 296.411 76.668 296.411H316.67C320.938 296.411 324.409 293.018 324.409 288.837V267.665H68.9297Z" fill="white"/>
<path d="M115.063 190.577C114.794 190.577 114.582 190.366 114.582 190.096V178.727C114.582 178.458 114.794 178.247 115.063 178.247C115.332 178.247 115.543 178.458 115.543 178.727V190.096C115.543 190.366 115.332 190.577 115.063 190.577Z" fill="#7FD6C3"/>
<path d="M155.534 232.547C155.265 232.547 155.054 232.336 155.054 232.067V217.689C155.054 217.42 155.265 217.208 155.534 217.208C155.804 217.208 156.015 217.42 156.015 217.689V232.067C156.015 232.336 155.804 232.547 155.534 232.547Z" fill="#7FD6C3"/>
<path d="M155.033 190.577C154.764 190.577 154.552 190.366 154.552 190.096V178.727C154.552 178.458 154.764 178.247 155.033 178.247C155.302 178.247 155.514 178.458 155.514 178.727V190.096C155.514 190.366 155.302 190.577 155.033 190.577Z" fill="#8499FF"/>
<path d="M138.644 243.417H127.272C127.002 243.417 126.791 243.205 126.791 242.936C126.791 242.667 127.002 242.456 127.272 242.456H138.644C138.913 242.456 139.124 242.667 139.124 242.936C139.124 243.205 138.913 243.417 138.644 243.417Z" fill="#8499FF"/>
<path d="M208.271 151.376H102.925C102.362 151.376 101.906 151.832 101.906 152.395V177.555C101.906 178.118 102.362 178.574 102.925 178.574H208.271C208.834 178.574 209.29 178.118 209.29 177.555V152.395C209.29 151.832 208.834 151.376 208.271 151.376Z" fill="#8499FF"/>
<path d="M208.28 179.064H102.933C102.106 179.064 101.434 178.391 101.434 177.565V152.404C101.434 151.578 102.106 150.905 102.933 150.905H208.28C209.106 150.905 209.779 151.578 209.779 152.404V177.565C209.779 178.391 209.106 179.064 208.28 179.064ZM102.933 151.866C102.635 151.866 102.395 152.106 102.395 152.404V177.565C102.395 177.863 102.635 178.103 102.933 178.103H208.28C208.578 178.103 208.818 177.863 208.818 177.565V152.404C208.818 152.106 208.578 151.866 208.28 151.866H102.933Z" fill="#00105B"/>
<path d="M127.85 190.299H103.164C102.602 190.299 102.146 190.755 102.146 191.318V215.998C102.146 216.561 102.602 217.017 103.164 217.017H127.85C128.413 217.017 128.869 216.561 128.869 215.998V191.318C128.869 190.755 128.413 190.299 127.85 190.299Z" fill="white"/>
<path d="M127.859 217.497H103.173C102.346 217.497 101.673 216.825 101.673 215.998V191.318C101.673 190.492 102.346 189.819 103.173 189.819H127.859C128.685 189.819 129.358 190.492 129.358 191.318V215.998C129.358 216.825 128.685 217.497 127.859 217.497ZM103.173 190.78C102.875 190.78 102.635 191.02 102.635 191.318V215.998C102.635 216.296 102.875 216.536 103.173 216.536H127.859C128.157 216.536 128.397 216.296 128.397 215.998V191.318C128.397 191.02 128.157 190.78 127.859 190.78H103.173Z" fill="#00105B"/>
<path d="M167.942 190.299H143.256C142.694 190.299 142.237 190.755 142.237 191.318V215.998C142.237 216.56 142.694 217.016 143.256 217.016H167.942C168.505 217.016 168.961 216.56 168.961 215.998V191.318C168.961 190.755 168.505 190.299 167.942 190.299Z" fill="#ACBBFF"/>
<path d="M167.941 217.497H143.255C142.428 217.497 141.755 216.824 141.755 215.998V191.318C141.755 190.491 142.428 189.818 143.255 189.818H167.941C168.767 189.818 169.44 190.491 169.44 191.318V215.998C169.44 216.824 168.767 217.497 167.941 217.497ZM143.255 190.779C142.957 190.779 142.717 191.02 142.717 191.318V215.998C142.717 216.296 142.957 216.536 143.255 216.536H167.941C168.239 216.536 168.479 216.296 168.479 215.998V191.318C168.479 191.02 168.239 190.779 167.941 190.779H143.255Z" fill="#00105B"/>
<path d="M197.371 232.769H149.153C143.488 232.769 138.896 237.36 138.896 243.024V243.033C138.896 248.697 143.488 253.288 149.153 253.288H197.371C203.035 253.288 207.627 248.697 207.627 243.033V243.024C207.627 237.36 203.035 232.769 197.371 232.769Z" fill="white"/>
<path d="M197.369 253.758H149.161C143.24 253.758 138.424 248.943 138.424 243.023C138.424 237.103 143.24 232.288 149.161 232.288H197.369C203.291 232.288 208.107 237.103 208.107 243.023C208.107 248.943 203.291 253.758 197.369 253.758ZM149.161 233.24C143.769 233.24 139.385 237.622 139.385 243.014C139.385 248.405 143.769 252.788 149.161 252.788H197.369C202.762 252.788 207.146 248.405 207.146 243.014C207.146 237.622 202.762 233.24 197.369 233.24H149.161Z" fill="#00105B"/>
<path d="M1.95188 322.197H103.444C104.521 322.197 105.395 321.324 105.395 320.246L105.395 249.06C105.395 247.983 104.521 247.109 103.444 247.109H1.95188C0.874161 247.109 0.000488281 247.983 0.000488281 249.06L0.000488281 320.246C0.000488281 321.324 0.874161 322.197 1.95188 322.197Z" fill="#CACAE5"/>
<path d="M111.285 254.066H5.89976V243.745C5.89976 242.457 6.94755 241.419 8.22604 241.419H108.276C109.939 241.419 111.285 242.764 111.285 244.427V254.066Z" fill="#4361EE"/>
<path d="M111.766 254.547H5.41992V243.744C5.41992 242.197 6.6792 240.938 8.22685 240.938H108.277C110.199 240.938 111.766 242.505 111.766 244.427V254.547ZM6.3812 253.586H110.805V244.427C110.805 243.033 109.671 241.899 108.277 241.899H8.22685C7.2079 241.899 6.3812 242.726 6.3812 243.744V253.586Z" fill="#01004C"/>
<path d="M19.7559 250.029C18.4197 250.029 17.3335 248.943 17.3335 247.598C17.3335 246.253 18.4197 245.167 19.7559 245.167C21.0921 245.167 22.1783 246.253 22.1783 247.598C22.1783 248.943 21.0921 250.029 19.7559 250.029ZM19.7559 246.137C18.9484 246.137 18.2948 246.8 18.2948 247.608C18.2948 248.415 18.9484 249.078 19.7559 249.078C20.5634 249.078 21.2171 248.415 21.2171 247.608C21.2171 246.8 20.5634 246.137 19.7559 246.137Z" fill="white"/>
<path d="M27.3404 250.029C26.0042 250.029 24.918 248.943 24.918 247.598C24.918 246.253 26.0042 245.167 27.3404 245.167C28.6766 245.167 29.7628 246.253 29.7628 247.598C29.7628 248.943 28.6766 250.029 27.3404 250.029ZM27.3404 246.137C26.5329 246.137 25.8792 246.8 25.8792 247.608C25.8792 248.415 26.5329 249.078 27.3404 249.078C28.1479 249.078 28.8015 248.415 28.8015 247.608C28.8015 246.8 28.1479 246.137 27.3404 246.137Z" fill="white"/>
<path d="M12.211 250.029C10.8748 250.029 9.78857 248.943 9.78857 247.598C9.78857 246.253 10.8748 245.167 12.211 245.167C13.5472 245.167 14.6334 246.253 14.6334 247.598C14.6334 248.943 13.5472 250.029 12.211 250.029ZM12.211 246.137C11.4035 246.137 10.7499 246.8 10.7499 247.608C10.7499 248.415 11.4035 249.078 12.211 249.078C13.0185 249.078 13.6721 248.415 13.6721 247.608C13.6721 246.8 13.0185 246.137 12.211 246.137Z" fill="white"/>
<path d="M6.19142 315.988H110.913C111.099 315.988 111.25 315.837 111.25 315.651L111.25 254.412C111.25 254.227 111.099 254.076 110.913 254.076H6.19142C6.00561 254.076 5.85498 254.227 5.85498 254.412L5.85498 315.651C5.85498 315.837 6.00561 315.988 6.19142 315.988Z" fill="white"/>
<path d="M110.914 316.469H6.20185C5.75005 316.469 5.38477 316.103 5.38477 315.652V254.413C5.38477 253.961 5.75005 253.596 6.20185 253.596H110.923C111.375 253.596 111.741 253.961 111.741 254.413V315.652C111.741 316.103 111.375 316.469 110.923 316.469H110.914ZM6.33643 315.507H110.77V254.557H6.34604V315.507H6.33643Z" fill="#01004C"/>
<path d="M97.5106 269.568H50.1388C49.8697 269.568 49.6582 269.357 49.6582 269.088C49.6582 268.819 49.8697 268.607 50.1388 268.607H97.5106C97.7798 268.607 97.9913 268.819 97.9913 269.088C97.9913 269.357 97.7798 269.568 97.5106 269.568Z" fill="#ACBBFF"/>
<path d="M66.7786 276.748H50.1388C49.8697 276.748 49.6582 276.536 49.6582 276.267C49.6582 275.998 49.8697 275.787 50.1388 275.787H66.7786C67.0477 275.787 67.2592 275.998 67.2592 276.267C67.2592 276.536 67.0477 276.748 66.7786 276.748Z" fill="#7C55FF"/>
<path d="M93.8386 276.748H73.6325C73.3633 276.748 73.1519 276.536 73.1519 276.267C73.1519 275.998 73.3633 275.787 73.6325 275.787H93.8386C94.1077 275.787 94.3192 275.998 94.3192 276.267C94.3192 276.536 94.1077 276.748 93.8386 276.748Z" fill="#ACBBFF"/>
<path d="M80.5056 298.564H50.1388C49.8697 298.564 49.6582 298.353 49.6582 298.084C49.6582 297.814 49.8697 297.603 50.1388 297.603H80.5056C80.7748 297.603 80.9862 297.814 80.9862 298.084C80.9862 298.353 80.7748 298.564 80.5056 298.564Z" fill="#7C55FF"/>
<path d="M97.9336 284.302H50.1388C49.8697 284.302 49.6582 284.09 49.6582 283.821C49.6582 283.552 49.8697 283.341 50.1388 283.341H97.9336C98.2027 283.341 98.4142 283.552 98.4142 283.821C98.4142 284.09 98.2027 284.302 97.9336 284.302Z" fill="#7C55FF"/>
<path d="M65.279 291.49H50.1388C49.8697 291.49 49.6582 291.279 49.6582 291.01C49.6582 290.741 49.8697 290.529 50.1388 290.529H65.279C65.5481 290.529 65.7596 290.741 65.7596 291.01C65.7596 291.279 65.5481 291.49 65.279 291.49Z" fill="#ACBBFF"/>
<path d="M97.5114 291.49H69.9323C69.6631 291.49 69.4517 291.279 69.4517 291.01C69.4517 290.741 69.6631 290.529 69.9323 290.529H97.5114C97.7805 290.529 97.992 290.741 97.992 291.01C97.992 291.279 97.7805 291.49 97.5114 291.49Z" fill="#7C55FF"/>
<path d="M17.649 282.514C17.649 276.661 21.8883 271.798 27.4541 270.818L26.9927 268.098C19.0237 269.444 13.6597 276.998 15.0151 284.965L17.8221 284.484C17.7163 283.84 17.649 283.187 17.649 282.514Z" fill="#7C55FF"/>
<path d="M29.5381 294.403C23.6358 294.403 18.7622 290.107 17.8201 284.475L15.0132 284.956C16.359 292.923 23.9146 298.286 31.8836 296.93L31.4318 294.24C30.8166 294.336 30.1918 294.403 29.5477 294.403H29.5381Z" fill="#CACAE5"/>
<path d="M43.8636 280.064C42.5178 272.096 34.9622 266.734 26.9932 268.089L27.4546 270.809C28.1371 270.684 28.8292 270.616 29.5406 270.616C36.1061 270.616 41.4316 275.941 41.4316 282.505C41.4316 288.435 37.0962 293.326 31.415 294.23L31.8668 296.921C37.846 295.912 42.3544 291.404 43.6617 285.859C43.8828 284.936 44.0078 283.985 44.0462 283.005C44.0751 282.034 44.0174 281.044 43.8444 280.044L43.8636 280.064Z" fill="#ACBBFF"/>
<path d="M107.418 264.706C116.958 264.706 124.692 256.974 124.692 247.436C124.692 237.898 116.958 230.166 107.418 230.166C97.8779 230.166 90.144 237.898 90.144 247.436C90.144 256.974 97.8779 264.706 107.418 264.706Z" fill="#00105B"/>
<path d="M107.417 265.186C97.6311 265.186 89.6621 257.219 89.6621 247.435C89.6621 237.652 97.6311 229.685 107.417 229.685C117.203 229.685 125.172 237.652 125.172 247.435C125.172 257.219 117.203 265.186 107.417 265.186ZM107.417 230.646C98.1598 230.646 90.6234 238.18 90.6234 247.435C90.6234 256.69 98.1598 264.225 107.417 264.225C116.674 264.225 124.21 256.69 124.21 247.435C124.21 238.18 116.674 230.646 107.417 230.646Z" fill="#00105B"/>
<path d="M108.974 263.024C118.515 263.024 126.249 255.292 126.249 245.754C126.249 236.216 118.515 228.483 108.974 228.483C99.4341 228.483 91.7002 236.216 91.7002 245.754C91.7002 255.292 99.4341 263.024 108.974 263.024Z" fill="#ACBBFF"/>
<path d="M108.973 263.504C99.1873 263.504 91.2183 255.537 91.2183 245.753C91.2183 235.97 99.1873 228.002 108.973 228.002C118.759 228.002 126.728 235.97 126.728 245.753C126.728 255.537 118.759 263.504 108.973 263.504ZM108.973 228.964C99.716 228.964 92.1795 236.498 92.1795 245.753C92.1795 255.008 99.716 262.543 108.973 262.543C118.23 262.543 125.767 255.008 125.767 245.753C125.767 236.498 118.23 228.964 108.973 228.964Z" fill="#00105B"/>
<path d="M116.927 253.798C116.927 249.301 113.284 245.658 108.785 245.658C104.286 245.658 100.643 249.301 100.643 253.798C100.643 253.827 116.918 253.837 116.918 253.798H116.927Z" fill="white"/>
<path d="M109.668 254.307C107.496 254.307 105.246 254.307 103.526 254.307C101.283 254.307 100.161 254.141 100.161 253.808C100.161 249.06 104.025 245.187 108.784 245.187C113.542 245.187 117.406 249.05 117.406 253.808C117.406 254.147 114.827 254.317 109.668 254.317V254.307ZM101.142 253.327C103.516 253.346 114.09 253.346 116.426 253.327C116.186 249.32 112.85 246.138 108.784 246.138C104.718 246.138 101.382 249.32 101.142 253.327Z" fill="#00105B"/>
<path d="M104.216 239.921C104.216 242.477 106.283 244.543 108.84 244.543C111.397 244.543 113.464 242.477 113.464 239.921C113.464 237.364 111.397 235.298 108.84 235.298C106.283 235.298 104.216 237.364 104.216 239.921Z" fill="white"/>
<path d="M108.839 245.023C106.022 245.023 103.734 242.736 103.734 239.92C103.734 237.104 106.022 234.817 108.839 234.817C111.655 234.817 113.943 237.104 113.943 239.92C113.943 242.736 111.655 245.023 108.839 245.023ZM108.839 235.778C106.551 235.778 104.696 237.633 104.696 239.92C104.696 242.207 106.551 244.062 108.839 244.062C111.127 244.062 112.982 242.207 112.982 239.92C112.982 237.633 111.127 235.778 108.839 235.778Z" fill="#00105B"/>
<path d="M187.719 69.1485C187.7 68.841 187.719 68.543 187.719 68.2355C187.431 52.0992 173.463 38.8846 157.468 38.8846C154.68 38.8846 151.979 39.269 149.412 39.9802C143.26 25.0453 128.562 14.5312 111.403 14.5312C89.092 14.5312 70.9431 32.3013 70.3279 54.4538H63.4355C50.9005 54.4538 40.7397 64.6123 40.7397 77.1446V77.4521C40.7397 89.9844 50.9005 100.143 63.4355 100.143H160.505C177.674 100.143 188.825 83.872 187.71 69.1485H187.719Z" fill="#CACAE5"/>
<path d="M187.94 63.5743C187.921 63.2667 187.94 62.9688 187.94 62.6613C187.651 46.525 173.684 33.3104 157.688 33.3104C154.901 33.3104 152.2 33.6948 149.633 34.406C143.481 19.4711 128.783 8.95703 111.624 8.95703C89.3127 8.95703 71.1638 26.7271 70.5486 48.8796H63.6562C51.1212 48.8796 40.9604 59.0381 40.9604 71.5703V71.8779C40.9604 84.4101 51.1212 94.5686 63.6562 94.5686H160.726C177.895 94.5686 189.045 78.2978 187.93 63.5743H187.94Z" fill="#ACBBFF"/>
<path d="M160.735 95.0487H63.6647C50.8893 95.0487 40.4883 84.65 40.4883 71.8774V71.5699C40.4883 58.7974 50.8893 48.3987 63.6647 48.3987H70.086C70.9416 25.9674 89.1001 8.47607 111.623 8.47607C128.397 8.47607 143.383 18.4135 149.911 33.8385C152.458 33.1754 155.063 32.839 157.687 32.839C174.058 32.839 188.131 46.4958 188.419 62.6608C188.419 62.7858 188.419 62.9107 188.419 63.0453C188.419 63.2087 188.419 63.3816 188.419 63.545C189.035 71.6852 185.997 80.2291 180.287 86.3895C175.106 91.9829 168.165 95.0583 160.744 95.0583L160.735 95.0487ZM63.6647 49.3597C51.418 49.3597 41.4496 59.326 41.4496 71.5699V71.8774C41.4496 84.1214 51.418 94.0876 63.6647 94.0876H160.735C167.886 94.0876 174.577 91.1179 179.576 85.7264C185.113 79.7582 188.054 71.493 187.458 63.6123C187.439 63.4105 187.448 63.2087 187.458 63.0164C187.458 62.9011 187.458 62.7858 187.458 62.6801C187.179 47.0243 173.548 33.8097 157.687 33.8097C155.015 33.8097 152.352 34.1749 149.757 34.8861C149.516 34.9534 149.276 34.8284 149.18 34.6074C142.884 19.3265 128.147 9.45636 111.613 9.45636C89.4654 9.45636 71.6337 26.7843 71.0185 48.9176C71.0185 49.1771 70.7974 49.3886 70.5378 49.3886H63.6455L63.6647 49.3597Z" fill="#01004C"/>
<path d="M101.172 94.0594C100.902 94.0594 100.691 93.848 100.691 93.5789V65.9771C100.691 65.708 100.902 65.4966 101.172 65.4966C101.441 65.4966 101.652 65.708 101.652 65.9771V93.5789C101.652 93.848 101.441 94.0594 101.172 94.0594Z" fill="white"/>
<path d="M101.019 78.6723H89.3879C89.1187 78.6723 88.9072 78.4609 88.9072 78.1918V68.1006C88.9072 67.8316 89.1187 67.6201 89.3879 67.6201C89.657 67.6201 89.8685 67.8316 89.8685 68.1006V77.7113H101.019C101.288 77.7113 101.5 77.9227 101.5 78.1918C101.5 78.4609 101.288 78.6723 101.019 78.6723Z" fill="white"/>
<path d="M89.407 68.4659C88.3303 68.4659 87.4556 67.5913 87.4556 66.5149C87.4556 65.4385 88.3303 64.564 89.407 64.564C90.4836 64.564 91.3584 65.4385 91.3584 66.5149C91.3584 67.5913 90.4836 68.4659 89.407 68.4659ZM89.407 65.5154C88.859 65.5154 88.4168 65.9575 88.4168 66.5053C88.4168 67.0531 88.859 67.4952 89.407 67.4952C89.9549 67.4952 90.3971 67.0531 90.3971 66.5053C90.3971 65.9575 89.9549 65.5154 89.407 65.5154Z" fill="white"/>
<path d="M114.287 94.1549C114.018 94.1549 113.807 93.9434 113.807 93.6743V52.6754C113.807 52.4063 114.018 52.1948 114.287 52.1948C114.556 52.1948 114.768 52.4063 114.768 52.6754V93.6743C114.768 93.9434 114.556 94.1549 114.287 94.1549Z" fill="white"/>
<path d="M101.154 66.1793C99.5297 66.1793 98.2031 64.853 98.2031 63.2288C98.2031 61.6046 99.5297 60.2783 101.154 60.2783C102.779 60.2783 104.105 61.6046 104.105 63.2288C104.105 64.853 102.779 66.1793 101.154 66.1793ZM101.154 61.2298C100.058 61.2298 99.1644 62.1236 99.1644 63.2192C99.1644 64.3148 100.058 65.2086 101.154 65.2086C102.25 65.2086 103.144 64.3148 103.144 63.2192C103.144 62.1236 102.25 61.2298 101.154 61.2298Z" fill="white"/>
<path d="M127.811 94.0594C127.542 94.0594 127.33 93.848 127.33 93.5789V65.9771C127.33 65.708 127.542 65.4966 127.811 65.4966C128.08 65.4966 128.291 65.708 128.291 65.9771V93.5789C128.291 93.848 128.08 94.0594 127.811 94.0594Z" fill="white"/>
<path d="M139.605 78.6723H127.973C127.704 78.6723 127.493 78.4609 127.493 78.1918C127.493 77.9227 127.704 77.7113 127.973 77.7113H139.124V68.1006C139.124 67.8316 139.336 67.6201 139.605 67.6201C139.874 67.6201 140.085 67.8316 140.085 68.1006V78.1918C140.085 78.4609 139.874 78.6723 139.605 78.6723Z" fill="white"/>
<path d="M139.577 68.4659C138.5 68.4659 137.625 67.5913 137.625 66.5149C137.625 65.4385 138.5 64.564 139.577 64.564C140.654 64.564 141.528 65.4385 141.528 66.5149C141.528 67.5913 140.654 68.4659 139.577 68.4659ZM139.577 65.5154C139.029 65.5154 138.587 65.9575 138.587 66.5053C138.587 67.0531 139.029 67.4952 139.577 67.4952C140.125 67.4952 140.567 67.0531 140.567 66.5053C140.567 65.9575 140.125 65.5154 139.577 65.5154Z" fill="white"/>
<path d="M127.829 66.1793C126.204 66.1793 124.877 64.853 124.877 63.2288C124.877 61.6046 126.204 60.2783 127.829 60.2783C129.453 60.2783 130.78 61.6046 130.78 63.2288C130.78 64.853 129.453 66.1793 127.829 66.1793ZM127.829 61.2298C126.733 61.2298 125.839 62.1236 125.839 63.2192C125.839 64.3148 126.733 65.2086 127.829 65.2086C128.924 65.2086 129.818 64.3148 129.818 63.2192C129.818 62.1236 128.924 61.2298 127.829 61.2298Z" fill="white"/>
<path d="M114.303 52.8294C112.419 52.8294 110.89 51.3013 110.89 49.4176C110.89 47.534 112.419 46.0059 114.303 46.0059C116.187 46.0059 117.715 47.534 117.715 49.4176C117.715 51.3013 116.187 52.8294 114.303 52.8294ZM114.303 46.9669C112.947 46.9669 111.851 48.0625 111.851 49.4176C111.851 50.7727 112.957 51.8684 114.303 51.8684C115.648 51.8684 116.754 50.7727 116.754 49.4176C116.754 48.0625 115.648 46.9669 114.303 46.9669Z" fill="white"/>
</svg>
