<svg width="529" height="430" viewBox="0 0 529 430" fill="none" xmlns="http://www.w3.org/2000/svg">
<g clip-path="url(#clip0_51_1091)">
<path d="M186.949 388.043C195.221 392.467 203.668 396.602 211.69 401.44C215.53 403.756 215.018 406.199 211.043 408.438C199.624 414.87 188.166 421.232 176.759 427.685C175.522 428.385 174.52 429.498 173.704 430.71C165.979 431 157.958 431 149.468 430.551C149.001 427.391 149.002 424.68 149.209 421.704C156.664 417.429 163.914 413.419 171.162 409.408C177.395 405.958 183.684 402.604 189.821 398.991C191.54 397.978 195.006 396.724 191.003 393.656C189.609 391.555 188.279 389.799 186.949 388.043Z" fill="#7E96CD"/>
<path d="M1 222.444C6.08333 219.663 11.1667 217.325 16.8569 215.029C17.6355 215.106 17.8072 215.143 17.9264 215.576C17.8685 218.645 17.8632 221.319 17.7963 224.376C18.6311 226.009 19.2539 227.735 20.4678 228.434C28.9679 233.327 37.4592 238.276 46.257 242.587C48.7286 243.798 52.7436 244.013 55.143 242.836C64.2368 238.372 73.0192 233.253 81.7404 228.08C82.8128 227.444 82.8139 225.002 83.4809 222.95C83.8072 220.031 83.964 217.557 84.4118 215.156C86.0518 215.204 87.4008 215.178 88.8836 215.513C89.9128 216.364 90.8082 216.855 91.5294 217.578C92.132 218.473 92.9089 219.135 94.0204 219.961C96.3442 222.096 98.3333 224.066 100.172 226.358C98.3449 227.976 96.8365 229.624 94.9667 230.508C78.6537 238.221 64.6906 250.832 45.8268 253.933C43.9772 253.274 42.4855 252.653 40.9904 251.763C40.9922 251.315 40.9976 251.135 40.8492 250.669C35.1567 246.915 29.6178 243.448 23.7657 239.983C22.9638 240.317 22.475 240.65 21.693 240.96C20.9345 240.626 20.4693 240.315 20.1483 239.952C20.194 239.932 20.0954 239.964 19.7213 239.969C18.4406 237.63 16.4642 237.738 14.352 237.277C12.8626 236.953 12.1393 233.864 10.5486 233.093C7.56683 231.647 4.20421 230.987 1 230C1 227.629 1 225.259 1 222.444Z" fill="#EAEEF8"/>
<path d="M41.0029 250.956C40.9976 251.135 40.9922 251.315 40.9928 252.184C40.6519 255.287 40.3051 257.7 39.9584 260.114C28.7463 254.007 17.5367 247.896 6.31905 241.8C4.75544 240.95 3.15206 240.174 1.28354 239.682C1 236.969 1 233.939 1 230.454C4.20421 230.987 7.56683 231.647 10.5486 233.092C12.1393 233.864 12.8626 236.953 14.352 237.277C16.4642 237.738 18.4406 237.63 19.7229 239.971C20 240 20.004 240.003 20.004 240.003C20.4693 240.315 20.9345 240.626 21.7024 240.97C22.005 241.002 22.0255 241.017 22.1918 241.256C22.9033 241.668 23.4485 241.84 23.9976 242.007C24.0015 242.001 23.9892 242.002 24.0991 242.213C24.4081 242.688 24.6689 242.858 25.1939 243.21C30.5985 245.977 35.8007 248.466 41.0029 250.956Z" fill="#CCD2E9"/>
<path d="M230.197 10.9613C231.889 9.3014 233.475 7.5122 235.302 6.01648C237.28 4.39632 239.482 3.04978 241.294 1.29195C244.362 1 247.723 1 251.542 1C252.456 1.69383 252.77 2.57266 253.392 3.05028C256.516 5.45004 259.721 7.74498 262.459 10.4291C257.11 13.2864 252.2 15.7914 246.901 18.2195C244.711 17.4361 242.878 16.799 241.114 16.0086C237.456 14.3693 233.834 12.6486 230.197 10.9613Z" fill="#EEF1F9"/>
<path d="M497.168 180.976C497.612 180.036 497.802 178.658 498.543 178.229C502.566 175.899 506.616 173.545 510.891 171.758C512.542 171.068 515.071 171.286 516.742 172.068C521.046 174.084 525.094 176.647 529.622 178.995C530 179.444 530 179.889 529.635 180.662C524.209 183.684 519.148 186.377 513.722 189.01C507.959 186.292 502.564 183.634 497.168 180.976Z" fill="#EEF1F9"/>
<path d="M514.088 189.07C519.149 186.377 524.209 183.684 529.635 180.995C530 187.021 530 193.042 529.583 199.538C524.145 201.986 519.124 203.959 514.056 205.472C514.036 199.699 514.062 194.384 514.088 189.07Z" fill="#8199CF"/>
<path d="M514.103 205.932C519.123 203.959 524.144 201.986 529.582 200.006C530 201.067 530 202.133 530 203.6C527.311 205.008 523.996 205.341 522.045 207.146C514.922 213.739 508.834 209.743 502.541 206.021C501.022 205.123 499.289 204.477 498.029 203.311C497.553 202.87 498.135 201.285 498.955 200.099C501.522 200.58 503.421 201.06 505.203 201.817C508.209 203.096 511.14 204.551 514.103 205.932Z" fill="#E6EAF6"/>
<path d="M134.455 431C134 431 134.042 430.509 134.36 430.173C135.378 427.785 136.077 425.733 136.789 423.646C139.103 423.756 141.546 423.872 143.993 424.427C143.998 426.91 143.999 428.955 144 431C140.97 431 137.939 431 134.455 431Z" fill="#ACB9DE"/>
<path d="M144.416 431C143.999 428.955 143.998 426.91 144.2 424.326C144.665 423.603 144.855 423.365 145.207 422.791C146.628 422.332 147.815 422.151 149.003 421.969C149.002 424.68 149.001 427.391 148.999 430.551C147.611 431 146.222 431 144.416 431Z" fill="#8BA1D3"/>
<path d="M295.347 292.766C281.212 292.82 267.077 292.873 252.658 292.571C252.582 289.559 252.965 286.903 252.972 284.247C253.026 266.293 253.037 248.339 252.946 230.385C252.937 228.52 252.174 226.658 252.049 224.554C255.052 223.551 257.723 222.447 260.492 222.084C272.491 220.513 284.519 219.158 296.675 218.196C296.865 226.139 296.934 233.61 296.959 241.081C296.984 248.85 298.779 251.041 307.096 253.375C308.503 254.068 309.727 254.481 311.328 254.932C312.462 254.968 313.219 254.966 314.351 254.975C315.478 254.982 316.23 254.978 317.318 254.806C318.435 252.77 319.863 250.91 319.892 249.029C320.092 236.281 320.062 223.528 319.913 210.779C319.894 209.198 318.736 207.629 318.279 205.778C322.999 200.924 327.902 196.644 332.026 191.713C343.914 177.499 352.46 161.187 360.798 144.756C361.596 143.182 363.659 142.25 364.98 141.337C364.559 143.483 364.293 145.312 364.028 147.14C364.028 165.908 364.028 184.676 364.028 203.752C365.283 203.85 366.264 204.124 367.171 203.969C379.413 201.879 389.454 207.263 399.41 213.207C406.382 217.37 413.607 221.108 420.547 225.32C422.071 226.245 423.702 228.352 423.742 229.953C423.776 231.335 421.619 232.773 419.95 234.601C418.951 235.317 418.432 235.618 417.604 235.945C416.812 236.304 416.33 236.636 415.564 236.992C414.824 237.32 414.367 237.624 413.619 237.955C412.94 238.028 412.553 238.074 411.701 238.08C405.671 237.369 400.828 238.972 395.982 241.802C392.734 243.699 391.41 245.687 392.096 249.425C392.051 249.639 391.913 250.055 391.582 250.177C387.797 253.003 384.276 255.118 379.524 255.07C361.708 254.891 343.889 254.994 326.071 255.013C324.92 255.014 323.77 255.202 322.291 255.332C326.806 258.083 330.884 260.432 334.82 263C339.649 266.151 339.376 268.484 334.49 271.273C325.603 276.345 316.863 281.675 307.699 286.944C303.9 285.321 300.463 283.652 296.844 281.694C289.986 277.975 283.311 274.546 276.635 271.116C276.294 271.797 275.953 272.477 275.611 273.157C282.416 276.729 289.22 280.302 296.297 284.078C298.811 285.801 301.053 287.319 302.968 288.933C302.061 289.699 301.48 290.369 300.527 290.993C298.522 290.322 296.888 289.7 295.078 288.834C286.372 283.941 277.842 279.292 269.312 274.643C268.925 275.354 268.537 276.064 268.15 276.775C277.145 281.728 286.14 286.681 295.18 291.919C295.266 292.391 295.307 292.579 295.347 292.766Z" fill="#7E96CD"/>
<path d="M296.536 217.724C284.519 219.158 272.491 220.513 260.492 222.084C257.724 222.447 255.052 223.551 251.797 224.582C250.799 225.055 250.342 225.261 249.548 225.554C248.399 226.033 247.586 226.424 246.508 226.852C245.798 227.147 245.352 227.405 244.574 227.743C243.07 228.483 241.898 229.143 240.394 229.886C237.041 231.981 234.02 233.993 230.682 236.113C212.023 251.273 196.785 269.062 183.619 289.108C182.191 291.173 181.019 293.034 179.596 295.106C178.22 297.203 177.094 299.09 175.697 301.178C172.098 306.882 168.64 312.314 165.519 317.933C164.553 319.672 164.503 321.92 164.033 323.936C161.567 324.956 159.185 326.381 156.618 326.909C151.891 327.882 149.644 325.148 149.035 320.073C149.954 317.996 150.807 316.603 151.91 314.94C160.44 301.449 168.721 288.227 177.291 274.851C178.76 272.863 179.94 271.028 181.399 269.02C182.803 267.257 183.928 265.666 185.35 263.915C198.635 246.999 213.245 231.926 231.315 219.995C235.137 218.006 238.618 216.114 242.424 214.195C243.503 213.789 244.258 213.411 245.293 212.992C246.052 212.649 246.529 212.348 247.327 212.084C248.066 212.029 248.484 211.936 249.284 211.783C258.27 210.486 266.92 209.486 275.47 207.937C282.693 206.628 289.802 204.683 297.323 202.983C301.393 200.759 305.102 198.571 309.025 196.324C309.542 195.95 309.844 195.635 310.429 195.215C311.127 194.694 311.542 194.278 312.241 193.755C313.343 192.76 314.162 191.87 315.294 190.859C319.312 186.289 323.376 182.09 326.655 177.348C340.088 157.925 350.64 136.929 359.767 115.196C361.606 110.818 363.212 106.341 364.925 101.91C367.787 93.9395 370.673 85.9775 373.502 77.9951C375.411 72.6096 377.319 67.2216 379.078 61.7862C380.577 57.1526 384.023 56.3944 388.125 57.0504C392.063 57.6803 393.691 60.1953 392.974 64.0782C392.353 67.4491 391.814 70.8744 390.751 74.116C389.073 79.2334 386.988 84.2172 384.979 89.9602C382.91 95.1074 380.938 99.5521 378.702 104.221C377.329 107.314 376.219 110.182 374.944 113.369C372.812 118.785 370.846 123.882 368.551 129.099C366.795 132.739 363.289 135.832 365.905 140.399C365.672 140.847 365.435 140.986 365.136 141.02C363.66 142.25 361.597 143.182 360.798 144.756C352.46 161.187 343.914 177.499 332.026 191.713C327.902 196.644 322.999 200.924 317.995 205.876C316.964 206.789 316.389 207.328 315.515 207.937C314.4 208.611 313.584 209.216 312.501 209.877C311.817 210.26 311.4 210.585 310.65 210.975C308.769 211.952 307.221 212.866 305.319 213.833C302.156 215.166 299.346 216.445 296.536 217.724Z" fill="#054CB1"/>
<path d="M183.875 288.904C196.786 269.062 212.023 251.273 230.658 236.581C230.98 253.321 231.008 269.702 231.036 286.083C232.007 287.91 232.519 290.428 234.035 291.435C238.773 294.584 243.893 297.158 248.858 299.964C253.258 302.451 253.485 305.851 249.076 308.42C237.133 315.379 225.093 322.176 212.996 328.867C211.398 329.751 209.255 329.915 207.356 329.944C200.206 330.055 193.054 329.972 185.446 329.429C184.995 317.273 185.047 305.65 184.957 294.028C184.943 292.317 184.252 290.612 183.875 288.904Z" fill="#7F97CE"/>
<path d="M263.184 73.9815C262.606 71.0224 262.99 68.9095 266.165 67.1599C279.6 59.7581 292.54 51.3846 306.308 44.7007C311.31 42.2725 317.839 43.2852 323.615 46.8534C335.701 54.3185 348.32 60.9166 360.618 68.0462C362.065 68.8852 362.875 70.8236 363.624 72.7793C360.912 74.8318 358.62 76.4688 356.19 77.8644C343.432 85.1915 330.639 92.4576 317.478 99.7841C316.08 99.9462 315.063 100.069 313.672 100.132C312.545 100.083 311.791 100.094 310.695 100.03C309.235 99.6343 308.118 99.3132 306.796 98.7205C292.122 90.293 277.653 82.1372 263.184 73.9815Z" fill="#EFF2F9"/>
<path d="M196.186 148.968C194.639 144.182 198.781 142.846 201.446 141.311C213.832 134.176 226.236 127.014 239.057 120.724C242.94 118.819 248.3 118.878 252.761 119.54C256.111 120.038 259.105 122.939 262.754 125.155C264.249 126.391 265.142 127.43 266.262 128.066C274.775 132.9 283.314 137.689 291.888 142.415C294.781 144.01 297.333 145.715 296.639 149.631C281.46 158.048 266.655 166.388 251.469 174.773C250.08 174.969 249.071 175.121 247.689 175.196C246.558 175.136 245.801 175.151 244.669 175.111C243.538 174.984 242.783 174.914 241.808 174.593C226.454 165.884 211.32 157.426 196.186 148.968Z" fill="#EFF2F9"/>
<path d="M130.195 215.962C131.141 213.974 131.588 211.347 133.14 210.137C135.956 207.94 139.43 206.587 143.186 204.547C144.766 203.53 145.789 202.846 147.136 202.071C148.299 201.262 149.139 200.545 150.335 199.896C151.89 199.333 153.088 198.702 154.286 198.071C161.194 194.057 167.741 189.058 175.129 186.355C180.581 184.36 187.089 185.457 192.226 189.647C193.04 190.31 194.205 190.544 195.641 191.288C196.96 192.513 197.693 193.697 198.755 194.3C207.721 199.387 216.712 204.433 225.777 209.339C228.494 210.809 230.563 212.387 229.663 216.024C228.021 217.139 226.733 218.168 225.327 218.998C216.237 224.362 207.122 229.683 197.657 235.034C193.2 237.368 189.1 239.686 184.752 241.989C184.503 241.974 184.006 242.027 183.562 242.008C180.749 241.953 178.379 241.917 175.797 241.623C160.454 232.896 145.325 224.429 130.195 215.962Z" fill="#EFF2F9"/>
<path d="M297.011 149.553C297.332 145.715 294.781 144.01 291.888 142.415C283.314 137.689 274.775 132.9 266.262 128.066C265.141 127.43 264.249 126.391 263.106 125.223C262.98 108.24 262.998 91.5745 263.1 74.4451C277.654 82.1372 292.123 90.293 306.798 99.19C307.002 129.999 306.966 160.066 307.08 190.133C307.087 192.219 308.208 194.3 308.811 196.383C305.102 198.571 301.394 200.759 297.292 202.563C296.832 200.503 296.766 198.826 296.796 196.674C296.932 180.65 296.972 165.102 297.011 149.553Z" fill="#CBD1EA"/>
<path d="M186.968 388.031C188.279 389.799 189.609 391.555 190.856 393.969C188.801 396.099 186.961 397.805 184.835 399.003C174.556 404.791 164.102 410.272 153.914 416.211C148.611 419.303 143.282 421.599 137.003 420.829C131.63 417.12 125.519 415.194 120.214 411.591C114.887 407.973 109.088 405.035 103.403 401.971C102.13 401.284 100.473 401.311 98.9112 400.833C98.5509 400.768 98.2725 400.881 97.6612 400.955C95.6118 399.94 93.8953 398.964 92.1788 397.987C90.3116 388.618 98.3698 387.955 104.278 384.605C105.922 383.607 106.964 382.885 108.288 382.047C109.039 381.564 109.509 381.197 110.35 380.893C112.014 380.02 113.307 379.084 114.599 378.149C121.367 374.632 128.146 371.134 134.899 367.589C139.411 365.221 143.756 365.271 148.315 367.715C154.624 371.097 161.108 374.153 167.834 377.988C169.425 379.103 170.7 379.579 171.975 380.055C171.975 380.055 171.993 380.017 172.052 380.368C175.064 382.166 178.017 383.613 180.97 385.06C180.97 385.06 180.995 385.013 181.071 385.365C182.409 386.176 183.671 386.633 184.933 387.091C184.933 387.091 184.996 387 185.071 387.356C185.753 387.827 186.36 387.942 186.968 388.058C186.968 388.058 186.987 388.019 186.968 388.031ZM146.455 388.368C146.455 388.368 146.539 388.357 147.159 388.232C148.01 386.515 148.861 384.798 149.585 382.402C146.971 380.034 144.187 379.925 140.884 381.101C133.058 383.889 125.118 386.358 117.026 389.701C118.78 390.805 120.935 393.18 122.213 392.777C126.111 391.546 128.857 393.226 131.67 395.615C131.595 396.048 131.52 396.481 131.29 397.625C134.668 399.825 137.996 402.111 141.476 404.136C142.024 404.455 143.335 403.729 144.164 403.258C149.651 400.145 155.167 397.072 160.512 393.727C161.585 393.055 161.962 391.27 162.525 389.377C160.131 387.197 157.92 387.332 155.088 389.051C150.27 391.975 145.111 394.34 140.035 396.487C140.035 396.487 140.077 396.031 140.012 396.005C140.012 396.005 140.032 396.071 140.654 395.824C142.133 393.9 143.612 391.976 145.021 390.006C145.021 390.006 145.052 390.084 145.689 389.905C145.933 389.367 146.178 388.828 146.455 388.368Z" fill="#ECF0F8"/>
<path d="M17.9798 215.179C17.8081 215.143 17.6364 215.106 17.2281 214.954C16.9949 204.238 17.4223 193.614 16.8346 183.047C16.5086 177.184 18.145 173.394 23.4143 171.054C24.7294 170.47 25.9589 169.694 27.8795 169.257C43.0808 169.582 57.6305 169.659 72.1803 169.705C72.4465 169.706 72.7139 169.347 72.9807 169.156C73.8777 169.506 74.7818 169.838 75.6704 170.208C82.7416 173.15 84.9195 178.236 84.1953 185.905C83.3748 194.596 84.0502 203.428 84.1843 212.892C84.1703 213.722 84.0474 213.857 83.5733 213.938C80.1568 212.496 77.0913 211.107 73.8485 209.463C71.7816 208.137 69.892 207.068 67.966 205.641C67.8321 204.819 67.7347 204.353 67.6964 203.544C64.8699 201.432 61.9843 199.663 59.0668 197.537C52.6647 191.349 46.6837 191.638 41.6252 198.007C37.6643 199.159 33.332 199.456 33.3421 205.183C33.0637 205.995 32.9365 206.47 32.4691 206.985C29.7207 208.315 27.3124 209.604 24.5945 211.039C22.1832 212.517 20.0815 213.848 17.9798 215.179Z" fill="#1F4FFF"/>
<path d="M391.914 250.055C391.914 250.055 392.051 249.639 392.434 249.32C399.267 245.374 405.717 241.747 412.166 238.121C412.554 238.074 412.941 238.028 414.096 237.98C421.323 237.985 427.785 238.093 434.241 237.962C438.478 237.876 442.707 237.445 446.939 237.168C450.736 239.169 454.613 241.038 458.259 243.282C458.966 243.717 458.961 245.611 458.967 246.833C459.023 257.904 459.008 268.976 458.981 280.764C458.927 281.652 458.906 281.823 458.525 282.001C455.112 280.658 452.057 279.309 448.794 277.703C446.758 276.635 444.931 275.825 442.993 274.672C441.501 272.909 439.18 271.641 438.923 270.041C438.263 265.934 435.881 263.998 431.715 264.814C429.985 265.152 427.775 265.092 426.297 264.279C422.313 262.087 418.654 262.832 415.789 266.751C415.248 267.491 413.847 268.071 412.922 267.974C409.834 267.649 408.205 268.937 407.442 272.128C405.137 274.501 403.057 276.619 400.62 278.808C397.543 280.137 394.821 281.395 392.056 282.208C391.98 271.194 391.947 260.624 391.914 250.055Z" fill="#1F50FF"/>
<path d="M229.961 215.846C230.563 212.387 228.493 210.809 225.777 209.339C216.711 204.433 207.72 199.387 198.754 194.3C197.692 193.697 196.959 192.513 196.019 191.243C195.983 177.224 196.001 163.56 196.102 149.432C211.319 157.426 226.453 165.884 241.797 175.079C242.037 188.617 242.068 201.42 242.099 214.222C238.618 216.114 235.137 218.006 231.264 219.621C230.569 218.179 230.265 217.013 229.961 215.846Z" fill="#CBD1EA"/>
<path d="M317.859 99.7448C330.64 92.4576 343.433 85.1915 356.191 77.8645C358.621 76.4688 360.913 74.8318 363.561 73.1517C363.884 75.3573 363.915 77.7174 363.538 80.6084C361.703 84.4464 360.315 87.7705 358.843 91.0576C349.957 110.912 341.335 130.893 332.004 150.537C328.557 157.794 323.425 164.25 318.985 170.651C318.606 167.955 318.052 165.68 318.04 163.402C317.926 142.183 317.906 120.964 317.859 99.7448Z" fill="#8098CE"/>
<path d="M368.881 128.978C370.846 123.882 372.812 118.785 375.17 113.552C375.929 114.303 376.296 115.191 376.795 116.407C380.843 123.287 387.197 124.989 394.17 125.076C395.058 125.088 395.971 123.177 396.923 121.726C396.975 119.85 396.976 118.405 397.316 116.919C398.11 116.904 398.565 116.93 399.01 117.385C399.026 119.243 399.05 120.672 399.042 122.512C399.5 123.641 399.873 124.85 400.501 125C407.137 126.592 417.787 119.668 419.434 112.705C418.579 107.853 419.572 101.73 411.84 101.794C411.548 101.167 411.331 100.774 410.836 100.082C403.313 96.8169 395.936 97.1772 388.589 99.1826C387.032 99.6077 385.738 101.001 384.223 102.205C384.07 102.639 384.017 102.816 383.596 103.005C381.807 103.344 380.386 103.67 378.966 103.997C380.938 99.5521 382.91 95.1074 385.034 90.3368C386.641 89.3866 388.131 88.8324 389.545 88.1255C394.373 85.7119 399.024 84.6935 404.112 87.9006C409.326 91.1865 414.904 93.8937 420.872 97.2605C422.271 97.7923 423.12 97.9177 423.969 98.0432C423.969 98.0432 423.999 98.0015 423.971 98.3763C426.296 99.8808 428.65 101.01 431.004 102.14C431.004 102.14 431.352 102.222 431.614 102.558C432.222 102.959 432.568 103.025 432.914 103.09C432.914 103.09 432.999 103.001 432.954 103.403C435.265 104.886 437.622 105.967 439.979 107.048C439.979 107.048 439.993 107.014 440.049 107.359C442.308 109.732 444.51 111.761 446.473 114.034C444.886 115.631 443.722 117.271 442.152 118.274C439.084 120.232 435.827 121.907 432.582 123.569C420.564 129.724 408.519 135.826 396.337 141.823C395.9 141.615 395.673 141.699 395.322 141.625C390.075 138.856 385.013 136.414 379.666 133.752C377.584 133.018 375.788 132.504 373.996 131.995C373.999 132 374.009 132.007 373.83 131.744C372.061 130.647 370.471 129.813 368.881 128.978Z" fill="#ECF0F8"/>
<path d="M281.172 364.973C281.712 363.866 281.954 362.25 282.839 361.733C291.149 356.879 299.417 351.903 308.048 347.68C310.689 346.387 314.978 346.163 317.54 347.425C326.418 351.795 334.88 357.012 343.454 361.987C344.134 362.381 344.454 363.394 344.528 364.56C333.768 370.687 323.422 376.374 312.718 381.986C311.043 381.252 309.703 380.633 308.411 379.926C299.326 374.951 290.25 369.959 281.172 364.973Z" fill="#EFF2F9"/>
<path d="M446.713 113.79C444.511 111.761 442.309 109.732 440.033 107.365C442.326 108.033 444.784 108.867 447.041 110.077C453.492 113.533 459.912 117.054 466.245 120.722C470.11 122.961 470.328 126.739 466.588 128.859C457.272 134.142 447.79 139.132 438.402 144.289C436.987 145.066 435.764 146.185 434.373 147.012C429.155 150.117 423.866 152.69 417.414 152.086C412.631 151.638 407.773 151.988 402.734 151.653C406.689 149.1 404.408 145.164 405.205 141.721C418.485 134.197 431.554 126.93 444.643 119.698C447.152 118.312 449.607 117.018 446.713 113.79Z" fill="#7E96CD"/>
<path d="M474.073 289.92C481.686 294.089 489.598 297.81 496.792 302.608C500.606 305.152 496.901 308.298 494.673 309.551C481.589 316.909 468.32 323.942 455.042 330.947C453.543 331.737 451.596 331.921 449.849 331.954C443.877 332.065 437.902 331.983 431.657 331.591C431.571 328.167 431.756 325.125 432.297 322.016C434.532 320.92 436.411 319.892 438.29 318.865C450.463 312.21 462.653 305.583 474.799 298.878C477.23 297.535 478.448 295.836 475.031 293.688C474.443 292.464 473.916 291.557 473.559 290.468C473.845 290.164 473.959 290.042 474.073 289.92Z" fill="#7E96CD"/>
<path d="M313.075 382.061C323.421 376.374 333.767 370.687 344.458 364.931C344.866 375.341 345.191 385.831 344.754 396.29C344.675 398.186 341.478 399.953 339.018 401.927C336.527 402.939 334.719 403.766 332.953 404.674C326.317 408.086 319.695 411.523 313.051 414.486C313.048 403.367 313.061 392.714 313.075 382.061Z" fill="#8199CF"/>
<path d="M312.719 381.986C313.063 392.714 313.049 403.367 312.675 414.509C311.266 414.578 310.173 414.247 309.177 413.728C301.739 409.851 294.32 405.936 286.896 402.034C282.494 401.28 280.759 398.849 280.909 394.239C281.216 384.802 281.01 375.349 281.094 365.437C290.251 369.959 299.326 374.952 308.412 379.926C309.703 380.633 311.043 381.252 312.719 381.986Z" fill="#CAD0EA"/>
<path d="M114.194 378.079C113.307 379.084 112.014 380.02 110.197 380.585C99.6666 374.571 89.6676 368.913 79.6506 363.287C75.2426 360.812 74.8174 359.028 77.985 354.438C79.169 353.782 80.0784 353.344 80.9878 352.906C80.7561 352.535 80.5245 352.164 80.2928 351.793C79.1698 352.5 78.0468 353.207 76.5601 353.956C73.8127 355.333 71.354 356.56 69.117 358.107C68.7303 358.375 68.937 360.62 69.4535 360.909C82.2569 368.079 95.1389 375.108 108.007 382.163C106.965 382.885 105.922 383.607 104.536 384.365C91.8094 377.452 79.369 370.604 67.0744 363.502C62.7183 360.986 62.7787 357.177 67.1552 354.474C72.5181 351.161 78.1066 348.209 83.634 345.167C93.7283 339.612 103.825 334.061 113.966 328.593C123.824 323.278 133.739 318.068 144.184 312.417C145.891 312.672 147.041 313.322 148.018 314.276C146.661 315.168 145.478 315.756 144.061 316.532C143.195 317.12 142.561 317.519 141.572 317.96C139.242 319.115 137.267 320.23 135.009 321.569C134.18 322.177 133.635 322.561 133.09 322.945C133.243 323.159 133.396 323.373 133.549 323.587C134.391 323.086 135.234 322.586 136.432 322.045C138.76 320.889 140.732 319.774 142.937 318.47C143.804 317.881 144.438 317.481 145.419 317.04C146.901 316.331 148.036 315.663 149.484 314.996C150.419 315.068 151.04 315.139 151.661 315.21C150.808 316.603 149.955 317.996 148.971 319.694C136.88 326.52 124.905 333.018 112.962 339.571C103.076 344.994 93.2216 350.474 83.365 355.951C81.9575 356.733 80.6154 357.632 78.5386 358.911C90.5041 365.394 102.146 371.701 114.194 378.079ZM123.333 328.02C122.68 328.436 122.028 328.853 120.848 329.69C119.692 330.214 118.536 330.737 116.854 331.685C115.544 332.431 114.234 333.177 112.312 333.996C111.666 334.422 111.02 334.848 109.802 335.753C107.219 337.046 104.635 338.34 102.052 339.633C102.268 340.036 102.485 340.438 102.702 340.841C105.494 339.253 108.285 337.665 111.687 336.004C112.333 335.58 112.978 335.157 114.15 334.311C115.459 333.567 116.768 332.822 118.755 332.001C119.862 331.36 120.97 330.718 122.705 330.003C123.37 329.557 124.035 329.111 125.271 328.211C125.829 327.826 126.387 327.441 126.946 327.056C126.789 326.835 126.632 326.615 126.475 326.394C125.632 326.909 124.79 327.424 123.333 328.02ZM95.5887 343.073C94.7255 343.651 93.8624 344.228 92.9992 344.806C93.1472 345.072 93.2951 345.338 93.443 345.605C96.2795 344.203 99.1161 342.802 101.953 341.4C101.793 341.069 101.634 340.738 101.475 340.407C99.7767 341.251 98.0784 342.095 95.5887 343.073ZM130.932 325.571C131.611 325.108 132.291 324.646 132.97 324.183C132.847 323.932 132.723 323.68 132.599 323.428C130.707 324.089 128.815 324.751 126.922 325.412C126.995 325.693 127.067 325.974 127.139 326.255C128.142 326.152 129.144 326.049 130.932 325.571ZM88.873 347.928C90.2624 347.432 91.6519 346.936 93.0413 346.44C92.8582 346.06 92.6752 345.68 92.4921 345.3C91.0725 346.021 89.653 346.743 88.873 347.928Z" fill="#FEA302"/>
<path d="M319.061 171.071C323.425 164.25 328.557 157.794 332.004 150.537C341.335 130.893 349.957 110.912 358.843 91.0577C360.315 87.7705 361.703 84.4464 363.466 81.046C363.932 87.797 364.061 94.6413 364.559 101.698C363.213 106.341 361.607 110.818 359.768 115.196C350.641 136.929 340.089 157.925 326.656 177.348C323.377 182.09 319.313 186.289 315.286 190.397C314.497 183.333 314.979 176.814 319.061 171.071Z" fill="#607AB3"/>
<path d="M172.141 108.049C173.829 109.539 175.537 111.007 177.2 112.524C184.963 119.607 183.364 128.22 173.655 131.898C164.777 135.261 155.896 134.612 147.909 130.09C145.011 128.45 142.2 123.455 142.48 120.266C142.785 116.789 146.408 113.323 149.204 110.457C150.715 108.908 153.52 108.622 156.203 107.457C159.573 107.669 162.464 108.422 165.394 108.634C167.617 108.796 169.89 108.269 172.141 108.049Z" fill="#C6CDE7"/>
<path d="M231.384 286.154C231.008 269.702 230.981 253.321 230.977 236.473C234.021 233.993 237.042 231.981 240.722 230.182C241.587 231.85 241.97 233.305 241.972 234.759C242.002 253.879 241.977 272.998 241.966 292.117C238.555 290.153 235.143 288.189 231.384 286.154Z" fill="#C9CFE9"/>
<path d="M286.818 402.393C294.32 405.936 301.739 409.851 309.177 413.728C310.173 414.247 311.266 414.578 312.692 414.974C319.697 411.523 326.319 408.086 332.954 404.674C334.721 403.766 336.529 402.939 338.679 402.063C340.201 402.714 341.324 403.455 342.527 404.026C345.653 405.509 345.985 407.777 342.901 409.55C334.05 414.639 325.176 419.729 316.009 424.198C313.917 425.217 310.243 424.449 307.923 423.272C300.505 419.509 293.348 415.226 286.168 411.01C284.299 409.913 282.716 408.331 281.002 406.971C282.915 405.565 284.828 404.159 286.818 402.393Z" fill="#E6EAF6"/>
<path d="M160.925 80.1574C168.218 79.6924 175.079 80.9667 180.503 86.1826C181.919 87.5452 182.202 90.0864 182.988 92.8448C181.148 99.75 175.779 100.669 170.658 101.995C163.314 103.898 156.414 101.419 149.335 99.6186C149.247 98.9013 149.234 98.4872 149.557 97.9976C153.639 95.7108 157.385 93.4995 161.45 91.0056C161.487 87.2011 161.206 83.6793 160.925 80.1574Z" fill="#EEF1F9"/>
<path d="M295.692 292.859C295.308 292.579 295.267 292.391 295.171 291.492C295.162 290.213 295.209 289.645 295.255 289.077C296.889 289.7 298.523 290.322 300.689 291.315C318.065 300.872 335.093 309.738 351.701 319.333C369.848 329.816 381.579 328.062 395.417 318.103C397.979 317.511 400.166 316.99 402.352 316.469C402.615 316.834 402.878 317.199 403.141 317.564C402.018 318.365 400.894 319.167 399.771 319.968C388.909 327.927 377.15 332.849 363.533 328.84C358.338 327.31 353.479 324.47 348.66 321.869C334.723 314.345 320.884 306.64 307.008 299.004C303.349 296.99 299.693 294.969 295.692 292.859Z" fill="#FEA302"/>
<path d="M399.929 320.31C400.894 319.167 402.017 318.365 403.141 317.564C402.878 317.199 402.615 316.834 402.352 316.469C400.165 316.99 397.978 317.511 395.134 317.976C393.986 317.557 393.495 317.193 393.019 316.474C393.613 315.153 394.192 314.188 394.945 312.933C392.314 313.383 390.236 313.738 388.015 313.742C378.337 310.537 375.68 307.041 376.444 298.161C377.809 298.879 378.902 299.437 379.998 299.997C380 300 380.006 300.006 380.162 300.304C383.549 302.071 386.78 303.539 389.881 305.061C389.831 305.072 389.911 305.031 390.317 304.995C395.658 307.272 400.681 309.526 405.668 311.855C405.982 312.001 405.889 312.896 406.214 313.161C407.457 314.176 408.689 315.293 410.116 315.97C412.757 317.225 415.589 318.08 418.204 319.378C418.768 319.658 418.749 321.111 419 322.455C418.631 325.271 418.262 327.656 417.892 330.041C411.958 326.911 406.023 323.781 399.929 320.31Z" fill="#CCD2E9"/>
<path d="M63.166 82.9899C64.1584 80.1869 77.279 71.8871 79.7844 73.1395C85.0418 75.7674 89.9275 79.139 94.5711 82.6635C89.2196 85.843 84.2629 88.5645 78.9305 91.1701C73.4252 88.3661 68.2956 85.678 63.166 82.9899Z" fill="#EEF1F9"/>
<path d="M230.107 11.4241C233.833 12.6486 237.455 14.3693 241.114 16.0086C242.877 16.799 244.71 17.4362 246.81 18.6525C247.023 24.4665 246.938 29.7705 246.49 35.058C244.461 34.3773 242.784 33.7403 241.133 33.0435C238.019 31.7298 234.92 30.3816 231.815 29.0478C231.21 27.7062 230.151 26.3874 230.083 25.0189C229.863 20.6515 230.011 16.2656 230.107 11.4241Z" fill="#CAD0EA"/>
<path d="M514.056 205.472C511.14 204.551 508.209 203.096 505.203 201.817C503.422 201.06 501.522 200.58 499.278 199.96C498.253 196.395 497.468 192.864 497.054 189.29C496.772 186.859 497.01 184.367 497.092 181.439C502.564 183.634 507.959 186.292 513.722 189.01C514.061 194.384 514.035 199.699 514.056 205.472Z" fill="#CAD0EA"/>
<path d="M79.3065 91.2859C84.2633 88.5644 89.22 85.843 94.5084 83.0329C94.8915 88.0174 95.0279 93.0924 94.9223 98.1623C94.9013 99.1724 93.9548 100.163 92.8827 101.563C87.9279 103.945 83.5254 105.928 79.1074 107.449C79.1634 101.754 79.235 96.5199 79.3065 91.2859Z" fill="#8199CF"/>
<path d="M246.854 35.0746C246.938 29.7705 247.023 24.4664 247.199 18.7294C252.199 15.7914 257.109 13.2864 262.387 10.7744C262.444 16.7716 262.134 22.7758 261.072 28.91C255.831 31.0515 251.342 33.063 246.854 35.0746Z" fill="#8199CF"/>
<path d="M78.9315 91.17C79.2357 96.5199 79.1641 101.754 78.7375 107.451C73.8821 105.923 69.3818 103.933 64.8815 101.943C64.2544 100.505 63.1614 99.0904 63.0869 97.6242C62.8552 93.0653 63.0099 88.4869 63.0909 83.4529C68.2967 85.6779 73.4263 88.3661 78.9315 91.17Z" fill="#CBD1EA"/>
<path d="M83.9238 213.992C84.0468 213.857 84.1697 213.722 84.3818 213.327C93.7777 208.408 103.585 204.524 112.277 198.912C126.173 189.941 139.728 189.748 154.089 197.749C153.089 198.702 151.891 199.333 150.183 199.566C138.694 193.195 128.089 193.976 117.328 200.17C108.014 205.532 98.2918 210.186 88.75 215.153C87.401 215.178 86.0521 215.204 84.3714 214.882C84.0011 214.353 83.9625 214.173 83.9238 213.992Z" fill="#FEA302"/>
<path d="M373.992 131.99C375.789 132.504 377.585 133.018 379.699 134.11C384.338 137.143 388.659 139.598 392.749 142.314C391.341 144.995 390.166 147.415 388.99 149.836C384.219 147.268 379.449 144.701 374.456 141.665C374.859 140.366 375.484 139.535 376.196 138.588C372.529 139.164 369.247 139.68 365.964 140.196C363.29 135.832 366.795 132.739 368.552 129.099C370.471 129.813 372.061 130.647 373.7 131.796C373.83 132.07 373.911 132.03 373.992 131.99Z" fill="#CCD2E9"/>
<path d="M164.412 323.991C164.503 321.921 164.553 319.672 165.519 317.933C168.64 312.314 172.098 306.882 175.99 301.479C176.702 307.344 176.994 313.11 176.945 318.872C176.916 322.253 176.343 325.628 176.015 329.006C172.273 327.353 168.532 325.7 164.412 323.991Z" fill="#C6CDE7"/>
<path d="M249.884 225.466C250.342 225.261 250.799 225.055 251.509 224.822C252.175 226.658 252.937 228.52 252.947 230.385C253.037 248.339 253.026 266.293 252.973 284.247C252.965 286.903 252.582 289.559 252.194 292.509C251.264 292.863 250.514 292.922 249.572 292.544C249.588 290.979 249.975 289.852 249.975 288.725C249.972 267.639 249.924 246.553 249.884 225.466Z" fill="#8BA1D3"/>
<path d="M149.411 99.9219C156.415 101.419 163.315 103.898 170.659 101.995C175.78 100.669 181.148 99.75 183.018 93.2394C184.964 98.1666 182.179 103.816 176.631 106.008C175.327 106.523 174.075 107.171 172.471 107.904C169.891 108.269 167.617 108.796 165.394 108.634C162.464 108.422 159.573 107.669 156.285 107.092C153.678 106.278 151.451 105.52 149.09 104.017C149.108 102.156 149.259 101.039 149.411 99.9219Z" fill="#CBD1EA"/>
<path d="M244.906 227.662C245.352 227.405 245.798 227.147 246.829 227.155C247.609 229.036 247.97 230.652 247.972 232.269C248.007 252.454 247.989 272.639 247.985 292.823C247.233 292.876 246.48 292.929 245.361 292.447C244.964 270.496 244.935 249.079 244.906 227.662Z" fill="#A7B6DD"/>
<path d="M244.576 227.743C244.937 249.079 244.966 270.496 244.991 292.37C244.078 292.801 243.168 292.775 242.113 292.433C241.978 272.998 242.002 253.879 241.973 234.759C241.971 233.305 241.588 231.85 241.055 230.1C241.9 229.144 243.072 228.483 244.576 227.743Z" fill="#B6C2E2"/>
<path d="M161.13 91.2883C157.384 93.4996 153.638 95.7108 149.186 97.9478C146.069 96.3084 143.659 94.6433 141.248 92.9783C141.205 92.5354 141.162 92.0926 141.349 91.1762C141.8 90.4692 141.92 90.1925 141.942 89.8724C140.948 86.0492 144.512 85.2037 146.782 83.3646C151.886 86.1165 156.508 88.7024 161.13 91.2883Z" fill="#7F97CE"/>
<path d="M246.491 35.058C251.343 33.0631 255.832 31.0515 260.695 29.0702C263.191 30.3763 263.521 31.8138 261.259 33.2095C257.061 35.7987 252.848 38.3725 248.537 40.7625C247.635 41.2619 246.028 41.3897 245.172 40.9172C240.427 38.2982 235.785 35.4856 231.22 32.5638C230.917 32.3693 231.541 30.7246 231.775 29.4011C234.922 30.3816 238.02 31.7298 241.134 33.0435C242.785 33.7403 244.462 34.3773 246.491 35.058Z" fill="#E6EAF6"/>
<path d="M64.4873 101.969C69.3816 103.933 73.8819 105.923 78.7528 107.912C83.5259 105.928 87.9284 103.945 92.7091 101.927C96.2969 102.834 95.5897 104.774 93.6656 105.992C89.6458 108.539 85.5338 111.188 81.0876 112.704C78.9715 113.426 75.8811 111.941 73.4519 110.928C70.3851 109.65 67.3915 108.045 64.6977 106.117C63.914 105.556 64.2634 103.412 64.4873 101.969Z" fill="#E6EAF6"/>
<path d="M183.619 289.108C184.252 290.612 184.943 292.317 184.956 294.028C185.047 305.65 184.995 317.273 184.981 329.352C183.906 329.869 182.84 329.929 181.384 329.455C180.998 319.283 181.057 309.646 180.952 300.011C180.933 298.302 180.233 296.601 179.848 294.896C181.019 293.034 182.191 291.173 183.619 289.108Z" fill="#96A9D6"/>
<path d="M179.597 295.106C180.233 296.601 180.933 298.302 180.952 300.011C181.057 309.646 180.998 319.283 180.99 329.377C179.478 329.763 177.972 329.69 176.24 329.312C176.343 325.628 176.916 322.253 176.945 318.872C176.994 313.11 176.702 307.344 176.261 301.279C177.095 299.09 178.22 297.203 179.597 295.106Z" fill="#ACB9DE"/>
<path d="M248.243 292.889C247.989 272.639 248.007 252.454 247.972 232.269C247.97 230.652 247.609 229.036 247.094 227.117C247.586 226.424 248.399 226.033 249.548 225.554C249.924 246.553 249.973 267.639 249.975 288.725C249.975 289.852 249.588 290.979 249.201 292.471C248.847 292.877 248.674 292.916 248.243 292.889Z" fill="#96A9D6"/>
<path d="M161.45 91.0056C156.509 88.7024 151.887 86.1165 147.102 83.2221C151.314 81.9438 155.689 80.974 160.495 80.0809C161.207 83.6793 161.488 87.2011 161.45 91.0056Z" fill="#2555FC"/>
<path d="M418.072 330.387C418.261 327.656 418.631 325.271 419.249 322.447C419.498 322.007 419.998 321.999 420.23 322.012C420.462 322.025 420.926 322.051 421.038 322.26C421.374 322.71 421.647 322.86 422.204 323.204C423.637 323.669 424.837 323.851 426.022 324.466C425.996 327.21 425.984 329.519 425.972 331.828C423.399 331.463 420.826 331.099 418.072 330.387Z" fill="#B6C2E2"/>
<path d="M426.386 331.91C425.984 329.519 425.996 327.21 426.334 324.456C427.377 323.718 428.094 323.424 429.116 322.99C430.26 322.595 431.099 322.339 431.939 322.084C431.754 325.125 431.569 328.167 431.193 331.512C429.601 331.875 428.2 331.934 426.386 331.91Z" fill="#96A9D6"/>
<path d="M389.326 149.995C390.166 147.415 391.341 144.995 393.171 142.307C394.386 142.01 394.948 141.981 395.509 141.952C395.673 141.699 395.9 141.615 396.596 142.1C397.982 142.689 398.963 142.875 399.961 143.291C399.979 143.522 399.976 143.983 399.555 143.989C392.287 143.711 395.953 148.996 394.985 151.826C393.211 151.269 391.436 150.712 389.326 149.995Z" fill="#BAC5E4"/>
<path d="M365.906 140.399C369.247 139.68 372.529 139.164 376.196 138.588C375.484 139.535 374.859 140.366 374.121 141.514C370.923 143.554 367.838 145.276 364.391 147.069C364.294 145.312 364.559 143.483 364.981 141.337C365.435 140.986 365.672 140.847 365.906 140.399Z" fill="#FEA302"/>
<path d="M141.166 93.3647C143.659 94.6433 146.069 96.3084 148.85 98.0233C149.234 98.4872 149.246 98.9013 149.334 99.6186C149.258 101.039 149.106 102.156 148.918 103.695C142.804 103.278 142.02 98.4576 141.166 93.3647Z" fill="#788BB6"/>
<path d="M72.7557 169.074C72.7138 169.347 72.4465 169.706 72.1803 169.705C57.6305 169.659 43.0808 169.582 28.2394 169.201C28.1433 168.623 28.3387 168.353 29.1087 168.377C43.8111 168.737 57.939 168.803 72.067 168.87C72.067 168.87 72.5308 168.991 72.7557 169.074Z" fill="#3367FF"/>
<path d="M399.977 143.983C399.977 143.983 399.98 143.522 400.329 143.224C402.119 142.615 403.56 142.303 405.001 141.991C404.408 145.164 406.689 149.1 402.272 151.582C401.567 151.89 401.11 151.939 400.322 151.475C399.986 148.637 399.981 146.31 399.977 143.983Z" fill="#8BA1D3"/>
<path d="M71.9785 168.621C57.9382 168.803 43.8102 168.737 29.3662 168.41C29.0501 168.15 29.5186 167.976 30.2204 167.965C44.2823 167.914 57.6423 167.874 71.0023 167.833C71.2985 168.013 71.5947 168.193 71.9785 168.621Z" fill="#0057FF"/>
<path d="M70.7488 167.494C57.6414 167.874 44.2814 167.914 30.459 167.894C30.71 167.557 31.4234 167.04 32.1368 167.04C44.9233 167.041 57.7098 167.105 70.7488 167.494Z" fill="#0000FF"/>
<path d="M399.554 143.989C399.981 146.31 399.985 148.637 399.984 151.397C398.588 151.881 397.197 151.932 395.396 151.905C395.953 148.996 392.286 143.711 399.554 143.989Z" fill="#A7B6DD"/>
<path d="M446.73 237.091C442.707 237.445 438.478 237.876 434.242 237.962C427.785 238.093 421.323 237.985 414.387 237.954C414.368 237.624 414.825 237.32 416.048 237.005C426.57 236.971 436.327 236.948 446.085 236.925C446.085 236.925 446.521 237.014 446.73 237.091Z" fill="#3367FF"/>
<path d="M445.997 236.681C436.327 236.948 426.57 236.971 416.33 236.981C416.33 236.636 416.812 236.304 418.078 235.976C427.592 235.952 436.322 235.923 445.052 235.894C445.338 236.075 445.624 236.256 445.997 236.681Z" fill="#0057FF"/>
<path d="M444.804 235.544C436.323 235.923 427.592 235.952 418.389 235.95C418.434 235.618 418.952 235.317 419.782 234.923C428.247 234.951 436.401 235.073 444.804 235.544Z" fill="#0000FF"/>
<path d="M180.887 384.714C178.017 383.613 175.065 382.166 172.033 380.376C174.904 381.478 177.854 382.923 180.887 384.714Z" fill="#7E96CD"/>
<path d="M439.905 106.704C437.623 105.967 435.266 104.886 432.914 103.449C435.223 104.183 437.526 105.271 439.905 106.704Z" fill="#7E96CD"/>
<path d="M430.922 101.783C428.65 101.011 426.296 99.8808 423.953 98.3948C426.256 99.1675 428.548 100.297 430.922 101.783Z" fill="#7E96CD"/>
<path d="M469.113 286.877C470.671 287.688 472.23 288.5 473.93 289.616C473.958 290.042 473.844 290.164 473.281 290.299C471.344 289.43 469.856 288.548 468.555 287.468C468.865 287.14 468.989 287.008 469.113 286.877Z" fill="#7E96CD"/>
<path d="M458.885 281.995C458.907 281.823 458.928 281.652 459.021 281.23C460.334 281.759 461.577 282.538 462.798 283.798C462.777 284.279 462.479 284.644 462.199 284.495C460.944 283.927 459.967 283.509 458.97 282.817C458.928 282.36 458.906 282.178 458.885 281.995Z" fill="#7E96CD"/>
<path d="M184.853 386.736C183.671 386.633 182.409 386.176 181.049 385.38C182.225 385.489 183.499 385.935 184.853 386.736Z" fill="#7E96CD"/>
<path d="M171.906 379.701C170.7 379.579 169.425 379.103 168.039 378.283C169.231 378.408 170.534 378.878 171.906 379.701Z" fill="#7E96CD"/>
<path d="M462.927 284.097C464.126 284.224 465.174 284.532 466.204 285.337C466.048 285.984 465.911 286.136 465.481 286.196C464.286 285.618 463.382 285.131 462.479 284.644C462.479 284.644 462.777 284.279 462.927 284.097Z" fill="#7E96CD"/>
<path d="M423.889 97.6896C423.121 97.9178 422.271 97.7923 421.207 97.407C421.93 97.21 422.869 97.273 423.889 97.6896Z" fill="#7E96CD"/>
<path d="M466.406 285.619C467.377 285.704 468.126 286.003 468.994 286.589C468.988 287.008 468.864 287.14 468.298 287.324C467.161 287.013 466.466 286.651 465.771 286.288C465.909 286.136 466.047 285.984 466.406 285.619Z" fill="#7E96CD"/>
<path d="M186.902 387.73C186.36 387.942 185.752 387.827 185.041 387.402C185.571 387.196 186.204 387.3 186.902 387.73Z" fill="#7E96CD"/>
<path d="M141.699 89.9717C141.921 90.1925 141.801 90.4692 141.399 90.8446C141.297 90.6814 141.376 90.3762 141.699 89.9717Z" fill="#788BB6"/>
<path d="M432.884 102.77C432.568 103.025 432.222 102.959 431.783 102.615C432.078 102.375 432.465 102.412 432.884 102.77Z" fill="#7E96CD"/>
<path d="M148.191 313.972C147.041 313.322 145.891 312.672 144.345 312.103C140.674 310.126 137.584 307.633 134.07 306.133C130.496 304.606 129.964 302.17 129.971 298.867C130.029 271.541 130.013 244.216 130.107 216.427C145.326 224.429 160.455 232.896 175.797 242.104C176.34 253.565 176.672 264.285 177.003 275.005C168.722 288.227 160.441 301.449 151.911 314.94C151.04 315.139 150.418 315.068 149.393 314.761C148.722 314.34 148.457 314.156 148.191 313.972Z" fill="#CAD0EA"/>
<path d="M100.323 226.035C98.3343 224.066 96.3451 222.096 94.2659 219.726C95.0639 219.216 95.9519 219.106 96.84 218.997C104.429 223.344 112.074 227.6 119.56 232.118C121.021 233.001 122.559 234.802 122.786 236.364C122.979 237.696 121.714 239.943 120.451 240.676C106.98 248.484 93.3942 256.094 79.787 263.665C78.881 264.169 77.5471 263.979 76.4119 263.983C70.247 264.002 64.082 263.981 57.5096 263.539C57.4031 260.064 57.704 257.023 58.2131 253.715C65.6405 249.45 72.8606 245.455 80.0791 241.457C86.2869 238.018 92.546 234.667 98.6659 231.078C100.396 230.064 103.812 229.018 100.323 226.035Z" fill="#7E96CD"/>
<path d="M98.9921 401.01C100.472 401.311 102.129 401.284 103.402 401.971C109.087 405.035 114.886 407.973 120.213 411.591C125.518 415.194 131.629 417.12 137.234 421.109C139.992 422.133 142.483 422.602 144.974 423.07C144.854 423.365 144.664 423.603 144.195 423.887C141.545 423.872 139.102 423.756 136.788 423.646C136.076 425.733 135.376 427.785 134.3 429.934C124.948 425.177 115.973 420.324 106.999 415.471C104.22 413.968 101.551 412.194 98.6403 411.015C92.9866 408.726 90.8687 404.751 92.0966 398.43C93.8944 398.964 95.6109 399.94 97.6642 400.959C98.0009 401.001 98.0095 401.007 98.1043 401.166C98.4706 401.213 98.742 401.101 99.0078 400.994C99.0022 400.998 98.9921 401.01 98.9921 401.01Z" fill="#CBD1EA"/>
<path d="M16.1797 299.97C16.4466 298.991 16.4042 297.5 17.0329 297.12C20.1311 295.25 23.6629 294.026 26.5635 291.916C31.5087 288.319 35.5596 290.543 39.6445 293.212C42.4848 295.068 45.1749 297.154 47.5177 299.562C42.1148 302.705 37.1264 305.423 31.8144 307.973C26.3872 305.193 21.2834 302.582 16.1797 299.97Z" fill="#EEF1F9"/>
<path d="M32.1366 308.14C37.1251 305.423 42.1135 302.705 47.4488 299.918C47.7908 305.758 47.786 311.669 47.0413 317.786C44.3819 318.859 42.4816 319.772 40.5382 320.581C37.6684 321.776 34.7679 322.898 31.9414 323.584C32.0471 318.125 32.0919 313.133 32.1366 308.14Z" fill="#8199CF"/>
<path d="M31.8137 307.973C32.0924 313.133 32.0476 318.125 31.5777 323.572C29.4823 323.367 27.8 322.736 26.1443 322.042C23.0213 320.732 19.9137 319.385 16.7996 318.054C16.5386 312.335 16.2775 306.616 16.0977 300.434C21.2827 302.582 26.3864 305.193 31.8137 307.973Z" fill="#CBD1EA"/>
<path d="M97.012 218.675C95.9513 219.106 95.0633 219.216 93.9307 219.561C92.9092 219.135 92.1323 218.473 91.8105 217.417C100.973 212.426 109.745 207.946 118.371 203.201C127.736 198.049 137.146 197.43 146.813 202.162C145.79 202.846 144.766 203.53 143.413 204.259C140.623 203.537 138.046 201.886 135.724 202.19C131.009 202.807 126.169 203.897 121.854 205.843C113.458 209.63 105.389 214.142 97.012 218.675Z" fill="#FEA302"/>
<path d="M16.7578 318.417C19.9142 319.385 23.0219 320.732 26.1449 322.042C27.8005 322.736 29.4828 323.367 31.5173 324.038C34.769 322.898 37.6694 321.776 40.5393 320.581C42.4826 319.772 44.3829 318.859 46.6784 318.023C49.498 321.069 46.7658 322.543 45.0147 323.913C43.2985 325.256 41.0019 325.83 39.1601 327.045C34.2333 330.294 29.4923 330.431 24.6117 326.925C22.5312 325.43 19.9722 324.555 18.0465 322.911C17.1097 322.111 17.129 320.192 16.7578 318.417Z" fill="#E6EAF6"/>
<path d="M40.0938 260.424C40.3047 257.7 40.6514 255.287 40.9957 252.453C42.4851 252.653 43.9768 253.273 46.2151 253.926C49.3072 254.309 51.6526 254.661 53.8925 255.23C53.59 255.716 53.3367 255.911 52.5984 256.02C48.8281 255.633 46.4325 256.223 46.8114 260.492C46.8816 261.284 45.6026 262.195 44.9464 263.05C43.3741 262.279 41.8018 261.507 40.0938 260.424Z" fill="#C6CDE7"/>
<path d="M45.1699 263.401C45.6039 262.195 46.8828 261.284 46.8126 260.492C46.4338 256.223 48.8294 255.633 52.5925 256.453C53.0045 259.213 52.9947 261.527 52.985 263.841C50.4541 263.811 47.9231 263.782 45.1699 263.401Z" fill="#A7B6DD"/>
<path d="M53.3793 263.918C52.9932 261.527 53.003 259.213 53.0199 256.466C53.3365 255.911 53.5898 255.716 54.1301 254.964C55.6501 254.314 56.8267 254.148 58.0033 253.982C57.7024 257.023 57.4015 260.064 57.0445 263.461C55.9174 263.876 54.8463 263.936 53.3793 263.918Z" fill="#8BA1D3"/>
<path d="M145.208 422.791C142.484 422.602 139.993 422.133 137.27 421.385C143.283 421.599 148.611 419.303 153.914 416.211C164.102 410.272 174.557 404.791 184.835 399.003C186.961 397.805 188.801 396.099 190.921 394.314C195.007 396.724 191.541 397.978 189.822 398.991C183.685 402.604 177.396 405.958 171.163 409.408C163.914 413.419 156.665 417.429 149.21 421.704C147.816 422.151 146.628 422.332 145.208 422.791Z" fill="#788BB6"/>
<path d="M83.3114 223.396C82.8138 225.002 82.8128 227.444 81.7404 228.08C73.0192 233.253 64.2368 238.372 55.143 242.836C52.7436 244.013 48.7286 243.798 46.257 242.587C37.4592 238.276 28.9679 233.327 20.4678 228.434C19.2539 227.735 18.6311 226.009 18.1074 224.225C20.9897 222.133 23.4993 220.574 26.357 218.959C31.1441 216.309 35.583 213.716 40.3822 211.098C49.9497 216.48 52.9831 216.458 59.3477 210.977C64.4756 213.34 69.2393 215.667 74.2061 218.264C77.3766 220.155 80.344 221.775 83.3114 223.396Z" fill="#2151FF"/>
<path d="M58.213 253.715C56.8283 254.148 55.6516 254.314 54.2372 254.746C51.6539 254.661 49.3085 254.309 46.5742 253.964C64.6914 250.832 78.6546 238.221 94.9675 230.508C96.8374 229.624 98.3458 227.976 100.173 226.358C103.812 229.018 100.396 230.064 98.6658 231.078C92.5459 234.667 86.2868 238.018 80.079 241.457C72.8605 245.455 65.6404 249.45 58.213 253.715Z" fill="#788BB6"/>
<path d="M83.4804 222.95C80.3435 221.775 77.3762 220.155 74.2108 217.812C74.0168 214.634 74.0206 212.176 74.0245 209.719C77.09 211.107 80.1554 212.496 83.572 213.938C83.9617 214.173 84.0004 214.353 84.0797 214.809C83.9635 217.557 83.8067 220.031 83.4804 222.95Z" fill="#8AA3FB"/>
<path d="M26.0079 219.016C23.4984 220.574 20.9888 222.133 18.168 223.842C17.8623 221.319 17.8676 218.645 17.9255 215.575C20.0797 213.848 22.1814 212.517 24.8914 211.324C25.6691 213.981 25.8385 216.499 26.0079 219.016Z" fill="#8AA3FB"/>
<path d="M40.8484 250.669C35.7998 248.466 30.5977 245.977 25.074 243.009C24.5494 242.28 24.2946 242.104 23.9883 242.002C23.9883 242.002 24.0006 242.001 23.9995 241.766C23.9983 241.531 24.006 241.048 24.0216 240.781C24.0508 240.336 24.0644 240.159 24.0779 239.981C29.6169 243.448 35.1558 246.915 40.8484 250.669Z" fill="#E6EAF6"/>
<path d="M23.7662 239.983C24.0658 240.159 24.0522 240.336 23.6924 240.78C22.9061 241.037 22.4661 241.027 22.026 241.017C22.026 241.017 22.0055 241.002 21.9961 240.992C22.4755 240.649 22.9643 240.317 23.7662 239.983Z" fill="#CCD2E9"/>
<path d="M19.998 239.998C20.095 239.964 20.1937 239.932 20.148 239.952C20.0037 240.003 19.9997 240 19.998 239.998Z" fill="#CCD2E9"/>
<path d="M22.1914 241.256C22.4652 241.027 22.9053 241.037 23.6759 241.047C24.0065 241.048 23.9989 241.531 23.9961 241.772C23.4482 241.84 22.9029 241.668 22.1914 241.256Z" fill="#EAEEF8"/>
<path d="M24.0996 242.213C24.296 242.104 24.5508 242.28 24.8728 242.732C24.6693 242.858 24.4086 242.688 24.0996 242.213Z" fill="#EAEEF8"/>
<path d="M307.701 286.944C315.375 290.918 322.657 294.992 330.004 298.946C339.541 304.078 349.08 309.212 358.718 314.149C363.003 316.344 367.379 318.666 371.991 319.844C378.015 321.384 382.958 317.778 387.984 314.402C390.237 313.738 392.315 313.383 394.946 312.933C394.193 314.188 393.614 315.153 392.654 316.553C391.374 317.348 390.381 317.566 389.589 318.089C379.193 324.955 369.073 324.155 358.376 318.198C340.203 308.076 321.675 298.59 303.296 288.837C301.054 287.319 298.812 285.801 296.32 283.793C296.39 282.864 296.709 282.423 297.028 281.982C300.465 283.652 303.902 285.321 307.701 286.944Z" fill="#FEA302"/>
<path d="M296.676 218.196C299.346 216.445 302.156 215.166 305.656 214.125C306.565 216.799 306.961 219.235 306.971 221.672C307.014 232.146 306.942 242.62 306.912 253.093C298.78 251.041 296.985 248.85 296.959 241.081C296.935 233.61 296.865 226.139 296.676 218.196Z" fill="#C9CFE9"/>
<path d="M307.096 253.375C306.942 242.62 307.014 232.146 306.971 221.672C306.962 219.235 306.565 216.799 306.01 214.071C307.221 212.866 308.769 211.953 310.653 211.45C310.976 226.206 310.963 240.55 310.951 254.894C309.727 254.481 308.504 254.069 307.096 253.375Z" fill="#BAC5E4"/>
<path d="M315.814 207.867C316.389 207.328 316.963 206.789 317.821 206.152C318.735 207.629 319.894 209.198 319.913 210.779C320.062 223.528 320.092 236.281 319.892 249.029C319.863 250.91 318.435 252.77 317.323 254.341C316.994 240.506 317.041 226.969 316.945 213.433C316.932 211.575 316.209 209.722 315.814 207.867Z" fill="#8BA1D3"/>
<path d="M315.516 207.937C316.21 209.722 316.933 211.575 316.946 213.433C317.042 226.969 316.995 240.506 316.988 254.508C316.231 254.978 315.479 254.982 314.361 254.51C313.997 241.147 314.048 228.259 313.947 215.373C313.933 213.519 313.18 211.671 312.77 209.82C313.585 209.216 314.4 208.611 315.516 207.937Z" fill="#96A9D6"/>
<path d="M312.502 209.877C313.18 211.671 313.933 213.519 313.947 215.373C314.049 228.259 313.997 241.147 313.985 254.499C313.219 254.966 312.463 254.968 311.329 254.932C310.964 240.55 310.976 226.206 310.986 211.386C311.4 210.585 311.817 210.26 312.502 209.877Z" fill="#A7B6DD"/>
<path d="M295.078 288.834C295.208 289.645 295.161 290.213 295.125 291.207C286.14 286.681 277.145 281.728 268.15 276.775C268.538 276.064 268.925 275.354 269.312 274.643C277.842 279.292 286.372 283.941 295.078 288.834Z" fill="#EDA21D"/>
<path d="M411.701 238.08C405.716 241.747 399.266 245.374 392.479 249.105C391.41 245.687 392.734 243.699 395.982 241.802C400.828 238.972 405.671 237.369 411.701 238.08Z" fill="#6886DA"/>
<path d="M296.844 281.694C296.708 282.423 296.388 282.864 296.047 283.589C289.22 280.302 282.416 276.729 275.611 273.157C275.953 272.477 276.294 271.797 276.635 271.116C283.311 274.546 289.987 277.975 296.844 281.694Z" fill="#EDA21D"/>
<path d="M229.664 216.024C230.267 217.013 230.571 218.179 230.926 219.719C213.247 231.926 198.637 246.999 185.321 263.444C185.263 257.29 183.583 251.096 188.363 245.863C191.775 242.149 194.896 238.584 198.016 235.019C207.123 229.683 216.238 224.362 225.328 218.998C226.734 218.168 228.023 217.139 229.664 216.024Z" fill="#627BB5"/>
<path d="M309.025 196.324C308.207 194.3 307.087 192.219 307.079 190.133C306.965 160.066 307.002 129.999 307.001 99.4617C308.118 99.3133 309.235 99.6343 310.682 100.488C310.724 132.453 310.435 163.887 310.147 195.32C309.844 195.635 309.542 195.95 309.025 196.324Z" fill="#BAC5E4"/>
<path d="M318.984 170.651C314.978 176.814 314.496 183.333 314.971 190.519C314.162 191.87 313.343 192.76 312.248 193.303C315.529 162.099 313.437 131.115 314.046 100.192C315.063 100.069 316.08 99.9462 317.478 99.7841C317.905 120.964 317.925 142.183 318.039 163.402C318.051 165.68 318.605 167.955 318.984 170.651Z" fill="#96A9D6"/>
<path d="M313.673 100.132C313.437 131.115 315.53 162.099 311.964 193.409C311.542 194.278 311.127 194.694 310.43 195.215C310.436 163.887 310.724 132.453 311.025 100.563C311.792 100.094 312.546 100.083 313.673 100.132Z" fill="#A7B6DD"/>
<path d="M378.702 104.221C380.386 103.67 381.806 103.344 383.773 103.272C385.904 104.9 387.49 106.273 389.054 108.021C388.447 109.691 387.861 110.985 386.881 113.149C388.703 113.757 390.406 114.325 392.406 115.045C394.127 115.785 395.552 116.372 396.976 116.96C396.975 118.405 396.975 119.85 396.486 121.71C389.268 122.448 383.182 120.969 378.3 115.945C378.057 115.695 377.222 116.02 376.662 116.078C376.295 115.191 375.929 114.303 375.336 113.234C376.219 110.182 377.329 107.314 378.702 104.221Z" fill="#C6CDE7"/>
<path d="M296.698 197.149C296.765 198.826 296.831 200.503 296.929 202.599C289.802 204.683 282.693 206.628 275.469 207.937C266.919 209.486 258.27 210.486 249.312 211.43C249.969 209.749 250.978 208.364 252.432 206.991C259.913 206.4 267.126 206.568 273.935 204.989C281.711 203.187 289.126 199.83 296.698 197.149Z" fill="#607AB3"/>
<path d="M177.292 274.852C176.672 264.285 176.341 253.565 176.01 242.363C178.38 241.917 180.75 241.953 183.391 242.378C182.816 251.576 181.968 260.385 181.121 269.193C179.941 271.028 178.761 272.863 177.292 274.852Z" fill="#ACB9DE"/>
<path d="M251.987 206.978C250.979 208.364 249.971 209.749 248.933 211.489C248.485 211.936 248.067 212.029 247.322 211.651C247.331 207.11 247.868 203.044 247.955 198.968C248.125 191.072 248.041 183.171 248.063 175.272C249.071 175.121 250.08 174.969 251.516 175.265C251.958 186.135 251.973 196.556 251.987 206.978Z" fill="#96A9D6"/>
<path d="M242.425 214.195C242.07 201.42 242.039 188.617 242.018 175.329C242.783 174.914 243.538 174.984 244.656 175.562C245.016 188.391 245.015 200.712 245.014 213.033C244.259 213.411 243.505 213.789 242.425 214.195Z" fill="#B6C2E2"/>
<path d="M245.294 212.992C245.015 200.712 245.016 188.391 245.03 175.618C245.801 175.151 246.558 175.136 247.689 175.196C248.041 183.171 248.125 191.072 247.955 198.968C247.868 203.044 247.331 207.11 247.002 211.614C246.53 212.348 246.052 212.649 245.294 212.992Z" fill="#A7B6DD"/>
<path d="M181.4 269.02C181.968 260.385 182.816 251.576 183.835 242.397C184.007 242.027 184.504 241.974 184.792 242.336C186.078 243.802 187.074 244.906 188.071 246.011C183.583 251.096 185.263 257.29 185.024 263.604C183.929 265.666 182.804 267.257 181.4 269.02Z" fill="#8BA1D3"/>
<path d="M252.433 206.991C251.973 196.556 251.958 186.135 251.896 175.22C266.655 166.388 281.461 158.048 296.639 149.631C296.972 165.102 296.933 180.65 296.796 196.674C289.128 199.83 281.712 203.187 273.936 204.989C267.127 206.568 259.914 206.4 252.433 206.991Z" fill="#8098CE"/>
<path d="M188.362 245.863C187.074 244.906 186.077 243.802 185.041 242.35C189.101 239.686 193.2 237.368 197.657 235.034C194.895 238.584 191.775 242.149 188.362 245.863Z" fill="#8199CF"/>
<path d="M131.444 396.914C131.519 396.481 131.594 396.048 131.986 395.156C131.652 390.72 128.584 390.261 125.403 389.921C122.673 389.63 119.949 389.28 117.223 388.956C125.117 386.358 133.057 383.889 140.883 381.101C144.186 379.925 146.97 380.034 149.381 382.921C148.299 385.08 147.419 386.719 146.538 388.357C146.538 388.357 146.454 388.368 146.092 388.34C145.503 388.903 145.277 389.493 145.051 390.084C145.051 390.084 145.02 390.006 144.697 390.019C142.926 392.045 141.479 394.058 140.031 396.071C140.031 396.071 140.011 396.005 139.678 396.006C136.711 396.309 134.078 396.611 131.444 396.914Z" fill="#2555FC"/>
<path d="M140.097 396.941C145.112 394.34 150.271 391.975 155.089 389.051C157.92 387.332 160.132 387.197 162.271 389.762C155.925 393.705 149.891 397.368 143.691 400.724C142.584 401.323 140.787 400.648 139.309 400.562C139.571 399.355 139.834 398.148 140.097 396.941Z" fill="#2555FC"/>
<path d="M140.065 396.714C139.833 398.148 139.57 399.355 139.307 400.562C140.786 400.648 142.582 401.323 143.689 400.724C149.89 397.368 155.924 393.705 162.337 390.073C161.961 391.27 161.584 393.055 160.511 393.727C155.167 397.072 149.65 400.145 144.163 403.258C143.334 403.729 142.024 404.455 141.476 404.136C137.996 402.111 134.668 399.825 131.367 397.27C134.078 396.611 136.712 396.309 139.711 396.018C140.076 396.031 140.035 396.487 140.065 396.714Z" fill="#1757BA"/>
<path d="M117.125 389.328C119.951 389.28 122.675 389.63 125.405 389.921C128.585 390.261 131.653 390.72 132.058 394.827C128.858 393.226 126.111 391.546 122.213 392.777C120.936 393.18 118.78 390.805 117.125 389.328Z" fill="#1757BA"/>
<path d="M140.344 395.948C141.481 394.058 142.928 392.045 144.734 390.041C143.613 391.976 142.134 393.9 140.344 395.948Z" fill="#1757BA"/>
<path d="M146.85 388.295C147.42 386.719 148.3 385.08 149.446 383.261C148.861 384.798 148.011 386.515 146.85 388.295Z" fill="#1757BA"/>
<path d="M145.37 389.994C145.277 389.493 145.503 388.902 146.075 388.301C146.177 388.828 145.932 389.367 145.37 389.994Z" fill="#1757BA"/>
<path d="M97.998 400.997C98.2726 400.881 98.551 400.768 98.9113 400.833C98.9931 401.01 99.0031 400.998 98.7579 401.007C98.3452 401.013 98.1778 401.01 98.0105 401.007C98.0105 401.007 98.0019 401.001 97.998 400.997Z" fill="#CBD1EA"/>
<path d="M58.9835 210.942C52.9832 216.458 49.9498 216.48 40.1911 210.811C37.3626 209.348 35.0856 208.147 32.8086 206.945C32.9358 206.47 33.0629 205.995 33.6914 205.221C36.7966 205.616 39.4004 206.31 42.2662 207.007C42.7028 207.008 42.8775 207.006 43.0767 207.363C47.4142 213.077 49.535 213.259 58.2485 208.828C58.6616 208.089 58.8282 207.523 59.3766 206.973C62.3845 205.956 65.0105 204.921 67.6365 203.887C67.734 204.353 67.8314 204.819 67.7951 205.943C64.7688 208.049 61.8761 209.495 58.9835 210.942Z" fill="#9EB0F1"/>
<path d="M32.4675 206.985C35.0847 208.147 37.3617 209.348 39.8299 210.837C35.5822 213.716 31.1433 216.309 26.3562 218.959C25.8387 216.499 25.6692 213.981 25.2012 211.178C27.3108 209.604 29.719 208.315 32.4675 206.985Z" fill="#7492FC"/>
<path d="M42.0059 198.005C46.6824 191.638 52.6634 191.349 59.0345 197.569C59.0355 197.958 58.9703 198.018 58.6754 198.033C57.9174 198.367 57.4542 198.686 56.9954 199.003C56.9997 199 57.0072 198.992 56.7829 199.101C56.2753 199.41 56.0857 199.677 55.9945 200.005C55.9995 200 56.0111 199.993 55.7097 200.01C54.936 200.354 54.4637 200.68 53.9954 201.003C53.9994 201 54.0072 200.994 53.5775 200.992C51.4297 200.99 49.7114 200.992 47.9968 200.997C48.0004 201 48.0096 201.006 47.7974 200.747C46.72 200.323 45.8548 200.159 44.9946 199.997C44.9997 200 45.008 200.009 44.9024 199.783C44.5914 199.28 44.3234 199.092 43.9961 198.997C43.9994 199 44.0072 199.005 43.8443 198.762C43.1353 198.355 42.5892 198.19 42.0339 198.02C42.0247 198.015 42.0059 198.005 42.0059 198.005Z" fill="#CFD9FF"/>
<path d="M42.0037 207.003C39.3998 206.31 36.796 205.616 33.8421 204.885C33.3307 199.456 37.663 199.159 41.6238 198.007C42.0058 198.005 42.0246 198.015 42.1915 198.267C42.908 198.681 43.4576 198.843 44.0072 199.005C44.0072 199.005 43.9994 199 44.1035 199.221C44.4134 199.716 44.6802 199.906 45.0079 200.009C45.0079 200.009 44.9996 200 45.2063 200.257C46.2785 200.678 47.144 200.842 48.0095 201.006C48.0095 201.006 48.0003 201 47.9579 201.342C47.6083 202.791 47.3011 203.899 46.9969 205.003C46.9998 205 47.0071 204.995 46.7067 205.008C45.9392 205.346 45.4721 205.671 45.0022 205.998C44.9995 206 44.994 206.003 44.6574 205.99C43.5484 206.319 42.776 206.661 42.0037 207.003Z" fill="#CFD9FF"/>
<path d="M59.3477 210.977C61.876 209.495 64.7686 208.049 67.8313 206.3C69.8911 207.068 71.7807 208.137 73.8476 209.463C74.0211 212.176 74.0172 214.634 74.0081 217.543C69.2393 215.667 64.4756 213.34 59.3477 210.977Z" fill="#7492FC"/>
<path d="M67.6946 203.544C65.0095 204.921 62.3835 205.956 59.1639 206.704C57.044 205.944 55.5177 205.469 53.9951 204.998C53.9988 205 54.0047 205.006 53.9911 204.705C53.9872 203.268 53.997 202.131 54.0067 200.994C54.0067 200.994 53.9989 201 54.2941 200.98C55.063 200.638 55.5368 200.315 56.0106 199.993C56.0106 199.993 55.999 200 56.2159 199.893C56.7157 199.587 56.907 199.323 57.0068 198.992C57.0068 198.992 56.9993 199 57.2901 198.984C58.0439 198.652 58.5069 198.335 58.9698 198.018C58.9698 198.018 59.0351 197.958 59.066 197.926C61.9826 199.663 64.8681 201.432 67.6946 203.544Z" fill="#CFD9FF"/>
<path d="M407.666 271.873C408.205 268.937 409.834 267.649 412.922 267.974C413.847 268.071 415.248 267.491 415.789 266.751C418.654 262.832 422.313 262.087 426.297 264.279C427.775 265.092 429.984 265.153 431.715 264.814C435.881 263.998 438.263 265.934 438.923 270.041C439.18 271.641 441.501 272.909 442.851 274.588C442.821 274.848 442.497 274.901 442.198 275.039C440.187 275.804 438.495 276.495 436.758 277.04C434.77 277.664 432.279 277.834 433.959 281.242C433.921 281.483 433.738 281.937 433.304 281.94C425.341 280.92 417.812 279.898 410.257 278.563C410.29 277.836 410.35 277.422 410.717 276.924C412.208 274.24 412.167 274.198 408.107 273.564C407.906 272.774 407.786 272.323 407.666 271.873ZM422.275 270.406C418.309 272.999 417.956 274.825 421.434 276.023C423.518 276.741 426.153 276.376 428.383 275.843C429.092 275.673 429.297 273.394 429.732 272.08C427.666 271.42 425.601 270.757 423.53 270.109C423.387 270.065 423.205 270.142 422.275 270.406Z" fill="#CFD9FF"/>
<path d="M458.525 282.001C458.905 282.178 458.927 282.36 458.712 283.109C458.29 286.143 458.105 288.61 457.566 291.038C454.441 289.393 451.669 287.786 448.93 285.723C448.975 282.832 448.988 280.396 449.002 277.961C452.057 279.309 455.112 280.658 458.525 282.001Z" fill="#8AA3FB"/>
<path d="M391.984 282.713C394.822 281.395 397.543 280.137 400.63 279.28C401.005 282.137 401.014 284.593 400.817 287.313C397.888 289.139 395.166 290.703 392.333 291.813C392.088 288.582 391.954 285.806 391.82 283.029C391.82 283.029 391.868 282.772 391.984 282.713Z" fill="#8AA3FB"/>
<path d="M401.024 287.05C401.015 284.593 401.005 282.137 400.986 279.209C403.058 276.619 405.138 274.501 407.443 272.128C407.787 272.323 407.907 272.774 408.076 273.916C408.887 275.408 409.649 276.207 410.411 277.007C410.351 277.422 410.291 277.836 410.181 278.925C410.087 280.329 410.043 281.059 409.832 282.091C406.784 283.945 403.904 285.497 401.024 287.05Z" fill="#7492FC"/>
<path d="M448.794 277.703C448.988 280.396 448.975 282.832 448.588 285.637C445.47 284.374 442.726 282.74 440.111 280.784C440.993 278.607 441.745 276.754 442.497 274.901C442.497 274.901 442.821 274.848 442.962 274.931C444.931 275.825 446.758 276.635 448.794 277.703Z" fill="#7492FC"/>
<path d="M411.915 102.027C419.572 101.73 418.579 107.853 419.103 112.837C413.652 119.674 406.855 121.967 399.075 122.101C399.05 120.672 399.026 119.243 399.285 117.248C400.86 116.106 402.152 115.53 403.846 114.949C409.633 113.951 407.146 110.148 407.111 106.859C408.775 105.03 410.345 103.528 411.915 102.027Z" fill="#C6CDE7"/>
<path d="M405.205 141.721C403.56 142.303 402.119 142.615 400.311 142.994C398.963 142.875 397.983 142.689 396.744 142.226C408.52 135.826 420.566 129.724 432.583 123.569C435.829 121.907 439.086 120.232 442.153 118.274C443.724 117.271 444.887 115.631 446.474 114.034C449.607 117.018 447.152 118.312 444.643 119.698C431.555 126.93 418.485 134.197 405.205 141.721Z" fill="#788BB6"/>
<path d="M384.324 101.948C385.739 101.001 387.033 99.6077 388.59 99.1826C395.937 97.1772 403.314 96.8169 410.601 100.329C402.062 105.924 393.241 105.123 384.324 101.948Z" fill="#2555FC"/>
<path d="M384.223 102.205C393.24 105.123 402.061 105.924 410.878 100.627C411.331 100.774 411.548 101.167 411.84 101.794C410.345 103.528 408.775 105.03 406.743 106.814C405.546 107.214 404.813 107.332 403.648 107.275C399.487 107.366 395.756 107.633 391.655 107.886C390.547 107.797 389.811 107.721 389.075 107.646C387.489 106.273 385.904 104.9 384.142 103.26C384.017 102.816 384.07 102.64 384.223 102.205Z" fill="#1757BA"/>
<path d="M399.043 122.512C406.857 121.967 413.653 119.674 418.89 113.095C417.788 119.668 407.138 126.592 400.502 125C399.875 124.85 399.501 123.641 399.043 122.512Z" fill="#788BB6"/>
<path d="M376.795 116.407C377.222 116.02 378.057 115.695 378.3 115.945C383.182 120.969 389.268 122.448 396.435 122.141C395.971 123.177 395.058 125.088 394.17 125.076C387.197 124.989 380.843 123.287 376.795 116.407Z" fill="#788BB6"/>
<path d="M403.445 114.953C402.153 115.53 400.862 116.106 399.296 116.819C398.566 116.93 398.112 116.904 397.317 116.919C395.553 116.372 394.129 115.785 392.322 114.677C391.943 113.404 391.947 112.651 392.289 112.056C396.493 114.959 400.253 113.111 404.029 112.336C403.835 113.466 403.64 114.21 403.445 114.953Z" fill="#788BB6"/>
<path d="M395.323 141.625C394.948 141.981 394.386 142.01 393.403 142.047C388.66 139.598 384.338 137.143 379.984 134.329C385.014 136.414 390.075 138.856 395.323 141.625Z" fill="#8BA1D3"/>
<path d="M391.463 283.012C391.954 285.806 392.088 288.582 392.265 292.149C393.241 294.175 393.913 295.863 395.147 296.574C403.767 301.54 412.369 306.58 421.292 310.953C423.728 312.147 427.741 312.157 430.172 310.963C439.089 306.583 447.632 301.442 456.345 296.642C458.838 295.268 459.782 293.608 457.92 291.076C458.105 288.61 458.291 286.143 458.733 283.383C459.967 283.509 460.943 283.927 462.199 284.495C463.382 285.131 464.285 285.618 465.48 286.196C466.467 286.651 467.161 287.013 468.112 287.521C469.856 288.548 471.344 289.43 473.11 290.481C473.915 291.557 474.443 292.464 474.934 294.025C473.997 295.606 473.252 296.814 472.17 297.417C458.532 305.012 444.879 312.581 431.138 319.988C429.033 321.122 426.469 321.404 423.88 321.929C423.285 321.476 422.928 321.173 422.571 320.87C422.371 321.554 422.171 322.237 421.971 322.921C421.648 322.86 421.375 322.71 420.983 322.074C420.543 321.786 420.271 321.892 419.998 321.999C419.998 321.999 419.499 322.007 419.249 322.015C418.75 321.111 418.768 319.658 418.204 319.378C415.589 318.08 412.757 317.225 410.117 315.97C408.69 315.293 407.457 314.176 406.215 313.161C405.89 312.896 405.982 312.001 405.669 311.855C400.681 309.526 395.658 307.272 390.322 305C390 305 390.011 305.008 390.011 305.008C386.78 303.539 383.55 302.07 380.409 300.3C380.777 299.87 381.055 299.74 381.332 299.61C381.242 299.482 381.152 299.355 381.062 299.227C380.707 299.482 380.352 299.738 379.996 299.994C378.903 299.436 377.809 298.879 376.444 298.161C374.96 292.919 377.025 289.842 381.792 287.926C385.033 286.624 388.01 284.662 391.463 283.012Z" fill="#EAEEF8"/>
<path d="M424.117 322.08C426.469 321.404 429.034 321.122 431.138 319.988C444.879 312.581 458.533 305.012 472.17 297.417C473.252 296.814 473.997 295.606 474.995 294.343C478.447 295.836 477.229 297.535 474.798 298.878C462.652 305.583 450.463 312.21 438.289 318.865C436.41 319.892 434.532 320.92 432.297 322.016C431.101 322.339 430.261 322.595 428.757 322.97C426.767 322.754 425.442 322.417 424.117 322.08Z" fill="#788BB6"/>
<path d="M389.995 304.994C389.911 305.03 389.831 305.072 389.881 305.061C390.01 305.008 389.999 305 389.995 304.994Z" fill="#EAEEF8"/>
<path d="M373.995 131.995C373.91 132.03 373.829 132.07 373.878 132.058C374.008 132.007 373.999 132 373.995 131.995Z" fill="#ECF0F8"/>
<path d="M423.88 321.929C425.442 322.417 426.767 322.754 428.452 323.111C428.095 323.424 427.378 323.718 426.349 324.022C424.838 323.851 423.638 323.669 422.205 323.204C422.171 322.237 422.371 321.554 422.571 320.87C422.928 321.173 423.285 321.476 423.88 321.929Z" fill="#CCD2E9"/>
<path d="M420.23 322.012C420.271 321.892 420.543 321.786 420.871 321.865C420.927 322.051 420.462 322.026 420.23 322.012Z" fill="#CCD2E9"/>
<path d="M98.1055 401.166C98.178 401.01 98.3454 401.013 98.7637 401.003C98.7432 401.101 98.4717 401.213 98.1055 401.166Z" fill="#ECF0F8"/>
<path d="M391.95 111.899C391.946 112.651 391.942 113.404 392.024 114.525C390.406 114.325 388.704 113.757 386.881 113.149C387.861 110.985 388.447 109.691 389.054 108.021C389.811 107.721 390.548 107.797 391.655 108.287C392 109.768 391.975 110.833 391.95 111.899Z" fill="#EAEEF8"/>
<path d="M58.0028 209C49.5358 213.259 47.415 213.077 43.3691 207.348C44.0892 206.651 44.5423 206.327 44.9955 206.003C44.9955 206.003 45.0009 206 45.3021 205.984C46.0717 205.644 46.5401 205.319 47.0085 204.995C47.0085 204.995 47.0013 205 47.3616 204.965C49.8168 204.955 51.9117 204.98 54.0065 205.006C54.0065 205.006 54.0006 205 54.1775 205.259C55.5705 206.679 56.7867 207.84 58.0028 209Z" fill="#CFD9FF"/>
<path d="M58.2474 208.828C56.7848 207.84 55.5686 206.679 54.1719 205.257C55.5176 205.469 57.0439 205.944 58.782 206.687C58.8271 207.523 58.6605 208.089 58.2474 208.828Z" fill="#B2C1F8"/>
<path d="M44.6574 205.99C44.5409 206.327 44.0878 206.651 43.3432 206.99C42.8769 207.006 42.7022 207.008 42.2656 207.007C42.776 206.661 43.5484 206.319 44.6574 205.99Z" fill="#B2C1F8"/>
<path d="M53.9925 204.705C51.9112 204.98 49.8164 204.955 47.3582 204.967C47.3021 203.899 47.6093 202.791 47.9553 201.339C49.7123 200.992 51.4306 200.99 53.5785 200.992C53.9984 202.131 53.9886 203.268 53.9925 204.705Z" fill="#B2C1F8"/>
<path d="M47.7973 200.747C47.1439 200.842 46.2784 200.678 45.2012 200.254C45.8547 200.159 46.7199 200.323 47.7973 200.747Z" fill="#B2C1F8"/>
<path d="M43.8446 198.762C43.458 198.843 42.9084 198.681 42.2012 198.272C42.5895 198.19 43.1356 198.355 43.8446 198.762Z" fill="#B2C1F8"/>
<path d="M58.6763 198.033C58.5082 198.335 58.0453 198.652 57.2871 198.987C57.4551 198.686 57.9183 198.367 58.6763 198.033Z" fill="#B2C1F8"/>
<path d="M55.7102 200.01C55.5378 200.315 55.064 200.638 54.291 200.983C54.4642 200.68 54.9365 200.354 55.7102 200.01Z" fill="#B2C1F8"/>
<path d="M56.7829 199.101C56.9074 199.323 56.7161 199.587 56.2114 199.898C56.0856 199.677 56.2753 199.41 56.7829 199.101Z" fill="#B2C1F8"/>
<path d="M44.9037 199.783C44.6815 199.905 44.4148 199.716 44.1016 199.217C44.3247 199.092 44.5927 199.28 44.9037 199.783Z" fill="#B2C1F8"/>
<path d="M46.708 205.008C46.54 205.319 46.0716 205.644 45.3047 205.982C45.4734 205.671 45.9405 205.346 46.708 205.008Z" fill="#B2C1F8"/>
<path d="M457.566 291.038C459.781 293.608 458.837 295.269 456.344 296.642C447.63 301.442 439.088 306.583 430.171 310.963C427.74 312.157 423.727 312.147 421.291 310.953C412.368 306.58 403.766 301.54 395.146 296.574C393.912 295.863 393.24 294.175 392.375 292.603C395.165 290.703 397.887 289.139 400.816 287.313C403.902 285.497 406.782 283.945 410.214 282.149C413.254 282.518 415.729 283.19 418.233 283.724C420.274 284.159 422.583 283.971 424.361 284.872C427.672 286.55 432.729 285.221 433.738 281.937C433.738 281.937 433.92 281.483 434.382 281.155C436.555 280.919 438.268 281.013 439.981 281.106C442.725 282.74 445.47 284.374 448.556 286.093C451.669 287.786 454.441 289.393 457.566 291.038Z" fill="#2151FF"/>
<path d="M433.305 281.94C432.73 285.221 427.673 286.55 424.362 284.872C422.584 283.971 420.276 284.159 418.234 283.724C415.73 283.19 413.255 282.518 410.384 281.847C410.043 281.059 410.087 280.329 410.208 279.238C417.813 279.898 425.342 280.92 433.305 281.94Z" fill="#B2C1F8"/>
<path d="M422.659 270.284C423.206 270.142 423.388 270.065 423.531 270.109C425.602 270.757 427.667 271.42 429.733 272.08C429.298 273.394 429.093 275.673 428.384 275.842C426.154 276.376 423.519 276.741 421.436 276.023C417.957 274.825 418.31 272.999 422.659 270.284Z" fill="#9EB0F1"/>
<path d="M440.111 280.784C438.269 281.013 436.556 280.919 434.42 280.913C432.279 277.834 434.77 277.664 436.758 277.04C438.495 276.495 440.187 275.803 442.198 275.039C441.745 276.754 440.993 278.607 440.111 280.784Z" fill="#B2C1F8"/>
<path d="M410.717 276.924C409.648 276.207 408.886 275.407 408.156 274.256C412.167 274.198 412.208 274.24 410.717 276.924Z" fill="#B2C1F8"/>
<path d="M403.847 114.949C403.639 114.21 403.834 113.466 404.033 111.961C404.051 109.95 404.066 108.7 404.08 107.451C404.814 107.332 405.547 107.214 406.65 107.141C407.147 110.148 409.634 113.951 403.847 114.949Z" fill="#E6EAF6"/>
<path d="M403.648 107.275C404.065 108.7 404.051 109.95 404.032 111.574C400.252 113.111 396.492 114.959 392.288 112.056C391.975 110.833 392 109.768 392.026 108.301C395.757 107.633 399.487 107.366 403.648 107.275Z" fill="#C6CDE7"/>
<path d="M379.998 299.997C380.351 299.738 380.707 299.482 381.062 299.227C381.152 299.355 381.242 299.482 381.332 299.61C381.055 299.74 380.777 299.87 380.253 300.003C380.006 300.006 380 300 379.998 299.997Z" fill="#CCD2E9"/>
</g>
<defs>
<clipPath id="clip0_51_1091">
<rect width="529" height="430" fill="white"/>
</clipPath>
</defs>
</svg>
