<svg width="680" viewBox="0 0 680 310" xmlns="http://www.w3.org/2000/svg" style="font-family: -apple-system, BlinkMacSystemFont, 'Segoe UI', sans-serif;">
<defs><marker id="arrow" viewBox="0 0 10 10" refX="8" refY="5" markerWidth="6" markerHeight="6" orient="auto-start-reverse"><path d="M2 1L8 5L2 9" fill="none" stroke="context-stroke" stroke-width="1.5" stroke-linecap="round" stroke-linejoin="round"/></marker></defs>

<rect x="0" y="0" width="680" height="310" rx="12" fill="#141420"/>

<text x="340" y="24" text-anchor="middle" font-size="12" fill="#8a8980">How the secondary interface (net1) connects to the physical NIC</text>

<rect x="40" y="50" width="120" height="40" rx="8" fill="#1e1e2e" stroke="#8a8980" stroke-width="0.5"/>
<text x="100" y="70" text-anchor="middle" dominant-baseline="central" font-size="14" font-weight="500" fill="#e0dfd8">Pod</text>
<rect x="190" y="50" width="120" height="40" rx="8" fill="#1e1e2e" stroke="#8a8980" stroke-width="0.5"/>
<text x="250" y="70" text-anchor="middle" dominant-baseline="central" font-size="14" font-weight="500" fill="#e0dfd8">Pod</text>
<rect x="340" y="50" width="120" height="40" rx="8" fill="#1e1e2e" stroke="#8a8980" stroke-width="0.5"/>
<text x="400" y="70" text-anchor="middle" dominant-baseline="central" font-size="14" font-weight="500" fill="#e0dfd8">Pod</text>
<rect x="500" y="50" width="140" height="40" rx="8" fill="#1e1e2e" stroke="#8a8980" stroke-width="0.5"/>
<text x="570" y="70" text-anchor="middle" dominant-baseline="central" font-size="14" font-weight="500" fill="#e0dfd8">Pod</text>

<rect x="56" y="120" width="88" height="30" rx="6" fill="#0d2820" stroke="#1a9e7a" stroke-width="0.5"/>
<text x="100" y="135" text-anchor="middle" dominant-baseline="central" font-size="12" fill="#4dd8a8">macvlan</text>
<rect x="198" y="120" width="104" height="30" rx="6" fill="#301812" stroke="#cc5535" stroke-width="0.5"/>
<text x="250" y="135" text-anchor="middle" dominant-baseline="central" font-size="12" fill="#e88060">host-device</text>
<rect x="362" y="120" width="56" height="30" rx="6" fill="#1a1930" stroke="#7b70e0" stroke-width="0.5"/>
<text x="390" y="135" text-anchor="middle" dominant-baseline="central" font-size="12" fill="#a99ef5">VF</text>
<rect x="522" y="120" width="96" height="30" rx="6" fill="#0e1e35" stroke="#3080d0" stroke-width="0.5"/>
<text x="570" y="135" text-anchor="middle" dominant-baseline="central" font-size="12" fill="#60a8f0">IPoIB child</text>

<line x1="100" y1="90" x2="100" y2="120" stroke="#8a8980" stroke-width="1.5" marker-end="url(#arrow)"/>
<line x1="250" y1="90" x2="250" y2="120" stroke="#8a8980" stroke-width="1.5" marker-end="url(#arrow)"/>
<line x1="400" y1="90" x2="390" y2="120" stroke="#8a8980" stroke-width="1.5" marker-end="url(#arrow)"/>
<line x1="570" y1="90" x2="570" y2="120" stroke="#8a8980" stroke-width="1.5" marker-end="url(#arrow)"/>

<rect x="40" y="190" width="120" height="50" rx="8" fill="#28200e" stroke="#c07818" stroke-width="0.5"/>
<text x="100" y="208" text-anchor="middle" dominant-baseline="central" font-size="14" font-weight="500" fill="#e0a840">PF</text>
<text x="100" y="228" text-anchor="middle" dominant-baseline="central" font-size="12" fill="#c07818">shared</text>

<rect x="190" y="190" width="120" height="50" rx="8" fill="none" stroke="#e87050" stroke-width="1" stroke-dasharray="5 3"/>
<rect x="198" y="198" width="104" height="34" rx="6" fill="#28200e" stroke="#c07818" stroke-width="0.5"/>
<text x="250" y="215" text-anchor="middle" dominant-baseline="central" font-size="14" font-weight="500" fill="#e0a840">PF</text>
<text x="250" y="256" text-anchor="middle" font-size="12" fill="#8a8980">in pod namespace</text>

<rect x="340" y="190" width="120" height="50" rx="8" fill="#28200e" stroke="#c07818" stroke-width="0.5"/>
<text x="400" y="208" text-anchor="middle" dominant-baseline="central" font-size="14" font-weight="500" fill="#e0a840">PF</text>
<text x="400" y="228" text-anchor="middle" dominant-baseline="central" font-size="12" fill="#c07818">manages VFs</text>

<rect x="510" y="190" width="120" height="50" rx="8" fill="#28200e" stroke="#c07818" stroke-width="0.5"/>
<text x="570" y="208" text-anchor="middle" dominant-baseline="central" font-size="14" font-weight="500" fill="#e0a840">IB HCA</text>
<text x="570" y="228" text-anchor="middle" dominant-baseline="central" font-size="12" fill="#c07818">InfiniBand</text>

<line x1="100" y1="150" x2="100" y2="190" stroke="#8a8980" stroke-width="1.5" marker-end="url(#arrow)"/>
<line x1="250" y1="150" x2="250" y2="198" stroke="#e87050" stroke-width="1.5" marker-end="url(#arrow)"/>
<line x1="390" y1="150" x2="400" y2="190" stroke="#8a8980" stroke-width="1.5" marker-end="url(#arrow)"/>
<line x1="570" y1="150" x2="570" y2="190" stroke="#8a8980" stroke-width="1.5" marker-end="url(#arrow)"/>

<text x="100" y="280" text-anchor="middle" font-size="12" fill="#8a8980">Software sharing</text>
<text x="250" y="280" text-anchor="middle" font-size="12" fill="#8a8980">Exclusive access</text>
<text x="400" y="280" text-anchor="middle" font-size="12" fill="#8a8980">Hardware partitions</text>
<text x="570" y="280" text-anchor="middle" font-size="12" fill="#8a8980">IB fabric + SM</text>

<text x="100" y="296" text-anchor="middle" font-size="12" fill="#6a6960">Ethernet / RoCE</text>
<text x="250" y="296" text-anchor="middle" font-size="12" fill="#6a6960">Ethernet / RoCE</text>
<text x="400" y="296" text-anchor="middle" font-size="12" fill="#6a6960">Ethernet / RoCE</text>
<text x="570" y="296" text-anchor="middle" font-size="12" fill="#6a6960">InfiniBand</text>
</svg>
