<svg width="680" viewBox="0 0 680 420" xmlns="http://www.w3.org/2000/svg" style="font-family: -apple-system, BlinkMacSystemFont, 'Segoe UI', sans-serif;">
<defs><marker id="arrow" viewBox="0 0 10 10" refX="8" refY="5" markerWidth="6" markerHeight="6" orient="auto-start-reverse"><path d="M2 1L8 5L2 9" fill="none" stroke="context-stroke" stroke-width="1.5" stroke-linecap="round" stroke-linejoin="round"/></marker></defs>

<rect x="0" y="0" width="680" height="420" rx="12" fill="#141420"/>

<rect x="60" y="30" width="240" height="90" rx="10" fill="#1e1e2e" stroke="#8a8980" stroke-width="0.5"/>
<text x="180" y="54" text-anchor="middle" dominant-baseline="central" font-size="14" font-weight="500" fill="#e0dfd8">Pod A</text>
<rect x="80" y="72" width="80" height="36" rx="6" fill="#0d2820" stroke="#1a9e7a" stroke-width="0.5"/>
<text x="120" y="90" text-anchor="middle" dominant-baseline="central" font-size="14" font-weight="500" fill="#4dd8a8">eth0</text>
<rect x="200" y="72" width="80" height="36" rx="6" fill="#0e1e35" stroke="#3080d0" stroke-width="0.5"/>
<text x="240" y="90" text-anchor="middle" dominant-baseline="central" font-size="14" font-weight="500" fill="#60a8f0">net1</text>

<rect x="380" y="30" width="240" height="90" rx="10" fill="#1e1e2e" stroke="#8a8980" stroke-width="0.5"/>
<text x="500" y="54" text-anchor="middle" dominant-baseline="central" font-size="14" font-weight="500" fill="#e0dfd8">Pod B</text>
<rect x="400" y="72" width="80" height="36" rx="6" fill="#0d2820" stroke="#1a9e7a" stroke-width="0.5"/>
<text x="440" y="90" text-anchor="middle" dominant-baseline="central" font-size="14" font-weight="500" fill="#4dd8a8">eth0</text>
<rect x="520" y="72" width="80" height="36" rx="6" fill="#0e1e35" stroke="#3080d0" stroke-width="0.5"/>
<text x="560" y="90" text-anchor="middle" dominant-baseline="central" font-size="14" font-weight="500" fill="#60a8f0">net1</text>

<text x="120" y="126" text-anchor="middle" font-size="12" fill="#8a8980">Ethernet mgmt</text>
<text x="240" y="126" text-anchor="middle" font-size="12" fill="#8a8980">IPoIB child</text>
<text x="440" y="126" text-anchor="middle" font-size="12" fill="#8a8980">Ethernet mgmt</text>
<text x="560" y="126" text-anchor="middle" font-size="12" fill="#8a8980">IPoIB child</text>

<line x1="240" y1="134" x2="240" y2="164" stroke="#8a8980" stroke-width="1.5" marker-end="url(#arrow)"/>
<line x1="560" y1="134" x2="560" y2="164" stroke="#8a8980" stroke-width="1.5" marker-end="url(#arrow)"/>

<rect x="180" y="164" width="120" height="40" rx="6" fill="#0e1e35" stroke="#3080d0" stroke-width="0.5"/>
<text x="240" y="178" text-anchor="middle" dominant-baseline="central" font-size="14" font-weight="500" fill="#60a8f0">PKEY 0x8001</text>
<text x="240" y="196" text-anchor="middle" dominant-baseline="central" font-size="12" fill="#3080d0">Tenant A</text>

<rect x="500" y="164" width="120" height="40" rx="6" fill="#0e1e35" stroke="#3080d0" stroke-width="0.5"/>
<text x="560" y="178" text-anchor="middle" dominant-baseline="central" font-size="14" font-weight="500" fill="#60a8f0">PKEY 0x8002</text>
<text x="560" y="196" text-anchor="middle" dominant-baseline="central" font-size="12" fill="#3080d0">Tenant B</text>

<line x1="240" y1="204" x2="340" y2="240" stroke="#4a4940" stroke-width="0.5" stroke-dasharray="3 3"/>
<line x1="560" y1="204" x2="460" y2="240" stroke="#4a4940" stroke-width="0.5" stroke-dasharray="3 3"/>

<rect x="240" y="240" width="280" height="56" rx="10" fill="#28200e" stroke="#c07818" stroke-width="0.5"/>
<text x="380" y="260" text-anchor="middle" dominant-baseline="central" font-size="14" font-weight="500" fill="#e0a840">InfiniBand HCA (ib0)</text>
<text x="380" y="280" text-anchor="middle" dominant-baseline="central" font-size="12" fill="#c07818">ConnectX-7, IB link layer</text>

<line x1="380" y1="296" x2="380" y2="332" stroke="#8a8980" stroke-width="1.5" marker-end="url(#arrow)"/>

<rect x="150" y="332" width="460" height="44" rx="8" fill="#1e1e2e" stroke="#8a8980" stroke-width="0.5"/>
<text x="380" y="354" text-anchor="middle" dominant-baseline="central" font-size="14" font-weight="500" fill="#c0bfb8">InfiniBand fabric (lossless, credit-based)</text>

<rect x="455" y="378" width="150" height="32" rx="6" fill="#301812" stroke="#cc5535" stroke-width="0.5"/>
<text x="530" y="394" text-anchor="middle" dominant-baseline="central" font-size="12" fill="#e88060">Subnet Manager</text>

<line x1="530" y1="376" x2="530" y2="358" stroke="#4a4940" stroke-width="0.5" stroke-dasharray="3 2"/>

<text x="200" y="400" text-anchor="middle" font-size="12" fill="#8a8980">ib-kubernetes manages</text>
<text x="200" y="416" text-anchor="middle" font-size="12" fill="#8a8980">PKEY membership via SM</text>
</svg>
