<svg width="680" viewBox="0 0 680 400" xmlns="http://www.w3.org/2000/svg" style="font-family: -apple-system, BlinkMacSystemFont, 'Segoe UI', sans-serif;">
<defs><marker id="arrow" viewBox="0 0 10 10" refX="8" refY="5" markerWidth="6" markerHeight="6" orient="auto-start-reverse"><path d="M2 1L8 5L2 9" fill="none" stroke="context-stroke" stroke-width="1.5" stroke-linecap="round" stroke-linejoin="round"/></marker></defs>

<rect x="0" y="0" width="680" height="400" rx="12" fill="#141420"/>

<rect x="60" y="30" width="240" height="100" rx="12" fill="#1e1e2e" stroke="#8a8980" stroke-width="0.5"/>
<text x="180" y="54" text-anchor="middle" dominant-baseline="central" font-size="14" font-weight="500" fill="#e0dfd8">Pod A</text>
<rect x="80" y="72" width="80" height="44" rx="6" fill="#0d2820" stroke="#1a9e7a" stroke-width="0.5"/>
<text x="120" y="88" text-anchor="middle" dominant-baseline="central" font-size="14" font-weight="500" fill="#4dd8a8">eth0</text>
<text x="120" y="106" text-anchor="middle" dominant-baseline="central" font-size="12" fill="#1a9e7a">10.42.0.5</text>
<rect x="200" y="72" width="80" height="44" rx="6" fill="#0d2820" stroke="#1a9e7a" stroke-width="0.5"/>
<text x="240" y="88" text-anchor="middle" dominant-baseline="central" font-size="14" font-weight="500" fill="#4dd8a8">net1</text>
<text x="240" y="106" text-anchor="middle" dominant-baseline="central" font-size="12" fill="#1a9e7a">@if2</text>

<rect x="380" y="30" width="240" height="100" rx="12" fill="#1e1e2e" stroke="#8a8980" stroke-width="0.5"/>
<text x="500" y="54" text-anchor="middle" dominant-baseline="central" font-size="14" font-weight="500" fill="#e0dfd8">Pod B</text>
<rect x="400" y="72" width="80" height="44" rx="6" fill="#0d2820" stroke="#1a9e7a" stroke-width="0.5"/>
<text x="440" y="88" text-anchor="middle" dominant-baseline="central" font-size="14" font-weight="500" fill="#4dd8a8">eth0</text>
<text x="440" y="106" text-anchor="middle" dominant-baseline="central" font-size="12" fill="#1a9e7a">10.42.0.6</text>
<rect x="520" y="72" width="80" height="44" rx="6" fill="#0d2820" stroke="#1a9e7a" stroke-width="0.5"/>
<text x="560" y="88" text-anchor="middle" dominant-baseline="central" font-size="14" font-weight="500" fill="#4dd8a8">net1</text>
<text x="560" y="106" text-anchor="middle" dominant-baseline="central" font-size="12" fill="#1a9e7a">@if3</text>

<line x1="240" y1="130" x2="240" y2="170" stroke="#8a8980" stroke-width="1.5" marker-end="url(#arrow)"/>
<line x1="560" y1="130" x2="560" y2="170" stroke="#8a8980" stroke-width="1.5" marker-end="url(#arrow)"/>
<text x="276" y="155" font-size="12" fill="#8a8980">sub-interface</text>
<text x="596" y="155" font-size="12" fill="#8a8980">sub-interface</text>

<rect x="120" y="170" width="480" height="40" rx="8" fill="#0d2820" stroke="#1a9e7a" stroke-width="0.5"/>
<text x="360" y="190" text-anchor="middle" dominant-baseline="central" font-size="14" font-weight="500" fill="#4dd8a8">macvlan bridge layer</text>

<line x1="360" y1="210" x2="360" y2="252" stroke="#8a8980" stroke-width="1.5" marker-end="url(#arrow)"/>

<rect x="200" y="252" width="320" height="56" rx="10" fill="#28200e" stroke="#c07818" stroke-width="0.5"/>
<text x="360" y="272" text-anchor="middle" dominant-baseline="central" font-size="14" font-weight="500" fill="#e0a840">ConnectX-7 PF (mlx5_0)</text>
<text x="360" y="292" text-anchor="middle" dominant-baseline="central" font-size="12" fill="#c07818">enp1s0f0np0</text>

<line x1="360" y1="308" x2="360" y2="338" stroke="#8a8980" stroke-width="1.5" marker-end="url(#arrow)"/>

<rect x="150" y="338" width="420" height="44" rx="8" fill="#1e1e2e" stroke="#8a8980" stroke-width="0.5"/>
<text x="360" y="360" text-anchor="middle" dominant-baseline="central" font-size="14" font-weight="500" fill="#c0bfb8">/dev/infiniband/uverbs0 (shared by all pods)</text>
</svg>
