<svg width="680" viewBox="0 0 680 400" xmlns="http://www.w3.org/2000/svg" style="font-family: -apple-system, BlinkMacSystemFont, 'Segoe UI', sans-serif;">
<defs><marker id="arrow" viewBox="0 0 10 10" refX="8" refY="5" markerWidth="6" markerHeight="6" orient="auto-start-reverse"><path d="M2 1L8 5L2 9" fill="none" stroke="context-stroke" stroke-width="1.5" stroke-linecap="round" stroke-linejoin="round"/></marker></defs>

<rect x="0" y="0" width="680" height="400" rx="12" fill="#141420"/>

<rect x="40" y="30" width="180" height="90" rx="10" fill="#1e1e2e" stroke="#8a8980" stroke-width="0.5"/>
<text x="130" y="54" text-anchor="middle" dominant-baseline="central" font-size="14" font-weight="500" fill="#e0dfd8">Pod A</text>
<rect x="60" y="72" width="140" height="36" rx="6" fill="#1a1930" stroke="#7b70e0" stroke-width="0.5"/>
<text x="130" y="90" text-anchor="middle" dominant-baseline="central" font-size="14" font-weight="500" fill="#a99ef5">net1 (VF0)</text>

<rect x="250" y="30" width="180" height="90" rx="10" fill="#1e1e2e" stroke="#8a8980" stroke-width="0.5"/>
<text x="340" y="54" text-anchor="middle" dominant-baseline="central" font-size="14" font-weight="500" fill="#e0dfd8">Pod B</text>
<rect x="270" y="72" width="140" height="36" rx="6" fill="#1a1930" stroke="#7b70e0" stroke-width="0.5"/>
<text x="340" y="90" text-anchor="middle" dominant-baseline="central" font-size="14" font-weight="500" fill="#a99ef5">net1 (VF1)</text>

<rect x="460" y="30" width="180" height="90" rx="10" fill="#1e1e2e" stroke="#8a8980" stroke-width="0.5"/>
<text x="550" y="54" text-anchor="middle" dominant-baseline="central" font-size="14" font-weight="500" fill="#e0dfd8">Pod C</text>
<rect x="480" y="72" width="140" height="36" rx="6" fill="#1a1930" stroke="#7b70e0" stroke-width="0.5"/>
<text x="550" y="90" text-anchor="middle" dominant-baseline="central" font-size="14" font-weight="500" fill="#a99ef5">net1 (VF2)</text>

<line x1="130" y1="120" x2="130" y2="168" stroke="#8a8980" stroke-width="1.5" marker-end="url(#arrow)"/>
<line x1="340" y1="120" x2="340" y2="168" stroke="#8a8980" stroke-width="1.5" marker-end="url(#arrow)"/>
<line x1="550" y1="120" x2="550" y2="168" stroke="#8a8980" stroke-width="1.5" marker-end="url(#arrow)"/>

<rect x="70" y="168" width="120" height="56" rx="8" fill="#1a1930" stroke="#7b70e0" stroke-width="0.5"/>
<text x="130" y="188" text-anchor="middle" dominant-baseline="central" font-size="14" font-weight="500" fill="#a99ef5">VF0</text>
<text x="130" y="210" text-anchor="middle" dominant-baseline="central" font-size="12" fill="#7b70e0">mlx5_2</text>

<rect x="280" y="168" width="120" height="56" rx="8" fill="#1a1930" stroke="#7b70e0" stroke-width="0.5"/>
<text x="340" y="188" text-anchor="middle" dominant-baseline="central" font-size="14" font-weight="500" fill="#a99ef5">VF1</text>
<text x="340" y="210" text-anchor="middle" dominant-baseline="central" font-size="12" fill="#7b70e0">mlx5_3</text>

<rect x="490" y="168" width="120" height="56" rx="8" fill="#1a1930" stroke="#7b70e0" stroke-width="0.5"/>
<text x="550" y="188" text-anchor="middle" dominant-baseline="central" font-size="14" font-weight="500" fill="#a99ef5">VF2</text>
<text x="550" y="210" text-anchor="middle" dominant-baseline="central" font-size="12" fill="#7b70e0">mlx5_4</text>

<text x="130" y="242" text-anchor="middle" font-size="12" fill="#6a6960">01:00.2</text>
<text x="340" y="242" text-anchor="middle" font-size="12" fill="#6a6960">01:00.3</text>
<text x="550" y="242" text-anchor="middle" font-size="12" fill="#6a6960">01:00.4</text>

<line x1="130" y1="252" x2="270" y2="292" stroke="#4a4940" stroke-width="0.5" stroke-dasharray="3 3"/>
<line x1="340" y1="252" x2="340" y2="292" stroke="#4a4940" stroke-width="0.5" stroke-dasharray="3 3"/>
<line x1="550" y1="252" x2="410" y2="292" stroke="#4a4940" stroke-width="0.5" stroke-dasharray="3 3"/>

<rect x="200" y="292" width="280" height="56" rx="10" fill="#28200e" stroke="#c07818" stroke-width="0.5"/>
<text x="340" y="312" text-anchor="middle" dominant-baseline="central" font-size="14" font-weight="500" fill="#e0a840">ConnectX-7 PF (mlx5_0)</text>
<text x="340" y="332" text-anchor="middle" dominant-baseline="central" font-size="12" fill="#c07818">01:00.0 — manages VFs, handles switching</text>

<text x="340" y="376" text-anchor="middle" font-size="12" fill="#8a8980">Each VF is a separate PCIe function with dedicated RDMA resources</text>
<text x="340" y="394" text-anchor="middle" font-size="12" fill="#6a6960">Hardware isolation — VF count limited by firmware (typ. 8-127)</text>
</svg>
